<?xml version="1.0" encoding="utf-8"?>
<!-- Generator: Adobe Illustrator 22.1.0, SVG Export Plug-In . SVG Version: 6.00 Build 0)  -->
<svg version="1.1" id="Livello_1" xmlns="http://www.w3.org/2000/svg" xmlns:xlink="http://www.w3.org/1999/xlink" x="0px" y="0px"
	 viewBox="0 0 24 24" style="enable-background:new 0 0 24 24;" xml:space="preserve">
<style type="text/css">
	.st0{fill:#10A1B4;}
</style>
<title>calendar</title>
<path class="st0" d="M18.9,5.6c-0.1,0-0.1,0-0.2,0l0,0c0-0.9-0.7-1.7-1.7-1.7s-1.7,0.7-1.7,1.7l0,0H8.6c0-0.9-0.7-1.7-1.7-1.7
	S5.3,4.7,5.3,5.6l0,0c-0.1,0-0.1,0-0.2,0c-1.2,0-2.2,0.9-2.2,2.1V18c0,1.2,1,2.1,2.2,2.1h13.8c1.2,0,2.2-0.9,2.2-2.1V7.7
	C21.1,6.6,20.1,5.6,18.9,5.6z M16.9,5.6c0-0.1,0.1-0.1,0.1-0.1c0.1,0,0.1,0.1,0.1,0.1v0.9c0,0.1-0.1,0.1-0.1,0.1
	c-0.1,0-0.1-0.1-0.1-0.1V5.6z M6.8,5.6C6.8,5.5,6.9,5.5,6.8,5.6H7v0.9c0,0.1-0.1,0.1-0.1,0.1s-0.1,0-0.1-0.1V5.6z M5.1,7.2
	c0.1,0,0.2,0,0.3-0.1c0.2,0.6,0.8,1.1,1.5,1.1s1.3-0.4,1.5-1h7.1c0.3,0.6,0.8,1,1.5,1s1.3-0.4,1.5-1.1c0.1,0,0.2,0.1,0.3,0.1
	c0.3,0,0.6,0.3,0.6,0.6v0.9h-15v-1C4.5,7.4,4.8,7.2,5.1,7.2z M18.9,18.5H5.1c-0.3,0-0.6-0.3-0.6-0.6v-7.8h15V18
	C19.5,18.3,19.2,18.5,18.9,18.5z"/>
<path class="st0" d="M8,11.6H6c-0.4,0-0.8,0.3-0.8,0.8c0,0.4,0.3,0.8,0.8,0.8h2c0.4,0,0.8-0.3,0.8-0.8S8.5,11.6,8,11.6z"/>
<path class="st0" d="M13,11.6h-2c-0.4,0-0.8,0.3-0.8,0.8c0,0.4,0.3,0.8,0.8,0.8h2c0.4,0,0.8-0.3,0.8-0.8S13.4,11.6,13,11.6z"/>
<path class="st0" d="M17.9,11.6h-2c-0.4,0-0.8,0.3-0.8,0.8c0,0.4,0.3,0.8,0.8,0.8h2c0.4,0,0.8-0.3,0.8-0.8S18.4,11.6,17.9,11.6z"/>
<path class="st0" d="M8,14.5H6c-0.4,0-0.8,0.3-0.8,0.8c0,0.4,0.3,0.8,0.8,0.8h2c0.4,0,0.8-0.3,0.8-0.8C8.8,14.9,8.5,14.5,8,14.5z"/>
<path class="st0" d="M13,14.5h-2c-0.4,0-0.8,0.3-0.8,0.8c0,0.4,0.3,0.8,0.8,0.8h2c0.4,0,0.8-0.3,0.8-0.8
	C13.8,14.9,13.4,14.5,13,14.5z"/>
<path class="st0" d="M17.9,14.5h-2c-0.4,0-0.8,0.3-0.8,0.8c0,0.4,0.3,0.8,0.8,0.8h2c0.4,0,0.8-0.3,0.8-0.8
	C18.7,14.9,18.4,14.5,17.9,14.5z"/>
</svg>
