<?xml version="1.0" encoding="utf-8"?>
<!-- Generator: Adobe Illustrator 22.1.0, SVG Export Plug-In . SVG Version: 6.00 Build 0)  -->
<svg version="1.1" id="Livello_1" xmlns="http://www.w3.org/2000/svg" xmlns:xlink="http://www.w3.org/1999/xlink" x="0px" y="0px"
	 viewBox="0 0 423 110.8" style="enable-background:new 0 0 423 110.8;" xml:space="preserve">
<style type="text/css">
	.st0{fill:#FFFFFF;}
</style>
<path class="st0" d="M197.8,15.2c-2.7,0.9-3.8,2.5-3.8,5.5c0.2,15.2,0.1,30.4,0.1,45.7v3.5c-0.2,4-2.4,6.4-5.6,6.4
	c-3.5,0-6.1-2.5-6.1-6.5c-0.1-18.4-0.1-36.6,0.1-55c0.1-2.1,1.2-4,2.8-5.2c12.7-8,26.2-9.9,40.5-4.5c2.7,1,4.9,3.2,7.7,5.1
	c6.4-5.3,14.6-8.1,22.9-8c17.3,0.1,26.8,7.9,27.5,24.3c0.6,14.6,0.3,29.1,0.2,43.7c0,3.9-2.6,6.2-6,6.1c-3.2-0.1-5.8-2.7-5.7-6l0,0
	c-0.2-10.7-0.1-21.3-0.1-32c0-3.2,0.1-6.2-0.1-9.3c-0.8-13-9.3-18.9-22.6-15.5c-2.5,0.7-4.9,1.8-7,3.3c-2.4,1.3-3.9,4-3.6,6.8
	c0.2,15.5,0.1,30.9,0.1,46.4c0,3.9-2.4,6.3-5.7,6.3s-5.8-2.4-6-6.1c-0.1-1,0-2.1,0-3.2V31.5c0-1.4,0-2.9-0.1-4.2
	c-1-9.7-6.9-14.8-17.1-14.4C206,13,201.8,13.7,197.8,15.2"/>
<path class="st0" d="M103.6,18.7c1-9.6,7.8-15.6,17.8-16.4c5.6-0.3,11.2-0.1,16.7,0.8c4.2,0.5,6.2,3.3,5.6,6.3s-3.6,4.6-7.7,4.2
	c-3.6-0.5-7.3-0.8-11-0.8c-6.4,0.3-9.9,3.4-10,9.6c-0.3,9-0.2,17.9-0.3,26.9v19.3c0,4.8-2.1,7.5-5.8,7.6c-3.9,0.1-6.2-2.6-6.2-7.5
	V45.9C103,46,102.7,27.7,103.6,18.7"/>
<path class="st0" d="M166.3,39.5v29.6c0,4.5-2.2,7.1-5.7,7.1c-3.8,0-6-2.6-6-7.3V28.2c0-4.9,2-7.4,5.7-7.4c4-0.1,6,2.4,6,7.6V39.5"
	/>
<path class="st0" d="M391,26v14.8c0,2.8-1.4,4.4-3.5,4.4c-2.4,0-3.8-1.6-3.8-4.5V18.8c0-3.1,1.3-4.6,3.6-4.7s3.7,1.5,3.7,4.8
	C391,25,391,20,391,26"/>
<path class="st0" d="M391.8,6.3c0,2.5-2,4.5-4.5,4.5s-4.5-2-4.5-4.5c0.1-2.4,2-4.3,4.4-4.2c0.1,0,0.1,0,0.2,0
	C389.8,2.1,391.7,3.9,391.8,6.3L391.8,6.3"/>
<path class="st0" d="M375,40.7c-0.1,2.6-2.2,4.7-4.8,4.8c-2.6,0-4.8-2.2-4.8-4.8c0.2-2.7,2.5-4.7,5.1-4.5
	C372.9,36.4,374.8,38.3,375,40.7"/>
<path class="st0" d="M160.3,14.8c-3.4-0.1-6.1-2.8-6.3-6.2c0-3.5,2.8-6.3,6.2-6.3c0.1,0,0.2,0,0.3,0c3.5-0.1,6.5,2.7,6.6,6.2v0.1
	C166.7,12.1,163.8,14.8,160.3,14.8"/>
<path class="st0" d="M419.6,39.2c-0.5-1.5-1.4-2.4-2.9-2.4c-0.4,0-0.9,0.1-1.3,0.2c-0.5,0.2-1,0.4-1.5,0.5c-0.7,0.3-1.5,0.5-2.3,0.7
	c-0.6,0.2-1.3,0.2-1.9,0.2c-3.3,0-5.2-2.4-5.3-7V21.1c0-0.5,0-0.9,0.1-1.4c0-0.2,0-0.4,0.1-0.6h10c1,0.1,2-0.2,2.8-0.9
	c0.7-0.7,1-1.6,1-2.5c0-2.2-1.4-3.3-3.9-3.3h-10.1V6c-0.1-2.4-1.4-3.9-3.2-3.9H401c-1.8,0.1-3,1.7-3,4v8.1c0,7.7-0.1,8.1,0.1,17.6
	c0.1,7.1,2.9,11.5,8,12.9c1.3,0.4,2.7,0.5,4.1,0.5c2.5,0,5-0.6,7.3-1.6C419.4,42.9,420.1,41.3,419.6,39.2"/>
<path class="st0" d="M88,24.1C86.1,12.4,78,5,65.5,2.9c-5.8-1-11.8-1-17.6,0.2l0,0c-2.5,0.4-4.4,2.6-4.4,5.1c0.1,3,2.5,5.4,5.5,5.4
	c0.4,0,0.8-0.1,1.2-0.2l0,0c4-1,8.1-1.1,12.1-0.5c9.4,1.6,14.1,6.6,15.1,17.6c0.5,7.1,0.4,14.2-0.5,21.3c-1,8.7-6.9,13.6-16.1,14.3
	c-7,0.5-13.9-0.7-20.3-3.5c-2-0.8-2.8-1.9-2.7-4.1c0.2-6.3,0.1-12.7,0.1-19.1c0-5.2-0.1-10.3,0-15.5v-9c-0.1-3.2-2.7-5.7-5.9-5.7
	c-0.9,0-1.8,0.2-2.7,0.5l0,0c-6.8,3-11.7,5.5-22.8,11.4c-4.2,2.4-5.3,5.6-3.4,8.9c1.8,3.1,5.1,3.6,9,1.4c4.5-2.4,9.2-4.8,13.9-7.1
	c0.1,24.1,0,54.9,0.1,78.2v0.4l0,0c0.2,3.1,2.8,5.4,5.9,5.3c3.1,0.1,5.6-2.3,5.9-5.3l0,0V73.5c6.5,1.2,12.5,2.8,18.5,3.3
	c16.7,1.4,30-7.6,32.4-23.3C89.9,43.7,89.6,33.8,88,24.1"/>
<path class="st0" d="M357.5,24.2c-0.4-10.5-6.6-17.9-16.9-20.6c-11.7-3-23.1-1.5-34.1,2.8c-3.6,1.4-5,4.3-3.9,7.1
	c1.1,2.6,4.2,3.6,8,2.5c6.6-2,13.5-3.1,20.4-3.3c8.6,0.1,13.5,4.2,14.6,11.8c0.2,1.4,0.3,2.8,0.2,4.2l0,0l0.1,14.8v0.2l0,0v0.7l0,0
	c0,5.3,0.2,10.2-0.1,15.1c-0.2,1.6-1.1,3-2.4,3.9c-8.3,4.1-17.8,4.9-26.6,2c-5.8-1.8-8.7-6.1-8.6-11.9c0-5.2,3.2-9.3,9-11.3
	c5.4-1.7,11.1-2,16.7-0.9l0,0c0.3,0.1,0.5,0.1,0.8,0.1c2.6,0,4.7-2.1,4.7-4.7l0,0c0-2.3-1.6-4.2-3.8-4.6c-7.3-1.1-14.6-1.3-22,0.8
	c-10.9,3.1-17.2,10.6-17.2,20.6c0,10.9,6,19.3,17.1,22.1c14.3,3.5,27.9,1.3,40.7-5.7c1.5-0.9,3.2-3.3,3.2-4.9
	C357.8,51.2,357.9,37.6,357.5,24.2"/>
</svg>
