<?xml version="1.0" standalone="no"?>
<!DOCTYPE svg PUBLIC "-//W3C//DTD SVG 1.1//EN" "http://www.w3.org/Graphics/SVG/1.1/DTD/svg11.dtd" >
<svg xmlns="http://www.w3.org/2000/svg">
<metadata>Generated by IcoMoon</metadata>
<defs>
<font id="icomoon" horiz-adv-x="1024">
<font-face units-per-em="1024" ascent="960" descent="-64" />
<missing-glyph horiz-adv-x="1024" />
<glyph unicode="&#x20;" horiz-adv-x="512" d="" />
<glyph unicode="&#xe8f4;" glyph-name="attention" d="M527.223 113.017c-121.337 0-237.441 11.417-345.934 34.261l-16.174 3.33c-6.66 1.427-12.369 5.709-15.699 11.417-3.33 6.184-3.806 13.32-1.903 19.504 2.379 6.66 4.757 13.32 7.136 19.504v0.476c19.029 50.911 40.446 102.309 63.766 152.744 79.464 173.2 174.627 325.944 274.557 442.049 4.281 5.233 10.941 8.087 18.077 8.087s13.32-2.854 18.077-8.087c99.92-116.104 194.617-269.324 274.081-442.049 23.32-50.436 44.727-101.833 63.766-152.744 3.33-8.563 6.66-17.601 9.514-26.174 2.379-6.66 1.903-13.796-1.903-19.504-3.33-6.184-9.039-10.466-16.174-11.417-7.136-1.427-14.271-2.854-21.417-4.281-97.541-18.077-202.229-27.126-309.77-27.126zM201.754 191.054c101.833-20.466 211.267-30.931 324.993-30.931 102.309 0 201.753 8.563 295.013 25.223-18.553 49.484-39.494 99.92-62.339 148.939-72.804 158.453-158.453 299.294-248.859 409.214-90.406-109.92-176.054-250.761-248.859-409.214-21.417-47.106-41.873-95.163-59.95-143.23zM512 357.119c-13.32 0-23.796 10.466-23.796 23.796v182.249c0 13.32 10.466 23.796 23.796 23.796s23.796-10.466 23.796-23.796v-182.249c0-13.32-10.466-23.796-23.796-23.796zM512 248.626c-13.32 0-23.796 10.466-23.796 23.796v10.466c0 13.32 10.466 23.796 23.796 23.796s23.796-10.466 23.796-23.796v-10.466c0-13.32-10.466-23.796-23.796-23.796z" />
<glyph unicode="&#xe900;" glyph-name="arrows-bottom" d="M512 53.486c-217.439 0-394.514 177.076-394.514 394.514s177.076 394.514 394.514 394.514c217.439 0 394.514-177.076 394.514-394.514s-177.076-394.514-394.514-394.514zM512 796.643c-192.214 0-348.643-156.429-348.643-348.643s156.429-348.643 348.643-348.643c192.214 0 348.643 156.429 348.643 348.643s-156.429 348.643-348.643 348.643zM512 301.201c-5.964 0-11.929 2.299-16.060 6.886l-172.023 172.023c-9.174 9.174-9.174 23.391 0 32.566s23.391 9.174 32.566 0l155.973-155.973 155.973 155.973c9.174 9.174 23.391 9.174 32.566 0s9.174-23.391 0-32.566l-172.023-172.023c-5.043-4.587-11.007-6.886-16.971-6.886z" />
<glyph unicode="&#xe901;" glyph-name="arrows-left" d="M512 53.486c-217.439 0-394.514 177.076-394.514 394.514s177.076 394.514 394.514 394.514c217.439 0 394.514-177.076 394.514-394.514s-177.076-394.514-394.514-394.514zM512 796.643c-192.214 0-348.643-156.429-348.643-348.643s156.429-348.643 348.643-348.643c192.214 0 348.643 156.429 348.643 348.643s-156.429 348.643-348.643 348.643zM584.483 253.031c-5.964 0-11.929 2.299-16.060 6.886l-172.023 172.023c-9.174 9.174-9.174 23.391 0 32.566l171.567 171.567c9.174 9.174 23.391 9.174 32.566 0s9.174-23.391 0-32.566l-155.973-155.973 155.973-155.973c9.174-9.174 9.174-23.391 0-32.566-4.587-3.666-10.551-5.964-16.060-5.964z" />
<glyph unicode="&#xe902;" glyph-name="arrows-right" d="M512 53.486c-217.439 0-394.514 177.076-394.514 394.514s177.076 394.514 394.514 394.514c217.439 0 394.514-177.076 394.514-394.514s-177.076-394.514-394.514-394.514zM512 796.643c-192.214 0-348.643-156.429-348.643-348.643s156.429-348.643 348.643-348.643c192.214 0 348.643 156.429 348.643 348.643s-156.429 348.643-348.643 348.643zM439.517 253.031c-5.964 0-11.929 2.299-16.060 6.886-9.174 9.174-9.174 23.391 0 32.566l155.973 155.973-155.973 155.973c-9.174 9.174-9.174 23.391 0 32.566s23.391 9.174 32.566 0l172.023-172.023c9.174-9.174 9.174-23.391 0-32.566l-172.023-172.489c-4.587-4.587-10.551-6.886-16.516-6.886z" />
<glyph unicode="&#xe903;" glyph-name="arrows-up" d="M512 53.486c-217.439 0-394.514 177.076-394.514 394.514s177.076 394.514 394.514 394.514c217.439 0 394.514-177.076 394.514-394.514s-177.076-394.514-394.514-394.514zM512 796.643c-192.214 0-348.643-156.429-348.643-348.643s156.429-348.643 348.643-348.643c192.214 0 348.643 156.429 348.643 348.643s-156.429 348.643-348.643 348.643zM684.023 338.82c-5.964 0-11.929 2.299-16.060 6.886l-155.973 155.973-155.973-155.973c-9.174-9.174-23.391-9.174-32.566 0s-9.174 23.391 0 32.566l172.023 172.023c9.174 9.174 23.391 9.174 32.566 0l172.023-172.023c9.174-9.174 9.174-23.391 0-32.566-4.131-4.587-10.096-6.886-16.060-6.886z" />
<glyph unicode="&#xe904;" glyph-name="art" d="M965.819 922.76c0 1.749 0 2.91-0.581 4.651 0 0 0 0 0 0.581 0 1.16-0.581 2.91-1.16 4.070 0 0.581 0 0.581-0.581 1.16-1.16 2.91-2.33 5.82-4.070 8.149 0 0-0.581 0.581-0.581 0.581-1.749 2.33-4.070 4.651-6.4 6.981-0.581 0-0.581 0.581-1.16 0.581s-0.581 0.581-1.16 0.581-1.749 1.16-2.33 1.16c0 0 0 0-0.581 0 0 0 0 0 0 0-1.16 0.581-2.91 1.749-4.070 2.33-0.581 0-0.581 0-1.16 0.581-1.16 0.581-2.33 1.16-4.070 1.16 0 0-0.581 0-0.581 0-1.749 0.581-2.91 0.581-4.651 0.581-0.581 0-0.581 0-1.16 0-1.16 0-2.33 0-3.49 0-0.581 0-0.581 0-1.16 0-1.16 0-2.91 0-4.070-0.581-0.581 0-0.581 0-1.16 0-1.16 0-2.33-0.581-3.49-1.16 0 0-0.581 0-0.581 0-1.16-0.581-2.91-1.16-4.070-1.749 0 0-0.581 0-0.581-0.581-1.16-0.581-2.33-1.16-3.49-2.33 0 0 0 0-0.581 0l-0.581-0.581c0 0 0 0 0 0l-837.819-610.909c-11.051-8.149-16.29-21.529-13.96-34.329 2.33-13.38 12.22-23.85 25.020-27.35l309.529-84.361v-225.16c0-13.38 8.149-26.18 20.361-31.42 4.651-2.33 9.89-3.49 14.549-3.49 8.149 0 16.29 2.91 22.69 8.149l210.039 178.619 160.58-43.64c2.91-0.581 6.4-1.16 9.309-1.16 6.981 0 13.38 1.749 19.2 5.82 8.149 5.82 13.96 14.549 15.13 24.439l102.98 812.799c0 1.749 0 3.49 0 4.651 0 0.581 0 0.581 0 1.16zM413.67 258.91l-242.039 65.749 604.509 440.439-362.47-506.179zM463.13 42.471v130.329l115.78-31.42-115.78-98.909zM801.16 153.020l-139.639 37.819c0 0 0 0 0 0l-175.71 47.71 393.89 550.4-78.549-635.929z" />
<glyph unicode="&#xe905;" glyph-name="attach" d="M792.067 165.585c-88.52-88.52-231.829-88.52-320.349 0l-287.559 287.559c-61.824 61.824-61.824 162.513 0 224.803s162.513 61.824 224.803 0l287.093-287.093c35.594-35.594 35.594-93.197 0-128.791s-93.197-35.594-128.791 0l-167.666 167.2c-9.364 9.364-9.364 23.881 0 33.256s23.881 9.364 33.256 0l167.666-167.666c17.331-17.331 45.424-17.331 62.756 0s17.331 45.424 0 62.756l-287.559 287.093c-43.551 43.551-114.74 43.551-158.301 0s-43.551-114.74 0-158.301l287.093-287.093c70.247-70.247 184.056-70.247 254.313 0s70.247 184.056 0 254.313l-310.983 310.983c-9.364 9.364-9.364 23.881 0 33.256s23.881 9.364 33.256 0l310.983-310.983c88.044-88.986 88.044-232.77 0-321.28z" />
<glyph unicode="&#xe907;" glyph-name="car" d="M922.109 282.095h-33.77c-13.704 0-24.47 10.766-24.47 24.47s10.766 24.47 24.47 24.47h33.77c14.683 0 26.429 12.725 26.429 28.873v61.17c0 13.704-8.807 25.449-21.531 28.387l-222.178 46.001c-17.622 3.424-33.277 13.704-44.042 27.894l-89.558 117.451c-4.897 6.362-12.231 10.28-20.066 10.28h-306.847c-7.342 0-14.19-3.424-19.573-9.301l-143.386-170.794c-6.362-7.342-8.321-18.107-5.877-27.894l25.449-91.517c3.424-12.231 13.704-20.552 24.955-20.552h87.599c13.704 0 24.47-10.766 24.47-24.47s-10.766-24.47-24.47-24.47h-86.619c-33.277 0-63.129 23.005-72.43 56.281l-25.449 91.517c-7.342 25.449-1.465 52.363 15.663 72.43l143.386 170.794c14.19 17.128 34.75 26.914 56.767 26.914h306.353c23.005 0 44.536-10.766 59.219-29.367l89.558-117.451c3.918-4.897 9.301-8.321 15.169-9.786l222.178-46.001c34.75-7.342 60.191-39.153 60.191-75.854v-61.17c0-43.557-33.77-78.298-75.368-78.298zM309.394 193.517c-62.15 0-113.048 50.898-113.048 113.048s50.898 113.048 113.048 113.048 113.048-50.898 113.048-113.048-50.405-113.048-113.048-113.048zM309.394 370.187c-35.235 0-64.109-28.873-64.109-64.109s28.873-63.623 64.109-63.623 64.109 28.873 64.109 64.109-28.873 63.623-64.109 63.623zM795.842 193.517c-62.15 0-113.048 50.898-113.048 113.048s50.898 113.048 113.048 113.048 113.048-50.898 113.048-113.048-50.405-113.048-113.048-113.048zM795.842 370.187c-35.235 0-64.109-28.873-64.109-64.109s28.873-63.623 64.109-63.623 64.109 28.873 64.109 64.109-28.873 63.623-64.109 63.623zM707.758 282.095h-309.785c-13.704 0-24.47 10.766-24.47 24.47s10.766 24.47 24.47 24.47h309.785c13.704 0 24.47-10.766 24.47-24.47s-11.259-24.47-24.47-24.47zM575.129 503.302h-353.827c-13.704 0-24.47 10.766-24.47 24.47s10.766 24.47 24.47 24.47h353.827c13.704 0 24.47-10.766 24.47-24.47s-11.259-24.47-24.47-24.47z" />
<glyph unicode="&#xe908;" glyph-name="business" d="M427.834 307.876c-61.211 0-122.423 23.43-169.293 69.824-93.254 93.254-93.254 244.856 0 338.11 44.957 44.957 105.207 69.824 169.293 69.824s123.86-24.867 169.293-69.824c93.254-93.254 93.254-244.856 0-338.11-46.87-46.87-108.081-69.824-169.293-69.824zM427.834 737.813c-51.171 0-98.993-20.090-135.337-55.949-74.601-74.601-74.601-196.073 0-270.674s196.073-74.601 270.674 0c74.601 74.601 74.601 196.073 0 270.674-35.869 36.344-84.166 55.949-135.337 55.949zM811.377 139.544c-6.214 0-12.439 2.389-16.74 7.176l-230.99 230.99c-9.564 9.564-9.564 24.391 0 33.956s24.391 9.564 33.956 0l230.99-230.99c9.564-9.564 9.564-24.391 0-33.956-5.263-4.787-11.477-7.176-17.216-7.176zM675.554 105.589c-6.214 0-12.439 2.389-16.74 7.176-9.564 9.564-9.564 24.391 0 33.956l84.651 84.651c9.564 9.564 24.391 9.564 33.956 0s9.564-24.391 0-33.956l-84.651-84.651c-4.787-4.787-11.001-7.176-17.216-7.176zM582.3 194.541c-6.214 0-12.439 2.389-16.74 7.176-9.564 9.564-9.564 24.391 0 33.956l86.564 86.564c9.564 9.564 24.391 9.564 33.956 0s9.564-24.391 0-33.956l-86.564-86.564c-4.787-4.787-11.001-7.176-17.216-7.176z" />
<glyph unicode="&#xe909;" glyph-name="canc" d="M515.22 57.143c-12.88 0-22.996 10.116-22.996 22.996s10.116 22.996 22.996 22.996c0.921 0 102.079 1.377 167.836 66.679 48.746 48.746 66.679 309.010 66.679 462.133 0 12.88 10.116 22.996 22.996 22.996s22.996-10.116 22.996-22.996c0-0.921 0-103.466-9.194-213.361-12.88-154.044-35.866-246.007-70.81-280.961-80.014-79.549-195.884-80.47-200.491-80.47zM515.22 57.143c-5.063 0-120.933 0.921-200.026 80.47-34.944 34.944-58.396 126.917-70.81 280.961-9.194 109.896-9.194 212.44-9.194 213.361 0 12.88 10.116 22.996 22.996 22.996s22.996-10.116 22.996-22.996c0-152.667 18.389-413.387 66.679-462.133 65.757-65.757 166.914-66.679 167.836-66.679 12.88 0 22.996-10.571 22.996-22.996-0.456-12.88-11.037-22.996-23.451-22.996zM625.581 719.301c-8.273 0-16.556 4.597-20.697 12.88-0.456 0.456-31.724 60.694-89.664 60.694s-89.664-60.239-89.664-61.16c-5.974-11.493-19.776-15.634-30.813-10.116-11.493 5.519-16.090 19.31-10.116 30.813 1.843 3.676 44.149 86.444 131.049 86.444s129.216-82.769 131.049-86.444c5.519-11.493 0.921-25.294-10.116-30.813-4.141-1.377-7.817-2.299-11.037-2.299zM404.859 204.291c-8.273 0-16.556 4.597-20.697 12.88-48.746 97.481-39.541 297.051-39.086 305.79 0.456 12.88 11.493 22.53 23.907 22.074 12.88-0.456 22.53-11.493 22.074-23.907 0-1.843-8.739-196.35 34.489-282.794 5.519-11.493 0.921-25.294-10.116-30.813-3.676-2.299-7.361-3.22-10.571-3.22zM625.581 204.291c-3.676 0-6.896 0.921-10.116 2.299-11.493 5.519-16.090 19.31-10.116 30.813 43.227 86.444 34.489 280.961 34.489 282.794-0.456 12.88 9.194 23.451 22.074 23.907s23.451-9.194 23.907-22.074c0.456-8.273 9.66-208.309-39.086-305.79-4.597-7.361-12.88-11.959-21.153-11.959zM515.22 167.504c-12.88 0-22.996 10.116-22.996 22.996v331.074c0 12.88 10.116 22.996 22.996 22.996s22.996-10.116 22.996-22.996v-331.074c0-12.88-10.571-22.996-22.996-22.996zM846.294 608.94c-1.843 0-3.676 0-5.519 0.456-1.377 0.456-146.683 36.331-325.566 36.331s-324.179-35.866-325.566-36.331c-12.414-3.22-24.829 4.597-28.049 16.556-3.22 12.414 4.597 24.829 16.556 28.049 5.974 1.377 152.201 37.243 336.593 37.243 184.857 0 330.619-35.866 336.593-37.243 12.414-3.22 19.776-15.634 16.556-28.049-1.843-10.116-11.493-17.011-21.609-17.011z" />
<glyph unicode="&#xe90a;" glyph-name="circle-check" d="M512 53.486c-217.439 0-394.514 177.076-394.514 394.514s177.076 394.514 394.514 394.514c217.439 0 394.514-177.076 394.514-394.514s-177.076-394.514-394.514-394.514zM512 796.643c-192.214 0-348.643-156.429-348.643-348.643s156.429-348.643 348.643-348.643c192.214 0 348.643 156.429 348.643 348.643s-156.429 348.643-348.643 348.643zM419.336 301.201c-0.921 0-1.377 0-2.299 0-6.42 0.456-12.384 4.131-16.060 9.174l-92.664 123.863c-7.797 10.096-5.509 24.313 4.587 32.11s24.313 5.509 32.11-4.587l77.981-104.137 260.1 231.2c9.63 8.253 23.857 7.341 32.566-1.833 8.253-9.63 7.341-23.857-1.833-32.566l-278.914-247.716c-4.587-3.666-10.096-5.509-15.594-5.509z" />
<glyph unicode="&#xe90b;" glyph-name="circle-less" d="M512 53.486c-217.439 0-394.514 177.076-394.514 394.514s177.076 394.514 394.514 394.514c217.439 0 394.514-177.076 394.514-394.514s-177.076-394.514-394.514-394.514zM512 796.643c-192.214 0-348.643-156.429-348.643-348.643s156.429-348.643 348.643-348.643c192.214 0 348.643 156.429 348.643 348.643s-156.429 348.643-348.643 348.643zM718.431 425.064h-412.863c-12.84 0-22.936 10.096-22.936 22.936s10.096 22.936 22.936 22.936h412.863c12.84 0 22.936-10.096 22.936-22.936s-10.096-22.936-22.936-22.936z" />
<glyph unicode="&#xe90c;" glyph-name="circle-list" d="M678.98 551.216h-247.716c-12.84 0-22.936 10.096-22.936 22.936s10.096 22.936 22.936 22.936h247.716c12.84 0 22.936-10.096 22.936-22.936s-10.551-22.936-22.936-22.936zM678.98 427.353h-247.716c-12.84 0-22.936 10.096-22.936 22.936s10.096 22.936 22.936 22.936h247.716c12.84 0 22.936-10.096 22.936-22.936s-10.551-22.936-22.936-22.936zM678.98 303.5h-247.716c-12.84 0-22.936 10.096-22.936 22.936s10.096 22.936 22.936 22.936h247.716c12.84 0 22.936-10.096 22.936-22.936s-10.551-22.936-22.936-22.936zM351.896 551.216h-6.42c-12.84 0-22.936 10.096-22.936 22.936s10.096 22.936 22.936 22.936h6.42c12.84 0 22.936-10.096 22.936-22.936s-10.551-22.936-22.936-22.936zM355.116 427.353h-6.42c-12.84 0-22.936 10.096-22.936 22.936s10.096 22.936 22.936 22.936h6.42c12.84 0 22.936-10.096 22.936-22.936s-10.551-22.936-22.936-22.936zM355.116 303.5h-6.42c-12.84 0-22.936 10.096-22.936 22.936s10.096 22.936 22.936 22.936h6.42c12.84 0 22.936-10.096 22.936-22.936s-10.551-22.936-22.936-22.936zM512 53.486c-217.439 0-394.514 177.076-394.514 394.514s177.076 394.514 394.514 394.514c217.439 0 394.514-177.076 394.514-394.514s-177.076-394.514-394.514-394.514zM512 796.643c-192.214 0-348.643-156.429-348.643-348.643s156.429-348.643 348.643-348.643c192.214 0 348.643 156.429 348.643 348.643s-156.429 348.643-348.643 348.643z" />
<glyph unicode="&#xe90d;" glyph-name="danger" d="M512 5.486c-243.896 0-442.514 198.622-442.514 442.514s198.622 442.514 442.514 442.514c243.896 0 442.514-198.622 442.514-442.514s-198.622-442.514-442.514-442.514zM512 839.063c-215.599 0-391.063-175.461-391.063-391.063s175.461-391.063 391.063-391.063c215.599 0 391.063 175.461 391.063 391.063s-175.461 391.063-391.063 391.063zM512 398.091c-14.403 0-25.726 11.323-25.726 25.726v220.225c0 14.403 11.323 25.726 25.726 25.726s25.726-11.323 25.726-25.726v-220.225c0-13.89-11.323-25.726-25.726-25.726zM559.342 294.152c0-26.147-21.192-47.342-47.342-47.342s-47.342 21.192-47.342 47.342c0 26.147 21.192 47.342 47.342 47.342s47.342-21.192 47.342-47.342z" />
<glyph unicode="&#xe90e;" glyph-name="date" d="M893.518 410.339v245.262c0 46.571-37.661 84.232-84.232 84.232-1.487 0-3.47 0-4.957-0.496v10.906c0 35.678-29.234 64.913-64.913 64.913s-64.913-29.234-64.913-64.913v-10.906h-325.033v10.906c0 35.678-29.234 64.913-64.913 64.913s-64.913-28.738-64.913-64.913v-11.401c-1.487 0.496-3.47 0.496-4.957 0.496-46.571 0-84.232-37.661-84.232-84.232v-460.786c0-46.571 37.661-84.232 84.232-84.232h285.388c45.58-54.503 113.962-89.19 190.263-89.19 136.752 0 247.74 110.988 247.74 247.74 0 53.015-16.346 101.569-44.588 141.709zM724.062 750.243c0 8.427 6.94 15.354 15.354 15.354s15.354-6.94 15.354-15.354v-39.644c0-8.427-6.94-15.354-15.354-15.354s-15.354 6.94-15.354 15.354v39.644zM269.217 750.243c0 8.427 6.94 15.354 15.354 15.354s15.354-6.94 15.354-15.354v-39.644c0-8.427-6.94-15.354-15.354-15.354s-15.354 6.94-15.354 15.354v39.644zM214.714 690.287c2.974 0 5.453 0.496 7.931 1.487 7.931-26.756 32.704-46.075 61.938-46.075 28.738 0 53.015 18.824 61.443 44.588h331.464c8.427-25.764 32.704-44.588 61.443-44.588 29.234 0 54.007 19.32 61.938 46.075 2.479-0.991 4.957-1.487 7.931-1.487 19.32 0 34.687-15.354 34.687-34.687v-49.545h-663.436v49.545c0 18.824 15.354 34.687 34.687 34.687zM214.714 159.637c-19.32 0-34.687 15.354-34.687 34.687v361.689h663.932v-93.142c-42.11 33.696-95.621 53.511-153.593 53.511-52.52 0-101.569-16.346-141.709-44.588h-81.258c-13.867 0-24.773-10.906-24.773-24.773s10.906-24.773 24.773-24.773h28.738c-33.696-42.11-53.511-95.621-53.511-153.593 0-39.148 8.923-76.301 25.268-109.005h-253.18zM690.366 70.448c-109.501 0-198.195 88.694-198.195 198.195s88.694 198.195 198.195 198.195c109.501 0 198.195-88.694 198.195-198.195 0-109.005-88.694-198.195-198.195-198.195zM333.634 472.277h-89.19c-13.867 0-24.773-10.906-24.773-24.773s10.906-24.773 24.773-24.773h89.19c13.867 0 24.773 10.906 24.773 24.773s-10.906 24.773-24.773 24.773zM333.634 338.003h-89.19c-13.867 0-24.773-10.906-24.773-24.773s10.906-24.773 24.773-24.773h89.19c13.867 0 24.773 10.906 24.773 24.773s-10.906 24.773-24.773 24.773zM715.139 279.039v123.368c0 13.867-10.906 24.773-24.773 24.773s-24.773-10.906-24.773-24.773v-133.778c0-6.444 2.479-12.889 7.436-17.337l44.588-44.588c4.957-4.957 11.401-7.436 17.337-7.436s12.889 2.479 17.337 7.436c9.914 9.914 9.914 25.268 0 35.183l-37.166 37.166z" />
<glyph unicode="&#xe90f;" glyph-name="delete" d="M512 53.486c-217.439 0-394.514 177.076-394.514 394.514s177.076 394.514 394.514 394.514c217.439 0 394.514-177.076 394.514-394.514s-177.076-394.514-394.514-394.514zM512 796.643c-192.214 0-348.643-156.429-348.643-348.643s156.429-348.643 348.643-348.643c192.214 0 348.643 156.429 348.643 348.643s-156.429 348.643-348.643 348.643zM635.863 298.913c-5.964 0-11.929 2.299-16.060 6.886l-247.716 247.716c-9.174 9.174-9.174 23.391 0 32.566s23.391 9.174 32.566 0l247.716-247.716c9.174-9.174 9.174-23.391 0-32.566-4.587-4.587-10.551-6.886-16.516-6.886zM388.137 298.913c-5.964 0-11.929 2.299-16.060 6.886-9.174 9.174-9.174 23.391 0 32.566l247.716 247.716c9.174 9.174 23.391 9.174 32.566 0s9.174-23.391 0-32.566l-247.716-247.716c-4.587-4.587-10.551-6.886-16.516-6.886z" />
<glyph unicode="&#xe910;" glyph-name="editing" d="M910.419 708.939l-80.433 80.433c-29.46 29.46-76.687 29.46-106.147 0l-223.056-223.056c-18.233-18.233-29.926-41.619-33.671-66.867l-21.047-147.766c-0.931-7.481 1.407-14.497 6.55-19.64 4.211-4.211 10.286-7.016 16.37-7.016 0.931 0 2.339 0 3.27 0l147.766 21.047c25.249 3.746 49.1 15.429 66.867 33.671l223.056 223.056c29.926 28.994 29.926 76.687 0.466 106.147zM654.623 412.931c-10.751-10.751-25.249-18.233-40.687-20.106l-116.909-16.836 16.836 116.909c2.339 15.429 9.354 29.46 20.106 40.687l147.3 147.3 120.644-120.644-147.3-147.3zM877.213 635.521l-42.55-42.55-120.644 120.644 42.55 42.55c5.609 5.609 12.624 8.413 20.106 8.413s14.497-2.804 20.106-8.413l80.899-80.899c10.751-10.751 10.751-28.529-0.466-39.746zM834.663 416.201c-13.090 0-23.386-10.286-23.386-23.386v-228.664c0-18.233-14.497-32.73-32.73-32.73h-538.237c-18.233 0-32.73 14.497-32.73 32.73v457.339c0 18.233 14.497 32.73 32.73 32.73h280.579c13.090 0 23.386 10.286 23.386 23.386s-10.286 23.386-23.386 23.386h-280.579c-43.957 0-79.491-35.544-79.491-79.491v-457.339c0-43.957 35.544-79.491 79.491-79.491h538.237c43.957 0 79.491 35.544 79.491 79.491v228.664c0 13.090-10.286 23.386-23.386 23.386zM268.363 344.657c-13.090 0-23.386-10.286-23.386-23.386s10.286-23.386 23.386-23.386h130.94c13.090 0 23.386 10.286 23.386 23.386s-10.286 23.386-23.386 23.386h-130.94z" />
<glyph unicode="&#xe911;" glyph-name="enhance-effect" d="M669.221 634.997c-14.883 14.883-34.889 23.256-55.816 23.256s-40.933-8.373-55.816-23.256l-101.871-101.871c0 0 0 0 0 0s0 0 0 0l-278.633-278.633c-30.697-30.697-30.697-80.934 0-111.641l26.981-26.981c15.349-15.349 35.82-23.256 55.816-23.256s40.467 7.907 55.816 23.256l278.633 278.633c0 0 0 0 0 0s0 0 0 0l101.871 101.871c14.883 14.883 23.256 34.889 23.256 55.816s-8.373 40.933-23.256 55.816l-26.981 26.981zM283.149 148.44c-12.554-12.554-33.491-12.554-46.046 0 0 0 0 0 0 0l-26.981 26.981c-12.554 12.554-12.554 33.491 0 46.046l262.343 262.343 73.027-73.027-262.343-262.343zM663.643 528.934l-85.591-85.591-73.027 73.027 85.591 85.591c6.51 6.51 14.883 9.304 22.79 9.304s16.746-3.26 23.256-9.304l26.981-26.981c6.044-6.044 9.304-14.417 9.304-22.79 0-8.839-3.26-17.211-9.304-23.256zM324.547 658.719h21.393v-21.393c0-8.839 7.441-16.28 16.28-16.28s16.28 7.441 16.28 16.28v21.393h21.393c8.839 0 16.28 7.441 16.28 16.28s-7.441 16.28-16.28 16.28h-21.393v21.393c0 8.839-7.441 16.28-16.28 16.28s-16.28-7.441-16.28-16.28v-21.393h-21.393c-8.839 0-16.28-7.441-16.28-16.28s7.441-16.28 16.28-16.28zM886.916 728.486h-21.393v21.393c0 8.839-7.441 16.28-16.28 16.28s-16.28-7.441-16.28-16.28v-21.393h-21.393c-8.839 0-16.28-7.441-16.28-16.28s7.441-16.28 16.28-16.28h21.393v-21.393c0-8.839 7.441-16.28 16.28-16.28s16.28 7.441 16.28 16.28v21.393h21.393c8.839 0 16.28 7.441 16.28 16.28s-6.976 16.28-16.28 16.28zM512 752.207h40.001v-40.001c0-8.839 7.441-16.28 16.28-16.28s16.28 7.441 16.28 16.28v40.001h40.001c8.839 0 16.28 7.441 16.28 16.28s-7.441 16.28-16.28 16.28h-40.001v40.001c0 8.839-7.441 16.28-16.28 16.28s-16.28-7.441-16.28-16.28v-40.001h-40.001c-8.839 0-16.28-7.441-16.28-16.28s7.441-16.28 16.28-16.28zM812.026 428.46h-21.393v21.393c0 8.839-7.441 16.28-16.28 16.28s-16.28-7.441-16.28-16.28v-21.393h-21.393c-8.839 0-16.28-7.441-16.28-16.28s7.441-16.28 16.28-16.28h21.393v-21.393c0-8.839 7.441-16.28 16.28-16.28s16.28 7.441 16.28 16.28v21.393h21.393c8.839 0 16.28 7.441 16.28 16.28s-7.441 16.28-16.28 16.28z" />
<glyph unicode="&#xe912;" glyph-name="faq-points" d="M846.321 408.866h-308.853c-13.2 0-23.576 10.376-23.576 23.576s10.376 23.576 23.576 23.576h308.853c28.769 0 52.344 23.576 52.344 52.344v228.691c0 4.717-3.776 8.483-8.483 8.483h-416.831c-4.717 0-8.483-3.776-8.483-8.483v-304.611c0-13.2-10.376-23.576-23.576-23.576s-23.576 10.376-23.576 23.576v304.611c0 30.651 24.993 55.644 55.644 55.644h416.831c30.651 0 55.644-24.993 55.644-55.644v-228.691c0-54.703-44.793-99.496-99.496-99.496zM441.739 312.67c-2.824 0-6.134 0.476-8.959 1.883-8.959 3.776-14.617 12.259-14.617 21.693v96.196c0 13.2 10.376 23.576 23.576 23.576s23.576-10.376 23.576-23.576v-39.134l56.11 56.11c9.434 9.434 24.051 9.434 33.476 0s9.434-24.051 0-33.476l-96.196-96.196c-5.183-4.717-10.841-7.076-16.976-7.076zM493.141 175.923h-308.387c-54.703 0-99.496 44.793-99.496 99.496v228.691c0 30.651 24.993 55.644 55.644 55.644h300.836c13.2 0 23.576-10.376 23.576-23.576s-10.376-23.576-23.576-23.576h-300.836c-4.717 0-8.483-3.776-8.483-8.483v-228.691c0-28.769 23.576-52.344 52.344-52.344h308.387c13.2 0 23.576-10.376 23.576-23.576s-10.376-23.576-23.576-23.576zM589.327 175.923c-13.2 0-23.576 10.376-23.576 23.576v222.567c0 13.2 10.376 23.576 23.576 23.576s23.576-10.376 23.576-23.576v-222.567c0-13.2-10.376-23.576-23.576-23.576zM589.327 79.727c-6.134 0-12.259 2.359-16.5 7.076l-96.196 96.196c-9.434 9.434-9.434 24.051 0 33.476s24.051 9.434 33.476 0l56.11-56.11v39.134c0 13.2 10.376 23.576 23.576 23.576s23.576-10.376 23.576-23.576v-96.196c0-9.434-5.659-17.917-14.617-21.693-3.3-1.417-6.134-1.883-9.434-1.883zM374.311 368.314c0-13.543-10.974-24.517-24.517-24.517s-24.517 10.974-24.517 24.517c0 13.543 10.974 24.517 24.517 24.517s24.517-10.974 24.517-24.517zM278.116 368.314c0-13.543-10.974-24.517-24.517-24.517s-24.517 10.974-24.517 24.517c0 13.543 10.974 24.517 24.517 24.517s24.517-10.974 24.517-24.517zM702.499 522.027c0-11.719-9.498-21.217-21.217-21.217s-21.217 9.498-21.217 21.217c0 11.719 9.498 21.217 21.217 21.217s21.217-9.498 21.217-21.217zM620.454 663.016c0 2.824 1.417 6.6 4.241 9.9 14.617 18.393 34.893 27.817 59.886 27.817 17.451 0 32.069-5.183 42.91-15.559 11.317-10.376 16.5-23.11 16.5-39.134 0-16.976-4.717-30.651-13.676-41.493-8.959-10.376-24.051-20.751-44.793-30.176-3.776-1.417-7.076-2.359-9.9-2.359-7.076 0-13.676 5.659-13.676 13.2 0 6.6 3.3 11.317 9.9 14.141 16.034 7.076 27.351 13.676 33.476 19.8 6.6 6.6 9.9 14.617 9.9 24.517 0 16.5-11.793 27.817-30.176 27.817-16.034 0-26.41-5.183-37.251-18.393-12.734-10.841-27.351-2.359-27.351 9.9z" />
<glyph unicode="&#xe913;" glyph-name="faq" d="M752.523 180.111h-445.513c-13.44 0-24.006 10.566-24.006 24.006s10.566 24.006 24.006 24.006h445.037c47.050 0 85.457 38.407 85.457 85.457v329.34c0 12.479-10.080 22.083-22.083 22.083h-600.579c-12.479 0-22.083-10.080-22.083-22.083v-439.279c0-13.44-10.566-24.006-24.006-24.006s-24.006 10.566-24.006 24.006v439.279c0 38.883 31.687 70.094 70.094 70.094h601.064c38.883 0 70.094-31.687 70.094-70.094v-329.34c0-73.454-60.014-133.459-133.459-133.459zM168.259 41.37c-2.884 0-6.244 0.476-9.119 1.923-9.119 3.846-14.887 12.479-14.887 22.083v138.741c0 13.44 10.566 24.006 24.006 24.006s24.006-10.566 24.006-24.006v-80.65l97.936 97.936c9.604 9.604 24.481 9.604 34.086 0s9.604-24.481 0-34.086l-138.741-139.227c-4.797-4.321-10.566-6.72-17.286-6.72zM411.18 447.524c0-19.616-15.906-35.523-35.523-35.523s-35.523 15.906-35.523 35.523c0 19.616 15.906 35.523 35.523 35.523s35.523-15.906 35.523-35.523zM549.921 447.524c0-19.616-15.906-35.523-35.523-35.523s-35.523 15.906-35.523 35.523c0 19.616 15.906 35.523 35.523 35.523s35.523-15.906 35.523-35.523zM688.673 447.524c0-19.616-15.906-35.523-35.523-35.523s-35.523 15.906-35.523 35.523c0 19.616 15.906 35.523 35.523 35.523s35.523-15.906 35.523-35.523z" />
<glyph unicode="&#xe914;" glyph-name="folder" d="M201.681 116.896c-45.437 0-82.171 36.734-82.171 82.171v551.034c0 13.53 10.636 24.166 24.166 24.166h166.276c39.153 0 76.373-15.463 104.404-43.019l14.987-14.987c18.853-18.853 43.504-29.003 70.089-29.003l323.373 2.419c0 0 0 0 0 0 45.437 0 82.171-36.734 82.171-82.171v-406.020c0-45.437-36.734-82.171-82.171-82.171l-621.123-2.419zM167.366 725.936v-526.869c0-18.853 14.987-33.84 33.84-33.84l621.123 2.419c18.853 0 33.84 14.987 33.84 33.84v406.020c0 18.853-14.987 33.84-33.84 33.84l-323.849-2.419c-39.639 0-76.373 15.463-104.404 43.019l-14.987 14.987c-18.853 18.853-43.504 29.003-70.089 29.003h-141.624zM706.793 421.416h-435.023c-13.53 0-24.166 10.636-24.166 24.166s10.636 24.166 24.166 24.166h435.023c13.53 0 24.166-10.636 24.166-24.166s-11.121-24.166-24.166-24.166zM619.794 290.903h-348.024c-13.53 0-24.166 10.636-24.166 24.166s10.636 24.166 24.166 24.166h348.024c13.53 0 24.166-10.636 24.166-24.166s-11.121-24.166-24.166-24.166z" />
<glyph unicode="&#xe915;" glyph-name="gear" d="M512 178.66c-147.117 0-267.071 119.954-267.071 267.071s119.954 267.071 267.071 267.071c147.117 0 267.071-119.954 267.071-267.071s-119.954-267.071-267.071-267.071zM512 667.541c-122.223 0-221.81-99.587-221.81-221.81s99.587-221.81 221.81-221.81 221.81 99.587 221.81 221.81-99.587 221.81-221.81 221.81zM512 29.284c-38.020 0-67.897 26.251-94.159 49.343-15.394 13.581-30.333 26.707-44.36 32.591-14.939 6.34-35.306 7.697-57.040 9.054-34.404 2.259-73.336 4.983-99.131 30.779s-28.52 64.727-30.779 99.131c-1.357 21.279-2.714 41.646-9.054 57.040-5.884 14.037-18.564 28.52-32.591 44.36-23.081 26.251-49.343 56.129-49.343 94.159s26.251 67.897 49.343 94.159c13.581 15.394 26.707 30.333 32.591 44.36 6.34 14.939 7.697 35.306 9.054 57.040 2.259 34.404 4.983 73.336 30.779 99.131s64.727 28.52 99.131 30.779c21.279 1.357 41.646 2.714 57.040 9.054 14.037 5.884 28.52 18.564 44.36 32.591 26.251 23.081 56.129 49.343 94.159 49.343s67.897-26.251 94.159-49.343c15.394-13.581 30.333-26.707 44.36-32.591 14.939-6.34 35.306-7.697 57.040-9.054 34.404-2.259 73.336-4.983 99.131-30.779s28.52-64.727 30.779-99.131c1.357-21.279 2.714-41.646 9.054-57.040 5.884-14.037 18.564-28.52 32.591-44.36 23.081-26.251 49.343-56.129 49.343-94.159s-26.251-67.897-49.343-94.159c-13.581-15.394-26.707-30.333-32.591-44.36-6.34-14.939-7.697-35.306-9.054-57.040-2.259-34.404-4.983-73.336-30.779-99.131s-64.727-28.52-99.131-30.779c-21.279-1.357-41.646-2.714-57.040-9.054-14.037-5.884-28.52-18.564-44.36-32.591-26.251-23.081-56.129-49.343-94.159-49.343zM512 816.927c-21.279 0-42.101-18.564-64.281-38.020-17.653-15.394-35.761-31.69-57.040-40.289-21.724-9.054-47.074-10.867-71.067-12.67-28.976-1.813-56.129-3.626-70.166-17.653s-15.84-41.19-17.653-70.166c-1.813-23.993-3.626-49.343-12.67-71.067-8.599-20.823-24.894-39.387-40.289-57.040-19.466-22.18-38.020-43.459-38.020-64.281s18.564-42.101 38.020-64.281c15.394-17.653 31.69-35.761 40.289-57.040 9.054-21.724 10.867-47.074 12.67-71.067 1.813-28.976 4.071-56.129 17.653-70.166 14.037-14.037 41.19-15.84 70.166-17.653 23.993-1.813 49.343-3.626 71.067-12.67 20.823-8.599 39.387-24.894 57.040-40.289 22.18-19.466 43.459-38.020 64.281-38.020s42.101 18.564 64.281 38.020c17.653 15.394 35.761 31.69 57.040 40.289 21.724 9.054 47.074 10.867 71.067 12.67 28.976 1.813 56.129 4.071 70.166 17.653 14.037 14.037 15.84 41.19 17.653 70.166 1.813 23.993 3.626 49.343 12.67 71.067 8.599 20.823 24.894 39.387 40.289 57.040 19.466 22.18 38.020 43.459 38.020 64.281s-18.564 42.101-38.020 64.281c-15.394 17.653-31.69 35.761-40.289 57.040-9.054 21.724-10.867 47.074-12.67 71.067-1.813 28.976-4.071 56.129-17.653 70.166-14.037 14.037-41.19 15.84-70.166 17.653-23.993 1.813-49.343 3.626-71.067 12.67-20.823 8.599-39.387 24.894-57.040 40.289-22.18 19.466-43.003 38.020-64.281 38.020z" />
<glyph unicode="&#xe916;" glyph-name="geoloc" d="M512 35.897c-6.816 0-13.631 3.18-17.723 8.629-0.911 0.911-69.97 89.506-138.127 195.823-93.141 144.943-140.396 252.627-140.396 319.417 0 163.111 132.669 296.246 296.246 296.246 163.111 0 296.246-132.669 296.246-296.246 0-67.246-47.254-174.474-140.396-319.417-68.157-105.861-137.216-194.921-138.127-195.823-4.091-5.449-10.907-8.629-17.723-8.629zM512 810.124c-138.127 0-250.804-112.677-250.804-250.804 0-109.041 166.747-353.040 250.804-463.894 83.601 110.864 250.804 354.853 250.804 463.894 0 138.583-112.677 250.804-250.804 250.804zM509.731 384.39c-98.144 0-177.654 79.51-177.654 177.654s79.51 177.654 177.654 177.654 177.654-79.51 177.654-177.654-79.51-177.654-177.654-177.654zM509.731 694.257c-72.694 0-132.223-59.519-132.223-132.223s59.519-132.223 132.223-132.223c72.694 0 132.223 59.519 132.223 132.223s-59.519 132.223-132.223 132.223z" />
<glyph unicode="&#xe917;" glyph-name="guarantee-mark" d="M334.464 157.989c-1.006 0-2.018 0-3.024 0-9.078 1.006-17.149 5.548-22.191 13.114l-177.536 259.748c-9.584 13.619-6.054 32.781 8.071 41.864 13.619 9.584 32.781 6.054 41.864-8.071l157.363-229.991 507.389 493.769c12.107 11.601 31.269 11.601 42.871-0.506s11.601-31.269-0.506-42.871l-533.11-518.484c-6.054-5.548-13.619-8.572-21.185-8.572z" />
<glyph unicode="&#xe918;" glyph-name="help" d="M512 53.486c-217.439 0-394.514 177.076-394.514 394.514s177.076 394.514 394.514 394.514c217.439 0 394.514-177.076 394.514-394.514s-177.076-394.514-394.514-394.514zM512 796.643c-192.214 0-348.643-156.429-348.643-348.643s156.429-348.643 348.643-348.643c192.214 0 348.643 156.429 348.643 348.643s-156.429 348.643-348.643 348.643zM424.379 525.526c-10.551 0-20.181 9.63-20.181 21.103 0 4.587 1.833 9.63 5.509 14.683 26.146 31.654 61.931 47.704 107.347 47.704 31.199 0 56.423-9.174 75.693-27.067 19.726-17.427 28.9-40.829 28.9-68.807 0-30.733-8.253-55.046-24.769-72.939-16.060-17.427-43.117-35.786-81.657-53.669-4.587-2.299-9.63-3.666-15.139-3.666-10.096 0-19.27 8.719-19.27 19.27 0 9.174 4.587 15.594 14.217 20.181 32.566 14.683 54.59 27.523 66.974 39.451 12.384 12.384 18.804 28.9 18.804 50.003 0 33.943-23.391 57.344-63.764 57.344-33.943 0-55.967-10.096-75.693-34.864-4.587-5.964-10.551-8.719-16.971-8.719zM481.267 294.781c0 10.551 9.174 20.181 20.647 20.181s20.647-8.719 20.647-20.181v-26.611c0-11.473-9.174-20.181-20.647-20.181-10.551 0-20.647 9.63-20.647 20.181v26.611z" />
<glyph unicode="&#xe919;" glyph-name="info" d="M512-10.514c-252.715 0-458.514 205.804-458.514 458.514s205.804 458.514 458.514 458.514c252.715 0 458.514-205.804 458.514-458.514s-205.804-458.514-458.514-458.514zM512 853.203c-223.394 0-405.203-181.805-405.203-405.203s181.805-405.203 405.203-405.203c223.394 0 405.203 181.805 405.203 405.203s-181.805 405.203-405.203 405.203zM512 157.426c-14.924 0-26.656 11.732-26.656 26.656v335.884c0 14.924 11.732 26.656 26.656 26.656s26.656-11.732 26.656-26.656v-335.884c0-14.924-11.732-26.656-26.656-26.656zM512 589.284c-14.924 0-26.656 11.732-26.656 26.656v47.98c0 14.924 11.732 26.656 26.656 26.656s26.656-11.732 26.656-26.656v-47.98c0-14.924-11.732-26.656-26.656-26.656z" />
<glyph unicode="&#xe91a;" glyph-name="info-bold2" d="M512-64c-282.463 0-512 229.537-512 512s229.537 512 512 512c282.463 0 512-229.537 512-512s-229.537-512-512-512zM512 867.955c-231.838 0-419.955-188.117-419.955-419.955s188.117-419.955 419.955-419.955c231.838 0 419.955 188.117 419.955 419.955s-188.117 419.955-419.955 419.955zM512 145.978c-25.312 0-46.022 20.71-46.022 46.022v272.108c0 25.312 20.71 46.022 46.022 46.022s46.022-20.71 46.022-46.022v-272.108c0-25.312-20.71-46.022-46.022-46.022zM512 588.944c-25.312 0-46.022 20.71-46.022 46.022v29.915c0 25.312 20.71 46.022 46.022 46.022s46.022-20.71 46.022-46.022v-29.915c0-25.312-20.71-46.022-46.022-46.022z" />
<glyph unicode="&#xe91b;" glyph-name="mark" d="M333.609 161.651c-1.011 0-1.517 0-2.539 0-7.606 0.506-14.19 4.561-18.246 11.146l-178.391 261.003c-8.111 11.651-5.067 27.369 6.584 35.48s27.369 5.067 35.48-6.584l161.673-236.173 513.399 500.22c10.134 9.629 25.851 9.629 35.986-0.506 9.629-10.134 9.629-25.851-0.506-35.986l-535.7-520.994c-5.067-5.067-11.146-7.606-17.74-7.606z" />
<glyph unicode="&#xe91c;" glyph-name="motorcycle" d="M179.799 144.68c-37.854 0-73.716 14.941-100.604 41.84-30.379 30.379-45.32 72.219-40.839 115.050v0c6.97 67.241 60.261 120.533 127.503 127.007 42.831 3.986 84.671-10.956 115.050-40.839 30.379-30.379 45.32-72.219 40.839-115.050-6.474-67.241-60.261-120.533-127.007-127.007-5.483-0.496-10.46-0.991-14.941-0.991zM87.661 296.593c-2.984-27.89 6.97-55.284 26.393-75.203 19.919-19.919 46.817-29.387 75.203-26.393 42.831 4.481 78.197 39.847 82.679 82.679 2.984 27.89-6.97 55.284-26.393 74.707s-46.817 29.387-74.707 26.899c-43.327-4.481-79.189-39.847-83.174-82.679v0zM839.224 144.68c-4.977 0-9.459 0-14.446 0.496-67.241 6.474-120.533 60.261-127.007 127.007-4.481 42.831 10.46 84.671 40.839 115.050s72.219 45.32 115.050 40.839c67.241-6.474 120.533-60.261 127.007-127.007 4.481-42.831-10.46-84.671-40.839-115.050-26.899-26.393-62.75-41.334-100.604-41.334zM839.224 379.767c-24.4 0-48.314-9.459-65.744-26.899-19.919-19.919-29.387-46.817-26.393-74.707v0c4.481-42.831 39.847-78.197 82.679-82.679 27.89-2.984 55.284 6.97 74.707 26.393 19.919 19.919 29.387 46.817 26.393 74.707-4.481 42.831-39.847 78.197-82.679 82.679-2.489 0-5.483 0.496-8.963 0.496zM179.799 262.229c-10.46 0-19.919 6.474-23.409 16.439-4.481 12.949 1.993 27.394 14.941 31.876l210.181 75.203c12.949 4.481 27.394-1.993 31.876-14.941s-1.993-27.394-14.941-31.876l-210.677-75.203c-2.489-0.991-5.483-1.497-7.971-1.497zM499.547 257.241h-1.993c-56.276 0-106.087 33.869-127.007 85.663-22.417 57.277-93.634 158.377-313.274 197.729-13.444 2.489-22.417 15.437-19.919 28.891s15.437 22.417 28.891 19.919c243.544-43.327 324.23-161.867 350.633-228.107 12.949-32.867 44.824-54.293 80.686-54.293h1.993c33.869 0 65.249 20.424 79.684 52.3 63.751 141.443 191.254 207.693 358.594 186.277 13.444-1.497 23.409-13.95 21.416-27.89-1.497-13.444-13.95-23.409-27.89-21.416-145.934 18.431-252.011-36.357-307.296-157.386-21.911-49.801-70.721-81.677-124.519-81.677zM839.224 262.229c-9.964 0-19.423 5.979-23.409 15.933l-122.020 310.786c-2.489 6.474-8.467 10.46-15.437 10.46h-50.803c-4.481 0-8.467-1.993-11.957-4.977-104.094-99.117-287.873-85.663-556.323-53.787-13.444 1.497-23.409 13.95-21.911 27.89 1.497 13.444 13.95 23.409 27.89 21.911 246.539-29.387 427.829-43.327 515.98 40.343 12.949 12.453 29.387 18.927 46.321 18.927h50.803c27.394 0 51.794-16.439 61.759-42.336l122.020-310.786c4.977-12.949-1.497-27.394-13.95-32.371-2.984-1.497-5.979-1.993-8.963-1.993zM661.91 607.379c-9.964 0-19.423 5.979-22.913 15.933l-29.883 73.716h-85.663c-13.95 0-24.906 10.956-24.906 24.906s10.956 24.906 24.906 24.906h88.151c18.927 0 35.861-11.451 42.831-28.891l30.379-76.204c4.977-12.949-0.991-27.394-13.95-32.371-2.984-1.497-5.979-1.993-8.963-1.993z" />
<glyph unicode="&#xe91d;" glyph-name="networking" d="M513.943 418.401c-96.071 0-174.677 78.12-174.677 174.677s78.12 174.677 174.677 174.677 174.677-78.12 174.677-174.677-78.606-174.677-174.677-174.677zM513.943 718.749c-69.387 0-126.156-56.283-126.156-126.156s56.283-126.156 126.156-126.156 126.156 56.283 126.156 126.156-56.769 126.156-126.156 126.156zM739.074 118.064c-13.59 0-24.256 10.676-24.256 24.256v75.206c0 110.623-90.253 200.876-200.876 200.876s-200.876-90.253-200.876-200.876v-75.206c0-13.59-10.676-24.256-24.256-24.256s-24.256 10.676-24.256 24.256v75.206c0 137.803 112.080 249.397 249.397 249.397 137.803 0 249.397-112.080 249.397-249.397v-75.206c0-13.59-10.676-24.256-24.256-24.256zM818.166 463.523c-52.883 0-95.586 42.703-95.586 95.586s42.703 95.586 95.586 95.586 95.586-42.703 95.586-95.586c0-52.883-42.703-95.586-95.586-95.586zM818.166 606.173c-25.713 0-47.064-20.866-47.064-47.064 0-25.713 20.866-47.064 47.064-47.064s47.064 20.866 47.064 47.064c0 25.713-21.351 47.064-47.064 47.064zM915.694 313.597c-13.59 0-24.256 10.676-24.256 24.256v35.417c0 45.607-36.874 82.481-82.481 82.481-19.409 0-38.817-6.79-53.369-19.894-10.19-8.733-25.713-7.276-33.96 2.914-8.733 10.19-7.276 25.713 2.914 33.96 23.78 20.38 53.854 31.541 84.91 31.541 72.291 0 131.003-58.711 131.003-131.003v-35.417c-0.486-13.59-11.647-24.256-24.741-24.256zM209.72 463.523c-52.883 0-95.586 42.703-95.586 95.586s42.703 95.586 95.586 95.586c52.883 0 95.586-42.703 95.586-95.586s-42.703-95.586-95.586-95.586zM209.72 606.173c-25.713 0-47.064-20.866-47.064-47.064 0-25.713 20.866-47.064 47.064-47.064 25.713 0 47.064 20.866 47.064 47.064 0 25.713-20.866 47.064-47.064 47.064zM112.677 305.836c-13.59 0-24.256 10.676-24.256 24.256v35.417c0 72.291 58.711 131.003 131.003 131.003 31.056 0 61.626-11.161 84.91-31.541 10.19-8.733 11.647-23.78 2.914-33.96s-23.78-11.647-33.96-2.914c-15.037 12.619-33.96 19.894-53.369 19.894-45.607 0-82.481-36.874-82.481-82.481v-35.417c-0.486-13.59-11.647-24.256-24.741-24.256z" />
<glyph unicode="&#xe91e;" glyph-name="pen2" d="M831.47 223.651c-1.437 1.437-38.913 38.437-95.121 57.17-53.324 17.771-134.034 22.579-213.783-57.17-118.661-118.661-235.886-4.807-241.169 0-9.604 9.129-24.501 9.129-34.106 0-9.604-9.604-9.604-24.501 0-34.106 1.437-1.437 38.913-38.437 95.121-57.17 18.733-6.244 40.35-10.566 64.376-10.566 45.157 0 97.044 16.334 149.407 68.221 118.661 118.661 235.886 4.807 241.169 0 9.604-9.604 24.501-9.604 34.106 0 9.604 8.643 9.604 24.016 0 33.63zM438.981 331.261l168.14 168.14c0 0 0 0 0 0s0 0 0 0l61.016 61.016c30.27 30.27 30.27 78.787 0 109.057l-83.109 83.109c-14.411 14.411-34.106 22.579-54.286 22.579s-39.874-8.167-54.286-22.579l-229.156-229.156c-18.733-18.733-30.746-42.759-34.591-68.697l-21.617-151.806c-0.961-7.681 1.437-14.897 6.73-20.18 4.321-4.321 10.566-7.206 16.81-7.206 0.961 0 2.399 0 3.36 0l151.806 21.617c26.424 3.36 50.926 15.373 69.183 34.106zM510.077 717.991c5.283 5.283 12.974 8.643 20.656 8.643s14.897-2.884 20.656-8.643l83.109-83.109c11.527-11.527 11.527-29.784 0-40.836l-43.72-43.72-123.944 123.944 43.234 43.72zM243.456 326.94l17.296 120.099c2.399 15.859 9.604 30.27 20.656 41.797v0l151.33 151.33 123.944-123.944-151.33-151.33c-11.051-11.051-25.939-18.733-41.797-20.656l-120.099-17.296z" />
<glyph unicode="&#xe91f;" glyph-name="people" d="M512 874.514c-235.077 0-426.514-191.44-426.514-426.514s191.44-426.514 426.514-426.514c235.077 0 426.514 191.44 426.514 426.514s-191.44 426.514-426.514 426.514zM313.62 127.623v36.203c0 109.607 88.773 198.38 198.38 198.38s198.38-88.773 198.38-198.38v-36.203c-57.529-35.711-125.47-56.533-198.38-56.533s-140.851 20.834-198.38 56.533zM388.009 536.281c0 68.445 55.548 123.991 123.991 123.991s123.991-55.548 123.991-123.991-55.548-123.991-123.991-123.991-123.991 55.548-123.991 123.991zM759.971 164.317c0 102.161-62.488 189.951-150.769 227.643 46.121 31.244 76.38 83.814 76.38 143.827 0 95.715-77.859 173.584-173.584 173.584s-173.584-77.859-173.584-173.584c0-60.013 30.249-112.583 76.38-143.827-88.281-37.692-150.769-125.47-150.769-227.643-78.855 68.936-128.95 170.606-128.95 283.683 0 207.804 169.117 376.923 376.923 376.923s376.923-169.117 376.923-376.923c0-113.077-50.095-214.253-128.95-283.683z" />
<glyph unicode="&#xe920;" glyph-name="phone" d="M760.891 489.323c-13.15 0-23.476 10.336-23.476 23.476 0 41.323-15.964 80.307-45.554 109.887-29.114 29.114-68.099 45.554-109.887 45.554-13.15 0-23.476 10.336-23.476 23.476s10.336 23.476 23.476 23.476c0 0 0 0 0 0 54.007 0 104.724-21.137 143.233-59.17 38.043-38.043 59.17-88.76 59.17-143.233 0-12.684-10.801-23.476-23.476-23.476 0 0 0 0 0 0zM850.116 489.323c0 0 0 0 0 0-13.15 0-23.476 10.336-23.476 23.476 0 65.274-25.359 126.793-71.854 172.813-46.020 46.020-107.539 71.854-172.813 71.854 0 0 0 0 0 0-13.15 0-23.476 10.336-23.476 23.476s10.336 23.476 23.476 23.476c0 0 0 0 0 0 77.959 0 151.21-30.521 206.159-85.47 55.414-54.949 85.47-128.2 85.47-206.159 0-12.684-10.336-23.476-23.476-23.476zM671.197 489.323c-13.15 0-23.476 10.336-23.476 23.476 0 17.847-7.046 34.277-19.254 46.496s-29.114 19.254-46.496 19.254c-13.15 0-23.476 10.336-23.476 23.476s10.336 23.476 23.476 23.476c0 0 0 0 0 0 30.056 0 58.704-11.743 79.831-32.87s32.87-49.776 32.87-79.831c0-12.684-10.336-23.476-23.476-23.476 0 0 0 0 0 0zM681.057 86.871c-0.466 0-0.941 0-1.407 0-255.469 16.906-386.017 160.139-450.355 277.071-69.506 125.851-78.424 246.074-78.89 251.237-0.941 13.15 8.919 23.951 21.603 24.893 13.15 0.941 23.951-8.919 24.893-21.603 0-1.883 9.394-116.933 73.727-232.924 85.47-154.5 224.006-239.029 411.376-251.713 13.15-0.941 22.544-12.209 22.069-24.893s-10.801-22.069-23.010-22.069zM539.707 255.457c-3.756 0-7.511 0.941-11.267 2.814-49.31 26.766-90.633 58.229-125.386 96.737-29.114 31.939-54.007 68.099-77.959 114.119-6.104 11.267-1.407 25.824 9.86 31.463 11.267 6.104 25.824 1.407 31.463-9.86 22.069-42.264 44.613-75.61 70.913-104.259 31.463-34.277 68.099-62.926 113.177-86.877 11.267-6.104 15.499-20.196 9.394-31.939-3.756-7.987-11.743-12.209-20.196-12.209zM680.116 86.871c-13.15 0-23.476 10.336-23.476 23.476s10.336 23.476 23.476 23.476c29.114 0 68.564 7.987 85.936 25.359l31.463 31.463c12.209 12.209 16.44 17.847 17.847 20.661-0.941 2.349-5.163 7.987-17.847 20.661l-24.893 24.893c-28.649 28.649-63.401 50.717-94.864 60.111-33.811 10.336-61.519 5.163-81.239-14.557l-35.694-35.694c-9.394-9.394-23.951-9.394-33.346 0s-9.394 23.951 0 33.346l35.694 35.694c31.939 31.939 77.483 41.323 127.734 26.3 38.509-11.743 80.307-38.043 114.584-71.854l24.893-24.893c17.371-17.371 31.463-33.346 31.463-54.007s-14.091-36.626-31.463-54.007l-31.463-31.463c-28.173-28.649-81.714-38.974-118.816-38.974zM347.164 457.86c-6.104 0-12.209 2.349-16.44 7.046-9.394 9.394-9.394 23.951 0 33.346l35.694 35.694c47.903 47.903-0.941 131.49-45.554 175.637l-25.359 24.893c-12.209 12.209-17.847 16.44-20.661 17.847-2.349-0.941-7.987-5.163-20.661-17.847l-31.463-31.463c-17.371-17.371-25.359-56.821-25.359-85.936 0-13.15-10.336-23.476-23.476-23.476s-23.476 10.336-23.476 23.476c0 37.101 10.336 90.167 39.45 119.281l31.463 31.463c42.264 42.264 65.274 42.264 107.539 0l24.893-24.893c33.811-33.811 60.111-75.61 71.854-114.584 15.023-50.251 6.104-95.796-26.3-127.734l-35.694-35.694c-4.221-4.697-10.336-7.046-16.44-7.046z" />
<glyph unicode="&#xe921;" glyph-name="phone24" d="M681.057 86.871c-0.466 0-0.941 0-1.407 0-255.469 16.906-386.017 160.139-450.355 277.071-69.506 125.851-78.424 246.074-78.89 251.237-0.941 13.15 8.919 23.951 21.603 24.893 13.15 0.941 23.951-8.919 24.893-21.603 0-1.883 9.394-116.933 73.727-232.924 85.47-154.5 224.006-239.029 411.376-251.713 13.15-0.941 22.544-12.209 22.069-24.893s-10.801-22.069-23.010-22.069zM539.707 255.457c-3.756 0-7.511 0.941-11.267 2.814-49.31 26.766-90.633 58.229-125.386 96.737-29.114 31.939-54.007 68.099-77.959 114.119-6.104 11.267-1.407 25.824 9.86 31.463 11.267 6.104 25.824 1.407 31.463-9.86 22.069-42.264 44.613-75.61 70.913-104.259 31.463-34.277 68.099-62.926 113.177-86.877 11.267-6.104 15.499-20.196 9.394-31.939-3.756-7.987-11.743-12.209-20.196-12.209zM680.116 86.871c-13.15 0-23.476 10.336-23.476 23.476s10.336 23.476 23.476 23.476c29.114 0 68.564 7.987 85.936 25.359l31.463 31.463c12.209 12.209 16.44 17.847 17.847 20.661-0.941 2.349-5.163 7.987-17.847 20.661l-24.893 24.893c-28.649 28.649-63.401 50.717-94.864 60.111-33.811 10.336-61.519 5.163-81.239-14.557l-35.694-35.694c-9.394-9.394-23.951-9.394-33.346 0s-9.394 23.951 0 33.346l35.694 35.694c31.939 31.939 77.483 41.323 127.734 26.3 38.509-11.743 80.307-38.043 114.584-71.854l24.893-24.893c17.371-17.371 31.463-33.346 31.463-54.007s-14.091-36.626-31.463-54.007l-31.463-31.463c-28.173-28.649-81.714-38.974-118.816-38.974zM347.164 457.86c-6.104 0-12.209 2.349-16.44 7.046-9.394 9.394-9.394 23.951 0 33.346l35.694 35.694c47.903 47.903-0.941 131.49-45.554 175.637l-25.359 24.893c-12.209 12.209-17.847 16.44-20.661 17.847-2.349-0.941-7.987-5.163-20.661-17.847l-31.463-31.463c-17.371-17.371-25.359-56.821-25.359-85.936 0-13.15-10.336-23.476-23.476-23.476s-23.476 10.336-23.476 23.476c0 37.101 10.336 90.167 39.45 119.281l31.463 31.463c42.264 42.264 65.274 42.264 107.539 0l24.893-24.893c33.811-33.811 60.111-75.61 71.854-114.584 15.023-50.251 6.104-95.796-26.3-127.734l-35.694-35.694c-4.221-4.697-10.336-7.046-16.44-7.046zM601.691 614.709c23.476 16.44 38.509 27.707 45.079 34.277s9.86 14.091 9.86 23.010c0 15.023-10.801 27.707-34.277 27.707-15.499 0-27.707-6.104-37.567-17.847-3.29-3.29-5.639-5.163-7.987-6.104-7.987-2.349-16.44 1.883-18.789 9.394-1.407 4.697-0.941 8.919 1.883 13.15 12.209 16.906 33.811 30.056 61.984 30.056 20.196 0 36.16-5.163 47.903-15.964 11.267-10.336 17.371-23.951 17.371-39.916 0-13.15-3.756-24.893-11.743-34.753-7.511-9.86-22.544-22.544-45.079-38.509-17.371-12.684-28.173-21.137-31.939-25.359-5.163-5.163-7.987-9.86-7.987-14.557h86.877c7.987 0 15.023-6.57 15.023-15.023s-6.57-15.023-15.023-15.023h-98.62c-11.267 0-19.72 7.511-19.72 19.72-1.407 24.893 12.209 44.147 42.73 65.75zM838.847 575.269c-0.466 0-0.466 0-0.466-0.466v-30.521c0-7.987-6.57-15.023-14.091-15.023-7.987 0-14.557 6.57-14.557 15.023v30.521c0 0.466 0 0.466-0.466 0.466h-74.203c-14.091 0-23.010 9.86-23.010 20.196 0 6.104 2.349 12.209 7.987 19.254l70.913 92.981c8.919 12.209 17.847 17.847 25.824 17.847 15.964 0 21.603-12.209 21.603-24.893v-95.796c0-0.466 0-0.466 0.466-0.466h17.847c7.046 0 13.15-4.221 14.557-11.743 1.407-9.394-6.104-17.371-15.499-17.371h-16.906zM746.807 604.383h62.46c0.466 0 0.466 0 0.466 0.466v80.773c0 0.466-0.466 0.466-0.941 0.466l-62.46-80.773c0-0.466 0-0.941 0.466-0.941z" />
<glyph unicode="&#xe922;" glyph-name="photo" d="M829.341 118.636h-634.683c-45.197 0-81.741 36.544-81.741 81.741v457.74c0 71.166 57.696 128.861 128.861 128.861h60.58c38.943 0 75.973-15.383 103.854-42.789l14.907-14.907c18.753-18.753 43.274-28.853 69.719-28.853h338.503c45.197 0 81.741-36.544 81.741-81.741v-418.311c0-45.197-36.544-81.741-81.741-81.741zM241.779 738.897c-44.711 0-80.78-36.059-80.78-80.78v-457.74c0-18.753 14.907-33.66 33.66-33.66h634.683c18.753 0 33.66 14.907 33.66 33.66v418.311c0 18.753-14.907 33.66-33.66 33.66h-338.503c-38.943 0-75.973 15.383-103.854 42.789l-14.907 14.907c-18.753 18.753-43.274 28.853-69.719 28.853h-60.58zM307.651 594.653h-69.719c-13.46 0-24.046 10.576-24.046 24.046s10.576 24.046 24.046 24.046h69.719c13.46 0 24.046-10.576 24.046-24.046s-10.576-24.046-24.046-24.046zM526.421 205.184c-108.661 0-197.133 88.471-197.133 197.133s88.471 197.133 197.133 197.133 197.133-88.471 197.133-197.133c0-108.661-88.471-197.133-197.133-197.133zM526.421 551.379c-82.217 0-149.051-66.834-149.051-149.051s66.834-149.051 149.051-149.051 149.051 66.834 149.051 149.051-66.834 149.051-149.051 149.051z" />
<glyph unicode="&#xe923;" glyph-name="plus" d="M837.851 473.6h-300.251v300.251c0 14.263-11.337 25.6-25.6 25.6s-25.6-11.337-25.6-25.6v-300.251h-300.251c-14.263 0-25.6-11.337-25.6-25.6s11.337-25.6 25.6-25.6h300.251v-300.251c0-14.263 11.337-25.6 25.6-25.6s25.6 11.337 25.6 25.6v300.251h300.251c14.263 0 25.6 11.337 25.6 25.6s-11.337 25.6-25.6 25.6z" />
<glyph unicode="&#xe924;" glyph-name="point" d="M512 53.486c-217.439 0-394.514 177.076-394.514 394.514s177.076 394.514 394.514 394.514c217.439 0 394.514-177.076 394.514-394.514s-177.076-394.514-394.514-394.514zM512 796.643c-192.214 0-348.643-156.429-348.643-348.643s156.429-348.643 348.643-348.643c192.214 0 348.643 156.429 348.643 348.643s-156.429 348.643-348.643 348.643zM389.059 448.921c0-23.312-18.894-42.206-42.206-42.206s-42.206 18.894-42.206 42.206c0 23.312 18.894 42.206 42.206 42.206s42.206-18.894 42.206-42.206zM551.907 447.079c0-23.312-18.894-42.206-42.206-42.206s-42.206 18.894-42.206 42.206c0 23.312 18.894 42.206 42.206 42.206s42.206-18.894 42.206-42.206zM719.353 447.079c0-23.312-18.894-42.206-42.206-42.206s-42.206 18.894-42.206 42.206c0 23.312 18.894 42.206 42.206 42.206s42.206-18.894 42.206-42.206z" />
<glyph unicode="&#xe925;" glyph-name="profile" d="M854.141 765.776h-684.293c-42.407 0-77.003-34.606-77.003-77.003v-486.899c0-42.407 34.606-77.003 77.003-77.003h684.293c42.407 0 77.003 34.606 77.003 77.003v487.384c0 42.407-34.606 76.517-77.003 76.517zM882.413 201.874c0-15.593-12.669-28.271-28.271-28.271h-684.293c-15.593 0-28.271 12.669-28.271 28.271v487.384c0 15.593 12.669 28.271 28.271 28.271h684.293c15.593 0 28.271-12.669 28.271-28.271v-487.384zM743.019 440.684c29.729 23.88 48.256 60.439 48.256 101.379 0 72.136-58.486 130.621-130.621 130.621s-130.621-58.486-130.621-130.621c0-40.94 19.013-77.499 48.256-101.379-60.439-30.214-101.864-92.606-101.864-164.246v-33.634c0-13.65 10.726-24.366 24.366-24.366s24.366 10.726 24.366 24.366v33.634c0 74.574 60.439 135.003 135.003 135.003s135.003-60.439 135.003-135.003v-33.634c0-13.65 10.726-24.366 24.366-24.366s24.366 10.726 24.366 24.366v33.634c0.971 71.65-40.454 134.031-100.893 164.246zM578.773 542.063c0 45.331 36.559 81.88 81.88 81.88s81.88-36.559 81.88-81.88-36.559-81.88-81.88-81.88-81.88 36.559-81.88 81.88zM450.59 527.441h-248.564c-13.65 0-24.366-10.726-24.366-24.366s10.726-24.366 24.366-24.366h248.564c13.65 0 24.366 10.726 24.366 24.366s-10.726 24.366-24.366 24.366zM326.303 444.59h-124.287c-13.65 0-24.366-10.726-24.366-24.366s10.726-24.366 24.366-24.366h124.287c13.65 0 24.366 10.726 24.366 24.366s-10.726 24.366-24.366 24.366z" />
<glyph unicode="&#xe926;" glyph-name="responsive" d="M828.506 558.989h-167.89c-32.92 0-59.726-26.806-59.726-59.726v-125.1c-2.349 0-4.707 0.466-7.056 0.466h-40.917c-22.574 0-42.8-10.346-56.901-25.864h-297.221c-9.88 0-17.401 7.997-17.401 17.401v37.151h376.697c7.997 0 14.111 6.114 14.111 14.111s-6.114 14.111-14.111 14.111h-376.697v314.157c0 9.88 7.997 17.401 17.401 17.401h594.919c9.88 0 17.401-7.997 17.401-17.401v-143.443c0-13.17 10.346-23.516 23.516-23.516s23.516 10.346 23.516 23.516v143.443c0 35.744-29.154 64.433-64.433 64.433h-594.919c-35.744 0-64.433-29.154-64.433-64.433v-379.521c0-35.744 29.154-64.433 64.433-64.433h220.57c-6.114-10.821-14.111-23.981-23.516-36.686-7.056-9.88-7.997-22.574-2.824-33.386 5.649-10.821 16.46-17.401 28.689-17.401h55.494v-48.439c0-41.383 33.861-75.244 75.244-75.244h40.917c24.923 0 47.031 12.229 60.667 30.571h174.004c32.92 0 59.726 26.806 59.726 59.726v317.913c0.466 33.386-26.34 60.201-59.26 60.201zM660.616 521.361h167.89c12.229 0 22.109-9.88 22.109-22.109v-6.58h-212.573v6.58c0 12.229 10.346 22.109 22.574 22.109zM638.041 464.46h212.573v-248.783h-181.536v83.241c0 24.923-12.229 47.031-30.571 60.667v104.874zM552.917 337.011h40.917c20.691 0 37.627-16.926 37.627-37.627v-114.279h-116.161v114.279c0 20.691 16.926 37.627 37.627 37.627zM432.524 251.421c14.577 21.633 26.34 43.741 29.63 49.856h15.519c0-0.941 0-1.407 0-2.349v-47.973h-45.149zM593.834 128.204h-40.917c-17.867 0-32.454 12.229-36.686 28.689h113.813c-3.766-16.46-18.809-28.689-36.21-28.689zM828.506 158.776h-159.903c0 2.349 0.466 4.707 0.466 7.056v21.633h181.536v-6.58c0-11.753-9.88-22.109-22.109-22.109z" />
<glyph unicode="&#xe927;" glyph-name="save" d="M810.81 70.309h-597.62c-43.617 0-78.881 35.264-78.881 78.881v597.62c0 43.617 35.264 78.881 78.881 78.881h386.51c159.616 0 289.536-129.92 289.536-289.536v-386.51c0.466-43.617-35.264-79.347-78.416-79.347zM213.19 779.29c-18.093 0-32.48-14.387-32.48-32.48v-597.164c0-18.093 14.387-32.48 32.48-32.48h597.164c18.093 0 32.48 14.387 32.48 32.48v386.51c0 134.091-109.043 243.134-243.134 243.134h-386.51zM641.454 424.804h-258.909c-63.563 0-115.067 51.504-115.067 115.067v262.624c0 12.99 10.206 23.196 23.196 23.196s23.196-10.206 23.196-23.196v-262.159c0-38.049 31.083-68.676 68.676-68.676h258.909c38.049 0 68.676 31.083 68.676 68.676v218.076c0 12.99 10.206 23.196 23.196 23.196s23.196-10.206 23.196-23.196v-218.076c0-64.029-51.504-115.533-115.067-115.533zM600.621 557.499c-12.99 0-23.196 10.206-23.196 23.196v133.17c0 12.99 10.206 23.196 23.196 23.196s23.196-10.206 23.196-23.196v-132.704c0-12.99-10.206-23.661-23.196-23.661z" />
<glyph unicode="&#xe928;" glyph-name="lock" d="M512.456 55.784c-7.341 0-175.699 0.921-263.776 89.454-86.7 86.7-89.454 394.514-89.454 428.923 0 12.84 10.096 22.936 22.936 22.936h660.579c12.84 0 22.936-10.096 22.936-22.936 0-34.864-2.299-342.223-89.454-428.923-88.077-88.533-256.89-89.454-263.776-89.454zM205.107 551.216c2.299-102.76 18.349-316.067 75.693-373.867 74.771-74.771 229.367-75.693 231.666-75.693 1.833 0 156.884 1.377 231.666 75.693 57.344 57.344 73.394 271.117 75.693 373.867h-614.707zM760.181 551.216c-12.84 0-22.936 10.096-22.936 22.936 0 9.174-3.666 224.78-224.78 224.78s-224.78-215.606-224.78-224.78c0-12.84-10.096-22.936-22.936-22.936 0 0 0 0 0 0-12.84 0-22.936 10.096-22.936 22.936 0 2.754 0.456 67.896 33.487 133.949 31.199 62.387 97.707 136.703 237.164 136.703s205.976-74.316 237.164-136.703c33.031-66.063 33.487-131.194 33.487-133.949 0-12.384-10.551-22.936-22.936-22.936zM512.456 303.5c-58.256 0-105.514 47.249-105.514 105.514s47.249 105.514 105.514 105.514 105.514-47.249 105.514-105.514c0-58.256-47.249-105.514-105.514-105.514zM512.456 468.647c-33.031 0-59.633-26.611-59.633-59.633s26.611-59.633 59.633-59.633 59.633 26.611 59.633 59.633-27.067 59.633-59.633 59.633zM512.456 179.637c-12.84 0-22.936 10.096-22.936 22.936v123.863c0 12.84 10.096 22.936 22.936 22.936s22.936-10.096 22.936-22.936v-123.863c0-12.384-10.551-22.936-22.936-22.936z" />
<glyph unicode="&#xe929;" glyph-name="shapes" d="M512 53.486c-217.439 0-394.514 177.076-394.514 394.514s177.076 394.514 394.514 394.514c217.439 0 394.514-177.076 394.514-394.514s-177.076-394.514-394.514-394.514zM512 796.643c-192.214 0-348.643-156.429-348.643-348.643s156.429-348.643 348.643-348.643c192.214 0 348.643 156.429 348.643 348.643s-156.429 348.643-348.643 348.643zM512 259.917c-12.84 0-22.936 10.096-22.936 22.936v330.294c0 12.84 10.096 22.936 22.936 22.936s22.936-10.096 22.936-22.936v-330.294c0-12.84-10.096-22.936-22.936-22.936zM677.147 425.064h-330.294c-12.84 0-22.936 10.096-22.936 22.936s10.096 22.936 22.936 22.936h330.294c12.84 0 22.936-10.096 22.936-22.936s-10.096-22.936-22.936-22.936z" />
<glyph unicode="&#xe92a;" glyph-name="square" d="M512 86.4c-94.864 0-187.846 6.104-276.604 18.313-34.753 4.697-61.984 31.939-66.681 66.681-12.209 88.76-18.313 181.741-18.313 276.604s6.104 187.846 18.313 276.604c4.697 34.753 31.939 61.984 66.681 66.681 88.76 12.209 181.741 18.313 276.604 18.313s187.846-6.104 276.604-18.313c34.753-4.697 61.984-31.939 66.681-66.681 12.209-88.76 18.313-181.741 18.313-276.604s-6.104-187.846-18.313-276.604c-4.697-34.753-31.939-61.984-66.681-66.681-88.76-12.209-181.741-18.313-276.604-18.313zM512 762.639c-92.516 0-183.614-6.104-270.491-17.847-13.616-1.883-24.417-12.684-26.3-26.3-11.743-86.877-17.847-177.986-17.847-270.491s6.104-183.614 17.847-270.491c1.883-13.616 12.684-24.417 26.3-26.3 86.877-11.743 177.51-17.847 270.491-17.847s183.614 6.104 270.491 17.847c13.616 1.883 24.417 12.684 26.3 26.3 11.743 86.877 17.847 177.51 17.847 270.491 0 92.516-6.104 183.614-17.847 270.491-1.883 13.616-12.684 24.417-26.3 26.3-86.877 11.743-177.986 17.847-270.491 17.847zM512 276.594c-13.15 0-23.476 10.336-23.476 23.476v295.85c0 13.15 10.336 23.476 23.476 23.476s23.476-10.336 23.476-23.476v-295.85c0-13.15-10.336-23.476-23.476-23.476zM659.93 424.524h-295.85c-13.15 0-23.476 10.336-23.476 23.476s10.336 23.476 23.476 23.476h295.85c13.15 0 23.476-10.336 23.476-23.476s-10.336-23.476-23.476-23.476z" />
<glyph unicode="&#xe92b;" glyph-name="targa" d="M890.843 744.050h-750.946c-45.249 0-81.836-36.587-81.836-81.836v-435.647c0-45.249 36.587-81.836 81.836-81.836h750.946c45.249 0 81.836 36.587 81.836 81.836v435.647c0 45.249-37.070 81.836-81.836 81.836zM184.663 695.905h660.931v-503.041h-660.931v503.041zM106.197 226.563v435.647c0 17.333 13.48 31.769 30.813 33.7v-503.041c-17.333 1.922-30.813 16.367-30.813 33.7zM924.543 226.563c0-17.333-13.48-31.769-30.813-33.7v503.041c17.333-1.448 30.813-15.885 30.813-33.7v-435.647zM279.014 586.635c-13.48 0-24.073-10.593-24.073-24.073v-236.356c0-13.48 10.593-24.073 24.073-24.073s24.073 10.593 24.073 24.073v236.356c0 13.48-11.075 24.073-24.073 24.073zM357.481 586.635c-13.48 0-24.073-10.593-24.073-24.073v-236.356c0-13.48 10.593-24.073 24.073-24.073s24.073 10.593 24.073 24.073v236.356c0 13.48-10.593 24.073-24.073 24.073zM515.37 586.635c-13.48 0-24.073-10.593-24.073-24.073v-236.356c0-13.48 10.593-24.073 24.073-24.073s24.073 10.593 24.073 24.073v236.356c0 13.48-11.075 24.073-24.073 24.073zM593.836 586.635c-13.48 0-24.073-10.593-24.073-24.073v-236.356c0-13.48 10.593-24.073 24.073-24.073s24.073 10.593 24.073 24.073v236.356c0 13.48-10.593 24.073-24.073 24.073zM672.777 586.635c-13.48 0-24.073-10.593-24.073-24.073v-236.356c0-13.48 10.593-24.073 24.073-24.073s24.073 10.593 24.073 24.073v236.356c0 13.48-10.593 24.073-24.073 24.073zM751.726 586.635c-13.48 0-24.073-10.593-24.073-24.073v-236.356c0-13.48 10.593-24.073 24.073-24.073s24.073 10.593 24.073 24.073v236.356c0 13.48-11.075 24.073-24.073 24.073z" />
<glyph unicode="&#xe92c;" glyph-name="time" d="M819.127 747.457c-1.539 0-3.587 0-5.113-0.509v11.778c0 36.861-30.196 67.058-67.058 67.058s-67.058-30.196-67.058-67.058v-11.257h-335.797v11.257c0 36.861-30.196 67.058-67.058 67.058s-67.058-30.196-67.058-67.058v-11.778c-1.539 0.509-3.587 0.509-5.113 0.509-48.118 0-87.014-38.909-87.014-87.014v-476.055c0-48.118 38.909-87.014 87.014-87.014h614.266c48.118 0 87.014 38.909 87.014 87.014v476.055c0 48.118-38.909 87.014-87.014 87.014zM731.082 758.714c0 8.7 7.161 15.874 15.874 15.874s15.874-7.161 15.874-15.874v-41.466c0-8.7-7.161-15.874-15.874-15.874s-15.874 7.161-15.874 15.874v41.466zM261.17 758.714c0 8.7 7.161 15.874 15.874 15.874s15.874-7.161 15.874-15.874v-41.466c0-8.7-7.161-15.874-15.874-15.874s-15.874 7.161-15.874 15.874v41.466zM204.873 696.26c3.065 0 5.635 0.509 8.191 1.539 8.191-27.64 33.783-47.609 63.979-47.609 29.687 0 54.77 19.448 63.471 46.070h342.449c8.7-26.622 33.783-46.070 63.471-46.070 30.196 0 55.801 19.97 63.979 47.609 2.557-1.017 5.113-1.539 8.191-1.539 19.97 0 35.831-15.874 35.831-35.831v-51.183h-685.419v51.183c0 19.97 15.874 35.831 35.831 35.831zM819.127 148.543h-614.266c-19.97 0-35.831 15.874-35.831 35.831v373.675h685.928v-373.675c0-19.97-15.874-35.831-35.831-35.831zM327.719 471.035h-92.141c-14.335 0-25.592-11.257-25.592-25.592s11.257-25.592 25.592-25.592h92.141c14.335 0 25.592 11.257 25.592 25.592s-11.257 25.592-25.592 25.592zM558.070 471.035h-92.141c-14.335 0-25.592-11.257-25.592-25.592s11.257-25.592 25.592-25.592h92.141c14.335 0 25.592 11.257 25.592 25.592s-11.257 25.592-25.592 25.592zM788.422 471.035h-92.141c-14.335 0-25.592-11.257-25.592-25.592s11.257-25.592 25.592-25.592h92.141c14.335 0 25.592 11.257 25.592 25.592s-11.257 25.592-25.592 25.592zM327.719 332.824h-92.141c-14.335 0-25.592-11.257-25.592-25.592s11.257-25.592 25.592-25.592h92.141c14.335 0 25.592 11.257 25.592 25.592s-11.257 25.592-25.592 25.592zM558.070 332.824h-92.141c-14.335 0-25.592-11.257-25.592-25.592s11.257-25.592 25.592-25.592h92.141c14.335 0 25.592 11.257 25.592 25.592s-11.257 25.592-25.592 25.592zM788.422 332.824h-92.141c-14.335 0-25.592-11.257-25.592-25.592s11.257-25.592 25.592-25.592h92.141c14.335 0 25.592 11.257 25.592 25.592s-11.257 25.592-25.592 25.592z" />
<glyph unicode="&#xe92d;" glyph-name="tipo-guida" d="M512 37.486c-226.258 0-410.514 184.258-410.514 410.514s184.258 410.514 410.514 410.514c226.258 0 410.514-184.258 410.514-410.514s-184.258-410.514-410.514-410.514zM512 810.783c-200.009 0-362.783-162.773-362.783-362.783s162.773-362.783 362.783-362.783c200.009 0 362.783 162.773 362.783 362.783s-162.773 362.783-362.783 362.783zM133.465 506.237l-16.226 44.866c9.546 3.34 230.556 83.061 395.72 83.061 165.639 0 384.742-79.711 393.803-83.061l-16.226-44.866c-2.392 0.958-220.535 80.196-377.576 80.196s-377.102-79.237-379.484-80.196zM455.196 69.949h-47.731v143.68c0 93.082-75.897 168.979-168.979 168.979h-92.608v47.731h92.608c119.814 0 216.71-97.381 216.71-216.71v-143.68zM618.443 69.949h-47.731v142.722c0 119.814 97.381 217.67 217.67 217.67h92.124v-47.731h-92.124c-93.556 0-169.937-75.897-169.937-169.937v-142.722zM512.958 327.712c-65.392 0-118.855 53.464-118.855 118.855s53.464 118.855 118.855 118.855 118.855-53.464 118.855-118.855c0.474-65.877-52.989-118.855-118.855-118.855zM512.958 517.69c-39.145 0-71.123-31.979-71.123-71.123s31.979-71.123 71.123-71.123 71.123 31.979 71.123 71.123-31.505 71.123-71.123 71.123z" />
<glyph unicode="&#xe92e;" glyph-name="tool" d="M516.581 51.109c-219.081 0-396.891 177.81-396.891 396.891s177.81 396.891 396.891 396.891c219.081 0 396.891-177.81 396.891-396.891 0-14.27-11.21-25.47-25.47-25.47s-25.47 11.21-25.47 25.47c0 190.551-155.391 345.942-345.942 345.942s-345.942-155.391-345.942-345.942c0-190.551 155.391-345.942 345.942-345.942 14.27 0 25.47-11.21 25.47-25.47s-11.21-25.47-25.47-25.47zM512 216.18c-4.074 0-102.912 0.506-155.391 53.492-50.949 50.949-53.492 215.007-53.492 247.105 0 14.27 11.21 25.47 25.47 25.47h366.83c14.27 0 25.47-11.21 25.47-25.47 0-32.604-2.545-196.662-53.492-247.105-52.481-52.986-151.317-53.492-155.391-53.492zM354.572 491.308c2.545-70.307 14.27-162.527 37.703-185.96 31.075-31.075 96.8-38.209 119.727-38.209s88.145 7.136 119.727 38.209c23.433 23.433 35.666 115.145 37.703 185.96h-314.867zM374.435 491.308c0 0 0 0 0 0-14.27 0-25.47 11.21-25.47 25.47 0 56.554 34.135 163.033 163.033 163.033 48.913 0 88.145-15.283 117.182-45.345 9.679-10.186 9.173-26.493-1.023-36.172s-26.493-9.173-36.172 1.023c-18.851 19.875-45.85 29.553-79.987 29.553-108.009 0-112.083-100.875-112.083-112.083 0-14.27-11.715-25.47-25.47-25.47zM557.85 401.124c0-25.89-20.986-46.876-46.876-46.876s-46.876 20.986-46.876 46.876c0 25.89 20.986 46.876 46.876 46.876s46.876-20.986 46.876-46.876zM510.977 301.264c-14.27 0-25.47 11.21-25.47 25.47v91.713c0 14.27 11.21 25.47 25.47 25.47s25.47-11.21 25.47-25.47v-91.713c0-14.27-11.715-25.47-25.47-25.47zM888.003 402.655c-19.875 0-39.234 7.642-54.517 22.419l-46.368 46.368c-10.186 10.186-10.186 25.987 0 36.172s25.987 10.186 36.172 0l46.368-46.368c10.186-10.186 26.493-10.186 36.679 0l46.368 46.368c10.186 10.186 25.987 10.186 36.172 0s10.186-25.987 0-36.172l-46.368-46.368c-15.283-14.778-34.643-22.419-54.517-22.419z" />
<glyph unicode="&#xe92f;" glyph-name="umbrella" d="M839.943 405.109h-647.117c-19.836 0-38.74 8.769-52.116 23.521-12.91 15.219-18.914 35.054-16.14 54.89 27.217 194.186 195.563 340.397 391.591 340.397s364.374-146.211 391.591-340.397c2.764-19.836-3.23-39.661-16.14-54.89-12.91-14.763-31.824-23.521-51.66-23.521zM516.151 777.786c-173.429 0-321.939-129.15-345.926-300.726-0.921-6.46 0.921-12.91 5.539-17.993s10.611-7.837 17.061-7.837h647.117c6.46 0 12.91 2.764 17.061 7.837 4.617 5.073 6.46 11.533 5.539 17.993-24.443 171.576-172.963 300.726-346.391 300.726zM516.151 107.147c-12.91 0-23.066 10.146-23.066 23.066v297.961c0 12.91 10.146 23.066 23.066 23.066s23.066-10.146 23.066-23.066v-297.961c0-12.454-10.146-23.066-23.066-23.066zM460.34 51.336c-43.357 0-78.867 35.52-78.867 78.867 0 12.91 10.146 23.066 23.066 23.066s23.066-10.146 23.066-23.066c0-17.993 14.763-32.746 32.746-32.746s32.746 14.763 32.746 32.746c0 12.91 10.146 23.066 23.066 23.066s23.066-10.146 23.066-23.066c0-43.357-35.52-78.867-78.867-78.867z" />
<glyph unicode="&#xe930;" glyph-name="van" d="M591.070 309.978h-135.211c-13.104 0-23.39 10.294-23.39 23.39s10.294 23.39 23.39 23.39h135.211c13.104 0 23.39-10.294 23.39-23.39s-10.763-23.39-23.39-23.39zM320.639 156.050c-55.68 0-100.589 44.917-100.589 100.589s44.917 100.589 100.589 100.589 100.589-44.917 100.589-100.589-44.917-100.589-100.589-100.589zM320.639 309.978c-29.472 0-53.801-24.329-53.801-53.801s24.329-53.801 53.801-53.801 53.801 24.329 53.801 53.801c0 29.942-23.859 53.801-53.801 53.801zM783.832 156.050c-55.68 0-100.589 44.917-100.589 100.589s44.917 100.589 100.589 100.589 100.589-44.917 100.589-100.589-45.386-100.589-100.589-100.589zM783.832 309.978c-29.472 0-53.801-24.329-53.801-53.801s24.329-53.801 53.801-53.801 53.801 24.329 53.801 53.801c0 29.942-24.329 53.801-53.801 53.801zM243.44 232.779h-154.398c-13.104 0-23.39 10.294-23.39 23.39s10.294 23.39 23.39 23.39h154.398c13.104 0 23.39-10.294 23.39-23.39s-10.294-23.39-23.39-23.39zM706.633 232.779h-308.795c-13.104 0-23.39 10.294-23.39 23.39s10.294 23.39 23.39 23.39h308.795c13.104 0 23.39-10.294 23.39-23.39s-10.294-23.39-23.39-23.39zM888.632 232.779h-27.601c-13.104 0-23.39 10.294-23.39 23.39s10.294 23.39 23.39 23.39h27.601c14.505 0 25.73 11.695 25.73 25.73v152.057c0 9.824-5.613 18.717-14.505 23.39l-33.222 16.376c-15.906 7.953-28.541 21.519-35.093 37.895l-57.551 144.574c-3.742 9.824-13.566 16.376-24.329 16.376h-109.951c-14.505 0-25.73-11.695-25.73-25.73v-336.397c0-13.104-10.294-23.39-23.39-23.39s-23.39 10.294-23.39 23.39v335.929c0 40.235 32.752 72.518 72.518 72.518h109.951c29.942 0 56.611-17.777 67.375-45.848l57.551-144.574c2.341-6.082 7.022-10.763 12.634-13.566l33.222-16.376c24.799-12.634 40.235-37.433 40.235-65.034v-151.587c0.939-39.766-31.813-72.518-72.048-72.518zM205.075 309.978h-115.563c-6.552 0-13.104 2.81-17.307 7.953s-6.552 11.695-5.613 18.247l32.752 266.689c0 0 0 0.47 0 0.47 5.143 35.554 36.024 62.224 71.586 62.224h343.418c13.104 0 23.39-10.294 23.39-23.39s-10.294-23.39-23.39-23.39h-343.885c-12.634 0-23.39-9.354-25.269-21.989l-29.472-240.019h89.363c13.104 0 23.39-10.294 23.39-23.39s-10.294-23.39-23.39-23.39z" />
<glyph unicode="&#xe931;" glyph-name="web-2" d="M790.646 614.292c0 0 0 0.447 0 0.447-28.314 125.389-141.123 219.775-275.054 219.775h-212.583c-42.243 0-76.4-34.157-76.4-76.4v-620.219c0-42.243 34.157-76.4 76.4-76.4h417.973c42.243 0 76.4 34.157 76.4 76.4v414.828c0 21.122-2.252 41.796-6.746 61.569zM738.512 632.269h-152.354c-17.53 0-31.459 13.929-31.459 31.459v67.868c0.447 6.29 0.447 31.906-14.385 56.628 91.688-9.435 168.088-71.906 198.198-155.955zM752.45 137.886c0-17.53-13.929-31.459-31.459-31.459h-417.973c-17.53 0-31.459 13.929-31.459 31.459v620.219c0 17.53 13.929 31.459 31.459 31.459h143.822c22.471-0.447 39.098-5.843 49.891-17.074 14.832-15.734 13.482-38.205 13.482-38.651s0-1.349 0-1.796v-68.315c0-42.243 34.157-76.4 76.4-76.4h163.594c1.796-11.24 2.698-22.917 2.698-34.604v-414.828zM653.57 470.471h-283.14c-12.58 0-22.471-9.891-22.471-22.471s9.891-22.471 22.471-22.471h283.14c12.58 0 22.471 9.891 22.471 22.471s-9.891 22.471-22.471 22.471zM572.675 389.576h-202.245c-12.58 0-22.471-9.891-22.471-22.471s9.891-22.471 22.471-22.471h202.245c12.58 0 22.471 9.891 22.471 22.471s-9.891 22.471-22.471 22.471zM491.772 308.673h-121.351c-12.58 0-22.471-9.891-22.471-22.471s9.891-22.471 22.471-22.471h121.351c12.58 0 22.471 9.891 22.471 22.471s-9.891 22.471-22.471 22.471z" />
<glyph unicode="&#xe932;" glyph-name="web" d="M790.646 614.292c0 0 0 0.447 0 0.447-28.314 125.389-141.123 219.775-275.054 219.775h-212.583c-42.243 0-76.4-34.157-76.4-76.4v-620.219c0-42.243 34.157-76.4 76.4-76.4h417.973c42.243 0 76.4 34.157 76.4 76.4v414.828c0 21.122-2.252 41.796-6.746 61.569zM738.512 632.269h-152.354c-17.53 0-31.459 13.929-31.459 31.459v67.868c0.447 6.29 0.447 31.906-14.385 56.628 91.688-9.435 168.088-71.906 198.198-155.955zM752.45 137.886c0-17.53-13.929-31.459-31.459-31.459h-417.973c-17.53 0-31.459 13.929-31.459 31.459v620.219c0 17.53 13.929 31.459 31.459 31.459h143.822c22.471-0.447 39.098-5.843 49.891-17.074 14.832-15.734 13.482-38.205 13.482-38.651s0-1.349 0-1.796v-68.315c0-42.243 34.157-76.4 76.4-76.4h163.594c1.796-11.24 2.698-22.917 2.698-34.604v-414.828z" />
<glyph unicode="&#xe933;" glyph-name="pen" d="M847.49 651.689l-113.109 113.109c-37.386 37.861-98.727 37.861-136.589 0l-312.961-312.961c-23.966-23.966-39.784-55.593-44.571-89.143l-29.714-208c-0.961-7.671 1.437-14.857 6.71-20.13 4.311-4.311 10.546-7.186 16.77-7.186 0.961 0 2.399 0 3.35 0l208 29.714c33.55 4.797 65.177 20.606 89.143 44.571l312.961 313.447c18.217 18.217 28.277 42.659 28.277 68.051 0 25.879-10.060 50.32-28.277 68.537zM500.493 236.164c-16.77-16.77-38.823-27.801-61.827-31.151l-176.373-25.403 24.917 176.373c3.35 23.48 14.381 45.533 31.151 61.827l212.797 212.797 182.121-182.121-212.797-212.321zM813.464 549.126l-66.139-66.139-182.121 182.121 66.139 65.663c9.584 9.584 22.043 14.381 34.511 14.381s24.917-4.797 34.511-14.381l113.109-113.109c9.109-9.109 14.381-21.567 14.381-34.511s-5.273-24.917-14.381-34.026z" />
<glyph unicode="&#xe934;" glyph-name="mail" d="M859.149 774.359h-689.099c-43.656 0-78.995-35.339-78.995-78.995v-490.063c0-43.656 35.339-78.995 78.995-78.995h689.099c43.656 0 78.995 35.339 78.995 78.995v489.541c0 43.656-35.339 79.51-78.995 79.51zM886.17 204.786c0-3.64-0.522-7.274-2.081-10.392l-244.252 244.252 246.333 246.848v-480.708zM584.758 457.355c0 0 0 0 0 0s0 0 0 0l-70.155-70.155-334.676 335.198h669.874l-265.036-265.036zM389.355 439.167l-244.252-244.252c-1.559 3.118-2.081 6.758-2.081 10.392v480.186l246.333-246.333zM426.253 402.269l70.155-70.155c5.199-5.199 11.951-7.796 18.188-7.796 6.758 0 13.511 2.597 18.188 7.796l70.155 70.155 224.505-224.505h-625.696l224.505 224.505z" />
<glyph unicode="&#xe935;" glyph-name="close" d="M787.909 207.591l-239.893 240.409 240.409 240.409c10.144 10.144 10.144 25.861 0 36.006s-25.861 10.144-36.006 0l-240.409-240.409-240.409 239.893c-10.144 10.144-25.861 10.144-36.006 0s-10.144-25.861 0-36.006l240.409-240.409-240.409-240.409c-10.144-10.144-10.144-25.861 0-36.006s25.861-10.144 36.006 0l240.409 240.409 240.409-240.409c10.144-10.144 25.861-10.144 36.006 0 9.639 10.65 9.639 26.883-0.506 36.521z" />
<glyph unicode="&#xe936;" glyph-name="open" d="M850.112 471.488h-314.624v314.624c0 13.152-10.336 23.488-23.488 23.488s-23.488-10.336-23.488-23.488v-314.624h-314.624c-13.152 0-23.488-10.336-23.488-23.488s10.336-23.488 23.488-23.488h314.624v-314.624c0-13.152 10.336-23.488 23.488-23.488s23.488 10.336 23.488 23.488v314.624h314.624c13.152 0 23.488 10.336 23.488 23.488s-10.336 23.488-23.488 23.488z" />
<glyph unicode="&#xe937;" glyph-name="chevron-small-down" d="M886.858 682.805c29.72 29.394 77.757 29.394 107.259 0 29.611-29.394 29.83-76.878 0-106.272l-428.595-420.040c-29.611-29.394-77.538-29.394-107.368 0l-428.595 420.040c-29.611 29.282-29.611 76.878 0 106.272 29.72 29.394 77.757 29.394 107.259 0l375.184-344.477 374.858 344.477z" />
<glyph unicode="&#xe938;" glyph-name="ok" d="M254.588 441.948c0-12.090-9.862-21.964-21.964-21.964s-21.964 9.862-21.964 21.964c0 12.090 9.862 21.964 21.964 21.964s21.964-9.862 21.964-21.964zM921.966 448.558v-207.442c0-50.51-26.31-84.556-37.302-96.552l-46.148-48.276c-30.692-32.922-74.62-34.058-83.448-34.058v0h-257.864c-59.268 0-93.324 29.678-102.060 38.408l-36.184 37.302v-3.254c0-39.534-31.822-70.234-70.234-70.234h-116.48c-39.534 0-70.234 31.802-70.234 70.234v362.162c0 39.536 31.822 70.234 70.234 70.234h115.254c36.184 0 65.846-26.31 70.234-61.5l137.214 142.698 41.662 151.44c3.254 13.224 16.47 34.058 41.664 34.058h73.592c21.964 0 37.302-13.226 39.534-35.178 0-1.134 0-1.134 0-2.236v-241.498c0-2.236 0-3.254 0-4.38h119.632c14.22-1.132 38.408-5.478 61.5-29.678l29.678-30.692c10.972-12.090 17.576-26.31 18.704-42.798 1.030 2.338 1.030 1.23 1.030 1.23zM318.218 134.584v47.178c-1.132 2.236-1.132 5.478-1.132 7.71l1.132 266.71c0 0 0 0 0 1.132v39.534c0 16.468-13.226 29.678-29.678 29.678h-116.284c-16.468 0-29.678-13.226-29.678-29.678v-362.264c0-16.47 13.224-29.678 29.678-29.678h115.254c17.576 0.104 30.692 13.226 30.692 29.678zM881.4 447.442c-1.134 6.612-3.254 12.090-7.71 17.576l-29.678 30.692c-13.226 13.226-26.31 16.468-32.922 16.468h-122.99c-1.134 0-2.236 0-3.254 0-16.47 2.236-32.922 15.354-32.922 45.014v237.122h-72.356c-1.134 0-2.236-3.254-2.236-4.378l-43.912-155.924c-1.134-3.254-2.236-6.612-5.478-8.742l-169.040-176.754v-252.464l64.742-68.112c4.38-4.38 28.572-26.31 73.592-26.31h259.070c3.254 0 34.058 1.134 54.888 21.964l45.014 47.178c5.478 6.612 26.31 31.822 26.31 69.106v207.548h-1.134z" />
<glyph unicode="&#xe939;" glyph-name="firefox" d="M1001.188 618.422l-11.346-72.914c0 0-16.25 134.976-36.182 185.444-30.538 77.332-44.092 76.716-44.154 76.594 20.42-51.942 16.744-79.844 16.744-79.844s-36.244 98.672-131.972 130.070c-106.028 34.772-163.432 25.266-170.056 23.488-0.982 0-1.962 0-2.884 0 0.798-0.062 1.534-0.122 2.332-0.186-0.062 0-0.062-0.062-0.062-0.062 0.43-0.552 117.19-20.42 137.918-48.876 0 0-49.61 0-98.98-14.226-2.208-0.612 181.582-22.938 219.176-206.664 0 0-20.174 42.068-45.072 49.184 16.372-49.858 12.202-144.482-3.434-191.516-2.024-6.072-4.048 26.126-34.832 39.984 9.876-70.586-0.614-182.502-49.552-213.348-3.802-2.39 30.662 110.506 6.93 66.842-136.754-209.668-298.406-96.77-371.074-47.038 37.224-8.096 107.93 1.288 139.266 24.53 0.062 0 0.062 0.062 0.122 0.062 33.976 23.24 54.088 40.23 72.18 36.182s30.11 14.104 16.068 30.232c-14.044 16.128-48.202 38.326-94.38 26.246-32.562-8.524-72.976-44.584-134.546-8.096-47.282 28.026-51.758 51.33-52.186 67.458 1.164 5.704 2.634 11.038 4.416 15.944 5.456 15.208 21.954 19.808 31.154 23.426 15.574-2.698 29.008-7.544 43.112-14.778 0.186 4.658 0.246 10.916 0 17.968 1.348 2.698 0.488 10.794-1.656 20.666-1.226 9.876-3.25 20.116-6.5 29.436 0 0 0 0 0 0s0.122 0.062 0.122 0.062c0.062 0.062 0.122 0.122 0.186 0.186s0 0.062 0.062 0.062c0.062 0.122 0.122 0.246 0.186 0.43 0.982 4.416 11.528 12.94 24.654 22.14 11.774 8.218 25.572 16.988 36.488 23.734 9.628 6.010 16.988 10.426 18.52 11.592 0.612 0.43 1.286 0.982 2.086 1.594 0.122 0.122 0.308 0.246 0.43 0.368s0.186 0.122 0.246 0.246c5.212 4.108 12.94 11.898 14.534 28.332 0 0.062 0 0.062 0 0.122 0.062 0.488 0.062 0.982 0.122 1.472 0 0.368 0.062 0.676 0.062 1.042 0 0.246 0 0.552 0.062 0.798 0 0.676 0.062 1.286 0.062 1.962 0 0.062 0 0.062 0 0.122 0 1.594 0 3.25-0.122 4.966-0.062 0.982-0.122 1.838-0.308 2.634 0 0.062 0 0.062 0 0.122s-0.062 0.186-0.062 0.246-0.062 0.308-0.122 0.43c0 0 0 0 0 0.062-0.062 0.186-0.122 0.308-0.186 0.43 0 0 0 0 0 0-1.656 3.926-7.974 5.396-33.976 5.886 0 0-0.062 0-0.062 0v0c-10.608 0.186-24.468 0.186-42.62 0.122-31.89-0.122-49.488 31.152-55.070 43.236 7.728 42.618 29.988 72.978 66.538 93.52 0.676 0.366 0.552 0.736-0.246 0.92 7.176 4.356-86.468 0.122-129.518-54.64-38.204 9.504-71.504 8.83-100.264 2.146-5.52 0.186-12.388 0.86-20.542 2.514-19.070 17.294-46.422 49.242-47.894 87.388 0 0-0.062-0.062-0.246-0.186 0 0.368-0.062 0.736-0.062 1.106 0 0-58.198-44.706-49.488-166.618 0-1.962-0.062-3.802-0.122-5.642-15.76-21.342-23.548-39.308-24.162-43.294-13.982-28.394-28.086-71.138-39.616-136.020 0 0 8.032 25.572 24.222 54.518-11.898-36.426-21.216-93.092-15.76-178.086 0 0 1.472 18.826 6.562 45.992 3.984-52.74 21.588-117.804 65.986-194.336 85.242-146.934 216.232-221.076 361.020-232.482 25.694-2.146 51.818-2.146 78.006-0.184 2.39 0.184 4.846 0.366 7.236 0.552 29.682 2.086 59.548 6.562 89.35 13.736 407.382 98.486 363.104 590.436 363.104 590.436z" />
<glyph unicode="&#xe93a;" glyph-name="chrome" d="M258.304 513.472l-146.56 253.824c93.824 117.44 238.208 192.768 400.256 192.768 187.456 0 351.296-100.736 440.512-251.008h-417.792c-7.488 0.64-15.104 1.024-22.784 1.024-121.856 0-224.576-83.648-253.696-196.544zM695.296 635.008h293.44c22.72-57.92 35.264-121.024 35.264-187.008 0-280.832-226.112-508.8-506.176-511.936l209.408 362.688c29.504 42.368 46.784 93.824 46.784 149.248 0 73.152-30.144 139.392-78.72 187.008zM326.016 448c0 102.592 83.456 185.984 185.984 185.984s185.984-83.456 185.984-185.984c0-102.528-83.456-185.984-185.984-185.984s-185.984 83.456-185.984 185.984zM582.208 195.584l-146.56-253.888c-246.528 36.864-435.584 249.536-435.584 506.304 0 91.2 23.872 176.832 65.664 251.008l209.024-362.048c41.856-89.088 132.48-150.976 237.248-150.976 24.32 0 47.808 3.328 70.208 9.536z" />
<glyph unicode="&#xe93b;" glyph-name="IE" d="M734.514 331.038h236.356c1.794 16.408 2.566 33.132 2.566 50.246 0 80.3-21.534 155.67-59.216 220.592 38.902 103.438 37.558 191.238-14.548 243.728-49.54 49.348-182.52 41.338-332.874-25.25-11.152 0.836-22.366 1.282-33.712 1.282-206.366 0-379.464-142.018-427.274-333.322 64.728 82.866 132.79 142.98 223.794 186.688-8.266-7.756-56.526-55.756-64.664-63.832-239.882-239.818-315.508-553.078-234.114-634.472 61.844-61.844 173.998-51.4 302.816 11.664 59.856-30.506 127.666-47.68 199.504-47.68 193.418 0 357.292 124.46 416.638 297.882h-238.216c-32.75-60.436-96.9-101.644-170.474-101.644s-137.662 41.144-170.474 101.644c-14.548 27.302-22.944 58.64-22.944 91.774v0.706h386.772zM348.062 447.164c5.446 97.222 86.326 174.832 185.022 174.832s179.576-77.546 185.022-174.832h-370.044zM897.49 796.704c33.582-33.902 32.75-96.324 4.036-174.254-49.22 74.984-120.678 134.136-205.082 167.848 90.236 38.708 163.616 43.838 201.044 6.408zM92.928-7.86c-42.81 42.874-29.93 132.792 25.25 241.164 34.352-96.39 101.324-177.33 187.586-229.5-95.554-43.388-173.806-50.758-212.836-11.664z" />
<glyph unicode="&#xe93c;" glyph-name="facebook" d="M608 768h160v192h-160c-123.514 0-224-100.486-224-224v-96h-128v-192h128v-512h192v512h160l32 192h-192v96c0 17.346 14.654 32 32 32z" />
<glyph unicode="&#xe93d;" glyph-name="twitter" d="M1023.9 733.544c-37.592-16.796-78.186-27.996-120.576-32.994 43.392 25.996 76.586 67.188 92.382 116.178-40.592-23.996-85.582-41.592-133.374-50.99-38.394 40.792-92.982 66.188-153.37 66.188-115.976 0-209.96-93.982-209.96-209.96 0-16.396 1.8-32.394 5.4-47.79-174.566 8.798-329.336 92.382-432.916 219.556-17.996-30.994-28.394-67.186-28.394-105.578 0-72.786 36.994-137.174 93.382-174.766-34.394 1-66.788 10.598-95.18 26.194 0-0.8 0-1.8 0-2.598 0-101.78 72.386-186.764 168.568-205.96-17.598-4.798-36.192-7.4-55.39-7.4-13.598 0-26.594 1.4-39.592 3.798 26.796-83.384 104.38-144.172 196.162-145.972-71.986-56.39-162.368-89.982-260.95-89.982-16.996 0-33.594 1-50.19 3 93.182-59.788 203.56-94.382 322.138-94.382 386.324 0 597.682 320.138 597.682 597.682 0 9.198-0.2 18.196-0.6 27.194 40.992 29.394 76.586 66.388 104.78 108.58z" />
<glyph unicode="&#xe93e;" glyph-name="whatsapp" d="M873 811.2c-95.8 96-223.2 148.8-359 148.8-279.6 0-507.2-227.6-507.2-507.4 0-89.4 23.4-176.8 67.8-253.6l-72-263 269 70.6c74.2-40.4 157.6-61.8 242.4-61.8h0.2c0 0 0 0 0 0 279.6 0 507.4 227.6 507.4 507.4 0 135.6-52.8 263-148.6 359zM514.2 30.4v0c-75.8 0-150 20.4-214.8 58.8l-15.4 9.2-159.6-41.8 42.6 155.6-10 16c-42.4 67-64.6 144.6-64.6 224.4 0 232.6 189.2 421.8 422 421.8 112.6 0 218.6-44 298.2-123.6 79.6-79.8 123.4-185.6 123.4-298.4-0.2-232.8-189.4-422-421.8-422zM745.4 346.4c-12.6 6.4-75 37-86.6 41.2s-20 6.4-28.6-6.4c-8.4-12.6-32.8-41.2-40.2-49.8-7.4-8.4-14.8-9.6-27.4-3.2s-53.6 19.8-102 63c-37.6 33.6-63.2 75.2-70.6 87.8s-0.8 19.6 5.6 25.8c5.8 5.6 12.6 14.8 19 22.2s8.4 12.6 12.6 21.2c4.2 8.4 2.2 15.8-1 22.2s-28.6 68.8-39 94.2c-10.2 24.8-20.8 21.4-28.6 21.8-7.4 0.4-15.8 0.4-24.2 0.4s-22.2-3.2-33.8-15.8c-11.6-12.6-44.4-43.4-44.4-105.8s45.4-122.6 51.8-131.2c6.4-8.4 89.4-136.6 216.6-191.4 30.2-13 53.8-20.8 72.2-26.8 30.4-9.6 58-8.2 79.8-5 24.4 3.6 75 30.6 85.6 60.2s10.6 55 7.4 60.2c-3 5.6-11.4 8.8-24.2 15.2z" />
<glyph unicode="&#xe93f;" glyph-name="spinner" d="M512-64c-136.76 0-265.334 53.258-362.040 149.96-96.702 96.706-149.96 225.28-149.96 362.040 0 96.838 27.182 191.134 78.606 272.692 50 79.296 120.664 143.372 204.356 185.3l43-85.832c-68.038-34.084-125.492-86.186-166.15-150.67-41.746-66.208-63.812-142.798-63.812-221.49 0-229.382 186.618-416 416-416s416 186.618 416 416c0 78.692-22.066 155.282-63.81 221.49-40.66 64.484-98.114 116.584-166.15 150.67l43 85.832c83.692-41.928 154.358-106.004 204.356-185.3 51.422-81.558 78.604-175.854 78.604-272.692 0-136.76-53.258-265.334-149.96-362.040-96.706-96.702-225.28-149.96-362.040-149.96z" />
<glyph unicode="&#xe940;" glyph-name="arrow-sketchy-reflect" d="M866.067 933.963c-2.28 28.508-27.748 0-26.987-17.105 7.982-91.605-24.327-182.45-61.956-263.792-38.010-82.102-86.283-160.024-136.838-236.045-115.171-173.708-256.571-343.234-460.306-411.653-15.964-5.702-19.005-49.414-1.901-44.092 215.899 72.6 363.76 252.389 485.013 435.98 102.248 155.082 219.32 342.854 202.975 536.707v0zM695.781 33.116c23.186 4.181-2.66 39.151-20.526 36.87-174.467-35.73-356.158-28.128-524.164-91.605 10.262-11.023 21.286-20.526 31.168-31.168 70.699 126.194 223.121 229.964 163.445 392.648-6.461 17.485-45.992 29.268-37.251 3.801 55.115-149.381-95.406-252.389-160.784-368.321-9.883-17.865 15.204-36.87 31.168-31.168 166.485 61.956 345.515 54.354 516.942 88.945v0z" />
<glyph unicode="&#xe941;" glyph-name="spinner2" d="M954.676 448c-1.106 57.823-13.669 115.429-36.797 168.106-23.075 52.735-56.61 100.545-97.719 139.996s-89.863 70.717-142.652 91.358c-52.735 20.694-109.452 30.546-165.504 29.381-56.051-1.106-111.833-13.279-162.851-35.748-51.075-22.41-97.278-54.894-135.512-94.73s-68.451-87.096-88.371-138.17c-19.976-51.075-29.49-105.91-28.335-160.194 1.106-54.281 12.946-108.177 34.692-157.538 21.69-49.359 53.176-94.068 91.743-131.031s84.272-66.126 133.689-85.382c49.359-19.256 102.424-28.443 154.884-27.279 52.511 1.106 104.583 12.559 152.226 33.645 47.7 20.974 90.857 51.408 126.551 88.758s63.853 81.451 82.337 129.209c11.288 28.939 18.924 59.154 22.961 89.754 1.054-0.058 2.157-0.112 3.265-0.112 30.546 0 55.337 24.789 55.337 55.337 0 1.548-0.058 3.101-0.221 4.591h0.221zM866.748 301.090c-20.307-45.982-49.692-87.649-85.771-122.067s-78.685-61.532-124.721-79.351c-46.036-17.875-95.343-26.339-144.31-25.118-48.916 1.106-97.33 11.897-141.654 31.54-44.322 19.589-84.444 47.976-117.586 82.726s-59.262 75.864-76.36 120.243c-17.155 44.322-25.29 91.857-24.071 139s11.511 93.736 30.49 136.344c18.924 42.608 46.26 81.229 79.737 113.104s73.098 56.939 115.762 73.373c42.666 16.488 88.315 24.236 133.689 23.017s90.141-11.176 131.031-29.438c40.95-18.204 78.023-44.546 108.62-76.75s54.67-70.274 70.384-111.276c15.772-40.95 23.133-84.771 21.968-128.377h0.221c-0.112-1.495-0.221-3.043-0.221-4.591 0-28.554 21.58-52.014 49.359-55.003-5.368-30.105-14.275-59.483-26.617-87.315z" />
<glyph unicode="&#xe942;" glyph-name="arrow-sketchy" d="M164.696-64.37c180.206 56.87 305.39 231.536 406.942 380.722 120.014 176.882 226.736 376.292 211.964 597.118-1.476 17.356-39.512-1.476-38.774-18.094 14.034-208.27-86.042-398.078-199.408-565.73-49.484-73.486-101.55-145.496-161.372-210.116-59.454-63.884-128.878-126.66-214.18-153.25-15.51-5.908-31.758-39.142-5.17-30.65v0zM910.634 421.966c-32.126 166.912-105.244 324.962-111.52 497.044-0.738 16.618-27.326 32.128-39.512 16.618-80.134-101.552-116.692-274.74-271.416-280.65-25.848-1.476-0.738-32.866 17.356-32.128 168.022 6.646 204.948 182.052 292.098 292.096-13.294 5.17-25.85 11.448-39.512 16.618 5.17-174.668 79.394-334.932 111.89-504.8 4.432-16.986 45.422-27.326 40.62-4.802v0z" />
<glyph unicode="&#xe943;" glyph-name="arrow-bottom" d="M526.517 73.227l275.799 248.087c9.24 7.919 9.678 21.998 1.759 31.23s-21.998 9.678-31.23 1.759l-238.855-215.536v663.767c0 12.32-9.678 21.998-21.998 21.998s-21.998-9.678-21.998-21.998v-663.767l-238.855 215.098c-9.24 7.919-22.873 7.481-31.23-1.759-3.955-4.401-5.722-9.678-5.722-14.517 0-6.16 2.642-11.874 7.481-16.275l275.799-248.087c8.357-7.919 20.677-7.919 29.033 0z" />
<glyph unicode="&#xe944;" glyph-name="arrow-top" d="M497.483 818.849l-275.831-248.111c-9.24-7.919-9.678-21.998-1.759-31.238s21.998-9.678 31.238-1.759l238.879 215.56v-663.839c0-12.32 9.678-21.998 21.998-21.998s21.998 9.678 21.998 21.998v663.839l238.879-215.122c9.24-7.919 22.873-7.481 31.238 1.759 3.955 4.401 5.722 9.678 5.722 14.517 0 6.16-2.642 11.874-7.481 16.275l-275.831 248.111c-8.357 7.481-20.677 7.481-29.033 0z" />
<glyph unicode="&#xe945;" glyph-name="arrow-sx-button" d="M122.002 430.527l259.383-288.359c8.279-9.656 22.998-10.118 32.654-1.839s10.118 22.998 1.839 32.654l-224.89 249.727h693.991c12.88 0 22.998 10.118 22.998 22.998s-10.118 22.998-22.998 22.998h-693.991l224.89 249.727c8.279 9.656 7.817 23.913-1.839 32.654-4.601 4.139-10.118 5.978-15.181 5.978-6.44 0-12.418-2.762-17.019-7.817l-259.383-288.359c-8.279-8.279-8.279-21.613-0.462-30.353z" />
<glyph unicode="&#xe946;" glyph-name="arrow-dx-button" d="M901.998 461.334l-259.383 288.359c-8.279 9.656-22.998 10.118-32.654 1.839s-10.118-22.998-1.839-32.654l224.89-249.727h-693.991c-12.88 0-22.998-10.118-22.998-22.998s10.118-22.998 22.998-22.998h693.991l-224.89-249.727c-8.279-9.656-7.817-23.913 1.839-32.654 4.601-4.139 10.118-5.978 15.181-5.978 6.44 0 12.418 2.762 17.019 7.817l259.383 288.359c8.279 8.279 8.279 21.613 0.462 30.353z" />
<glyph unicode="&#xe947;" glyph-name="people2" d="M909.966 552.738c0 0-93.080 251.35-397.966 258.314-303.72-6.996-396.8-258.314-396.8-258.314-114.034-286.266 72.156-464.294 72.156-464.294 32.582-29.084 44.208 0 44.208 0 77.956 201.316 280.436 195.486 280.436 195.486s202.48 5.828 280.436-195.486c0 0 11.626-29.084 44.208 0 1.166 0 188.522 178.030 73.322 464.294zM512 336.298c-86.116 0-155.942 69.826-155.942 155.942s69.824 155.942 155.942 155.942 155.942-69.824 155.942-155.942-68.658-155.942-155.942-155.942zM819.188 138.48c0 0-53.534 134.986-207.112 178.030 60.5 34.914 102.406 100.074 102.406 175.698 0 111.702-90.778 201.314-201.316 201.314s-201.314-90.778-201.314-201.314c0-75.624 41.878-140.784 102.406-175.698-154.774-43.042-207.112-178.030-207.112-178.030-122.194 144.282-70.99 333.97-70.99 333.97 83.784 300.224 377.012 293.228 377.012 293.228s293.23 6.996 377.012-293.228c0 0 50.038-189.688-70.99-333.97z" />
<glyph unicode="&#xe948;" glyph-name="arrow-dx-simple" d="M339.75 42.014c-5.7-5.7-12.876-8.586-20.722-8.586s-15.008 2.852-20.722 8.586c-11.438 11.438-11.438 30.028 0 41.466l364.52 364.52-364.52 364.52c-11.438 11.438-11.438 30.028 0 41.466s30.028 11.438 41.466 0l385.264-385.264c11.438-11.438 11.438-30.028 0-41.466l-385.264-385.264z" />
<glyph unicode="&#xe949;" glyph-name="check" d="M839.789 510.926c-17.371-17.371-26.766-40.857-26.766-65.274v0c0-92.981-6.104-184.090-17.847-270.967-1.883-13.15-12.209-23.951-25.359-25.359-86.877-11.743-177.986-17.847-270.967-17.847s-184.090 6.104-270.967 17.847c-13.15 1.883-23.951 12.209-25.359 25.359-11.743 86.877-17.847 177.986-17.847 270.967s6.104 184.090 17.847 270.967c1.883 13.15 12.209 23.951 25.359 25.359 86.877 11.743 177.986 17.847 270.967 17.847s184.090-6.104 270.967-17.847c13.15-1.883 23.951-12.209 25.359-25.359 1.883-12.684 3.29-25.359 4.697-38.043 0-0.941 0.941-0.941 1.407-0.466l40.381 40.857c0 1.407 0 2.814 0 4.221-4.697 33.811-31.939 61.053-65.75 65.75-89.226 12.209-182.683 18.313-277.537 18.313s-188.787-6.104-277.537-18.313c-33.811-4.697-61.053-31.939-65.75-65.75-12.209-89.226-18.313-182.683-18.313-277.537s6.104-188.311 18.313-277.537c4.697-33.811 31.939-61.053 65.75-65.75 89.226-12.209 182.683-18.313 277.537-18.313s188.311 6.104 277.537 18.313c33.811 4.697 61.053 31.939 65.75 65.75 12.209 89.226 18.313 182.207 18.313 277.537 0 27.241-0.466 54.473-1.407 81.239 0 0.941-0.941 1.407-1.407 0.466l-17.371-16.44zM941.699 715.677c-9.394 9.394-23.951 9.394-33.346 0l-405.271-405.271c-0.466-0.466-0.941-0.466-1.407 0l-151.686 151.686c-9.394 9.394-23.951 9.394-33.346 0s-9.394-23.951 0-33.346l169.057-169.057c4.221-4.221 10.336-7.046 16.44-7.046s12.209 2.349 16.44 7.046l422.653 422.653c9.394 8.919 9.394 23.951 0.466 33.346z" />
<glyph unicode="&#xe94a;" glyph-name="radio" d="M512 816.55c203.775 0 369.85-165.914 369.85-369.85s-166.075-369.686-369.85-369.686-369.85 166.075-369.85 369.85 166.075 369.686 369.85 369.686zM512 862.864c-229.775 0-416-186.225-416-416s186.225-416 416-416 416 186.225 416 416-186.225 416-416 416v0 0z" />
<glyph unicode="&#xe94b;" glyph-name="buy" d="M467.3 641.538h-292.064v69.738c0 64.123 51.951 116.076 116.076 116.076s116.076-51.951 116.076-116.076c0-13.106 10.294-23.4 23.399-23.4s23.399 10.294 23.399 23.4c0 89.864-73.018 162.884-162.884 162.884s-162.884-73.019-162.884-162.884v-69.266h-13.106c-43.998 0-79.571-35.572-79.571-79.571v-460.562c0-43.998 35.572-79.571 79.571-79.571h351.97c43.996 0 79.571 35.572 79.571 79.571v460.56c0 43.53-35.572 79.1-79.571 79.1zM115.332 594.736h13.106v-69.266c0-13.106 10.294-23.399 23.399-23.399s23.4 10.294 23.4 23.399v69.266h292.064c18.258 0 32.764-14.506 32.764-32.764v-292.062h-417.496v292.064c0 18.258 14.506 32.764 32.762 32.764zM467.3 68.65h-351.97c-18.256 0-32.762 14.506-32.762 32.762v121.69h417.496v-121.69c0-17.788-14.506-32.762-32.764-32.762zM872.164 486.146v162.884c0 64.123-51.951 116.076-116.076 116.076s-116.546-51.488-116.546-116.076v-208.752c0-25.742-20.598-46.338-46.338-46.338-13.106 0-23.4-10.294-23.4-23.4s10.294-23.4 23.4-23.4c51.49 0 93.14 41.656 93.14 93.14v208.752c0 38.376 31.362 69.266 69.268 69.266 38.376 0 69.268-31.362 69.268-69.266v-162.884c-65.056-6.554-116.076-61.314-116.076-128.242v-207.342c0-71.148 57.572-128.712 128.712-128.712h21.528c71.148 0 128.712 57.572 128.712 128.712v207.342c0.468 66.926-50.55 122.16-115.608 128.242zM941.432 150.554c0-44.928-36.976-81.912-81.912-81.912h-21.528c-44.928 0-81.912 36.976-81.912 81.912v207.342c0 44.928 36.976 81.912 81.912 81.912h21.528c44.928 0 81.912-36.976 81.912-81.912v-207.342zM848.762 370.538c-12.636 0-23.4-10.294-23.4-23.4v-46.338c0-12.636 10.294-23.4 23.4-23.4s23.4 10.294 23.4 23.4v46.338c0 13.106-10.764 23.4-23.4 23.4z" />
<glyph unicode="&#xe94c;" glyph-name="clock" d="M512 29.486c-230.666 0-418.514 187.849-418.514 418.514s187.849 418.514 418.514 418.514c230.666 0 418.514-187.849 418.514-418.514s-187.849-418.514-418.514-418.514zM512 817.853c-203.908 0-369.853-165.945-369.853-369.853s165.945-369.853 369.853-369.853c203.908 0 369.853 165.945 369.853 369.853s-165.945 369.853-369.853 369.853zM643.399 292.27c-6.327 0-12.655 2.44-17.038 7.306l-138.692 138.209c0 0 0 0 0 0v315.347c0 12.655 9.25 24.331 22.387 25.309 14.598 1.461 26.275-10.215 26.275-24.331v-296.365c0 0 0 0 0 0l124.093-124.093c9.732-9.732 9.732-24.813 0-34.546-4.383-4.383-10.711-6.81-17.038-6.81z" />
<glyph unicode="&#xe94d;" glyph-name="multimedia" d="M896.192 688.882h-548.845c-17.075 0-30.492 13.417-30.492 30.492s13.417 30.492 30.492 30.492h548.845c17.075 0 30.492-13.417 30.492-30.492s-13.417-30.492-30.492-30.492zM676.653 414.46h-329.306c-17.075 0-30.492 13.417-30.492 30.492s13.417 30.492 30.492 30.492h329.306c17.075 0 30.492-13.417 30.492-30.492s-13.417-30.492-30.492-30.492zM896.192 140.037h-548.845c-17.075 0-30.492 13.417-30.492 30.492s13.417 30.492 30.492 30.492h548.845c17.075 0 30.492-13.417 30.492-30.492s-13.417-30.492-30.492-30.492zM155.251 668.76c-27.443 0-50.006 22.562-50.006 50.006s22.562 50.006 50.006 50.006 50.006-22.562 50.006-50.006-22.562-50.006-50.006-50.006zM155.251 397.994c-27.443 0-50.006 22.562-50.006 50.006s22.562 50.006 50.006 50.006 50.006-22.562 50.006-50.006-22.562-50.006-50.006-50.006zM155.251 119.914c-27.443 0-50.006 22.562-50.006 50.006s22.562 50.006 50.006 50.006 50.006-22.562 50.006-50.006-22.562-50.006-50.006-50.006z" />
<glyph unicode="&#xe94e;" glyph-name="download" d="M888.106 254.136c-12.118 7.070-27.263 3.026-34.828-9.092-0.509-1.004-75.226-123.686-220.618-123.686h-242.324c-144.387 0-217.592 118.638-220.618 124.195-7.070 12.118-22.723 16.149-34.333 8.583-12.118-7.070-16.149-22.723-9.092-34.828 3.535-6.053 89.862-148.927 264.030-148.927h242.324c174.167 0 260.495 142.365 264.030 148.927 7.579 12.118 3.535 27.771-8.583 34.828zM495.342 258.688c5.048-4.539 10.605-6.561 16.658-6.561s12.118 2.022 16.658 6.561l201.939 181.746c10.605 9.092 11.101 25.241 2.022 35.846s-25.241 11.101-35.846 2.022l-159.532-143.879v465.473c0 14.14-11.101 25.241-25.241 25.241s-25.241-11.101-25.241-25.241v-465.968l-160.040 144.387c-10.605 9.092-26.258 8.583-35.846-2.022-9.092-10.605-8.583-26.258 2.022-35.846l202.447-181.746z" />
<glyph unicode="&#xe94f;" glyph-name="info-negative" d="M512 960c-282.548 0-512-229.452-512-512s229.452-512 512-512 512 229.452 512 512c0 282.548-229.452 512-512 512zM587.852 185.679c0-42.351-32.869-77.116-75.22-77.116-39.822 0-73.956 34.133-73.956 77.116v313.521c0 43.615 30.973 77.116 73.956 77.116 42.351 0 75.22-33.501 75.22-77.116v-313.521zM512.632 644.583c-42.351 0-75.852 35.398-75.852 77.748s32.869 75.852 75.852 75.852c42.351 0 75.852-33.501 75.852-75.852s-35.398-77.748-75.852-77.748z" />
<glyph unicode="&#xe950;" glyph-name="search" d="M460.719 194.467c-78.597 0-152.407 30.676-208 86.269s-86.269 129.403-86.269 208c0 78.597 30.676 152.407 86.269 208s129.403 86.269 208 86.269c78.597 0 152.407-30.676 208-86.269v0 0c55.593-55.593 86.269-129.403 86.269-208s-30.676-152.407-86.269-208c-55.593-56.079-129.403-86.269-208-86.269zM460.719 734.121c-65.663 0-127.49-25.403-173.974-71.887s-71.887-108.311-71.887-173.974c0-65.663 25.403-127.49 71.887-173.974s108.311-71.887 173.974-71.887c65.663 0 127.49 25.403 173.974 71.887s71.887 108.311 71.887 173.974c0 65.663-25.403 127.49-71.887 173.974v0c-46.484 46.484-108.311 71.887-173.974 71.887zM817.29 107.723c-6.234 0-12.459 2.399-16.77 7.186l-165.827 165.351c-9.584 9.584-9.584 24.441 0 34.026s24.441 9.584 34.026 0l165.827-165.827c9.584-9.584 9.584-24.441 0-34.026-5.273-4.311-11.507-6.71-17.256-6.71z" />
<glyph unicode="&#xe951;" glyph-name="km" d="M771.5 684.9c-0.3 0.3-0.5 0.7-0.8 1-1.2 1.2-2.6 2.2-4 3.1-68.9 58-157.8 93-254.6 93-96.9 0-185.7-35-254.6-93-1.4-0.9-2.8-1.9-4-3.1-0.3-0.3-0.6-0.7-0.9-1-83.7-72.7-136.7-179.8-136.7-299 0-97.7 35.8-191.5 100.9-264.1 4.4-4.9 10.6-7.7 17.2-7.7h556.3c6.6 0 12.8 2.8 17.2 7.7 65 72.7 100.9 166.5 100.9 264.1-0.2 119.2-53.3 226.3-136.9 299zM779.7 160.1h-158c-9.4 43.2-43.5 77.4-86.7 86.9v180.3c0 12.7-10.3 23-23 23s-23-10.3-23-23v-179.7c-44.6-8.6-80.1-43.3-89.7-87.5h-155c-53.2 63.1-82.5 142.8-82.5 225.7 0 6.2 0.2 12.3 0.5 18.4h59.4c12.7 0 23 10.3 23 23s-10.3 23-23 23h-53.8c13.6 72.9 49.9 137.8 101.2 187.3l60.8-60.8c4.5-4.5 10.4-6.7 16.3-6.7s11.8 2.2 16.3 6.7c9 9 9 23.6 0 32.6l-58.1 58.1c52.3 38.7 115.8 63.1 184.6 67.6v-59c0-12.7 10.3-23 23-23s23 10.3 23 23v59.1c68.8-4.5 132.3-28.9 184.6-67.6l-58.1-58.1c-9-9-9-23.6 0-32.6 4.5-4.5 10.4-6.7 16.3-6.7s11.8 2.2 16.3 6.7l60.8 60.8c51.3-49.5 87.5-114.5 101.2-187.3h-53.8c-12.7 0-23-10.3-23-23s10.3-23 23-23h59.4c0.3-6.1 0.5-12.2 0.5-18.4-0.1-83-29.3-162.8-82.5-225.8z" />
<glyph unicode="&#xe952;" glyph-name="house" d="M957.696 543.476l-334.384 222.848c-67.648 45.096-154.984 45.096-222.628 0l-334.384-222.848c-12.208-8.14-15.508-24.64-7.368-36.848s24.64-15.508 36.848-7.368l78.316 52.248v-371.672c0-46.308 40.588-84.036 90.416-84.036h494.644c49.828 0 90.416 37.728 90.416 84.036v371.672l78.316-52.248c4.508-2.968 9.68-4.508 14.74-4.508 8.58 0 17.048 4.18 22.108 11.88 8.468 12.208 5.168 28.708-7.040 36.848zM442.812 149.036v196.78c0 20.568 16.72 37.288 37.288 37.288h63.796c20.568 0 37.288-16.72 37.288-37.288v-196.78h-138.372zM796.556 179.832c0-16.72-17.048-30.908-37.288-30.908h-124.952v196.892c0 49.828-40.588 90.416-90.416 90.416h-63.796c-49.828 0-90.416-40.588-90.416-90.416v-196.78h-125.064c-20.24 0-37.288 14.080-37.288 30.908v406.98l202.828 135.184c49.716 33.108 113.956 33.108 163.56 0l202.828-135.184v-407.088z" />
<glyph unicode="&#xe953;" glyph-name="cart" horiz-adv-x="1448" d="M1019.198 342.764h-387.673c-57.481 0-108.48 38.892-123.603 94.645l-75.633 277.033c-9.076 33.278-39.325 56.188-73.473 56.188h-116.254c-14.264 0-25.928 11.672-25.928 25.928s11.672 25.928 25.928 25.928h116.254c57.481 0 108.48-38.892 123.603-94.645l75.633-277.033c9.076-33.278 39.325-56.188 73.473-56.188h387.673c15.561 0 30.248 7.778 39.76 20.316 0 0 0 0 0 0l125.328 275.302c0 0.435 0.435 0.869 0 1.726s-0.869 0.869-1.292 0.869h-540.665c-14.264 0-25.928 11.672-25.928 25.928s11.672 25.928 25.928 25.928h540.665c18.156 0 35.004-9.076 44.95-24.637s11.237-34.569 3.886-50.999l-125.328-275.302c-1.726-3.454-3.030-6.481-5.19-9.076-19.012-26.363-49.702-41.92-82.118-41.92zM631.528 70.487c-57.046 0-103.721 46.679-103.721 103.721s46.679 103.721 103.721 103.721 103.721-46.679 103.721-103.721-46.679-103.721-103.721-103.721zM631.528 226.077c-28.523 0-51.864-23.335-51.864-51.864s23.335-51.864 51.864-51.864 51.864 23.335 51.864 51.864-23.335 51.864-51.864 51.864zM1020.499 70.487c-57.046 0-103.721 46.679-103.721 103.721s46.679 103.721 103.721 103.721 103.721-46.679 103.721-103.721-46.679-103.721-103.721-103.721zM1020.499 226.077c-28.523 0-51.864-23.335-51.864-51.864s23.335-51.864 51.864-51.864 51.864 23.335 51.864 51.864-23.335 51.864-51.864 51.864z" />
<glyph unicode="&#xe954;" glyph-name="present" d="M714.864 574.078h-511.877c-36.085 0-65.87-29.37-65.87-65.87v-307.124c0-36.085 29.37-65.87 65.87-65.87h511.877c36.085 0 65.87 29.37 65.87 65.87v307.124c0 36.5-29.37 65.87-65.87 65.87zM742.134 201.084c0-15.103-12.167-27.27-27.27-27.27h-511.877c-15.103 0-27.27 12.167-27.27 27.27v307.124c0 15.103 12.167 27.27 27.27 27.27h511.877c15.103 0 27.27-12.167 27.27-27.27v-307.124zM700.176 377.304h-221.114v126.71c0 10.909-8.809 19.718-19.718 19.718v0c-10.909 0-19.718-8.809-19.718-19.718v-126.71h-228.666c0 0 0 0 0 0-10.909 0-19.718-8.809-19.718-19.718s8.809-19.718 19.718-19.718h228.666v-129.647c0-10.909 8.809-19.718 19.718-19.718v0c10.909 0 19.718 8.809 19.718 19.718v129.647h221.114c0 0 0 0 0 0 10.909 0 19.718 8.809 19.718 19.718s-8.809 19.718-19.718 19.718zM356.13 609.327c28.534-17.203 52.025-25.591 70.070-25.591 10.909 0 20.14 2.936 27.27 8.809 0.421 0.421 0.836 0.836 1.679 1.258 0.421-0.421 0.836-0.836 1.679-1.258 7.13-5.873 16.361-8.809 27.27-8.809 18.461 0 41.958 8.809 70.070 25.591 31.049 18.882 64.191 46.152 80.979 66.291 35.664 43.637 35.243 103.213-0.836 133.004s-94.825 18.461-130.489-25.176c-16.361-19.718-36.085-56.64-48.673-89.789-12.588 33.149-32.306 70.070-48.673 89.789v0c-35.664 43.637-94.404 54.961-130.489 25.176s-36.5-89.367-0.836-133.004c16.782-20.14 49.931-47.41 80.979-66.291zM533.608 759.113c21.818 26.434 56.64 35.664 76.364 19.718 19.303-15.946 17.203-52.025-4.615-78.458-32.306-39.437-108.671-84.331-123.774-78.043-9.652 13.846 19.718 97.34 52.025 136.783zM300.327 778.832c6.715 5.452 14.688 7.973 23.918 7.973 17.624 0 37.764-10.067 52.446-27.691 32.306-39.437 61.676-122.931 52.446-136.783-15.524-6.715-91.467 38.179-123.774 78.043-22.24 26.434-24.334 62.519-5.036 78.458zM907.023 594.218c-10.488 1.258-19.718-5.873-21.397-15.946-1.679-5.036-14.267-21.818-31.47-23.918-23.497-3.358-45.731 22.655-59.997 44.894-1.258 2.1-2.936 4.194-4.194 6.294 22.24-13.846 41.537-18.882 57.061-18.882 14.688 0 26.855 4.194 36.085 9.652 28.949 17.203 41.958 52.867 38.6 71.328-2.1 10.488-12.167 17.203-22.655 15.524-10.067-2.1-17.203-11.746-15.524-21.818 0-5.452-7.13-25.176-22.655-32.728-21.397-10.488-50.346 7.552-70.907 24.334-32.306 26.434-65.87 37.764-99.855 33.564-55.804-7.13-91.046-54.125-92.725-56.225-6.294-8.809-4.615-20.561 4.194-26.855 8.394-5.873 19.718-4.615 26.012 3.358 6.715 4.615 39.858 23.918 74.264 17.203 22.655-4.194 42.794-19.718 59.161-45.316 31.885-49.931 63.776-63.355 88.11-63.355 5.452 0 10.488 0.836 15.524 1.679 32.728 7.552 56.225 37.343 58.74 55.804 1.679 10.067-5.873 19.718-16.361 21.397z" />
<glyph unicode="&#xe955;" glyph-name="info-bold" d="M512-64c-282.463 0-512 229.537-512 512s229.537 512 512 512c282.463 0 512-229.537 512-512s-229.537-512-512-512zM512 867.955c-231.838 0-419.955-188.117-419.955-419.955s188.117-419.955 419.955-419.955c231.838 0 419.955 188.117 419.955 419.955s-188.117 419.955-419.955 419.955zM512 145.978c-25.312 0-46.022 20.71-46.022 46.022v272.108c0 25.312 20.71 46.022 46.022 46.022s46.022-20.71 46.022-46.022v-272.108c0-25.312-20.71-46.022-46.022-46.022zM512 588.944c-25.312 0-46.022 20.71-46.022 46.022v29.915c0 25.312 20.71 46.022 46.022 46.022s46.022-20.71 46.022-46.022v-29.915c0-25.312-20.71-46.022-46.022-46.022z" />
</font>
</defs>
</svg>
