<?xml version="1.0" encoding="utf-8"?>
<!-- Generator: Adobe Illustrator 19.2.1, SVG Export Plug-In . SVG Version: 6.00 Build 0)  -->
<svg version="1.1" id="Livello_1" xmlns="http://www.w3.org/2000/svg" xmlns:xlink="http://www.w3.org/1999/xlink" x="0px" y="0px"
	 viewBox="0 0 159.8 109.2" style="enable-background:new 0 0 159.8 109.2;" xml:space="preserve">
<style type="text/css">
	.st0{fill:#B967D9;}
	.st1{display:none;fill:#8334C2;stroke:#8334C2;stroke-miterlimit:10;}
	.st2{fill:#FFFFFF;}
</style>
<path class="st0" d="M140.6,102.3H20.3c-6.6,0-12-5.4-12-12V18.7c0-6.6,5.4-12,12-12h120.3c6.6,0,12,5.4,12,12v71.6
	C152.6,96.9,147.2,102.3,140.6,102.3z"/>
<path class="st1" d="M144.1,3.8h-128c-6.6,0-12,5.4-12,12v78c0,6.6,5.4,12,12,12h128c6.6,0,12-5.4,12-12v-78
	C156.1,9.2,150.7,3.8,144.1,3.8z M148.7,89.2c0,5.8-4.9,10.6-10.8,10.6H22.4c-6,0-10.8-4.8-10.8-10.6V20.1c0-5.8,4.9-10.6,10.8-10.6
	h115.5c6,0,10.8,4.8,10.8,10.6V89.2z"/>
<g>
	<path class="st2" d="M25.7,33.9h5.5c0.5,0,1.1,0.1,1.6,0.2s1,0.3,1.4,0.6c0.4,0.3,0.7,0.7,1,1.1c0.3,0.5,0.4,1,0.4,1.6
		c0,0.8-0.2,1.5-0.7,2c-0.5,0.5-1,0.9-1.8,1.1v0c0.4,0.1,0.9,0.2,1.2,0.4s0.7,0.4,1,0.7c0.3,0.3,0.5,0.6,0.6,1
		c0.2,0.4,0.2,0.8,0.2,1.3c0,0.8-0.2,1.4-0.5,1.9c-0.3,0.5-0.7,0.9-1.2,1.2s-1.1,0.5-1.7,0.7c-0.6,0.1-1.3,0.2-2,0.2h-5.1V33.9z
		 M28.3,39.6h2.3c0.8,0,1.5-0.2,1.9-0.5c0.4-0.3,0.6-0.8,0.6-1.3c0-0.6-0.2-1.1-0.6-1.4C32,36.2,31.3,36,30.3,36h-2.1V39.6z
		 M28.3,45.9h2.3c0.3,0,0.7,0,1-0.1c0.4,0,0.7-0.1,1-0.3s0.6-0.4,0.8-0.6c0.2-0.3,0.3-0.6,0.3-1.1c0-0.7-0.2-1.3-0.7-1.6
		c-0.5-0.3-1.2-0.4-2.3-0.4h-2.4V45.9z"/>
	<path class="st2" d="M39.9,41c0-1.1,0.2-2.2,0.6-3.1c0.4-0.9,0.9-1.7,1.6-2.4c0.7-0.7,1.4-1.2,2.4-1.5c0.9-0.4,1.9-0.5,3-0.5
		c1.1,0,2.1,0.1,3,0.5s1.7,0.8,2.4,1.5c0.7,0.7,1.2,1.4,1.6,2.4c0.4,0.9,0.6,1.9,0.6,3.1c0,1.1-0.2,2.1-0.6,3
		c-0.4,0.9-0.9,1.7-1.6,2.3c-0.7,0.7-1.5,1.2-2.4,1.5s-1.9,0.6-3,0.6c-1.1,0-2.1-0.2-3-0.5c-0.9-0.4-1.7-0.9-2.4-1.5
		c-0.7-0.6-1.2-1.4-1.6-2.3C40.1,43.1,39.9,42.1,39.9,41z M42.6,40.9c0,0.8,0.1,1.5,0.4,2.1c0.2,0.6,0.6,1.2,1,1.7s0.9,0.8,1.5,1.1
		c0.6,0.3,1.3,0.4,2,0.4s1.4-0.1,2-0.4c0.6-0.3,1.1-0.6,1.5-1.1s0.8-1,1-1.7c0.2-0.6,0.4-1.3,0.4-2.1c0-0.7-0.1-1.4-0.4-2
		c-0.2-0.6-0.6-1.1-1-1.6c-0.4-0.5-0.9-0.8-1.5-1.1c-0.6-0.3-1.3-0.4-2-0.4s-1.4,0.1-2,0.4c-0.6,0.3-1.1,0.6-1.5,1.1
		c-0.4,0.5-0.8,1-1,1.6C42.7,39.5,42.6,40.2,42.6,40.9z"/>
	<path class="st2" d="M59.4,33.9h3.3l6.9,10.5h0V33.9h2.5V48h-3.2l-7-10.9h0V48h-2.5V33.9z"/>
	<path class="st2" d="M77.2,33.9h2.5V48h-2.5V33.9z"/>
	<path class="st2" d="M84.8,33.9H94v2.3h-6.6v3.7h6.2v2.3h-6.2V48h-2.5V33.9z"/>
	<path class="st2" d="M98.3,33.9h2.5V48h-2.5V33.9z"/>
	<path class="st2" d="M115.6,37.2c-0.5-0.6-1-0.9-1.5-1.1s-1-0.3-1.5-0.3c-0.7,0-1.4,0.1-2,0.4c-0.6,0.3-1.1,0.6-1.5,1.1
		c-0.4,0.5-0.8,1-1,1.6c-0.2,0.6-0.4,1.3-0.4,2c0,0.8,0.1,1.5,0.4,2.1c0.2,0.6,0.6,1.2,1,1.7s0.9,0.8,1.5,1.1c0.6,0.3,1.3,0.4,2,0.4
		c0.6,0,1.1-0.1,1.7-0.4s1-0.7,1.5-1.3l2.1,1.5c-0.6,0.9-1.4,1.5-2.3,1.9c-0.9,0.4-1.9,0.6-2.9,0.6c-1.1,0-2.1-0.2-3-0.5
		s-1.7-0.9-2.4-1.5c-0.7-0.6-1.2-1.4-1.6-2.3c-0.4-0.9-0.6-1.9-0.6-3c0-1.1,0.2-2.2,0.6-3.1c0.4-0.9,0.9-1.7,1.6-2.4
		c0.7-0.7,1.4-1.2,2.4-1.5c0.9-0.4,1.9-0.5,3-0.5c1,0,1.9,0.2,2.7,0.5c0.8,0.3,1.6,0.9,2.3,1.7L115.6,37.2z"/>
	<path class="st2" d="M120.8,41c0-1.1,0.2-2.2,0.6-3.1c0.4-0.9,0.9-1.7,1.6-2.4c0.7-0.7,1.4-1.2,2.4-1.5c0.9-0.4,1.9-0.5,3-0.5
		c1.1,0,2.1,0.1,3,0.5s1.7,0.8,2.4,1.5c0.7,0.7,1.2,1.4,1.6,2.4s0.6,1.9,0.6,3.1c0,1.1-0.2,2.1-0.6,3c-0.4,0.9-0.9,1.7-1.6,2.3
		c-0.7,0.7-1.5,1.2-2.4,1.5s-1.9,0.6-3,0.6c-1.1,0-2.1-0.2-3-0.5s-1.7-0.9-2.4-1.5c-0.7-0.6-1.2-1.4-1.6-2.3
		C121,43.1,120.8,42.1,120.8,41z M123.5,40.9c0,0.8,0.1,1.5,0.4,2.1c0.2,0.6,0.6,1.2,1,1.7s0.9,0.8,1.5,1.1c0.6,0.3,1.3,0.4,2,0.4
		s1.4-0.1,2-0.4c0.6-0.3,1.1-0.6,1.5-1.1s0.8-1,1-1.7c0.2-0.6,0.3-1.3,0.3-2.1c0-0.7-0.1-1.4-0.3-2c-0.2-0.6-0.6-1.1-1-1.6
		c-0.4-0.5-0.9-0.8-1.5-1.1c-0.6-0.3-1.3-0.4-2-0.4s-1.4,0.1-2,0.4c-0.6,0.3-1.1,0.6-1.5,1.1c-0.4,0.5-0.8,1-1,1.6
		C123.6,39.5,123.5,40.2,123.5,40.9z"/>
</g>
<g>
	<path class="st2" d="M21.2,60.3h5.5c0.5,0,1.1,0.1,1.6,0.2s1,0.3,1.4,0.6c0.4,0.3,0.7,0.7,1,1.1c0.3,0.5,0.4,1,0.4,1.6
		c0,0.8-0.2,1.5-0.7,2c-0.5,0.5-1,0.9-1.8,1.1v0c0.4,0.1,0.9,0.2,1.2,0.4s0.7,0.4,1,0.7c0.3,0.3,0.5,0.6,0.6,1
		c0.2,0.4,0.2,0.8,0.2,1.3c0,0.8-0.2,1.4-0.5,1.9c-0.3,0.5-0.7,0.9-1.2,1.2s-1.1,0.5-1.7,0.7c-0.6,0.1-1.3,0.2-2,0.2h-5.1V60.3z
		 M23.8,66h2.3c0.8,0,1.5-0.2,1.9-0.5c0.4-0.3,0.6-0.8,0.6-1.3c0-0.6-0.2-1.1-0.6-1.4c-0.4-0.3-1.1-0.5-2.1-0.5h-2.1V66z M23.8,72.3
		h2.3c0.3,0,0.7,0,1-0.1c0.4,0,0.7-0.1,1-0.3s0.6-0.4,0.8-0.6c0.2-0.3,0.3-0.6,0.3-1.1c0-0.7-0.2-1.3-0.7-1.6
		c-0.5-0.3-1.2-0.4-2.3-0.4h-2.4V72.3z"/>
	<path class="st2" d="M40.8,60.3H43l6.1,14.2h-2.9l-1.3-3.2h-6.1l-1.3,3.2h-2.8L40.8,60.3z M44,69l-2.2-5.8L39.6,69H44z"/>
	<path class="st2" d="M52.6,60.3H56l6.9,10.5h0V60.3h2.5v14.2h-3.2l-7-10.9h0v10.9h-2.5V60.3z"/>
	<path class="st2" d="M80.3,63.6c-0.5-0.6-1-0.9-1.5-1.1c-0.5-0.2-1-0.3-1.5-0.3c-0.7,0-1.4,0.1-2,0.4c-0.6,0.3-1.1,0.6-1.5,1.1
		c-0.4,0.5-0.8,1-1,1.6c-0.2,0.6-0.4,1.3-0.4,2c0,0.8,0.1,1.5,0.4,2.1c0.2,0.6,0.6,1.2,1,1.7s0.9,0.8,1.5,1.1c0.6,0.3,1.3,0.4,2,0.4
		c0.6,0,1.1-0.1,1.7-0.4c0.5-0.3,1-0.7,1.5-1.3l2.1,1.5c-0.6,0.9-1.4,1.5-2.3,1.9c-0.9,0.4-1.9,0.6-2.9,0.6c-1.1,0-2.1-0.2-3-0.5
		c-0.9-0.4-1.7-0.9-2.4-1.5c-0.7-0.6-1.2-1.4-1.6-2.3c-0.4-0.9-0.6-1.9-0.6-3c0-1.1,0.2-2.2,0.6-3.1c0.4-0.9,0.9-1.7,1.6-2.4
		c0.7-0.7,1.4-1.2,2.4-1.5c0.9-0.4,1.9-0.5,3-0.5c1,0,1.9,0.2,2.7,0.5c0.8,0.3,1.6,0.9,2.3,1.7L80.3,63.6z"/>
	<path class="st2" d="M90.8,60.3H93l6.1,14.2h-2.9l-1.3-3.2h-6.1l-1.3,3.2h-2.8L90.8,60.3z M94,69l-2.2-5.8L89.6,69H94z"/>
	<path class="st2" d="M102.7,60.3h4.9c0.7,0,1.3,0.1,2,0.2c0.6,0.1,1.2,0.3,1.7,0.6c0.5,0.3,0.9,0.7,1.2,1.2c0.3,0.5,0.4,1.2,0.4,2
		c0,1-0.3,1.9-0.8,2.6s-1.4,1.1-2.4,1.3l3.8,6.3h-3l-3.3-6h-1.8v6h-2.5V60.3z M107.2,66.3c0.4,0,0.7,0,1.1,0s0.7-0.1,1-0.2
		c0.3-0.1,0.5-0.3,0.7-0.6c0.2-0.3,0.3-0.6,0.3-1.1c0-0.4-0.1-0.7-0.3-1c-0.2-0.3-0.4-0.4-0.7-0.6c-0.3-0.1-0.6-0.2-0.9-0.2
		s-0.7-0.1-1-0.1h-2.2v3.8H107.2z"/>
	<path class="st2" d="M117.2,60.3h2.5v14.2h-2.5V60.3z"/>
	<path class="st2" d="M124.1,67.4c0-1.1,0.2-2.2,0.6-3.1c0.4-0.9,0.9-1.7,1.6-2.4c0.7-0.7,1.4-1.2,2.4-1.5c0.9-0.4,1.9-0.5,3-0.5
		c1.1,0,2.1,0.1,3,0.5s1.7,0.8,2.4,1.5c0.7,0.7,1.2,1.4,1.6,2.4s0.6,1.9,0.6,3.1c0,1.1-0.2,2.1-0.6,3c-0.4,0.9-0.9,1.7-1.6,2.3
		c-0.7,0.7-1.5,1.2-2.4,1.5s-1.9,0.6-3,0.6c-1.1,0-2.1-0.2-3-0.5s-1.7-0.9-2.4-1.5c-0.7-0.6-1.2-1.4-1.6-2.3
		C124.3,69.5,124.1,68.5,124.1,67.4z M126.7,67.3c0,0.8,0.1,1.5,0.4,2.1c0.2,0.6,0.6,1.2,1,1.7s0.9,0.8,1.5,1.1
		c0.6,0.3,1.3,0.4,2,0.4s1.4-0.1,2-0.4c0.6-0.3,1.1-0.6,1.5-1.1s0.8-1,1-1.7c0.2-0.6,0.3-1.3,0.3-2.1c0-0.7-0.1-1.4-0.3-2
		c-0.2-0.6-0.6-1.1-1-1.6c-0.4-0.5-0.9-0.8-1.5-1.1c-0.6-0.3-1.3-0.4-2-0.4s-1.4,0.1-2,0.4c-0.6,0.3-1.1,0.6-1.5,1.1
		c-0.4,0.5-0.8,1-1,1.6C126.9,65.9,126.7,66.6,126.7,67.3z"/>
</g>
</svg>
