<?xml version="1.0" encoding="utf-8"?>
<!-- Generator: Adobe Illustrator 19.2.1, SVG Export Plug-In . SVG Version: 6.00 Build 0)  -->
<svg version="1.1" id="Livello_1" xmlns="http://www.w3.org/2000/svg" xmlns:xlink="http://www.w3.org/1999/xlink" x="0px" y="0px"
	 viewBox="0 0 159.8 109.2" style="enable-background:new 0 0 159.8 109.2;" xml:space="preserve">
<style type="text/css">
	.st0{fill:#FFFFFF;}
	.st1{fill:#FAB041;}
	.st2{fill:#EB2135;}
	.st3{fill:#003671;}
</style>
<g id="Layer_1">
	<g>
		<path class="st0" d="M143.9,105.6h-128c-6.6,0-12-5.4-12-12v-78c0-6.6,5.4-12,12-12h128c6.6,0,12,5.4,12,12v78
			C155.9,100.2,150.5,105.6,143.9,105.6z"/>
		<path class="st0" d="M143.9,105.6h-128c-6.6,0-12-5.4-12-12v-78c0-6.6,5.4-12,12-12h128c6.6,0,12,5.4,12,12v78
			C155.9,100.2,150.5,105.6,143.9,105.6z"/>
		<path class="st1" d="M80.3,85.7c7.4,6.7,17.2,10.9,28,10.9c23,0,41.7-18.8,41.7-41.9c0-23.2-18.7-41.9-41.7-41.9
			c-10.8,0-20.6,4.1-28,10.9c-8.4,7.7-13.7,18.8-13.7,31.1C66.6,66.9,71.8,78,80.3,85.7L80.3,85.7z"/>
		<path class="st1" d="M144.3,78c0-0.7,0.6-1.4,1.3-1.4s1.3,0.6,1.3,1.4c0,0.7-0.6,1.4-1.3,1.4C144.9,79.3,144.3,78.7,144.3,78
			L144.3,78z M145.7,79c0.6,0,1-0.5,1-1c0-0.6-0.5-1-1-1c-0.6,0-1,0.5-1,1S145.1,79,145.7,79L145.7,79z M145.5,78.5h-0.3v-1.2h0.5
			c0.1,0,0.2,0,0.3,0.1s0.2,0.2,0.2,0.3c0,0.1-0.1,0.3-0.2,0.3l0.2,0.5h-0.3l-0.2-0.5h-0.2V78.5v-0.7h0.2c0.1,0,0.1,0,0.2,0l0.1-0.1
			c0,0,0-0.1-0.1-0.1c0,0-0.1,0-0.2,0h-0.2v0.3V78.5L145.5,78.5z"/>
		<path class="st2" d="M93.7,50.1c-0.2-1.5-0.4-3-0.7-4.4H67.5c0.3-1.5,0.7-3,1.2-4.4h23.1c-0.5-1.5-1.1-3-1.8-4.4H70.5
			c0.7-1.5,1.5-3,2.4-4.4h14.8c-1-1.6-2-3-3.2-4.4h-8.4c1.3-1.6,2.7-3.1,4.2-4.4c-7.4-6.7-17.2-10.9-28-10.9
			c-23,0-41.7,18.8-41.7,41.9c0,23.2,18.7,41.9,41.7,41.9c10.8,0,20.6-4.1,28-10.9l0,0l0,0c1.5-1.4,2.9-2.9,4.2-4.4h-8.4
			c-1.1-1.4-2.2-2.9-3.2-4.4h14.8c0.9-1.4,1.7-2.9,2.4-4.4H70.5c-0.7-1.4-1.3-2.9-1.8-4.4h23.1c0.5-1.4,0.9-2.9,1.2-4.4
			c0.3-1.5,0.5-2.9,0.7-4.4s0.2-2.9,0.2-4.4C93.9,53.1,93.9,51.6,93.7,50.1L93.7,50.1z"/>
		<path class="st0" d="M144.3,64.3c0-0.7,0.6-1.4,1.3-1.4s1.3,0.6,1.3,1.4c0,0.7-0.6,1.4-1.3,1.4C144.9,65.7,144.3,65.1,144.3,64.3
			L144.3,64.3z M145.7,65.3c0.6,0,1-0.5,1-1c0-0.6-0.5-1-1-1c-0.6,0-1,0.5-1,1C144.7,64.9,145.1,65.3,145.7,65.3L145.7,65.3z
			 M145.5,64.9h-0.3v-1.2h0.5c0.1,0,0.2,0,0.3,0.1s0.2,0.2,0.2,0.3s-0.1,0.3-0.2,0.3l0.2,0.5h-0.3l-0.2-0.5h-0.2V64.9v-0.7h0.2
			c0.1,0,0.1,0,0.2,0l0.1-0.1c0,0,0-0.1-0.1-0.1c0,0-0.1,0-0.2,0h-0.2v0.3V64.9L145.5,64.9z"/>
		<path class="st3" d="M66.1,66.7c-1.4,0.4-2.4,0.6-3.4,0.6c-2.1,0-3.4-1.3-3.4-3.8c0-0.5,0-1,0.1-1.6l0.3-1.7l0.2-1.4l2-11.8h4.3
			l-0.5,2.6h2.7L67.8,54h-2.7l-1.2,7.1c-0.1,0.3-0.1,0.6-0.1,0.7c0,0.9,0.5,1.3,1.5,1.3c0.5,0,0.9-0.1,1.4-0.2L66.1,66.7L66.1,66.7z
			"/>
		<path class="st3" d="M80.1,66.5c-1.5,0.5-3,0.7-4.6,0.7c-4.8,0-7.7-2.7-7.7-7.7c0-5.9,3.4-10.3,7.9-10.3c3.7,0,6.1,2.4,6.1,6.3
			c0,1.3-0.2,2.5-0.6,4.3h-9c0,0.3,0,0.4,0,0.5c0,2,1.3,3,4,3c1.6,0,3.1-0.3,4.7-1.1L80.1,66.5L80.1,66.5z M77.4,56.2
			c0-0.4,0-0.7,0-0.9c0-1.4-0.8-2.2-2.1-2.2c-1.4,0-2.5,1.1-2.9,3.1L77.4,56.2L77.4,56.2z"/>
		<polygon class="st3" points="31.6,66.9 27,66.9 29.6,50.6 23.8,66.9 20.8,66.9 20.4,50.6 17.7,66.9 13.3,66.9 16.8,45.6 
			23.3,45.6 23.5,58.8 27.9,45.6 35,45.6 		"/>
		<path class="st3" d="M42.4,59.2c-0.5-0.1-0.6-0.1-0.9-0.1c-2.6,0-3.9,1-3.9,2.6c0,1.1,0.6,1.8,1.6,1.8
			C41.5,63.5,42.3,61.8,42.4,59.2L42.4,59.2z M46,66.9h-3.9l0.1-1.8c-1,1.3-2.3,2.1-4.7,2.1c-2.2,0-4-1.9-4-4.7
			c0-0.8,0.2-1.6,0.3-2.3c0.7-2.7,3.4-4.4,7.5-4.4c0.5,0,1.3,0,2,0.1c0.1-0.6,0.2-0.8,0.2-1.1c0-1.1-0.9-1.5-3-1.5
			c-1.3,0-2.7,0.2-3.7,0.5L36.2,54l-0.3,0.1l0.6-3.9c2.1-0.6,3.6-0.9,5.3-0.9c3.9,0,5.9,1.8,5.9,5.1c0,0.9,0.1,1.5-0.2,3.4l-0.9,6.1
			L46.4,65l-0.3,0.8L46,66.4V66.9L46,66.9z"/>
		<path class="st3" d="M101.8,49.8c1.3,0,2.4,0.3,4,1.1l0.7-4.6c-0.4-0.2-0.5-0.2-1.1-0.4l-1.9-0.5c-0.6-0.1-1.2-0.2-2-0.2
			c-2.2,0-3.6,0-4.9,0.9c-0.7,0.4-1.6,1.1-2.7,2.3l-0.5-0.2l-4.6,3.3l0.2-1.9h-4.8l-2.7,17.3H86l1.7-9.3c0,0,0.6-1.3,0.9-1.7
			c0.8-1.1,1.6-1.1,2.5-1.1c0.1,0,0.3,0,0.3,0c-0.1,1-0.2,2.1-0.2,3.3c0,5.7,3.2,9.2,8.1,9.2c1.3,0,2.3-0.2,4-0.6l0.8-4.8
			c-1.5,0.7-2.7,1.1-3.8,1.1c-2.6,0-4.2-2-4.2-5.2C96.1,53,98.4,49.8,101.8,49.8L101.8,49.8z"/>
		<path class="st3" d="M140,45.6l-1,6.1c-1.1-1.6-2.4-2.4-4.1-2.4c-2.4,0-4.6,1.4-5.9,3.9l0,0l-2.9-1.7l0.2-1.9h-4.8l-2.8,17.3h4.5
			l1.5-9.3c0,0,1.2-1.3,1.5-1.7c0.7-0.9,1.4-1,2-1.1c-0.5,1.5-0.8,3.2-0.8,5.1c0,4.3,2.2,7.2,5.5,7.2c1.7,0,2.9-0.6,4.2-1.9
			l-0.2,1.7h4.3l3.4-21.3L140,45.6L140,45.6z M134.5,62.8c-1.5,0-2.3-1.1-2.3-3.4c0-3.4,1.5-5.8,3.5-5.8c1.6,0,2.4,1.2,2.4,3.4
			C138.1,60.4,136.6,62.8,134.5,62.8L134.5,62.8z"/>
		<path class="st3" d="M113.7,59.2c-0.5-0.1-0.6-0.1-0.9-0.1c-2.6,0-3.9,1-3.9,2.6c0,1.1,0.6,1.8,1.6,1.8
			C112.7,63.5,113.6,61.8,113.7,59.2L113.7,59.2z M117.3,66.9h-3.9l0.1-1.8c-1,1.3-2.3,2.1-4.7,2.1c-2.2,0-4.2-1.9-4.2-4.7
			c0-4.1,3.1-6.6,8-6.6c0.5,0,1.3,0,2,0.1c0.1-0.6,0.2-0.8,0.2-1.1c0-1.1-0.9-1.5-3-1.5c-1.3,0-2.7,0.2-3.7,0.5l-0.6,0.2l-0.3,0.1
			l0.6-3.9c2.1-0.6,3.6-0.9,5.3-0.9c3.9,0,5.9,1.8,5.9,5.1c0,0.9,0.1,1.5-0.2,3.4l-0.9,6.1l-0.2,1.1l-0.1,0.9l-0.1,0.6L117.3,66.9
			L117.3,66.9z"/>
		<path class="st3" d="M55.4,53.3c0.9,0,2.1,0.1,3.4,0.3l0.6-4c-1.3-0.2-3-0.3-4-0.3c-5.1,0-6.7,2.7-6.7,5.9c0,2.1,1,3.6,3.4,4.7
			c1.8,0.9,2.1,1,2.1,1.8c0,1.1-0.9,1.7-2.7,1.7c-1.3,0-2.6-0.2-4-0.7l-0.5,4h0.1l0.8,0.2c0.3,0.1,0.7,0.1,1.2,0.2
			c1.1,0.1,2,0.2,2.6,0.2c5,0,7.1-2,7.1-5.8c0-2.4-1.1-3.8-3.4-4.8c-1.9-0.9-2.1-1-2.1-1.8C53.2,54,54,53.3,55.4,53.3L55.4,53.3z"/>
		<path class="st0" d="M107.8,45l-0.7,4.6c-1.6-0.8-2.8-1.1-4-1.1c-3.4,0-5.7,3.3-5.7,8c0,3.2,1.6,5.2,4.2,5.2
			c1.1,0,2.3-0.3,3.8-1.1l-0.8,4.8c-1.7,0.5-2.7,0.6-4,0.6c-4.9,0-7.9-3.5-7.9-9.2c0-7.6,4.2-12.9,10.2-12.9c0.8,0,1.4,0.1,2,0.2
			l1.9,0.5C107.3,44.7,107.4,44.8,107.8,45L107.8,45z"/>
		<path class="st0" d="M93.3,48.1c-0.1,0-0.3,0-0.5,0c-1.5,0-2.3,0.8-3.7,2.8l0.4-2.6h-4.1l-2.8,17.3h4.5c1.6-10.6,2-12.4,4.2-12.4
			c0.1,0,0.2,0,0.3,0C92,51.1,92.6,49.6,93.3,48.1L93.3,48.1L93.3,48.1z"/>
		<path class="st0" d="M67.2,65.4C66,65.8,65,66,64,66c-2.3,0-3.6-1.3-3.6-3.8c0-0.5,0-1,0.1-1.6l0.3-1.7l0.2-1.4l2-11.8h4.5
			L67,48.3h2.3l-0.6,4.2h-2.3l-1.2,7.2c-0.1,0.3-0.1,0.6-0.1,0.7c0,0.9,0.5,1.3,1.5,1.3c0.5,0,0.9-0.1,1.2-0.2L67.2,65.4L67.2,65.4z
			"/>
		<path class="st0" d="M49.9,53.7c0,2.2,1.1,3.7,3.4,4.8c1.8,0.9,2.1,1.1,2.1,1.9c0,1.1-0.8,1.6-2.6,1.6c-1.3,0-2.6-0.2-4-0.7
			l-0.6,4h0.2l0.8,0.2c0.3,0.1,0.7,0.1,1.2,0.2c1.1,0.1,1.9,0.1,2.5,0.1c4.8,0,7-1.8,7-5.8c0-2.4-0.9-3.8-3.2-4.8
			c-1.9-0.9-2.1-1.1-2.1-1.9c0-0.9,0.8-1.4,2.2-1.4c0.9,0,2.1,0.1,3.2,0.3l0.6-4c-1.2-0.2-2.9-0.3-4-0.3
			C51.6,47.9,49.8,50.5,49.9,53.7L49.9,53.7z"/>
		<path class="st0" d="M142.3,65.6H138l0.2-1.7c-1.2,1.3-2.5,1.9-4.2,1.9c-3.3,0-5.5-2.9-5.5-7.2c0-5.8,3.4-10.6,7.4-10.6
			c1.8,0,3.1,0.7,4.3,2.4l1-6.1h4.5L142.3,65.6L142.3,65.6z M135.7,61.5c2.1,0,3.6-2.4,3.6-5.8c0-2.2-0.8-3.4-2.4-3.4
			c-2.1,0-3.5,2.4-3.5,5.8C133.4,60.3,134.1,61.5,135.7,61.5L135.7,61.5z"/>
		<path class="st0" d="M81.1,65.2c-1.5,0.5-3,0.7-4.6,0.7c-5.1,0-7.7-2.7-7.7-7.7c0-5.9,3.4-10.3,7.9-10.3c3.7,0,6.1,2.4,6.1,6.3
			c0,1.3-0.2,2.5-0.6,4.3h-9c0,0.3,0,0.4,0,0.5c0,2,1.3,3,4,3c1.6,0,3.1-0.3,4.7-1.1L81.1,65.2L81.1,65.2z M78.5,54.9
			c0-0.4,0-0.7,0-0.9c0-1.4-0.8-2.2-2.1-2.2c-1.4,0-2.5,1.1-2.9,3.1L78.5,54.9L78.5,54.9z"/>
		<polygon class="st0" points="32.7,65.6 28.2,65.6 30.8,49.2 25,65.6 21.9,65.6 21.5,49.3 18.8,65.6 14.6,65.6 18.1,44.3 
			24.6,44.3 24.8,57.5 29.2,44.3 36.2,44.3 		"/>
		<path class="st0" d="M43.9,57.9c-0.5-0.1-0.7-0.1-1-0.1c-2.6,0-3.9,0.9-3.9,2.6c0,1.1,0.6,1.8,1.6,1.8
			C42.4,62.2,43.8,60.4,43.9,57.9L43.9,57.9z M47.1,65.6h-3.7l0.1-1.8c-1.1,1.4-2.7,2.1-4.7,2.1c-2.5,0-4.1-1.9-4.1-4.7
			c0-4.2,2.9-6.7,7.9-6.7c0.5,0,1.2,0,1.8,0.1c0.1-0.6,0.2-0.8,0.2-1.1c0-1.1-0.8-1.6-2.9-1.6c-1.3,0-2.8,0.2-3.8,0.5l-0.6,0.2
			l-0.4,0.1l0.6-3.9c2.3-0.7,3.7-0.9,5.4-0.9c3.9,0,5.9,1.8,5.9,5.1c0,0.9-0.1,1.5-0.4,3.4l-0.9,6.1l-0.2,1.1l-0.1,0.9l-0.1,0.6
			V65.6L47.1,65.6z"/>
		<path class="st0" d="M115.1,57.9c-0.5-0.1-0.7-0.1-1-0.1c-2.6,0-3.9,0.9-3.9,2.6c0,1.1,0.6,1.8,1.6,1.8
			C113.7,62.2,115,60.4,115.1,57.9L115.1,57.9z M118.4,65.6h-3.7l0.1-1.8c-1.1,1.4-2.7,2.1-4.7,2.1c-2.5,0-4.1-1.9-4.1-4.7
			c0-4.2,2.9-6.7,7.9-6.7c0.5,0,1.2,0,1.8,0.1c0.1-0.6,0.2-0.8,0.2-1.1c0-1.1-0.8-1.6-2.9-1.6c-1.3,0-2.8,0.2-3.8,0.5l-0.6,0.2
			l-0.4,0.1l0.6-3.9c2.3-0.7,3.7-0.9,5.4-0.9c3.9,0,5.9,1.8,5.9,5.1c0,0.9-0.1,1.5-0.4,3.4l-0.9,6.1l-0.2,1.1l-0.1,0.9l-0.1,0.6
			L118.4,65.6L118.4,65.6z"/>
		<path class="st0" d="M130.5,48.1c-0.1,0-0.3,0-0.5,0c-1.5,0-2.3,0.8-3.7,2.8l0.4-2.6h-4.1l-2.8,17.3h4.5c1.6-10.6,2-12.4,4.2-12.4
			c0.1,0,0.1,0,0.3,0C129.2,51.1,129.8,49.6,130.5,48.1L130.5,48.1L130.5,48.1z"/>
	</g>
</g>
</svg>
