<svg version="1.1" id="Livello_1" xmlns="http://www.w3.org/2000/svg" xmlns:xlink="http://www.w3.org/1999/xlink" x="0px" y="0px" viewBox="0 0 159.8 109.2" style="enable-background:new 0 0 159.8 109.2;" xml:space="preserve" class="payment-card">
<g id="Layer_1_copia_2_1_">
    <path style="fill:#2690EC" d="M144.4,105.3h-128c-6.6,0-12-5.4-12-12v-78c0-6.6,5.4-12,12-12h128c6.6,0,12,5.4,12,12v78
		C156.4,99.9,151,105.3,144.4,105.3z"></path>
    <g>
        <path style="fill:#003087;" d="M39.8,40.4c-1.5-1.7-4.2-2.5-7.7-2.5H22c-0.7,0-1.3,0.5-1.4,1.2l-4.2,26.7c-0.1,0.5,0.3,1,0.9,1h6.2L25,57
			l0,0.3c0.1-0.7,0.7-1.2,1.4-1.2h3c5.8,0,10.4-2.4,11.7-9.2c0-0.2,0.1-0.4,0.1-0.6c-0.2-0.1-0.2-0.1,0,0
			C41.6,43.7,41.2,42,39.8,40.4"></path>
        <path style="fill:#FFFFFF;" d="M115.3,46.6h-7c-0.5,0-0.9,0.3-1,0.8l-2.8,17.9c-0.1,0.4,0.2,0.7,0.6,0.7h3.6c0.3,0,0.6-0.2,0.7-0.6l0.8-5.1
			c0.1-0.5,0.5-0.8,1-0.8h2.2c4.6,0,7.2-2.2,7.9-6.6c0.3-1.9,0-3.4-0.9-4.5C119.4,47.2,117.7,46.6,115.3,46.6 M116.1,53.1
			c-0.4,2.5-2.3,2.5-4.1,2.5H111l0.7-4.7c0-0.3,0.3-0.5,0.6-0.5h0.5c1.3,0,2.4,0,3.1,0.7C116.2,51.6,116.3,52.3,116.1,53.1"></path>
        <path style="fill:#FFFFFF;" d="M65.6,46.6h-7c-0.5,0-0.9,0.3-1,0.8l-2.8,17.9c-0.1,0.4,0.2,0.7,0.6,0.7h3.3c0.5,0,0.9-0.3,1-0.8l0.8-4.8
			c0.1-0.5,0.5-0.8,1-0.8h2.2c4.6,0,7.2-2.2,7.9-6.6c0.3-1.9,0-3.4-0.9-4.5C69.7,47.2,67.9,46.6,65.6,46.6 M66.4,53.1
			c-0.4,2.5-2.3,2.5-4.1,2.5h-1.1L62,51c0-0.3,0.3-0.5,0.6-0.5H63c1.3,0,2.4,0,3.1,0.7C66.4,51.6,66.6,52.3,66.4,53.1"></path>
        <path style="fill:#FFFFFF;" d="M86.5,53.1h-3.3c-0.3,0-0.5,0.2-0.6,0.5l-0.1,0.9l-0.2-0.3c-0.7-1-2.3-1.4-3.9-1.4c-3.7,0-6.8,2.8-7.5,6.7
			c-0.3,2,0.1,3.8,1.2,5.1c1,1.2,2.5,1.7,4.2,1.7c3,0,4.6-1.9,4.6-1.9l-0.1,0.9c-0.1,0.4,0.2,0.7,0.6,0.7h3c0.5,0,0.9-0.3,1-0.8
			L87,53.7C87.1,53.4,86.8,53.1,86.5,53.1 M81.8,59.6c-0.3,1.9-1.8,3.2-3.8,3.2c-1,0-1.7-0.3-2.2-0.9c-0.5-0.6-0.7-1.4-0.5-2.3
			c0.3-1.9,1.8-3.2,3.7-3.2c0.9,0,1.7,0.3,2.2,0.9C81.7,57.8,81.9,58.6,81.8,59.6"></path>
        <path style="fill:#FFFFFF;" d="M136.2,53.1h-3.3c-0.3,0-0.5,0.2-0.6,0.5l-0.1,0.9l-0.2-0.3c-0.7-1-2.3-1.4-3.9-1.4c-3.7,0-6.8,2.8-7.5,6.7
			c-0.3,2,0.1,3.8,1.2,5.1c1,1.2,2.5,1.7,4.2,1.7c3,0,4.6-1.9,4.6-1.9l-0.1,0.9c-0.1,0.4,0.2,0.7,0.6,0.7h3c0.5,0,0.9-0.3,1-0.8
			l1.8-11.4C136.8,53.4,136.5,53.1,136.2,53.1 M131.5,59.6c-0.3,1.9-1.8,3.2-3.8,3.2c-1,0-1.7-0.3-2.2-0.9c-0.5-0.6-0.7-1.4-0.5-2.3
			c0.3-1.9,1.8-3.2,3.7-3.2c0.9,0,1.7,0.3,2.2,0.9C131.5,57.8,131.7,58.6,131.5,59.6"></path>
        <path style="fill:#FFFFFF;" d="M104.2,53.1h-3.4c-0.3,0-0.6,0.2-0.8,0.4l-4.6,6.8l-2-6.6c-0.1-0.4-0.5-0.7-0.9-0.7h-3.3
			c-0.4,0-0.7,0.4-0.6,0.8l3.7,10.8l-3.5,4.9c-0.3,0.4,0,0.9,0.5,0.9h3.4c0.3,0,0.6-0.2,0.8-0.4L104.7,54
			C105,53.6,104.7,53.1,104.2,53.1"></path>
        <path style="fill:#FFFFFF;" d="M140.1,47.1l-2.9,18.2c-0.1,0.4,0.2,0.7,0.6,0.7h2.9c0.5,0,0.9-0.3,1-0.8l2.8-17.9c0.1-0.4-0.2-0.7-0.6-0.7
			h-3.2C140.4,46.6,140.2,46.8,140.1,47.1"></path>
        <path style="fill:#003087;" d="M39.8,40.4c-1.5-1.7-4.2-2.5-7.7-2.5H22c-0.7,0-1.3,0.5-1.4,1.2l-4.2,26.7c-0.1,0.5,0.3,1,0.9,1h6.2L25,57
			l0,0.3c0.1-0.7,0.7-1.2,1.4-1.2h3c5.8,0,10.4-2.4,11.7-9.2c0-0.2,0.1-0.4,0.1-0.6c-0.2-0.1-0.2-0.1,0,0
			C41.6,43.7,41.2,42,39.8,40.4"></path>
        <path style="fill:#FFFFFF;" d="M26.7,46.3c0.1-0.4,0.3-0.8,0.7-0.9c0.2-0.1,0.4-0.1,0.5-0.1h7.9c0.9,0,1.8,0.1,2.6,0.2
			c0.2,0,0.5,0.1,0.7,0.1c0.2,0,0.4,0.1,0.6,0.2c0.1,0,0.2,0.1,0.3,0.1c0.4,0.1,0.8,0.3,1.1,0.5c0.4-2.5,0-4.2-1.4-5.8
			c-1.5-1.7-4.2-2.5-7.7-2.5H22c-0.7,0-1.3,0.5-1.4,1.2l-4.2,26.7c-0.1,0.5,0.3,1,0.9,1h6.2L25,57L26.7,46.3z"></path>
        <path style="fill:#A1C2DC;" d="M41.2,46.3L41.2,46.3c0,0.2-0.1,0.4-0.1,0.6c-1.3,6.8-5.9,9.2-11.7,9.2h-3c-0.7,0-1.3,0.5-1.4,1.2l-1.5,9.6
			L23,69.6c-0.1,0.5,0.3,0.9,0.7,0.9H29c0.6,0,1.2-0.5,1.2-1.1l0.1-0.3l1-6.3l0.1-0.3c0.1-0.6,0.6-1.1,1.2-1.1h0.8
			c5.1,0,9.1-2.1,10.2-8.1c0.5-2.5,0.2-4.6-1.1-6.1C42.2,46.9,41.7,46.6,41.2,46.3"></path>
        <path style="fill:#DCE9F1;" d="M39.8,45.7c-0.2-0.1-0.4-0.1-0.6-0.2c-0.2,0-0.4-0.1-0.7-0.1c-0.8-0.1-1.7-0.2-2.6-0.2H28
			c-0.2,0-0.4,0-0.5,0.1c-0.4,0.2-0.6,0.5-0.7,0.9L25,57l0,0.3c0.1-0.7,0.7-1.2,1.4-1.2h3c5.8,0,10.4-2.4,11.7-9.2
			c0-0.2,0.1-0.4,0.1-0.6c-0.3-0.2-0.7-0.3-1.1-0.5C40,45.8,39.9,45.7,39.8,45.7"></path>
    </g>
</g>
</svg>