<?xml version="1.0" encoding="utf-8"?>
<!-- Generator: Adobe Illustrator 23.0.3, SVG Export Plug-In . SVG Version: 6.00 Build 0)  -->
<svg version="1.1" id="Livello_1" xmlns="http://www.w3.org/2000/svg" xmlns:xlink="http://www.w3.org/1999/xlink" x="0px" y="0px"
	 viewBox="0 0 24 24" style="enable-background:new 0 0 24 24;" xml:space="preserve">
<g>
	<path d="M23.7,11.3l-5-5c-0.4-0.4-1-0.4-1.4,0s-0.4,1,0,1.4l4.3,4.3l-4.3,4.3c-0.4,0.4-0.4,1,0,1.4c0,0,0,0,0,0
		c0.4,0.4,1,0.4,1.4,0c0,0,0,0,0,0l5-5C24.1,12.3,24.1,11.7,23.7,11.3C23.7,11.3,23.7,11.3,23.7,11.3z"/>
	<path d="M6.7,6.3c-0.4-0.4-1-0.4-1.4,0c0,0,0,0,0,0l-5,5c-0.4,0.4-0.4,1,0,1.4c0,0,0,0,0,0l5,5c0.4,0.4,1,0.4,1.4,0c0,0,0,0,0,0
		c0.4-0.4,0.4-1,0-1.4c0,0,0,0,0,0L2.4,12l4.3-4.3C7.1,7.3,7.1,6.7,6.7,6.3C6.7,6.3,6.7,6.3,6.7,6.3z"/>
	<path d="M14.4,2.3c-0.5-0.1-1.1,0.2-1.2,0.7L8.9,20.5c-0.1,0.5,0.2,1.1,0.7,1.2c0.5,0.1,1.1-0.2,1.2-0.7l4.3-17.5
		C15.3,3,14.9,2.4,14.4,2.3z"/>
</g>
</svg>
