<svg class="a-svg-logo svg-logo header__logo__svg" version="1.1" id="Livello_1" xmlns="http://www.w3.org/2000/svg"
    xmlns:xlink="http://www.w3.org/1999/xlink" x="0px" y="0px" viewBox="0 0 595.3 183"
    enable-background="new 0 0 595.3 183" xml:space="preserve">
    <path class="a-svg-logo__path svg-logo__path header__logo__path" fill="#8334C2" d="M277.3,47.7c-3.6,1.3-5.1,3.4-5,7.3c0.3,20.2,0.1,40.3,0.1,60.5c0,1.5,0,3.1,0,4.7c-0.3,5.2-3.1,8.5-7.5,8.5
	c-4.6,0-8-3.4-8.1-8.6c-0.1-24.3-0.1-48.6,0.1-72.9c0-2.4,1.7-5.6,3.7-6.9c16.7-10.7,34.8-13,53.7-5.9c3.6,1.3,6.5,4.2,10.2,6.7
	c8.7-7.1,18.7-10.7,30.3-10.6c22.9,0.1,35.5,10.5,36.5,32.3c0.9,19.3,0.4,38.6,0.3,57.9c0,5.1-3.4,8.2-7.9,8.1
	c-4.1-0.1-7.5-3.3-7.6-8c-0.2-14.1-0.1-28.3-0.2-42.4c0-4.1,0.1-8.3-0.1-12.4c-1.1-17.2-12.4-25-30-20.5c-3.2,0.8-6.3,2.5-9.2,4.3
	c-3.4,2-4.9,4.9-4.8,9c0.3,20.5,0.2,41,0.1,61.5c0,5.1-3.2,8.4-7.5,8.4c-4.5,0-7.6-3.2-7.9-8.2c-0.1-1.4,0-2.8,0-4.1
	c0-15.7,0-31.4,0-47c0-1.9,0-3.8-0.1-5.7c-1.3-12.8-9.1-19.6-22.7-19.1C293.7,44.5,286.4,44.6,277.3,47.7"></path>
    <path class="a-svg-logo__path svg-logo__path header__logo__path" fill="#8334C2" d="M152.5,52.4c1.3-12.7,10.4-20.6,23.7-21.7c7.3-0.6,14.8,0.2,22.1,1.1c5.6,0.7,8.3,4.4,7.5,8.4
	c-0.8,4-4.7,6.1-10.2,5.6c-4.8-0.4-9.7-1.2-14.6-1c-8.5,0.4-13,4.6-13.3,12.7c-0.4,11.9-0.3,23.8-0.3,35.6c0,8.4,0,17.2,0,25.6
	c-0.1,6.4-2.8,9.9-7.6,10.1c-5.2,0.2-8.2-3.5-8.3-9.9c0-10,0-20.3,0-30.2C151.7,88.5,151.3,64.3,152.5,52.4"></path>
    <path class="a-svg-logo__path svg-logo__path header__logo__path" fill="#8334C2" d="M235.7,80c0,13.1,0,26.2,0,39.2c0,6-2.8,9.4-7.5,9.4c-5,0-8-3.5-8-9.7c0-25.8,0-28.1,0-54
	c0-6.5,2.6-9.8,7.6-9.9c5.2-0.1,7.9,3.2,7.9,10.1C235.7,78,235.7,67.3,235.7,80"></path>
    <path class="a-svg-logo__path svg-logo__path header__logo__path" fill="#A2A3A5" d="M533.4,62c0,8.2,0,11.5,0,19.7c0,3.7-1.8,5.9-4.7,5.9c-3.1,0-5-2.2-5-6c0-16.1,0-12.9,0-29
	c0-4.1,1.6-6.1,4.8-6.2c3.3,0,4.9,2,4.9,6.3C533.5,60.7,533.4,54.1,533.4,62"></path>
    <path class="a-svg-logo__path svg-logo__path header__logo__path" fill="#A2A3A5" d="M534.6,35.9c0,3.1-2.7,5.8-6,5.9c-3.1,0.1-6-2.8-5.9-5.9c0.1-3.3,2.7-5.7,6.1-5.6
	C532,30.4,534.6,32.9,534.6,35.9"></path>
    <path class="a-svg-logo__path svg-logo__path header__logo__path" fill="#A2A3A5" d="M512.3,81.5c0,3.4-2.9,6.3-6.4,6.3c-3.3,0.1-6.4-3-6.4-6.3c0.1-3.5,2.9-6.1,6.5-6
	C509.5,75.6,512.3,78.3,512.3,81.5"></path>
    <path class="a-svg-logo__path svg-logo__path header__logo__path" fill="#8334C2" d="M227.6,47.1c-4.4,0-8.4-4-8.4-8.3c0-4.8,3.7-8.4,8.6-8.4c4.9,0,8.9,3.8,8.7,8.4
	C236.4,43.3,232.3,47.1,227.6,47.1"></path>
    <path class="a-svg-logo__path svg-logo__path header__logo__path" fill="#A2A3A5" d="M571.3,79.5c-0.6-2-1.9-3.1-3.8-3.1c-0.5,0-1.1,0.1-1.7,0.3c-0.7,0.2-1.4,0.5-2.1,0.7c-1,0.4-2,0.7-2.9,0.9
	c-0.9,0.2-1.7,0.3-2.5,0.3c-4.4,0-6.8-3.2-7.1-9.2c0-0.7,0-1.3,0-1.9l0-1.8c0-4.8,0-2.8,0-10c0-0.6,0-1.2,0.1-1.9
	c0-0.3,0-0.6,0.1-0.9c1.3,0,2.6,0,3.9,0l3.9,0c1.8,0,3.5,0,5.3,0c1.6,0,2.9-0.4,3.7-1.2c0.9-0.8,1.4-1.9,1.4-3.3
	c0-2.9-1.8-4.4-5.1-4.5c-1.8,0-3.6,0-5.4,0l-3.9,0c-1.3,0-2.7,0-4.1,0c0-0.9,0-1.3,0-2.2l0-0.2c0-2.1,0-4.1-0.1-6.1
	c-0.2-3.1-1.8-5.1-4.2-5.1c-0.1,0-0.2,0-0.3,0c-2.4,0.1-4,2.3-4,5.3c0,4.2,0,7.3,0,10.7v0.1c0,10.2-0.1,10.8,0.1,23.4
	c0.2,9.3,3.8,15.3,10.6,17.1c1.7,0.5,3.5,0.7,5.3,0.7c3.1,0,6.4-0.7,9.7-2.2C571.1,84.4,572.1,82.3,571.3,79.5"></path>
    <path class="a-svg-logo__path svg-logo__path header__logo__path" fill="#8334C2" d="M131.9,59.5C129.4,44,118.5,34.2,102,31.3c-8.1-1.4-15.8-1.2-23.4,0.3l0,0c-3.4,0.6-5.8,3.3-5.9,6.8
	c-0.1,3.8,3.4,7.3,7.3,7.2c0.6,0,1.1-0.1,1.6-0.2l0,0c5.2-1.2,10.5-1.5,16.1-0.5c12.5,2.1,18.7,8.8,20,23.4
	c0.8,9.4,0.4,18.9-0.7,28.3c-1.4,11.6-9.1,17.9-21.4,18.9c-9.4,0.8-18.3-1-26.9-4.7c-2.6-1.1-3.7-2.5-3.7-5.4
	c0.2-8.4,0.1-16.9,0.1-25.3c0-6.8-0.1-13.7,0-20.5v-12c0-4-3.5-7.4-7.8-7.5c-1.3,0-2.5,0.2-3.6,0.7l0,0c-9,4-15.4,7.3-30.2,15.1
	c-5.6,3.1-7.1,7.5-4.5,11.7c2.4,4,6.7,4.8,12,1.9c6-3.3,12.2-6.4,18.5-9.4c0.1,32,0.1,72.8,0.1,103.7c0,0,0,0,0,0.1c0,0,0,0,0,0.1
	c0,0.1,0,0.1,0,0.2h0c0.2,4,3.6,7.1,7.8,7.1c4.2,0,7.6-3.2,7.8-7.1h0c0-8.9,0-24.4,0-38.9c8.7,1.6,16.5,3.7,24.6,4.4
	c22.2,1.9,39.8-10.1,42.9-30.9C134.4,85.7,133.9,72.3,131.9,59.5"></path>
    <path class="a-svg-logo__path svg-logo__path header__logo__path" fill="#8334C2" d="M489.1,59.6c-0.5-13.9-8.8-23.8-22.4-27.3c-15.4-3.9-30.6-2-45.2,3.7c-4.8,1.9-6.6,5.8-5.1,9.5
	c1.4,3.5,5.5,4.8,10.7,3.3c0,0,13.6-4.5,27-4.4c11.4,0.1,17.9,5.6,19.5,15.7c0.3,1.8,0.3,3.6,0.3,5.5l0,0l0.1,19.7l0,0.2
	c0,0,0,0,0,0c0,0.1,0,0.2,0,0.3l0,0.5h0c0,7.1,0.2,13.6-0.2,20c-0.1,1.8-1.6,4.3-3.2,5.1c-11.3,5.5-23.2,6.4-35.3,2.7
	c-7.7-2.4-11.4-8.1-11.4-15.8c0-7,4.2-12.4,11.9-14.9c7.5-2.5,14.9-2.3,22.2-1.2l0,0c0.4,0.1,0.7,0.1,1.1,0.1c3.5,0,6.3-2.8,6.3-6.3
	c0-3.1-2.2-5.6-5.1-6.1c-9.7-1.4-19.4-1.7-29.2,1.1c-14.4,4.1-22.7,14-22.8,27.4c0,14.5,7.9,25.5,22.6,29.2
	c18.9,4.7,37.1,1.7,53.9-7.6c2.1-1.1,4.2-4.3,4.2-6.5C489.4,95.4,489.7,77.5,489.1,59.6"></path>
</svg>