<?xml version="1.0" encoding="UTF-8"?>
<svg width="24px" height="24px" viewBox="0 0 24 24" version="1.1" xmlns="http://www.w3.org/2000/svg" xmlns:xlink="http://www.w3.org/1999/xlink">
    <title>Group 10</title>
    <g id="Homepage-Pyxis" stroke="none" stroke-width="1" fill="none" fill-rule="evenodd" stroke-linecap="round" stroke-linejoin="round">
        <g id="home-pyxis" transform="translate(-984.000000, -779.000000)" stroke="#8334C2">
            <g id="Group-7" transform="translate(545.000000, 736.000000)">
                <g id="Group-2-Copy-7" transform="translate(426.000000, 30.000000)">
                    <g id="Group-10" transform="translate(13.000000, 13.000000)">
                        <path d="M2.5,23.5 L21.5,23.5 C22.6045695,23.5 23.5,22.6045695 23.5,21.5 L23.5,2.5 C23.5,1.3954305 22.6045695,0.5 21.5,0.5 L2.5,0.5 C1.3954305,0.5 0.5,1.3954305 0.5,2.5 L0.5,21.5 C0.5,22.6045695 1.3954305,23.5 2.5,23.5 Z" id="Stroke-1"></path>
                        <path d="M4.5,3 C4.5,3.276 4.276,3.5 4,3.5 C3.724,3.5 3.5,3.276 3.5,3 C3.5,2.724 3.724,2.5 4,2.5 C4.276,2.5 4.5,2.724 4.5,3 Z" id="Stroke-3"></path>
                        <path d="M7.5,3 C7.5,3.276 7.276,3.5 7,3.5 C6.724,3.5 6.5,3.276 6.5,3 C6.5,2.724 6.724,2.5 7,2.5 C7.276,2.5 7.5,2.724 7.5,3 Z" id="Stroke-4"></path>
                        <path d="M10.5,3 C10.5,3.276 10.276,3.5 10,3.5 C9.724,3.5 9.5,3.276 9.5,3 C9.5,2.724 9.724,2.5 10,2.5 C10.276,2.5 10.5,2.724 10.5,3 Z" id="Stroke-5"></path>
                        <line x1="0.5" y1="5.5" x2="23.5" y2="5.5" id="Stroke-6"></line>
                        <line x1="13.5" y1="10.5" x2="10.5" y2="18.5" id="Stroke-7"></line>
                        <polyline id="Stroke-8" points="9.5 16.5 5.5 14.5 9.5 12.5"></polyline>
                        <polyline id="Stroke-9" points="14.5 16.5 18.5 14.5 14.5 12.5"></polyline>
                    </g>
                </g>
            </g>
        </g>
    </g>
</svg>