<?xml version="1.0" encoding="UTF-8"?>
<svg width="23px" height="20px" viewBox="0 0 23 20" version="1.1" xmlns="http://www.w3.org/2000/svg" xmlns:xlink="http://www.w3.org/1999/xlink">
    <title>Group 11</title>
    <g id="Homepage-Pyxis" stroke="none" stroke-width="1" fill="none" fill-rule="evenodd" stroke-linecap="round" stroke-linejoin="round">
        <g id="home-pyxis" transform="translate(-1381.000000, -781.000000)" stroke="#8334C2">
            <g id="Group-7" transform="translate(545.000000, 736.000000)">
                <g id="Group-2-Copy-8" transform="translate(822.000000, 30.000000)">
                    <g id="Group-11" transform="translate(14.000000, 15.000000)">
                        <path d="M20.5,15.5 L2.5,15.5 C1.396,15.5 0.5,14.604 0.5,13.5 L0.5,2.5 C0.5,1.396 1.396,0.5 2.5,0.5 L20.5,0.5 C21.604,0.5 22.5,1.396 22.5,2.5 L22.5,13.5 C22.5,14.604 21.604,15.5 20.5,15.5 Z" id="Stroke-1"></path>
                        <polygon id="Stroke-3" points="8.5 5.5 14.5 8.5 8.5 11.5"></polygon>
                        <line x1="22.5" y1="18.5" x2="17.5" y2="18.5" id="Stroke-5"></line>
                        <line x1="15.5" y1="18.5" x2="0.5" y2="18.5" id="Stroke-7"></line>
                        <path d="M17.5,18.5 C17.5,19.053 17.052,19.5 16.5,19.5 C15.948,19.5 15.5,19.053 15.5,18.5 C15.5,17.947 15.948,17.5 16.5,17.5 C17.052,17.5 17.5,17.947 17.5,18.5 Z" id="Stroke-9"></path>
                    </g>
                </g>
            </g>
        </g>
    </g>
</svg>