<?xml version="1.0" encoding="UTF-8"?>
<svg width="24px" height="24px" viewBox="0 0 24 24" version="1.1" xmlns="http://www.w3.org/2000/svg" xmlns:xlink="http://www.w3.org/1999/xlink">
    <title>Group 7</title>
    <g id="Homepage-Pyxis" stroke="none" stroke-width="1" fill="none" fill-rule="evenodd" stroke-linecap="round" stroke-linejoin="round">
        <g id="home-pyxis" transform="translate(-588.000000, -779.000000)" stroke="#8334C2">
            <g id="Group-7" transform="translate(545.000000, 736.000000)">
                <g id="Group-2-Copy" transform="translate(30.000000, 30.000000)">
                    <g id="Group-7" transform="translate(25.000000, 25.000000) scale(-1, 1) translate(-25.000000, -25.000000) translate(13.000000, 13.000000)">
                        <path d="M6.5767,21.8809 C5.3457,23.1119 0.4997,23.4999 0.4997,23.4999 C0.4997,23.4999 0.8877,18.6539 2.1187,17.4229 C3.3497,16.1929 5.3457,16.1929 6.5767,17.4229 C7.8077,18.6539 7.8077,20.6509 6.5767,21.8809 Z" id="Stroke-1"></path>
                        <path d="M5.5298,16.7305 C6.6298,14.0595 8.1998,11.6005 10.1798,9.4905 C11.8098,7.7305 13.6998,6.2205 15.7698,5.0095 L23.4998,0.5005 L18.9898,8.2305 C17.7798,10.2995 16.2698,12.1895 14.5098,13.8205 C12.3998,15.7995 9.9398,17.3705 7.2698,18.4695" id="Stroke-3"></path>
                        <line x1="10.71" y1="16.71" x2="7.29" y2="13.29" id="Stroke-5"></line>
                    </g>
                </g>
            </g>
        </g>
    </g>
</svg>