<?xml version="1.0" encoding="UTF-8"?>
<svg width="402px" height="355px" viewBox="0 0 402 355" version="1.1" xmlns="http://www.w3.org/2000/svg" xmlns:xlink="http://www.w3.org/1999/xlink">
    <title>Group 24</title>
    <defs>
        <linearGradient x1="24.6317778%" y1="118.677118%" x2="65.6360105%" y2="37.660066%" id="linearGradient-1">
            <stop stop-color="#571D87" offset="0%"></stop>
            <stop stop-color="#7B24C3" offset="100%"></stop>
        </linearGradient>
        <linearGradient x1="49.9772881%" y1="-17.8970639%" x2="49.9772881%" y2="97.684456%" id="linearGradient-2">
            <stop stop-color="#6B3D93" offset="0%"></stop>
            <stop stop-color="#CA65FF" offset="100%"></stop>
        </linearGradient>
        <linearGradient x1="121.160247%" y1="89.283203%" x2="26.1402928%" y2="36.8407454%" id="linearGradient-3">
            <stop stop-color="#6B3D93" offset="0%"></stop>
            <stop stop-color="#CA65FF" offset="100%"></stop>
        </linearGradient>
        <linearGradient x1="40.9127346%" y1="80.9391234%" x2="60.0590679%" y2="1.85040584%" id="linearGradient-4">
            <stop stop-color="#6B3D93" offset="0%"></stop>
            <stop stop-color="#CA65FF" offset="100%"></stop>
        </linearGradient>
        <linearGradient x1="21.5036125%" y1="84.7220958%" x2="75.5342756%" y2="18.9585579%" id="linearGradient-5">
            <stop stop-color="#571D87" offset="0%"></stop>
            <stop stop-color="#7B24C3" offset="100%"></stop>
        </linearGradient>
        <linearGradient x1="28.636552%" y1="87.6046493%" x2="48.210966%" y2="53.0447798%" id="linearGradient-6">
            <stop stop-color="#571D87" offset="0%"></stop>
            <stop stop-color="#7B24C3" offset="100%"></stop>
        </linearGradient>
        <linearGradient x1="58.107416%" y1="143.072625%" x2="42.3594929%" y2="-37.9639033%" id="linearGradient-7">
            <stop stop-color="#6B3D93" offset="0%"></stop>
            <stop stop-color="#CA65FF" offset="100%"></stop>
        </linearGradient>
        <linearGradient x1="166.906394%" y1="91.3577594%" x2="-17.4718798%" y2="26.1019181%" id="linearGradient-8">
            <stop stop-color="#6B3D93" offset="0%"></stop>
            <stop stop-color="#CA65FF" offset="100%"></stop>
        </linearGradient>
        <rect id="path-9" x="0" y="0" width="75.1958225" height="75.1958225" rx="23.4986945"></rect>
        <filter x="-106.4%" y="-53.2%" width="312.8%" height="312.8%" filterUnits="objectBoundingBox" id="filter-10">
            <feOffset dx="0" dy="40" in="SourceAlpha" result="shadowOffsetOuter1"></feOffset>
            <feGaussianBlur stdDeviation="20" in="shadowOffsetOuter1" result="shadowBlurOuter1"></feGaussianBlur>
            <feComposite in="shadowBlurOuter1" in2="SourceAlpha" operator="out" result="shadowBlurOuter1"></feComposite>
            <feColorMatrix values="0 0 0 0 0   0 0 0 0 0   0 0 0 0 0  0 0 0 0.3 0" type="matrix" in="shadowBlurOuter1"></feColorMatrix>
        </filter>
    </defs>
    <g id="Homepage-Pyxis" stroke="none" stroke-width="1" fill="none" fill-rule="evenodd">
        <g id="home-pyxis" transform="translate(-595.000000, -1629.000000)">
            <g id="Group-24" transform="translate(595.000000, 1629.477807)">
                <path d="M124.863996,39 L228.767718,39 C276.189093,39 314.631713,77.4426204 314.631713,124.863996 L314.631713,228.767718 C314.631713,276.189093 276.189093,314.631713 228.767718,314.631713 L124.863996,314.631713 C77.4426204,314.631713 39,276.189093 39,228.767718 L39,124.863996 C39,77.4426204 77.4426204,39 124.863996,39 Z" id="Mask" fill="#F7F7F7" transform="translate(176.815857, 176.815857) rotate(-20.000000) translate(-176.815857, -176.815857) "></path>
                <g id="pyxis-illustration-2-v2" transform="translate(271.500000, 202.022193) scale(-1, 1) translate(-271.500000, -202.022193) translate(141.000000, 66.522193)" fill-rule="nonzero">
                    <path d="M216.45,93.99 L216.58,54.08 L124.28,0.78 L47.84,45.24 L58.76,64.09 L13.52,90.35 C13.52,90.35 13.52,90.35 13.65,90.35 C5.2,95.03 -0.000609863857,105.3 -0.000609863857,119.86 C-0.13,149.11 20.54,184.86 46.02,199.55 C59.02,207.09 70.85,207.61 79.3,202.54 C79.17,202.67 79.04,202.67 78.91,202.8 C78.91,202.8 78.91,202.8 78.91,202.8 L78.91,202.8 C78.91,202.8 78.91,202.8 78.91,202.8 L91,195.78 L91,216.32 L183.3,269.62 L259.74,225.16 L260,119.08 L216.45,93.99 Z M46.15,93.47 C46.28,93.47 46.28,93.47 46.15,93.47 C46.28,93.6 46.41,93.6 46.54,93.73 C46.41,93.6 46.41,93.6 46.15,93.47 C46.28,93.47 46.28,93.47 46.15,93.47 Z" id="Shape" fill="#FFFFFF"></path>
                    <g id="Group">
                        <g opacity="0.5" transform="translate(91.000000, 65.000000)" id="Path">
                            <g transform="translate(0.000000, 85.800000)" fill="url(#linearGradient-1)">
                                <path d="M71.63,0.65 C71.11,1.3 70.59,1.95 70.07,2.6 C69.81,2.86 69.55,3.12 69.42,3.38 C68.9,4.03 68.25,4.55 67.73,5.07 C67.47,5.33 67.21,5.46 66.95,5.72 C66.04,6.37 65.26,7.02 64.22,7.54 L0,44.98 L0,65.52 L92.3,118.82 L92.56,12.74 L71.63,0.65 Z"></path>
                            </g>
                            <g transform="translate(92.300000, 53.300000)" fill="url(#linearGradient-2)">
                                <polygon points="0.26 45.24 76.7 0.78 76.44 106.86 0 151.32"></polygon>
                            </g>
                            <g fill="url(#linearGradient-3)">
                                <polygon points="0.26 45.24 76.7 0.78 169 54.08 92.56 98.54"></polygon>
                            </g>
                        </g>
                        <g opacity="0.8" transform="translate(0.000000, 42.900000)" id="Path">
                            <path d="M168.74,83.85 C168.74,83.07 168.74,82.42 168.61,81.64 C168.61,81.25 168.61,80.99 168.48,80.6 C168.48,80.47 168.48,80.34 168.48,80.21 C168.48,79.95 168.48,79.69 168.48,79.43 C168.35,78.65 168.35,77.87 168.22,77.22 C168.09,76.44 167.96,75.66 167.83,74.88 C167.83,74.88 167.83,74.88 167.83,74.88 C167.83,74.88 167.83,74.88 167.83,74.75 C167.7,73.97 167.57,73.32 167.44,72.54 C167.31,71.76 167.18,70.98 166.92,70.07 C166.92,69.81 166.79,69.55 166.66,69.29 C166.66,69.16 166.53,68.9 166.53,68.77 C166.4,68.38 166.4,68.12 166.27,67.73 C166.01,66.95 165.88,66.04 165.62,65.26 C165.49,64.61 165.23,64.09 165.1,63.44 C165.1,63.31 165.1,63.18 164.97,63.05 C164.97,62.92 164.97,62.79 164.84,62.66 C164.58,61.88 164.32,61.1 164.06,60.32 C163.8,59.54 163.54,58.76 163.28,57.98 C163.28,57.85 163.15,57.72 163.15,57.59 C163.15,57.46 163.02,57.33 163.02,57.2 C162.89,56.68 162.63,56.16 162.5,55.77 C162.24,54.99 161.85,54.21 161.59,53.56 C161.33,53.04 161.07,52.52 160.94,52 C160.94,51.87 160.81,51.87 160.81,51.74 C160.81,51.61 160.68,51.48 160.68,51.35 C160.29,50.57 160.03,49.92 159.64,49.14 C159.25,48.36 158.86,47.58 158.47,46.67 C158.47,46.54 158.34,46.41 158.34,46.28 C158.21,46.15 158.21,46.02 158.08,45.76 C157.69,45.11 157.43,44.46 157.04,43.81 C156.65,43.03 156.13,42.25 155.74,41.47 C155.48,41.08 155.35,40.69 155.09,40.3 C154.96,40.17 154.96,40.04 154.83,39.78 C154.44,39.13 153.92,38.48 153.53,37.7 C152.88,36.66 152.36,35.75 151.71,34.71 C151.58,34.58 151.58,34.45 151.45,34.19 C150.54,32.76 149.5,31.33 148.59,30.03 C147.94,29.12 147.29,28.21 146.51,27.3 C145.99,26.52 145.34,25.87 144.82,25.22 C144.82,25.22 144.82,25.22 144.82,25.22 C144.82,25.22 144.82,25.22 144.82,25.22 C144.17,24.57 143.65,23.79 143,23.14 C142.35,22.49 141.83,21.84 141.18,21.19 C141.05,21.06 140.92,20.93 140.92,20.93 C140.79,20.8 140.66,20.67 140.66,20.54 C140.27,20.15 139.88,19.63 139.36,19.24 C138.71,18.59 138.06,17.94 137.41,17.29 C137.15,17.03 137.02,16.9 136.76,16.77 C136.63,16.64 136.5,16.51 136.24,16.38 C135.98,16.12 135.59,15.73 135.33,15.47 C134.68,14.82 134.03,14.3 133.25,13.65 C132.99,13.39 132.6,13.13 132.34,12.87 C132.21,12.74 132.08,12.61 131.82,12.48 C131.56,12.35 131.43,12.09 131.17,11.96 C130.52,11.44 129.87,10.92 129.09,10.4 C128.57,10.01 128.05,9.75 127.66,9.36 C127.53,9.36 127.53,9.23 127.4,9.23 C127.27,9.23 127.27,9.1 127.14,9.1 C126.49,8.71 125.84,8.19 125.19,7.8 C124.54,7.41 123.89,7.02 123.24,6.63 C123.11,6.5 122.98,6.5 122.85,6.37 C122.33,6.11 121.81,5.85 121.42,5.59 C120.77,5.2 120.12,4.94 119.47,4.55 C119.08,4.29 118.69,4.16 118.3,4.03 C118.17,4.03 118.17,3.9 118.04,3.9 C117.91,3.9 117.78,3.77 117.65,3.77 C117,3.51 116.48,3.25 115.83,2.99 C115.18,2.73 114.53,2.47 114.01,2.34 C113.88,2.34 113.75,2.21 113.75,2.21 C113.62,2.21 113.62,2.21 113.49,2.08 C113.1,1.95 112.71,1.82 112.19,1.69 C111.54,1.56 110.89,1.3 110.24,1.17 C109.98,1.04 109.59,1.04 109.33,0.91 C109.2,0.91 109.07,0.91 108.94,0.78 C108.68,0.78 108.55,0.65 108.29,0.65 C107.64,0.52 106.99,0.39 106.21,0.26 C105.82,0.26 105.43,0.13 105.04,0.13 C104.91,0.13 104.78,0.13 104.65,0.13 C104.52,0.13 104.39,0.13 104.26,0.13 C103.48,0.13 102.83,-7.38964445e-14 102.05,-7.38964445e-14 C101.79,-7.38964445e-14 101.4,-7.38964445e-14 101.14,-7.38964445e-14 C100.88,-7.38964445e-14 100.62,-7.38964445e-14 100.36,-7.38964445e-14 C100.1,-7.38964445e-14 99.84,-7.38964445e-14 99.58,-7.38964445e-14 C98.67,0.13 97.76,0.26 96.98,0.39 C96.98,0.39 96.98,0.39 96.98,0.39 C96.85,0.39 96.59,0.52 96.46,0.52 C95.55,0.78 94.64,0.91 93.86,1.3 C93.73,1.3 93.73,1.43 93.6,1.43 C92.43,1.82 91.13,2.47 90.09,3.12 L13.65,47.58 C14.82,46.93 15.99,46.41 17.16,45.89 C18.07,45.5 18.98,45.24 20.02,45.11 C20.15,45.11 20.41,44.98 20.54,44.98 C21.71,44.72 22.75,44.59 24.05,44.59 C24.31,44.59 24.57,44.59 24.83,44.59 C26,44.59 27.17,44.59 28.34,44.72 C28.47,44.72 28.6,44.72 28.73,44.72 C30.03,44.85 31.2,44.98 32.5,45.37 C32.63,45.37 32.76,45.37 32.89,45.5 C34.19,45.76 35.62,46.15 36.92,46.67 C37.05,46.67 37.05,46.67 37.18,46.8 C38.61,47.32 40.04,47.84 41.6,48.62 C41.73,48.62 41.86,48.75 41.86,48.75 C43.42,49.4 44.85,50.18 46.41,51.09 C47.97,52 49.53,53.04 51.09,54.08 C51.22,54.08 51.22,54.21 51.35,54.21 C52.78,55.25 54.21,56.29 55.51,57.33 C55.64,57.46 55.77,57.59 56.03,57.72 C57.33,58.76 58.63,59.93 59.93,61.1 C60.06,61.23 60.19,61.36 60.45,61.49 C61.75,62.66 63.05,63.96 64.22,65.26 C64.35,65.39 64.48,65.52 64.48,65.65 C65.78,67.08 67.08,68.51 68.38,70.07 C68.38,70.07 68.38,70.07 68.38,70.07 C70.85,73.06 73.19,76.18 75.4,79.56 C76.05,80.47 76.7,81.51 77.22,82.55 C77.74,83.33 78.26,84.24 78.78,85.02 C79.04,85.41 79.17,85.8 79.43,86.19 C80.21,87.62 80.99,89.05 81.77,90.48 C81.9,90.61 81.9,90.74 82.03,91 C82.94,92.82 83.72,94.51 84.5,96.33 C84.5,96.46 84.63,96.46 84.63,96.59 C85.41,98.41 86.06,100.1 86.71,101.92 C86.71,102.05 86.84,102.18 86.84,102.31 C87.49,104.13 88.14,105.95 88.66,107.77 C88.66,107.9 88.66,108.03 88.79,108.16 C89.31,109.98 89.83,111.67 90.22,113.49 C90.22,113.62 90.35,113.88 90.35,114.01 C90.74,115.83 91.13,117.65 91.39,119.47 C91.39,119.47 91.39,119.47 91.39,119.47 C91.65,121.29 91.91,123.11 92.04,124.93 C92.04,125.06 92.04,125.19 92.04,125.32 C92.17,127.14 92.3,128.96 92.3,130.65 C92.3,132.34 92.17,134.03 92.04,135.72 C92.04,135.85 92.04,135.98 92.04,136.11 C91.91,137.54 91.65,139.1 91.39,140.4 C91.39,140.53 91.26,140.79 91.26,140.92 C91,142.22 90.61,143.52 90.22,144.82 C90.09,145.08 90.09,145.21 89.96,145.47 C89.57,146.64 89.18,147.68 88.66,148.72 C88.66,148.85 88.53,148.98 88.53,149.11 C88.01,150.28 87.36,151.45 86.71,152.49 C86.58,152.62 86.45,152.75 86.45,152.88 C85.93,153.66 85.28,154.44 84.63,155.22 C84.37,155.48 84.11,155.74 83.98,156 C83.46,156.65 82.81,157.17 82.29,157.69 C82.03,157.95 81.77,158.08 81.51,158.34 C80.6,158.99 79.82,159.64 78.91,160.16 C78.91,160.16 78.91,160.16 78.91,160.16 L78.91,160.16 C78.91,160.16 78.91,160.16 78.91,160.16 L155.35,115.7 C156.26,115.18 157.17,114.53 158.08,113.88 C158.34,113.62 158.6,113.49 158.86,113.23 C159.51,112.71 160.03,112.19 160.55,111.54 C160.81,111.28 161.07,111.02 161.2,110.76 C161.85,109.98 162.37,109.2 163.02,108.42 C163.15,108.29 163.15,108.16 163.28,108.03 C163.28,108.03 163.28,108.03 163.28,107.9 C163.93,106.86 164.45,105.82 164.97,104.78 C164.97,104.78 164.97,104.65 164.97,104.65 C164.97,104.52 165.1,104.39 165.1,104.26 C165.36,103.61 165.75,102.83 166.01,102.05 C166.14,101.66 166.27,101.27 166.4,100.88 C166.53,100.62 166.53,100.49 166.66,100.23 C166.66,99.97 166.79,99.84 166.92,99.58 C167.18,98.8 167.31,98.02 167.57,97.24 C167.57,96.98 167.7,96.72 167.7,96.33 C167.7,96.2 167.83,95.94 167.83,95.81 C167.83,95.55 167.96,95.29 167.96,95.03 C168.09,94.25 168.22,93.6 168.35,92.82 C168.35,92.43 168.48,92.04 168.48,91.52 C168.48,91.39 168.48,91.26 168.48,91.13 C168.48,91 168.48,90.74 168.48,90.61 C168.48,89.96 168.61,89.18 168.61,88.4 C168.61,87.62 168.61,86.97 168.61,86.19 C168.61,86.19 168.61,86.06 168.61,86.06 C168.74,85.15 168.74,84.5 168.74,83.85 Z" fill="url(#linearGradient-4)"></path>
                            <g transform="translate(0.000000, 44.200000)" fill="url(#linearGradient-5)">
                                <path d="M46.28,6.37 C71.76,21.06 92.43,56.81 92.3006099,86.06 C92.17,115.31 71.5,127.14 46.02,112.45 C20.54,97.76 0,62.01 0,32.76 C0.13,3.51 20.8,-8.32 46.28,6.37 Z"></path>
                            </g>
                        </g>
                        <g transform="translate(47.800000, 0.000000)" id="Path">
                            <polygon fill="url(#linearGradient-6)" points="92.34 98.54 92.08 204.62 0.04 45.24"></polygon>
                            <polygon fill="url(#linearGradient-7)" points="92.34 98.54 168.78 54.08 168.52 160.16 92.08 204.62"></polygon>
                            <polygon fill="url(#linearGradient-8)" points="0.04 45.24 76.48 0.78 168.78 54.08 92.34 98.54"></polygon>
                        </g>
                    </g>
                </g>
                <g id="Group-21" transform="translate(131.000000, 159.522193) rotate(-15.000000) translate(-131.000000, -159.522193) translate(93.000000, 121.522193)">
                    <g id="Rectangle">
                        <use fill="black" fill-opacity="1" filter="url(#filter-10)" xlink:href="#path-9"></use>
                        <rect stroke="#E0E0E0" stroke-width="0.751958225" stroke-linejoin="square" fill="#FFFFFF" fill-rule="evenodd" x="0.375979112" y="0.375979112" width="74.4438642" height="74.4438642" rx="23.4986945"></rect>
                    </g>
                    <g id="Group-11" transform="translate(22.558747, 22.558747)" stroke="#B967D9" stroke-linecap="square" stroke-linejoin="round" stroke-width="0.939947781">
                        <g id="Group-6">
                            <polygon id="Stroke-1" points="24.4386423 5.63968668 29.4516971 5.63968668 29.4516971 0.626631854 24.4386423 0.626631854"></polygon>
                            <polygon id="Stroke-3" points="0.626631854 5.63968668 5.63968668 5.63968668 5.63968668 0.626631854 0.626631854 0.626631854"></polygon>
                            <polygon id="Stroke-4" points="24.4386423 29.4516971 29.4516971 29.4516971 29.4516971 24.4386423 24.4386423 24.4386423"></polygon>
                            <polygon id="Stroke-5" points="0.626631854 29.4516971 5.63968668 29.4516971 5.63968668 24.4386423 0.626631854 24.4386423"></polygon>
                        </g>
                        <line x1="23.2637076" y1="26.9451697" x2="5.44355091" y2="26.9451697" id="Stroke-7" stroke-dasharray="1.542454338571733,2.056605710061972"></line>
                        <line x1="3.13315927" y1="23.2637076" x2="3.13315927" y2="5.44355091" id="Stroke-8" stroke-dasharray="1.542454338571733,2.056605710061972"></line>
                        <line x1="6.81462141" y1="3.13315927" x2="24.6347781" y2="3.13315927" id="Stroke-9" stroke-dasharray="1.542454338571733,2.056605710061972"></line>
                        <line x1="26.9451697" y1="6.81462141" x2="26.9451697" y2="24.6347781" id="Stroke-10" stroke-dasharray="1.542454338571733,2.056605710061972"></line>
                    </g>
                </g>
            </g>
        </g>
    </g>
</svg>