<?xml version="1.0" encoding="UTF-8" standalone="no"?>
<svg
   xmlns:dc="http://purl.org/dc/elements/1.1/"
   xmlns:cc="http://creativecommons.org/ns#"
   xmlns:rdf="http://www.w3.org/1999/02/22-rdf-syntax-ns#"
   xmlns:svg="http://www.w3.org/2000/svg"
   xmlns="http://www.w3.org/2000/svg"
   xmlns:xlink="http://www.w3.org/1999/xlink"
   xmlns:sodipodi="http://sodipodi.sourceforge.net/DTD/sodipodi-0.dtd"
   xmlns:inkscape="http://www.inkscape.org/namespaces/inkscape"
   width="75"
   height="80"
   viewBox="0 0 75 80"
   version="1.1"
   id="svg3818"
   sodipodi:docname="illustration-2-mobile.svg"
   inkscape:version="0.92.5 (2060ec1f9f, 2020-04-08)">
  <metadata
     id="metadata3822">
    <rdf:RDF>
      <cc:Work
         rdf:about="">
        <dc:format>image/svg+xml</dc:format>
        <dc:type
           rdf:resource="http://purl.org/dc/dcmitype/StillImage" />
        <dc:title>Group 20 Copy</dc:title>
      </cc:Work>
    </rdf:RDF>
  </metadata>
  <sodipodi:namedview
     pagecolor="#ffffff"
     bordercolor="#666666"
     borderopacity="1"
     objecttolerance="10"
     gridtolerance="10"
     guidetolerance="10"
     inkscape:pageopacity="0"
     inkscape:pageshadow="2"
     inkscape:window-width="1920"
     inkscape:window-height="1007"
     id="namedview3820"
     showgrid="false"
     inkscape:zoom="7.2123894"
     inkscape:cx="46.840962"
     inkscape:cy="32.774859"
     inkscape:window-x="0"
     inkscape:window-y="396"
     inkscape:window-maximized="1"
     inkscape:current-layer="Homepage-Pyxis" />
  <title
     id="title3713">Group 20 Copy</title>
  <defs
     id="defs3765">
    <linearGradient
       x1="0.24631779"
       y1="1.1867712"
       x2="0.65636009"
       y2="0.37660065"
       id="linearGradient-1">
      <stop
         stop-color="#571D87"
         offset="0%"
         id="stop3715" />
      <stop
         stop-color="#7B24C3"
         offset="100%"
         id="stop3717" />
    </linearGradient>
    <linearGradient
       x1="0.49977288"
       y1="-0.17897063"
       x2="0.49977288"
       y2="0.97684455"
       id="linearGradient-2">
      <stop
         stop-color="#6B3D93"
         offset="0%"
         id="stop3720" />
      <stop
         stop-color="#CA65FF"
         offset="100%"
         id="stop3722" />
    </linearGradient>
    <linearGradient
       x1="1.2116024"
       y1="0.89283204"
       x2="0.26140293"
       y2="0.36840743"
       id="linearGradient-3">
      <stop
         stop-color="#6B3D93"
         offset="0%"
         id="stop3725" />
      <stop
         stop-color="#CA65FF"
         offset="100%"
         id="stop3727" />
    </linearGradient>
    <linearGradient
       x1="21.013861"
       y1="34.212513"
       x2="29.106907"
       y2="0.78215617"
       id="linearGradient-4"
       gradientTransform="scale(0.98404479,1.0162139)"
       gradientUnits="userSpaceOnUse">
      <stop
         stop-color="#6B3D93"
         offset="0%"
         id="stop3730" />
      <stop
         stop-color="#CA65FF"
         offset="100%"
         id="stop3732" />
    </linearGradient>
    <linearGradient
       x1="0.21503612"
       y1="0.84722102"
       x2="0.75534278"
       y2="0.18958557"
       id="linearGradient-5">
      <stop
         stop-color="#571D87"
         offset="0%"
         id="stop3735" />
      <stop
         stop-color="#7B24C3"
         offset="100%"
         id="stop3737" />
    </linearGradient>
    <linearGradient
       x1="9.32938"
       y1="37.730671"
       x2="15.696807"
       y2="26.488569"
       id="linearGradient-6"
       gradientTransform="scale(0.76099874,1.3140626)"
       gradientUnits="userSpaceOnUse">
      <stop
         stop-color="#571D87"
         offset="0%"
         id="stop3740" />
      <stop
         stop-color="#7B24C3"
         offset="100%"
         id="stop3742" />
    </linearGradient>
    <linearGradient
       x1="51.34407"
       y1="51.585308"
       x2="46.805656"
       y2="-0.58788067"
       id="linearGradient-7"
       gradientTransform="scale(0.71379208,1.4009682)"
       gradientUnits="userSpaceOnUse">
      <stop
         stop-color="#6B3D93"
         offset="0%"
         id="stop3745" />
      <stop
         stop-color="#CA65FF"
         offset="100%"
         id="stop3747" />
    </linearGradient>
    <linearGradient
       x1="57.501846"
       y1="31.744537"
       x2="-6.010314"
       y2="9.2660799"
       id="linearGradient-8"
       gradientTransform="scale(1.3137975,0.76115232)"
       gradientUnits="userSpaceOnUse">
      <stop
         stop-color="#6B3D93"
         offset="0%"
         id="stop3750" />
      <stop
         stop-color="#CA65FF"
         offset="100%"
         id="stop3752" />
    </linearGradient>
    <rect
       id="path-9"
       x="0"
       y="0"
       width="35"
       height="35"
       rx="10" />
    <filter
       x="-1.071"
       y="-0.64300001"
       width="3.1429999"
       height="3.1429999"
       filterUnits="objectBoundingBox"
       id="filter-10">
      <feOffset
         dx="0"
         dy="15"
         in="SourceAlpha"
         result="shadowOffsetOuter1"
         id="feOffset3756" />
      <feGaussianBlur
         stdDeviation="10"
         in="shadowOffsetOuter1"
         result="shadowBlurOuter1"
         id="feGaussianBlur3758" />
      <feComposite
         in="shadowBlurOuter1"
         in2="SourceAlpha"
         operator="out"
         result="shadowBlurOuter1"
         id="feComposite3760" />
      <feColorMatrix
         values="0 0 0 0 0   0 0 0 0 0   0 0 0 0 0  0 0 0 0.1 0"
         type="matrix"
         in="shadowBlurOuter1"
         id="feColorMatrix3762" />
    </filter>
    <linearGradient
       inkscape:collect="always"
       xlink:href="#linearGradient-1"
       id="linearGradient3824"
       x1="6.9090543"
       y1="33.442448"
       x2="18.410475"
       y2="10.717691"
       gradientTransform="scale(0.88503013,1.129905)"
       gradientUnits="userSpaceOnUse" />
    <linearGradient
       inkscape:collect="always"
       xlink:href="#linearGradient-1"
       id="linearGradient3826"
       x1="6.9090543"
       y1="33.442448"
       x2="18.410475"
       y2="10.717691"
       gradientTransform="scale(0.88503013,1.129905)"
       gradientUnits="userSpaceOnUse" />
    <linearGradient
       inkscape:collect="always"
       xlink:href="#linearGradient-2"
       id="linearGradient3828"
       x1="14.40303"
       y1="-5.0084596"
       x2="14.40303"
       y2="28.301151"
       gradientTransform="scale(0.71379208,1.4009682)"
       gradientUnits="userSpaceOnUse" />
    <linearGradient
       inkscape:collect="always"
       xlink:href="#linearGradient-2"
       id="linearGradient3830"
       x1="14.40303"
       y1="-5.0084596"
       x2="14.40303"
       y2="28.301151"
       gradientTransform="scale(0.71379208,1.4009682)"
       gradientUnits="userSpaceOnUse" />
    <linearGradient
       inkscape:collect="always"
       xlink:href="#linearGradient-3"
       id="linearGradient3832"
       x1="41.788738"
       y1="31.029924"
       x2="9.0575352"
       y2="12.965247"
       gradientTransform="scale(1.3137975,0.76115232)"
       gradientUnits="userSpaceOnUse" />
    <linearGradient
       inkscape:collect="always"
       xlink:href="#linearGradient-3"
       id="linearGradient3834"
       x1="41.788738"
       y1="31.029924"
       x2="9.0575352"
       y2="12.965247"
       gradientTransform="scale(1.3137975,0.76115232)"
       gradientUnits="userSpaceOnUse" />
    <linearGradient
       inkscape:collect="always"
       xlink:href="#linearGradient-5"
       id="linearGradient3836"
       x1="6.0367503"
       y1="23.798054"
       x2="21.204882"
       y2="5.3361273"
       gradientTransform="scale(0.88180625,1.134036)"
       gradientUnits="userSpaceOnUse" />
    <linearGradient
       inkscape:collect="always"
       xlink:href="#linearGradient-5"
       id="linearGradient3838"
       x1="6.0367503"
       y1="23.798054"
       x2="21.204882"
       y2="5.3361273"
       gradientTransform="scale(0.88180625,1.134036)"
       gradientUnits="userSpaceOnUse" />
  </defs>
  <g
     id="Homepage-Pyxis"
     style="fill:none;fill-rule:evenodd;stroke:none;stroke-width:1"
     transform="translate(0,-33)">
    <g
       id="g3949"
       transform="translate(-0.55460123,34.028221)">
      <g
         style="fill-rule:nonzero"
         transform="matrix(-1,0,0,1,73,0)"
         id="pyxis-illustration-2-v2">
        <path
           style="fill:#ffffff"
           inkscape:connector-curvature="0"
           id="Shape"
           d="M 58.051724,25.208046 58.08659,14.504215 33.331801,0.2091954 12.830651,12.133333 15.759387,17.188889 3.6260536,24.231801 c 0,0 0,0 0.034866,0 C 1.394636,25.486973 -1.6356502e-4,28.241379 -1.6356502e-4,32.14636 -0.0348659,39.991188 5.5088123,49.57931 12.342529,53.519157 c 3.48659,2.022222 6.659387,2.161686 8.92567,0.801916 -0.03487,0.03487 -0.06973,0.03487 -0.104598,0.06973 0,0 0,0 0,0 v 0 c 0,0 0,0 0,0 l 3.242529,-1.882759 v 5.508812 L 49.160919,72.311877 69.662069,60.38774 69.731801,31.937165 Z M 12.377395,25.068582 c 0.03487,0 0.03487,0 0,0 0.03487,0.03487 0.06973,0.03487 0.104597,0.06973 -0.03487,-0.03487 -0.03487,-0.03487 -0.104597,-0.06973 0.03487,0 0.03487,0 0,0 z" />
        <g
           id="Group">
          <g
             style="opacity:0.5"
             id="Path"
             transform="translate(24.40613,17.43295)">
            <g
               style="fill:url(#linearGradient3826)"
               id="g3770"
               transform="translate(0,23.011494)">
              <path
                 inkscape:connector-curvature="0"
                 style="fill:url(#linearGradient3824)"
                 id="path3768"
                 d="M 19.211111,0.1743295 C 19.071647,0.348659 18.932184,0.52298851 18.79272,0.69731801 18.72299,0.76704981 18.653257,0.83678161 18.618391,0.90651341 18.478927,1.0808429 18.304598,1.2203065 18.165134,1.3597701 18.095404,1.4295021 18.02567,1.4643678 17.955939,1.5340996 17.711877,1.7084291 17.502682,1.8827586 17.223755,2.0222222 L 0,12.063602 v 5.508812 l 24.754789,14.295019 0.06973,-28.4505748 z" />
            </g>
            <g
               style="fill:url(#linearGradient3830)"
               id="g3774"
               transform="translate(24.754789,14.295019)">
              <polygon
                 style="fill:url(#linearGradient3828)"
                 id="polygon3772"
                 points="20.570881,0.2091954 20.501149,28.65977 0,40.583908 0.069731801,12.133333 " />
            </g>
            <g
               style="fill:url(#linearGradient3834)"
               id="g3778">
              <polygon
                 style="fill:url(#linearGradient3832)"
                 id="polygon3776"
                 points="20.570881,0.2091954 45.325671,14.504215 24.824521,26.428352 0.069731801,12.133333 " />
            </g>
          </g>
          <g
             style="opacity:0.8"
             id="g3787"
             transform="translate(0,11.505747)">
            <path
               inkscape:connector-curvature="0"
               style="fill:url(#linearGradient-4)"
               id="path3781"
               d="m 45.255939,22.488506 c 0,-0.209196 0,-0.383525 -0.03487,-0.592721 0,-0.104597 0,-0.174329 -0.03487,-0.278927 0,-0.03487 0,-0.06973 0,-0.104598 0,-0.06973 0,-0.139463 0,-0.209195 -0.03487,-0.209195 -0.03487,-0.418391 -0.06973,-0.59272 -0.03487,-0.209196 -0.06973,-0.418391 -0.104598,-0.627586 0,0 0,0 0,0 0,0 0,0 0,-0.03487 -0.03486,-0.209196 -0.06973,-0.383525 -0.104597,-0.592721 -0.03487,-0.209195 -0.06973,-0.41839 -0.139464,-0.662452 0,-0.06973 -0.03487,-0.139463 -0.06973,-0.209195 0,-0.03487 -0.03487,-0.104598 -0.03487,-0.139464 -0.03487,-0.104597 -0.03487,-0.174329 -0.06973,-0.278927 -0.06973,-0.209195 -0.104598,-0.453257 -0.17433,-0.662452 -0.03487,-0.17433 -0.104598,-0.313793 -0.139464,-0.488123 0,-0.03487 0,-0.06973 -0.03487,-0.104597 0,-0.03487 0,-0.06973 -0.03487,-0.104598 -0.06973,-0.209195 -0.139464,-0.418391 -0.209196,-0.627586 -0.06973,-0.209196 -0.139463,-0.418391 -0.209195,-0.627586 0,-0.03487 -0.03487,-0.06973 -0.03487,-0.104598 0,-0.03487 -0.03487,-0.06973 -0.03487,-0.104598 -0.03487,-0.139463 -0.104598,-0.278927 -0.139464,-0.383525 -0.06973,-0.209195 -0.174329,-0.41839 -0.244061,-0.59272 -0.06973,-0.139464 -0.139463,-0.278927 -0.174329,-0.418391 0,-0.03487 -0.03487,-0.03487 -0.03487,-0.06973 0,-0.03486 -0.03487,-0.06973 -0.03487,-0.104597 -0.104598,-0.209196 -0.17433,-0.383525 -0.278927,-0.592721 -0.104598,-0.209195 -0.209196,-0.41839 -0.313793,-0.662452 0,-0.03487 -0.03487,-0.06973 -0.03487,-0.104597 -0.03487,-0.03487 -0.03487,-0.06973 -0.06973,-0.139464 -0.104598,-0.17433 -0.17433,-0.348659 -0.278927,-0.522989 -0.104598,-0.209195 -0.244062,-0.41839 -0.348659,-0.627586 -0.06973,-0.104597 -0.104598,-0.209195 -0.17433,-0.313793 -0.03487,-0.03487 -0.03487,-0.06973 -0.06973,-0.139463 -0.104597,-0.17433 -0.244061,-0.34866 -0.348659,-0.557855 C 41.002299,9.8321839 40.862835,9.5881226 40.688506,9.3091954 40.65364,9.2743295 40.65364,9.2394636 40.618774,9.1697318 40.374713,8.7862069 40.095785,8.402682 39.851724,8.054023 39.677395,7.8099617 39.503065,7.5659004 39.29387,7.3218391 39.154406,7.1126437 38.980077,6.9383142 38.840613,6.7639847 c 0,0 0,0 0,0 0,0 0,0 0,0 C 38.666283,6.5896552 38.52682,6.3804598 38.35249,6.2061303 38.178161,6.0318008 38.038697,5.8574713 37.864368,5.6831418 37.829502,5.6482759 37.794636,5.61341 37.794636,5.61341 37.75977,5.5785441 37.724904,5.5436782 37.724904,5.5088123 37.620306,5.4042146 37.515709,5.264751 37.376245,5.1601533 37.201916,4.9858237 37.027586,4.8114942 36.853257,4.6371647 36.783525,4.5674329 36.748659,4.532567 36.678927,4.4977011 36.644061,4.4628353 36.609195,4.4279693 36.539464,4.3931034 36.469732,4.3233717 36.365134,4.2187739 36.295402,4.1490421 36.121073,3.9747126 35.946743,3.835249 35.737548,3.6609195 35.667816,3.5911877 35.563218,3.5214559 35.493487,3.4517241 35.458621,3.4168582 35.423755,3.3819923 35.354023,3.3471264 35.284291,3.3122605 35.249425,3.2425287 35.179693,3.2076628 35.005364,3.0681992 34.831034,2.9287356 34.621839,2.789272 34.482376,2.6846743 34.342912,2.6149425 34.238314,2.5103448 c -0.03487,0 -0.03487,-0.034866 -0.06973,-0.034866 -0.03487,0 -0.03487,-0.034866 -0.06973,-0.034866 C 33.924521,2.3360153 33.750192,2.1965517 33.575862,2.091954 33.401533,1.9873563 33.227203,1.8827586 33.052874,1.7781609 33.018008,1.743295 32.983142,1.743295 32.948276,1.7084291 32.808812,1.6386973 32.669349,1.5689655 32.564751,1.4992337 32.390422,1.394636 32.216092,1.3249042 32.041762,1.2203065 31.937165,1.1505747 31.832567,1.1157088 31.727969,1.0808429 c -0.03487,0 -0.03487,-0.034866 -0.06973,-0.034866 -0.03486,0 -0.06973,-0.034866 -0.104597,-0.034866 -0.17433,-0.0697318 -0.313793,-0.13946359 -0.488123,-0.20919539 -0.174329,-0.0697318 -0.348659,-0.1394636 -0.488122,-0.1743295 -0.03487,0 -0.06973,-0.0348659 -0.06973,-0.0348659 -0.03487,0 -0.03487,0 -0.06973,-0.0348659 C 30.333333,0.52298851 30.228736,0.48812261 30.089272,0.4532567 29.914942,0.41839081 29.740613,0.348659 29.566283,0.3137931 29.496552,0.2789272 29.391954,0.2789272 29.322222,0.2440613 c -0.03487,0 -0.06973,0 -0.104598,-0.0348659 -0.06973,0 -0.104597,-0.0348659 -0.174329,-0.0348659 -0.174329,-0.0348659 -0.348659,-0.0697318 -0.557854,-0.1045977 -0.104598,0 -0.209196,-0.0348659 -0.313794,-0.0348659 -0.03486,0 -0.06973,0 -0.104597,0 -0.03487,0 -0.06973,0 -0.104598,0 C 27.753257,0.0348659 27.578927,0 27.369732,0 27.3,0 27.195402,0 27.12567,0 c -0.06973,0 -0.139463,0 -0.209195,0 -0.06973,0 -0.139464,0 -0.209195,0 -0.244062,0.0348659 -0.488123,0.0697318 -0.697318,0.1045977 0,0 0,0 0,0 -0.03487,0 -0.104598,0.0348659 -0.139464,0.0348659 -0.244061,0.0697318 -0.488123,0.1045977 -0.697318,0.2091954 -0.03487,0 -0.03487,0.0348659 -0.06973,0.0348659 -0.313793,0.10459771 -0.662452,0.27892721 -0.941379,0.45325671 L 3.6609195,12.76092 c 0.3137931,-0.17433 0.6275862,-0.313794 0.9413794,-0.453257 0.2440612,-0.104598 0.4881226,-0.17433 0.7670498,-0.209196 0.034866,0 0.1045977,-0.03486 0.1394636,-0.03486 0.3137931,-0.06973 0.5927203,-0.104598 0.9413793,-0.104598 0.069732,0 0.1394636,0 0.2091954,0 0.3137931,0 0.6275862,0 0.9413793,0.03487 0.034866,0 0.069732,0 0.1045977,0 0.348659,0.03487 0.6624521,0.06973 1.0111111,0.174329 0.034866,0 0.069732,0 0.1045977,0.03487 0.348659,0.06973 0.7321839,0.17433 1.0808429,0.313793 0.034866,0 0.034866,0 0.069732,0.03487 0.3835243,0.139464 0.7670493,0.278927 1.1854403,0.488123 0.03487,0 0.06973,0.03487 0.06973,0.03487 0.418391,0.174329 0.801916,0.383524 1.220306,0.627586 0.418391,0.244061 0.836782,0.522988 1.255173,0.801916 0.03487,0 0.03487,0.03487 0.06973,0.03487 0.383525,0.278927 0.76705,0.557854 1.115709,0.836781 0.03486,0.03487 0.06973,0.06973 0.139463,0.104598 0.348659,0.278927 0.697318,0.59272 1.045977,0.906513 0.03487,0.03487 0.06973,0.06973 0.139464,0.104598 0.348659,0.313793 0.697318,0.662452 1.011111,1.011111 0.03487,0.03487 0.06973,0.06973 0.06973,0.104598 0.348659,0.383525 0.697318,0.76705 1.045977,1.18544 0,0 0,0 0,0 0.662452,0.801916 1.290038,1.638698 1.882758,2.545211 0.17433,0.244061 0.348659,0.522989 0.488123,0.801916 0.139463,0.209195 0.278927,0.453256 0.418391,0.662452 0.06973,0.104598 0.104597,0.209195 0.174329,0.313793 0.209195,0.383525 0.418391,0.76705 0.627586,1.150575 0.03487,0.03487 0.03487,0.06973 0.06973,0.139463 0.244061,0.488123 0.453257,0.94138 0.662452,1.429502 0,0.03487 0.03487,0.03487 0.03487,0.06973 0.209196,0.488123 0.383525,0.941379 0.557855,1.429502 0,0.03487 0.03486,0.06973 0.03486,0.104598 0.17433,0.488122 0.348659,0.976245 0.488123,1.464367 0,0.03487 0,0.06973 0.03487,0.104598 0.139464,0.488123 0.278927,0.941379 0.383525,1.429502 0,0.03487 0.03487,0.104598 0.03487,0.139464 0.104598,0.488122 0.209195,0.976245 0.278927,1.464367 0,0 0,0 0,0 0.06973,0.488123 0.139464,0.976246 0.174329,1.464368 0,0.03487 0,0.06973 0,0.104598 0.03487,0.488123 0.06973,0.976245 0.06973,1.429502 0,0.453257 -0.03487,0.906513 -0.06973,1.35977 0,0.03487 0,0.06973 0,0.104598 -0.03486,0.383525 -0.104597,0.801915 -0.174329,1.150574 0,0.03487 -0.03487,0.104598 -0.03487,0.139464 -0.06973,0.348659 -0.174329,0.697318 -0.278927,1.045977 -0.03487,0.06973 -0.03487,0.104598 -0.06973,0.174329 -0.104598,0.313794 -0.209195,0.592721 -0.348659,0.871648 0,0.03487 -0.03487,0.06973 -0.03487,0.104598 -0.139463,0.313793 -0.313793,0.627586 -0.488122,0.906513 -0.03487,0.03487 -0.06973,0.06973 -0.06973,0.104598 -0.139464,0.209195 -0.313793,0.418391 -0.488123,0.627586 -0.06973,0.06973 -0.139464,0.139464 -0.174329,0.209196 -0.139464,0.174329 -0.313794,0.313793 -0.453257,0.453256 -0.06973,0.06973 -0.139464,0.104598 -0.209195,0.17433 -0.244062,0.174329 -0.453257,0.348659 -0.697319,0.488122 0,0 0,0 0,0 v 0 c 0,0 0,0 0,0 l 20.50115,-11.924138 c 0.244061,-0.139463 0.488123,-0.313793 0.732184,-0.488122 0.06973,-0.06973 0.139463,-0.104598 0.209195,-0.17433 0.17433,-0.139463 0.313793,-0.278927 0.453257,-0.453257 0.06973,-0.06973 0.139464,-0.139463 0.174329,-0.209195 0.17433,-0.209195 0.313794,-0.418391 0.488123,-0.627586 0.03487,-0.03487 0.03487,-0.06973 0.06973,-0.104598 0,0 0,0 0,-0.03487 0.174329,-0.278927 0.313793,-0.557854 0.453257,-0.836781 0,0 0,-0.03487 0,-0.03487 0,-0.03487 0.03487,-0.06973 0.03487,-0.104598 0.06973,-0.174329 0.17433,-0.383525 0.244062,-0.59272 0.03487,-0.104598 0.06973,-0.209196 0.104597,-0.313793 0.03487,-0.06973 0.03487,-0.104598 0.06973,-0.17433 0,-0.06973 0.03487,-0.104598 0.06973,-0.174329 0.06973,-0.209196 0.104598,-0.418391 0.17433,-0.627587 0,-0.06973 0.03487,-0.139463 0.03487,-0.244061 0,-0.03487 0.03486,-0.104598 0.03486,-0.139463 0,-0.06973 0.03487,-0.139464 0.03487,-0.209196 0.03487,-0.209195 0.06973,-0.383525 0.104598,-0.59272 0,-0.104598 0.03487,-0.209196 0.03487,-0.348659 0,-0.03487 0,-0.06973 0,-0.104598 0,-0.03487 0,-0.104597 0,-0.139463 0,-0.17433 0.03487,-0.383525 0.03487,-0.592721 0,-0.209195 0,-0.383525 0,-0.59272 0,0 0,-0.03487 0,-0.03487 0.03487,-0.244061 0.03487,-0.418391 0.03487,-0.59272 z" />
            <g
               style="fill:url(#linearGradient3838)"
               id="g3785"
               transform="translate(0,11.854406)">
              <path
                 inkscape:connector-curvature="0"
                 style="fill:url(#linearGradient3836)"
                 id="path3783"
                 d="M 12.412261,1.7084291 C 19.245977,5.6482759 24.789655,15.236399 24.754953,23.081226 24.719923,30.926054 19.176245,34.098851 12.342529,30.159004 5.5088123,26.219157 0,16.631034 0,8.7862069 0.0348659,0.94137931 5.5785441,-2.2314176 12.412261,1.7084291 Z" />
            </g>
          </g>
          <g
             id="g3795"
             transform="translate(12.819923)">
            <polygon
               style="fill:url(#linearGradient-6)"
               id="polygon3789"
               points="24.695785,54.878927 0.010727969,12.133333 24.765517,26.428352 " />
            <polygon
               style="fill:url(#linearGradient-7)"
               id="polygon3791"
               points="45.266667,14.504215 45.196935,42.954789 24.695785,54.878927 24.765517,26.428352 " />
            <polygon
               style="fill:url(#linearGradient-8)"
               id="polygon3793"
               points="20.511877,0.2091954 45.266667,14.504215 24.765517,26.428352 0.010727969,12.133333 " />
          </g>
        </g>
      </g>
      <rect
         style="fill:#ffffff;fill-rule:evenodd;stroke:#e0e0e0;stroke-width:0.5"
         id="rect3801"
         rx="10"
         height="34.5"
         width="34.5"
         y="43.25"
         x="20.25"
         stroke-linejoin="square" />
      <g
         id="Group-11"
         transform="translate(31,54)"
         style="stroke:#b967d9;stroke-width:0.78525639;stroke-linecap:square;stroke-linejoin:round">
        <g
           id="Group-6">
          <polygon
             id="Stroke-1"
             points="11.0715,0.28388462 11.0715,2.5549616 13.342577,2.5549616 13.342577,0.28388462 " />
          <polygon
             id="Stroke-3"
             points="0.28388462,0.28388462 0.28388462,2.5549616 2.5549616,2.5549616 2.5549616,0.28388462 " />
          <polygon
             id="Stroke-4"
             points="11.0715,11.0715 11.0715,13.342577 13.342577,13.342577 13.342577,11.0715 " />
          <polygon
             id="Stroke-5"
             points="0.28388462,11.0715 0.28388462,13.342577 2.5549616,13.342577 2.5549616,11.0715 " />
        </g>
        <line
           x1="10.539217"
           y1="12.207039"
           x2="2.4661057"
           y2="12.207039"
           id="Stroke-7"
           style="stroke-dasharray:0.69878198, 0.93170941" />
        <line
           x1="1.4194231"
           y1="10.539217"
           x2="1.4194231"
           y2="2.4661057"
           id="Stroke-8"
           style="stroke-dasharray:0.69878198, 0.93170941" />
        <line
           x1="3.0872452"
           y1="1.4194231"
           x2="11.160357"
           y2="1.4194231"
           id="Stroke-9"
           style="stroke-dasharray:0.69878198, 0.93170941" />
        <line
           x1="12.207039"
           y1="3.0872452"
           x2="12.207039"
           y2="11.160357"
           id="Stroke-10"
           style="stroke-dasharray:0.69878198, 0.93170941" />
      </g>
    </g>
  </g>
</svg>
