<?xml version="1.0" encoding="UTF-8"?>
<svg width="75px" height="113px" viewBox="0 0 75 113" version="1.1" xmlns="http://www.w3.org/2000/svg" xmlns:xlink="http://www.w3.org/1999/xlink">
    <title>Group 20 Copy</title>
    <defs>
        <linearGradient x1="24.6317778%" y1="118.677118%" x2="65.6360105%" y2="37.660066%" id="linearGradient-1">
            <stop stop-color="#571D87" offset="0%"></stop>
            <stop stop-color="#7B24C3" offset="100%"></stop>
        </linearGradient>
        <linearGradient x1="49.9772881%" y1="-17.8970639%" x2="49.9772881%" y2="97.684456%" id="linearGradient-2">
            <stop stop-color="#6B3D93" offset="0%"></stop>
            <stop stop-color="#CA65FF" offset="100%"></stop>
        </linearGradient>
        <linearGradient x1="121.160247%" y1="89.283203%" x2="26.1402928%" y2="36.8407454%" id="linearGradient-3">
            <stop stop-color="#6B3D93" offset="0%"></stop>
            <stop stop-color="#CA65FF" offset="100%"></stop>
        </linearGradient>
        <linearGradient x1="40.9127346%" y1="80.9391234%" x2="60.0590679%" y2="1.85040584%" id="linearGradient-4">
            <stop stop-color="#6B3D93" offset="0%"></stop>
            <stop stop-color="#CA65FF" offset="100%"></stop>
        </linearGradient>
        <linearGradient x1="21.5036125%" y1="84.7220958%" x2="75.5342756%" y2="18.9585579%" id="linearGradient-5">
            <stop stop-color="#571D87" offset="0%"></stop>
            <stop stop-color="#7B24C3" offset="100%"></stop>
        </linearGradient>
        <linearGradient x1="28.636552%" y1="87.6046493%" x2="48.210966%" y2="53.0447798%" id="linearGradient-6">
            <stop stop-color="#571D87" offset="0%"></stop>
            <stop stop-color="#7B24C3" offset="100%"></stop>
        </linearGradient>
        <linearGradient x1="58.107416%" y1="143.072625%" x2="42.3594929%" y2="-37.9639033%" id="linearGradient-7">
            <stop stop-color="#6B3D93" offset="0%"></stop>
            <stop stop-color="#CA65FF" offset="100%"></stop>
        </linearGradient>
        <linearGradient x1="166.906394%" y1="91.3577594%" x2="-17.4718798%" y2="26.1019181%" id="linearGradient-8">
            <stop stop-color="#6B3D93" offset="0%"></stop>
            <stop stop-color="#CA65FF" offset="100%"></stop>
        </linearGradient>
        <rect id="path-9" x="0" y="0" width="35" height="35" rx="10"></rect>
        <filter x="-107.1%" y="-64.3%" width="314.3%" height="314.3%" filterUnits="objectBoundingBox" id="filter-10">
            <feOffset dx="0" dy="15" in="SourceAlpha" result="shadowOffsetOuter1"></feOffset>
            <feGaussianBlur stdDeviation="10" in="shadowOffsetOuter1" result="shadowBlurOuter1"></feGaussianBlur>
            <feComposite in="shadowBlurOuter1" in2="SourceAlpha" operator="out" result="shadowBlurOuter1"></feComposite>
            <feColorMatrix values="0 0 0 0 0   0 0 0 0 0   0 0 0 0 0  0 0 0 0.1 0" type="matrix" in="shadowBlurOuter1"></feColorMatrix>
        </filter>
    </defs>
    <g id="Homepage-Pyxis" stroke="none" stroke-width="1" fill="none" fill-rule="evenodd">
        <g id="home-pyxis-mobile" transform="translate(-18.000000, -1335.000000)">
            <g id="Group-30" transform="translate(20.000000, 1335.000000)">
                <g id="pyxis-illustration-2-v2" transform="translate(35.500000, 37.000000) scale(-1, 1) translate(-35.500000, -37.000000) " fill-rule="nonzero">
                    <path d="M58.0517241,25.208046 L58.08659,14.5042146 L33.3318008,0.209195402 L12.8306513,12.1333333 L15.759387,17.1888889 L3.62605364,24.2318008 C3.62605364,24.2318008 3.62605364,24.2318008 3.66091954,24.2318008 C1.39463602,25.4869732 -0.000163565019,28.2413793 -0.000163565019,32.1463602 C-0.0348659004,39.9911877 5.50881226,49.5793103 12.3425287,53.5191571 C15.8291188,55.5413793 19.0019157,55.6808429 21.2681992,54.3210728 C21.2333333,54.3559387 21.1984674,54.3559387 21.1636015,54.3908046 C21.1636015,54.3908046 21.1636015,54.3908046 21.1636015,54.3908046 L21.1636015,54.3908046 C21.1636015,54.3908046 21.1636015,54.3908046 21.1636015,54.3908046 L24.4061303,52.508046 L24.4061303,58.0168582 L49.1609195,72.3118774 L69.662069,60.3877395 L69.7318008,31.9371648 L58.0517241,25.208046 Z M12.3773946,25.0685824 C12.4122605,25.0685824 12.4122605,25.0685824 12.3773946,25.0685824 C12.4122605,25.1034483 12.4471264,25.1034483 12.4819923,25.1383142 C12.4471264,25.1034483 12.4471264,25.1034483 12.3773946,25.0685824 C12.4122605,25.0685824 12.4122605,25.0685824 12.3773946,25.0685824 Z" id="Shape" fill="#FFFFFF"></path>
                    <g id="Group">
                        <g opacity="0.5" transform="translate(24.406130, 17.432950)" id="Path">
                            <g transform="translate(0.000000, 23.011494)" fill="url(#linearGradient-1)">
                                <path d="M19.2111111,0.174329502 C19.0716475,0.348659004 18.9321839,0.522988506 18.7927203,0.697318008 C18.7229885,0.767049808 18.6532567,0.836781609 18.6183908,0.90651341 C18.4789272,1.08084291 18.3045977,1.22030651 18.1651341,1.35977011 C18.0954023,1.42950192 18.0256705,1.46436782 17.9559387,1.53409962 C17.7118774,1.70842912 17.502682,1.88275862 17.2237548,2.02222222 L0,12.0636015 L0,17.5724138 L24.7547893,31.867433 L24.8245211,3.41685824 L19.2111111,0.174329502 Z"></path>
                            </g>
                            <g transform="translate(24.754789, 14.295019)" fill="url(#linearGradient-2)">
                                <polygon points="0.0697318008 12.1333333 20.5708812 0.209195402 20.5011494 28.6597701 0 40.583908"></polygon>
                            </g>
                            <g fill="url(#linearGradient-3)">
                                <polygon points="0.0697318008 12.1333333 20.5708812 0.209195402 45.3256705 14.5042146 24.8245211 26.4283525"></polygon>
                            </g>
                        </g>
                        <g opacity="0.8" transform="translate(0.000000, 11.505747)" id="Path">
                            <path d="M45.2559387,22.4885057 C45.2559387,22.2793103 45.2559387,22.1049808 45.2210728,21.8957854 C45.2210728,21.7911877 45.2210728,21.7214559 45.1862069,21.6168582 C45.1862069,21.5819923 45.1862069,21.5471264 45.1862069,21.5122605 C45.1862069,21.4425287 45.1862069,21.3727969 45.1862069,21.3030651 C45.151341,21.0938697 45.151341,20.8846743 45.1164751,20.7103448 C45.0816092,20.5011494 45.0467433,20.291954 45.0118774,20.0827586 C45.0118774,20.0827586 45.0118774,20.0827586 45.0118774,20.0827586 C45.0118774,20.0827586 45.0118774,20.0827586 45.0118774,20.0478927 C44.9770115,19.8386973 44.9421456,19.6643678 44.9072797,19.4551724 C44.8724138,19.245977 44.8375479,19.0367816 44.7678161,18.7927203 C44.7678161,18.7229885 44.7329502,18.6532567 44.6980843,18.5835249 C44.6980843,18.548659 44.6632184,18.4789272 44.6632184,18.4440613 C44.6283525,18.3394636 44.6283525,18.2697318 44.5934866,18.1651341 C44.5237548,17.9559387 44.4888889,17.7118774 44.4191571,17.502682 C44.3842912,17.3283525 44.3145594,17.1888889 44.2796935,17.0145594 C44.2796935,16.9796935 44.2796935,16.9448276 44.2448276,16.9099617 C44.2448276,16.8750958 44.2448276,16.8402299 44.2099617,16.805364 C44.1402299,16.5961686 44.0704981,16.3869732 44.0007663,16.1777778 C43.9310345,15.9685824 43.8613027,15.759387 43.7915709,15.5501916 C43.7915709,15.5153257 43.756705,15.4804598 43.756705,15.4455939 C43.756705,15.410728 43.7218391,15.3758621 43.7218391,15.3409962 C43.6869732,15.2015326 43.6172414,15.062069 43.5823755,14.9574713 C43.5126437,14.7482759 43.408046,14.5390805 43.3383142,14.364751 C43.2685824,14.2252874 43.1988506,14.0858238 43.1639847,13.9463602 C43.1639847,13.9114943 43.1291188,13.9114943 43.1291188,13.8766284 C43.1291188,13.8417625 43.0942529,13.8068966 43.0942529,13.7720307 C42.9896552,13.5628352 42.9199234,13.3885057 42.8153257,13.1793103 C42.710728,12.9701149 42.6061303,12.7609195 42.5015326,12.5168582 C42.5015326,12.4819923 42.4666667,12.4471264 42.4666667,12.4122605 C42.4318008,12.3773946 42.4318008,12.3425287 42.3969349,12.2727969 C42.2923372,12.0984674 42.2226054,11.9241379 42.1180077,11.7498084 C42.01341,11.540613 41.8739464,11.3314176 41.7693487,11.1222222 C41.6996169,11.0176245 41.664751,10.9130268 41.5950192,10.8084291 C41.5601533,10.7735632 41.5601533,10.7386973 41.5252874,10.6689655 C41.4206897,10.494636 41.2812261,10.3203065 41.1766284,10.1111111 C41.0022989,9.83218391 40.8628352,9.58812261 40.6885057,9.3091954 C40.6536398,9.2743295 40.6536398,9.2394636 40.6187739,9.1697318 C40.3747126,8.7862069 40.0957854,8.40268199 39.8517241,8.05402299 C39.6773946,7.80996169 39.5030651,7.56590038 39.2938697,7.32183908 C39.1544061,7.11264368 38.9800766,6.93831418 38.840613,6.76398467 C38.840613,6.76398467 38.840613,6.76398467 38.840613,6.76398467 C38.840613,6.76398467 38.840613,6.76398467 38.840613,6.76398467 C38.6662835,6.58965517 38.5268199,6.38045977 38.3524904,6.20613027 C38.1781609,6.03180077 38.0386973,5.85747126 37.8643678,5.68314176 C37.8295019,5.64827586 37.794636,5.61340996 37.794636,5.61340996 C37.7597701,5.57854406 37.7249042,5.54367816 37.7249042,5.50881226 C37.6203065,5.40421456 37.5157088,5.26475096 37.3762452,5.16015326 C37.2019157,4.98582375 37.0275862,4.81149425 36.8532567,4.63716475 C36.7835249,4.56743295 36.748659,4.53256705 36.6789272,4.49770115 C36.6440613,4.46283525 36.6091954,4.42796935 36.5394636,4.39310345 C36.4697318,4.32337165 36.3651341,4.21877395 36.2954023,4.14904215 C36.1210728,3.97471264 35.9467433,3.83524904 35.7375479,3.66091954 C35.6678161,3.59118774 35.5632184,3.52145594 35.4934866,3.45172414 C35.4586207,3.41685824 35.4237548,3.38199234 35.354023,3.34712644 C35.2842912,3.31226054 35.2494253,3.24252874 35.1796935,3.20766284 C35.005364,3.06819923 34.8310345,2.92873563 34.6218391,2.78927203 C34.4823755,2.68467433 34.3429119,2.61494253 34.2383142,2.51034483 C34.2034483,2.51034483 34.2034483,2.47547893 34.1685824,2.47547893 C34.1337165,2.47547893 34.1337165,2.44061303 34.0988506,2.44061303 C33.9245211,2.33601533 33.7501916,2.19655172 33.5758621,2.09195402 C33.4015326,1.98735632 33.2272031,1.88275862 33.0528736,1.77816092 C33.0180077,1.74329502 32.9831418,1.74329502 32.9482759,1.70842912 C32.8088123,1.63869732 32.6693487,1.56896552 32.564751,1.49923372 C32.3904215,1.39463602 32.216092,1.32490421 32.0417625,1.22030651 C31.9371648,1.15057471 31.832567,1.11570881 31.7279693,1.08084291 C31.6931034,1.08084291 31.6931034,1.04597701 31.6582375,1.04597701 C31.6233716,1.04597701 31.5885057,1.01111111 31.5536398,1.01111111 C31.3793103,0.94137931 31.2398467,0.87164751 31.0655172,0.801915709 C30.8911877,0.732183908 30.7168582,0.662452107 30.5773946,0.627586207 C30.5425287,0.627586207 30.5076628,0.592720307 30.5076628,0.592720307 C30.4727969,0.592720307 30.4727969,0.592720307 30.437931,0.557854406 C30.3333333,0.522988506 30.2287356,0.488122605 30.089272,0.453256705 C29.9149425,0.418390805 29.740613,0.348659004 29.5662835,0.313793103 C29.4965517,0.278927203 29.391954,0.278927203 29.3222222,0.244061303 C29.2873563,0.244061303 29.2524904,0.244061303 29.2176245,0.209195402 C29.1478927,0.209195402 29.1130268,0.174329502 29.043295,0.174329502 C28.8689655,0.139463602 28.694636,0.104597701 28.4854406,0.0697318008 C28.3808429,0.0697318008 28.2762452,0.0348659004 28.1716475,0.0348659004 C28.1367816,0.0348659004 28.1019157,0.0348659004 28.0670498,0.0348659004 C28.0321839,0.0348659004 27.997318,0.0348659004 27.9624521,0.0348659004 C27.7532567,0.0348659004 27.5789272,-1.98189698e-14 27.3697318,-1.98189698e-14 C27.3,-1.98189698e-14 27.1954023,-1.98189698e-14 27.1256705,-1.98189698e-14 C27.0559387,-1.98189698e-14 26.9862069,-1.98189698e-14 26.9164751,-1.98189698e-14 C26.8467433,-1.98189698e-14 26.7770115,-1.98189698e-14 26.7072797,-1.98189698e-14 C26.4632184,0.0348659004 26.2191571,0.0697318008 26.0099617,0.104597701 C26.0099617,0.104597701 26.0099617,0.104597701 26.0099617,0.104597701 C25.9750958,0.104597701 25.905364,0.139463602 25.8704981,0.139463602 C25.6264368,0.209195402 25.3823755,0.244061303 25.1731801,0.348659004 C25.1383142,0.348659004 25.1383142,0.383524904 25.1034483,0.383524904 C24.7896552,0.488122605 24.4409962,0.662452107 24.162069,0.836781609 L3.66091954,12.7609195 C3.97471264,12.58659 4.28850575,12.4471264 4.60229885,12.3076628 C4.84636015,12.2030651 5.09042146,12.1333333 5.36934866,12.0984674 C5.40421456,12.0984674 5.47394636,12.0636015 5.50881226,12.0636015 C5.82260536,11.9938697 6.10153257,11.9590038 6.45019157,11.9590038 C6.51992337,11.9590038 6.58965517,11.9590038 6.65938697,11.9590038 C6.97318008,11.9590038 7.28697318,11.9590038 7.60076628,11.9938697 C7.63563218,11.9938697 7.67049808,11.9938697 7.70536398,11.9938697 C8.05402299,12.0287356 8.36781609,12.0636015 8.7164751,12.1681992 C8.751341,12.1681992 8.7862069,12.1681992 8.8210728,12.2030651 C9.1697318,12.2727969 9.5532567,12.3773946 9.90191571,12.5168582 C9.93678161,12.5168582 9.93678161,12.5168582 9.97164751,12.5517241 C10.3551724,12.6911877 10.7386973,12.8306513 11.1570881,13.0398467 C11.191954,13.0398467 11.2268199,13.0747126 11.2268199,13.0747126 C11.6452107,13.2490421 12.0287356,13.4582375 12.4471264,13.7022989 C12.8655172,13.9463602 13.283908,14.2252874 13.7022989,14.5042146 C13.7371648,14.5042146 13.7371648,14.5390805 13.7720307,14.5390805 C14.1555556,14.8180077 14.5390805,15.0969349 14.8877395,15.3758621 C14.9226054,15.410728 14.9574713,15.4455939 15.0272031,15.4804598 C15.3758621,15.759387 15.7245211,16.0731801 16.0731801,16.3869732 C16.108046,16.4218391 16.1429119,16.456705 16.2126437,16.4915709 C16.5613027,16.805364 16.9099617,17.154023 17.2237548,17.502682 C17.2586207,17.5375479 17.2934866,17.5724138 17.2934866,17.6072797 C17.6421456,17.9908046 17.9908046,18.3743295 18.3394636,18.7927203 C18.3394636,18.7927203 18.3394636,18.7927203 18.3394636,18.7927203 C19.0019157,19.594636 19.6295019,20.4314176 20.2222222,21.337931 C20.3965517,21.5819923 20.5708812,21.8609195 20.7103448,22.1398467 C20.8498084,22.3490421 20.989272,22.5931034 21.1287356,22.8022989 C21.1984674,22.9068966 21.2333333,23.0114943 21.3030651,23.116092 C21.5122605,23.4996169 21.7214559,23.8831418 21.9306513,24.2666667 C21.9655172,24.3015326 21.9655172,24.3363985 22.0003831,24.4061303 C22.2444444,24.8942529 22.4536398,25.3475096 22.6628352,25.8356322 C22.6628352,25.8704981 22.6977011,25.8704981 22.6977011,25.905364 C22.9068966,26.3934866 23.0812261,26.8467433 23.2555556,27.3348659 C23.2555556,27.3697318 23.2904215,27.4045977 23.2904215,27.4394636 C23.464751,27.9275862 23.6390805,28.4157088 23.7785441,28.9038314 C23.7785441,28.9386973 23.7785441,28.9735632 23.81341,29.0084291 C23.9528736,29.4965517 24.0923372,29.9498084 24.1969349,30.437931 C24.1969349,30.4727969 24.2318008,30.5425287 24.2318008,30.5773946 C24.3363985,31.0655172 24.4409962,31.5536398 24.510728,32.0417625 C24.510728,32.0417625 24.510728,32.0417625 24.510728,32.0417625 C24.5804598,32.5298851 24.6501916,33.0180077 24.6850575,33.5061303 C24.6850575,33.5409962 24.6850575,33.5758621 24.6850575,33.610728 C24.7199234,34.0988506 24.7547893,34.5869732 24.7547893,35.0402299 C24.7547893,35.4934866 24.7199234,35.9467433 24.6850575,36.4 C24.6850575,36.4348659 24.6850575,36.4697318 24.6850575,36.5045977 C24.6501916,36.8881226 24.5804598,37.3065134 24.510728,37.6551724 C24.510728,37.6900383 24.4758621,37.7597701 24.4758621,37.794636 C24.4061303,38.143295 24.3015326,38.491954 24.1969349,38.840613 C24.162069,38.9103448 24.162069,38.9452107 24.1272031,39.0149425 C24.0226054,39.3287356 23.9180077,39.6076628 23.7785441,39.88659 C23.7785441,39.9214559 23.7436782,39.9563218 23.7436782,39.9911877 C23.6042146,40.3049808 23.4298851,40.6187739 23.2555556,40.8977011 C23.2206897,40.932567 23.1858238,40.967433 23.1858238,41.0022989 C23.0463602,41.2114943 22.8720307,41.4206897 22.6977011,41.6298851 C22.6279693,41.6996169 22.5582375,41.7693487 22.5233716,41.8390805 C22.383908,42.01341 22.2095785,42.1528736 22.0701149,42.2923372 C22.0003831,42.362069 21.9306513,42.3969349 21.8609195,42.4666667 C21.6168582,42.6409962 21.4076628,42.8153257 21.1636015,42.9547893 C21.1636015,42.9547893 21.1636015,42.9547893 21.1636015,42.9547893 L21.1636015,42.9547893 C21.1636015,42.9547893 21.1636015,42.9547893 21.1636015,42.9547893 L41.664751,31.0306513 C41.9088123,30.8911877 42.1528736,30.7168582 42.3969349,30.5425287 C42.4666667,30.4727969 42.5363985,30.437931 42.6061303,30.3681992 C42.7804598,30.2287356 42.9199234,30.089272 43.059387,29.9149425 C43.1291188,29.8452107 43.1988506,29.7754789 43.2337165,29.7057471 C43.408046,29.4965517 43.5475096,29.2873563 43.7218391,29.0781609 C43.756705,29.043295 43.756705,29.0084291 43.7915709,28.9735632 C43.7915709,28.9735632 43.7915709,28.9735632 43.7915709,28.9386973 C43.9659004,28.6597701 44.105364,28.3808429 44.2448276,28.1019157 C44.2448276,28.1019157 44.2448276,28.0670498 44.2448276,28.0670498 C44.2448276,28.0321839 44.2796935,27.997318 44.2796935,27.9624521 C44.3494253,27.7881226 44.454023,27.5789272 44.5237548,27.3697318 C44.5586207,27.2651341 44.5934866,27.1605364 44.6283525,27.0559387 C44.6632184,26.9862069 44.6632184,26.951341 44.6980843,26.8816092 C44.6980843,26.8118774 44.7329502,26.7770115 44.7678161,26.7072797 C44.8375479,26.4980843 44.8724138,26.2888889 44.9421456,26.0796935 C44.9421456,26.0099617 44.9770115,25.9402299 44.9770115,25.8356322 C44.9770115,25.8007663 45.0118774,25.7310345 45.0118774,25.6961686 C45.0118774,25.6264368 45.0467433,25.556705 45.0467433,25.4869732 C45.0816092,25.2777778 45.1164751,25.1034483 45.151341,24.8942529 C45.151341,24.7896552 45.1862069,24.6850575 45.1862069,24.5455939 C45.1862069,24.510728 45.1862069,24.4758621 45.1862069,24.4409962 C45.1862069,24.4061303 45.1862069,24.3363985 45.1862069,24.3015326 C45.1862069,24.1272031 45.2210728,23.9180077 45.2210728,23.7088123 C45.2210728,23.4996169 45.2210728,23.3252874 45.2210728,23.116092 C45.2210728,23.116092 45.2210728,23.0812261 45.2210728,23.0812261 C45.2559387,22.8371648 45.2559387,22.6628352 45.2559387,22.4885057 Z" fill="url(#linearGradient-4)"></path>
                            <g transform="translate(0.000000, 11.854406)" fill="url(#linearGradient-5)">
                                <path d="M12.4122605,1.70842912 C19.245977,5.64827586 24.7896552,15.2363985 24.7549528,23.0812261 C24.7199234,30.9260536 19.1762452,34.0988506 12.3425287,30.1590038 C5.50881226,26.2191571 0,16.6310345 0,8.7862069 C0.0348659004,0.94137931 5.57854406,-2.23141762 12.4122605,1.70842912 Z"></path>
                            </g>
                        </g>
                        <g transform="translate(12.819923, 0.000000)" id="Path">
                            <polygon fill="url(#linearGradient-6)" points="24.7655172 26.4283525 24.6957854 54.8789272 0.0107279693 12.1333333"></polygon>
                            <polygon fill="url(#linearGradient-7)" points="24.7655172 26.4283525 45.2666667 14.5042146 45.1969349 42.9547893 24.6957854 54.8789272"></polygon>
                            <polygon fill="url(#linearGradient-8)" points="0.0107279693 12.1333333 20.5118774 0.209195402 45.2666667 14.5042146 24.7655172 26.4283525"></polygon>
                        </g>
                    </g>
                </g>
                <g id="Group-21" transform="translate(18.000000, 43.000000)">
                    <g id="Rectangle">
                        <use fill="black" fill-opacity="1" filter="url(#filter-10)" xlink:href="#path-9"></use>
                        <rect stroke="#E0E0E0" stroke-width="0.5" stroke-linejoin="square" fill="#FFFFFF" fill-rule="evenodd" x="0.25" y="0.25" width="34.5" height="34.5" rx="10"></rect>
                    </g>
                    <g id="Group-11" transform="translate(11.000000, 11.000000)" stroke="#B967D9" stroke-linecap="square" stroke-linejoin="round" stroke-width="0.78525641">
                        <g id="Group-6">
                            <polygon id="Stroke-1" points="11.0715003 2.55496161 13.3425773 2.55496161 13.3425773 0.283884623 11.0715003 0.283884623"></polygon>
                            <polygon id="Stroke-3" points="0.283884623 2.55496161 2.55496161 2.55496161 2.55496161 0.283884623 0.283884623 0.283884623"></polygon>
                            <polygon id="Stroke-4" points="11.0715003 13.3425773 13.3425773 13.3425773 13.3425773 11.0715003 11.0715003 11.0715003"></polygon>
                            <polygon id="Stroke-5" points="0.283884623 13.3425773 2.55496161 13.3425773 2.55496161 11.0715003 0.283884623 11.0715003"></polygon>
                        </g>
                        <line x1="10.5392166" y1="12.2070388" x2="2.46610572" y2="12.2070388" id="Stroke-7" stroke-dasharray="0.6987819763330313,0.9317094087600709"></line>
                        <line x1="1.41942312" y1="10.5392166" x2="1.41942312" y2="2.46610572" id="Stroke-8" stroke-dasharray="0.6987819763330313,0.9317094087600709"></line>
                        <line x1="3.08724528" y1="1.41942312" x2="11.1603562" y2="1.41942312" id="Stroke-9" stroke-dasharray="0.6987819763330313,0.9317094087600709"></line>
                        <line x1="12.2070388" y1="3.08724528" x2="12.2070388" y2="11.1603562" id="Stroke-10" stroke-dasharray="0.6987819763330313,0.9317094087600709"></line>
                    </g>
                </g>
            </g>
        </g>
    </g>
</svg>