<?xml version="1.0" encoding="UTF-8"?>
<svg width="377px" height="377px" viewBox="0 0 377 377" version="1.1" xmlns="http://www.w3.org/2000/svg" xmlns:xlink="http://www.w3.org/1999/xlink">
    <title>Group 20</title>
    <defs>
        <linearGradient x1="0.0998502247%" y1="50.2914328%" x2="99.9500749%" y2="50.2914328%" id="linearGradient-1">
            <stop stop-color="#571D87" offset="0%"></stop>
            <stop stop-color="#7B24C3" offset="100%"></stop>
        </linearGradient>
        <linearGradient x1="0.01395%" y1="49.9379965%" x2="100%" y2="49.9379965%" id="linearGradient-2">
            <stop stop-color="#6B3D93" offset="0%"></stop>
            <stop stop-color="#CA65FF" offset="100%"></stop>
        </linearGradient>
        <linearGradient x1="0%" y1="50.1819793%" x2="99.8502247%" y2="50.1819793%" id="linearGradient-3">
            <stop stop-color="#571D87" offset="0%"></stop>
            <stop stop-color="#7B24C3" offset="100%"></stop>
        </linearGradient>
        <linearGradient x1="0.01395%" y1="49.9603627%" x2="100%" y2="49.9603627%" id="linearGradient-4">
            <stop stop-color="#6B3D93" offset="0%"></stop>
            <stop stop-color="#CA65FF" offset="100%"></stop>
        </linearGradient>
        <linearGradient x1="0.0998502247%" y1="50.4008863%" x2="99.9500749%" y2="50.4008863%" id="linearGradient-5">
            <stop stop-color="#571D87" offset="0%"></stop>
            <stop stop-color="#7B24C3" offset="100%"></stop>
        </linearGradient>
        <linearGradient x1="0.176205174%" y1="49.9134891%" x2="100.023524%" y2="49.9134891%" id="linearGradient-6">
            <stop stop-color="#6B3D93" offset="0%"></stop>
            <stop stop-color="#CA65FF" offset="100%"></stop>
        </linearGradient>
        <rect id="path-7" x="2.77111667e-13" y="2.77111667e-13" width="75.1958225" height="75.1958225" rx="23.4986945"></rect>
        <filter x="-106.4%" y="-53.2%" width="312.8%" height="312.8%" filterUnits="objectBoundingBox" id="filter-8">
            <feOffset dx="0" dy="40" in="SourceAlpha" result="shadowOffsetOuter1"></feOffset>
            <feGaussianBlur stdDeviation="20" in="shadowOffsetOuter1" result="shadowBlurOuter1"></feGaussianBlur>
            <feComposite in="shadowBlurOuter1" in2="SourceAlpha" operator="out" result="shadowBlurOuter1"></feComposite>
            <feColorMatrix values="0 0 0 0 0   0 0 0 0 0   0 0 0 0 0  0 0 0 0.3 0" type="matrix" in="shadowBlurOuter1"></feColorMatrix>
        </filter>
    </defs>
    <g id="Homepage-Pyxis" stroke="none" stroke-width="1" fill="none" fill-rule="evenodd">
        <g id="home-pyxis" transform="translate(-1238.000000, -1132.000000)">
            <g id="Group-20" transform="translate(1238.000000, 1132.000000)">
                <path d="M133.349751,42 L243.891766,42 C294.342841,42 335.241517,82.8986767 335.241517,133.349751 L335.241517,243.891766 C335.241517,294.342841 294.342841,335.241517 243.891766,335.241517 L133.349751,335.241517 C82.8986767,335.241517 42,294.342841 42,243.891766 L42,133.349751 C42,82.8986767 82.8986767,42 133.349751,42 Z" id="Mask" fill="#F7F7F7" transform="translate(188.620759, 188.620759) rotate(-20.000000) translate(-188.620759, -188.620759) "></path>
                <g id="pyxis-illustration-1" transform="translate(5.000000, 105.000000)" fill-rule="nonzero">
                    <path d="M236.792079,84.1188119 C236.910891,84 237.029703,83.8811881 237.148515,83.8811881 C237.267327,83.7623762 237.50495,83.6435644 237.623762,83.5247525 C237.623762,83.5247525 237.623762,83.5247525 237.623762,83.5247525 C237.742574,83.4059406 237.980198,83.1683168 238.09901,83.049505 C238.09901,83.049505 238.09901,82.9306931 238.217822,82.9306931 C238.217822,82.9306931 238.217822,82.8118812 238.336634,82.8118812 C238.336634,82.6930693 238.455446,82.6930693 238.455446,82.5742574 C238.574257,82.4554455 238.574257,82.3366337 238.693069,82.2178218 C238.693069,82.2178218 238.693069,82.2178218 238.693069,82.0990099 C238.693069,82.0990099 238.693069,82.0990099 238.693069,81.980198 C238.693069,81.8613861 238.693069,81.8613861 238.811881,81.7425743 C238.811881,81.6237624 238.811881,81.5049505 238.811881,81.3861386 C238.811881,81.3861386 238.811881,81.3861386 238.811881,81.2673267 L238.811881,69.6237624 C238.811881,69.7425743 238.811881,69.980198 238.693069,70.0990099 C238.930693,68.9108911 238.217822,67.6039604 236.673267,66.6534653 L124.752475,1.9009901 C121.90099,0.237623762 117.386139,0.237623762 114.653465,1.9009901 L3.32673267,66.5346535 C1.9009901,67.3663366 1.30693069,68.4356436 1.30693069,69.5049505 C1.30693069,69.5049505 1.30693069,69.5049505 1.30693069,69.5049505 L1.30693069,81.1485149 C1.30693069,82.2178218 2.01980198,83.2871287 3.44554455,84.1188119 L15.5643564,91.1287129 L3.44554455,98.1386139 C2.01980198,98.970297 1.42574257,100.039604 1.42574257,101.108911 C1.42574257,101.108911 1.42574257,101.108911 1.42574257,101.108911 L1.42574257,112.752475 C1.42574257,113.821782 2.13861386,114.891089 3.56435644,115.722772 L15.6831683,122.732673 L3.56435644,129.742574 C2.13861386,130.574257 1.54455446,131.643564 1.54455446,132.712871 C1.54455446,132.712871 1.54455446,132.712871 1.54455446,132.712871 L1.54455446,144.356436 C1.54455446,145.425743 2.25742574,146.49505 3.68316832,147.326733 L115.722772,211.960396 C116.079208,212.19802 116.435644,212.316832 116.792079,212.435644 C116.792079,212.435644 116.792079,212.435644 116.910891,212.435644 C116.910891,212.435644 117.029703,212.435644 117.148515,212.554455 C117.386139,212.673267 117.50495,212.673267 117.742574,212.792079 C117.861386,212.792079 117.980198,212.910891 118.09901,212.910891 C118.217822,212.910891 118.217822,212.910891 118.336634,212.910891 C118.455446,212.910891 118.455446,212.910891 118.574257,212.910891 C118.811881,212.910891 119.049505,213.029703 119.287129,213.029703 C119.405941,213.029703 119.405941,213.029703 119.524752,213.029703 C119.643564,213.029703 119.643564,213.029703 119.762376,213.029703 C119.881188,213.029703 119.881188,213.029703 120,213.029703 C120.237624,213.029703 120.475248,213.029703 120.712871,213.029703 C120.831683,213.029703 120.831683,213.029703 120.950495,213.029703 C121.069307,213.029703 121.069307,213.029703 121.188119,213.029703 C121.306931,213.029703 121.425743,213.029703 121.544554,213.029703 C121.782178,213.029703 122.138614,213.029703 122.376238,213.029703 C122.376238,213.029703 122.376238,213.029703 122.49505,213.029703 C122.613861,213.029703 122.613861,213.029703 122.732673,213.029703 C122.970297,213.029703 123.207921,213.029703 123.326733,212.910891 C123.445545,212.910891 123.445545,212.910891 123.564356,212.792079 C123.80198,212.792079 124.039604,212.673267 124.277228,212.554455 C124.39604,212.554455 124.514851,212.554455 124.633663,212.435644 C124.633663,212.435644 124.752475,212.435644 124.752475,212.316832 C125.227723,212.19802 125.70297,211.960396 126.178218,211.722772 L237.386139,147.089109 C237.386139,147.089109 237.386139,147.089109 237.50495,147.089109 C237.623762,146.970297 237.742574,146.851485 237.861386,146.851485 C237.980198,146.732673 238.217822,146.613861 238.336634,146.49505 C238.336634,146.49505 238.336634,146.49505 238.336634,146.49505 C238.455446,146.376238 238.693069,146.138614 238.811881,146.019802 C238.811881,146.019802 238.811881,145.90099 238.930693,145.90099 C238.930693,145.90099 238.930693,145.782178 239.049505,145.782178 C239.049505,145.663366 239.168317,145.663366 239.168317,145.544554 C239.287129,145.425743 239.287129,145.306931 239.405941,145.188119 C239.405941,145.188119 239.405941,145.188119 239.405941,145.069307 C239.405941,145.069307 239.405941,145.069307 239.405941,144.950495 C239.405941,144.831683 239.405941,144.831683 239.524752,144.712871 C239.524752,144.594059 239.524752,144.475248 239.524752,144.356436 C239.524752,144.356436 239.524752,144.356436 239.524752,144.237624 L239.524752,132.594059 C239.524752,132.712871 239.524752,132.950495 239.405941,133.069307 C239.643564,131.881188 238.930693,130.574257 237.386139,129.623762 L225.267327,122.613861 L237.386139,115.60396 C237.386139,115.60396 237.386139,115.60396 237.50495,115.60396 C237.623762,115.485149 237.742574,115.366337 237.861386,115.366337 C237.980198,115.247525 238.217822,115.128713 238.336634,115.009901 C238.336634,115.009901 238.336634,115.009901 238.336634,115.009901 C238.455446,114.891089 238.693069,114.653465 238.811881,114.534653 C238.811881,114.534653 238.811881,114.415842 238.930693,114.415842 C238.930693,114.415842 238.930693,114.29703 239.049505,114.29703 C239.049505,114.178218 239.168317,114.178218 239.168317,114.059406 C239.287129,113.940594 239.287129,113.821782 239.405941,113.70297 C239.405941,113.70297 239.405941,113.70297 239.405941,113.584158 C239.405941,113.584158 239.405941,113.584158 239.405941,113.465347 C239.405941,113.346535 239.405941,113.346535 239.524752,113.227723 C239.524752,113.108911 239.524752,112.990099 239.524752,112.871287 C239.524752,112.871287 239.524752,112.871287 239.524752,112.752475 L239.524752,101.108911 C239.524752,101.227723 239.524752,101.465347 239.405941,101.584158 C239.643564,100.39604 238.930693,99.0891089 237.386139,98.1386139 L225.267327,91.1287129 L236.792079,84.1188119 C236.673267,84.1188119 236.792079,84.1188119 236.792079,84.1188119 Z M237.861386,71.5247525 C237.980198,71.4059406 238.09901,71.2871287 238.217822,71.049505 C238.217822,71.049505 238.217822,71.049505 238.217822,71.049505 C238.09901,71.2871287 237.980198,71.4059406 237.861386,71.5247525 Z M238.693069,70.3366337 C238.693069,70.4554455 238.574257,70.5742574 238.455446,70.8118812 C238.574257,70.5742574 238.574257,70.4554455 238.693069,70.3366337 C238.693069,70.3366337 238.693069,70.3366337 238.693069,70.3366337 Z M237.148515,72.1188119 C237.148515,72.1188119 237.148515,72.1188119 237.148515,72.1188119 C237.029703,72.2376238 236.792079,72.3564356 236.673267,72.4752475 C236.910891,72.3564356 237.029703,72.2376238 237.148515,72.1188119 Z M2.13861386,71.5247525 C2.25742574,71.6435644 2.25742574,71.6435644 2.37623762,71.7623762 C2.37623762,71.7623762 2.25742574,71.6435644 2.13861386,71.5247525 Z M1.30693069,69.980198 C1.30693069,70.0990099 1.30693069,70.2178218 1.30693069,70.3366337 C1.30693069,70.2178218 1.30693069,70.0990099 1.30693069,69.980198 Z M1.54455446,70.8118812 C1.54455446,70.9306931 1.66336634,71.049505 1.66336634,71.1683168 C1.66336634,70.9306931 1.66336634,70.8118812 1.54455446,70.8118812 Z M2.13861386,103.128713 C2.25742574,103.247525 2.25742574,103.247525 2.37623762,103.366337 C2.37623762,103.247525 2.25742574,103.247525 2.13861386,103.128713 Z M1.30693069,101.465347 C1.30693069,101.584158 1.30693069,101.70297 1.30693069,101.821782 C1.30693069,101.70297 1.30693069,101.584158 1.30693069,101.465347 Z M1.54455446,102.29703 C1.54455446,102.415842 1.66336634,102.534653 1.66336634,102.653465 C1.66336634,102.534653 1.66336634,102.415842 1.54455446,102.29703 Z M2.13861386,134.732673 C2.25742574,134.851485 2.25742574,134.851485 2.37623762,134.970297 C2.37623762,134.851485 2.25742574,134.732673 2.13861386,134.732673 Z M1.30693069,133.069307 C1.30693069,133.188119 1.30693069,133.306931 1.30693069,133.425743 C1.30693069,133.306931 1.30693069,133.188119 1.30693069,133.069307 Z M1.54455446,133.90099 C1.54455446,134.019802 1.66336634,134.138614 1.66336634,134.257426 C1.66336634,134.138614 1.66336634,134.019802 1.54455446,133.90099 Z M115.366337,200.19802 C115.722772,200.435644 116.079208,200.554455 116.435644,200.673267 C116.435644,200.673267 116.435644,200.673267 116.435644,200.673267 C116.079208,200.673267 115.60396,200.435644 115.366337,200.19802 Z M116.554455,200.792079 C116.554455,200.792079 116.554455,200.792079 116.554455,200.792079 C116.910891,200.910891 117.148515,201.029703 117.50495,201.148515 C117.50495,201.148515 117.50495,201.148515 117.50495,201.148515 C117.267327,201.029703 116.910891,200.910891 116.554455,200.792079 Z M119.168317,201.386139 C119.168317,201.386139 119.168317,201.386139 119.168317,201.386139 C119.287129,201.386139 119.405941,201.386139 119.524752,201.386139 C119.405941,201.386139 119.287129,201.386139 119.168317,201.386139 Z M121.90099,201.386139 C121.90099,201.386139 121.90099,201.386139 121.90099,201.386139 C122.257426,201.386139 122.49505,201.267327 122.732673,201.267327 C122.732673,201.267327 122.732673,201.267327 122.732673,201.267327 C122.49505,201.267327 122.257426,201.386139 121.90099,201.386139 Z M237.861386,134.732673 C237.980198,134.613861 238.09901,134.49505 238.217822,134.257426 C238.217822,134.257426 238.217822,134.257426 238.217822,134.257426 C238.09901,134.376238 237.980198,134.613861 237.861386,134.732673 Z M238.693069,133.544554 C238.693069,133.663366 238.574257,133.782178 238.455446,134.019802 C238.574257,133.782178 238.574257,133.663366 238.693069,133.544554 C238.693069,133.544554 238.693069,133.544554 238.693069,133.544554 Z M237.148515,135.207921 C237.148515,135.326733 237.148515,135.326733 237.148515,135.207921 C237.029703,135.326733 236.792079,135.445545 236.673267,135.564356 C236.910891,135.445545 237.029703,135.326733 237.148515,135.207921 Z M237.861386,103.128713 C237.980198,103.009901 238.09901,102.891089 238.217822,102.653465 C238.217822,102.653465 238.217822,102.653465 238.217822,102.653465 C238.09901,102.891089 237.980198,103.009901 237.861386,103.128713 Z M238.693069,101.940594 C238.693069,102.059406 238.574257,102.178218 238.455446,102.415842 C238.574257,102.178218 238.574257,102.059406 238.693069,101.940594 C238.693069,101.940594 238.693069,101.940594 238.693069,101.940594 Z M237.148515,103.722772 C237.148515,103.722772 237.148515,103.722772 237.148515,103.722772 C237.029703,103.841584 236.792079,103.960396 236.673267,104.079208 C236.910891,103.960396 237.029703,103.841584 237.148515,103.722772 Z" id="Shape" fill="#FFFFFF"></path>
                    <g id="Group" opacity="0.5" transform="translate(0.000000, 32.079208)">
                        <path d="M238.693069,69.7425743 C238.693069,69.7425743 238.693069,69.8613861 238.693069,69.7425743 C238.574257,70.0990099 238.455446,70.2178218 238.336634,70.4554455 C238.336634,70.4554455 238.336634,70.5742574 238.217822,70.5742574 C238.09901,70.8118812 237.861386,71.049505 237.623762,71.1683168 C237.50495,71.2871287 237.267327,71.4059406 237.148515,71.5247525 C237.029703,71.6435644 236.910891,71.7623762 236.673267,71.8811881 L125.465347,136.633663 C124.990099,136.871287 124.514851,137.108911 124.039604,137.227723 C123.920792,137.346535 123.683168,137.346535 123.445545,137.346535 C123.207921,137.465347 122.970297,137.465347 122.732673,137.584158 C122.49505,137.70297 122.138614,137.70297 121.90099,137.70297 C121.782178,137.70297 121.782178,137.70297 121.663366,137.70297 C121.306931,137.70297 120.831683,137.821782 120.475248,137.821782 C120.356436,137.821782 120.356436,137.821782 120.237624,137.821782 C119.881188,137.821782 119.405941,137.821782 119.049505,137.70297 C118.930693,137.70297 118.930693,137.70297 118.811881,137.70297 C118.455446,137.70297 117.980198,137.584158 117.623762,137.465347 C117.50495,137.465347 117.50495,137.465347 117.386139,137.465347 C117.029703,137.346535 116.673267,137.227723 116.435644,137.108911 C116.316832,137.108911 116.316832,137.108911 116.19802,136.990099 C115.841584,136.871287 115.485149,136.633663 115.128713,136.514851 L3.08910891,71.8811881 C1.66336634,71.049505 0.95049505,69.980198 0.95049505,68.9108911 L0.95049505,80.5544554 C0.95049505,81.6237624 1.66336634,82.6930693 3.08910891,83.5247525 L115.128713,148.158416 C115.485149,148.39604 115.841584,148.514851 116.19802,148.633663 C116.19802,148.633663 116.19802,148.633663 116.316832,148.633663 C116.316832,148.633663 116.435644,148.633663 116.554455,148.752475 C116.792079,148.871287 116.910891,148.871287 117.148515,148.990099 C117.267327,148.990099 117.386139,149.108911 117.50495,149.108911 C117.623762,149.108911 117.623762,149.108911 117.742574,149.108911 C117.861386,149.108911 117.861386,149.108911 117.980198,149.108911 C118.217822,149.108911 118.455446,149.227723 118.693069,149.227723 C118.811881,149.227723 118.811881,149.227723 118.930693,149.227723 C119.049505,149.227723 119.049505,149.227723 119.168317,149.227723 C119.287129,149.227723 119.287129,149.227723 119.405941,149.227723 C119.643564,149.227723 119.881188,149.227723 120.118812,149.227723 C120.237624,149.227723 120.237624,149.227723 120.356436,149.227723 C120.475248,149.227723 120.475248,149.227723 120.594059,149.227723 C120.712871,149.227723 120.831683,149.227723 120.950495,149.227723 C121.188119,149.227723 121.544554,149.227723 121.782178,149.227723 C121.782178,149.227723 121.782178,149.227723 121.90099,149.227723 C122.019802,149.227723 122.019802,149.227723 122.138614,149.227723 C122.376238,149.227723 122.613861,149.227723 122.732673,149.108911 C122.851485,149.108911 122.851485,149.108911 122.970297,148.990099 C123.207921,148.990099 123.445545,148.871287 123.683168,148.752475 C123.80198,148.752475 123.920792,148.752475 124.039604,148.633663 C124.039604,148.633663 124.158416,148.633663 124.158416,148.514851 C124.633663,148.39604 125.108911,148.158416 125.584158,147.920792 L236.792079,83.2871287 C236.792079,83.2871287 236.792079,83.2871287 236.910891,83.2871287 C237.029703,83.1683168 237.148515,83.049505 237.267327,83.049505 C237.386139,82.9306931 237.623762,82.8118812 237.742574,82.6930693 C237.742574,82.6930693 237.742574,82.6930693 237.742574,82.6930693 C237.861386,82.5742574 238.09901,82.3366337 238.217822,82.2178218 C238.217822,82.2178218 238.217822,82.0990099 238.336634,82.0990099 C238.336634,82.0990099 238.336634,81.980198 238.455446,81.980198 C238.455446,81.8613861 238.574257,81.8613861 238.574257,81.7425743 C238.693069,81.6237624 238.693069,81.5049505 238.811881,81.3861386 C238.811881,81.3861386 238.811881,81.3861386 238.811881,81.2673267 C238.811881,81.2673267 238.811881,81.2673267 238.811881,81.1485149 C238.811881,81.029703 238.811881,81.029703 238.930693,80.9108911 C238.930693,80.7920792 238.930693,80.6732673 238.930693,80.5544554 C238.930693,80.5544554 238.930693,80.5544554 238.930693,80.4356436 L238.930693,68.7920792 C238.811881,69.2673267 238.811881,69.5049505 238.693069,69.7425743 Z" id="Path" fill="url(#linearGradient-1)"></path>
                        <path d="M236.673267,66.0594059 C239.524752,67.7227723 239.524752,70.3366337 236.673267,72 L125.465347,136.633663 C122.732673,138.29703 118.09901,138.29703 115.366337,136.633663 L3.32673267,72 C0.475247525,70.3366337 0.475247525,67.7227723 3.32673267,66.1782178 L114.534653,1.54455446 C117.267327,-0.118811881 121.90099,-0.118811881 124.633663,1.54455446 L236.673267,66.0594059 Z" id="Path" fill="url(#linearGradient-2)"></path>
                    </g>
                    <g id="Group" transform="translate(1.188119, 0.000000)">
                        <path d="M237.50495,70.2178218 C237.50495,70.3366337 237.50495,70.3366337 237.50495,70.2178218 C237.386139,70.5742574 237.267327,70.6930693 237.148515,70.9306931 C237.148515,70.9306931 237.148515,71.049505 237.029703,71.049505 C236.910891,71.2871287 236.673267,71.5247525 236.435644,71.6435644 C236.316832,71.7623762 236.079208,71.8811881 235.960396,72 C235.841584,72.1188119 235.722772,72.2376238 235.485149,72.3564356 L124.277228,136.990099 C123.80198,137.227723 123.326733,137.465347 122.851485,137.584158 C122.732673,137.70297 122.49505,137.70297 122.257426,137.70297 C122.019802,137.821782 121.782178,137.821782 121.544554,137.940594 C121.306931,138.059406 120.950495,138.059406 120.712871,138.059406 C120.594059,138.059406 120.594059,138.059406 120.475248,138.059406 C120.118812,138.059406 119.643564,138.178218 119.287129,138.178218 C119.168317,138.178218 119.168317,138.178218 119.049505,138.178218 C118.693069,138.178218 118.217822,138.178218 117.861386,138.059406 C117.742574,138.059406 117.742574,138.059406 117.623762,138.059406 C117.267327,138.059406 116.792079,137.940594 116.435644,137.821782 C116.316832,137.821782 116.316832,137.821782 116.19802,137.821782 C115.841584,137.70297 115.485149,137.584158 115.247525,137.465347 C115.128713,137.465347 115.128713,137.465347 115.009901,137.346535 C114.653465,137.227723 114.29703,136.990099 113.940594,136.871287 L2.13861386,72.4752475 C0.712871287,71.6435644 0,70.5742574 0,69.5049505 L0,81.1485149 C0,82.2178218 0.712871287,83.2871287 2.13861386,84.1188119 L114.178218,148.752475 C114.534653,148.990099 114.891089,149.108911 115.247525,149.227723 C115.247525,149.227723 115.247525,149.227723 115.366337,149.227723 C115.366337,149.227723 115.485149,149.227723 115.60396,149.346535 C115.841584,149.465347 115.960396,149.465347 116.19802,149.584158 C116.316832,149.584158 116.435644,149.70297 116.554455,149.70297 C116.673267,149.70297 116.673267,149.70297 116.792079,149.70297 C116.910891,149.70297 116.910891,149.70297 117.029703,149.70297 C117.267327,149.70297 117.50495,149.821782 117.742574,149.821782 C117.861386,149.821782 117.861386,149.821782 117.980198,149.821782 C118.09901,149.821782 118.09901,149.821782 118.217822,149.821782 C118.336634,149.821782 118.336634,149.821782 118.455446,149.821782 C118.693069,149.821782 118.930693,149.821782 119.168317,149.821782 C119.287129,149.821782 119.287129,149.821782 119.405941,149.821782 C119.524752,149.821782 119.524752,149.821782 119.643564,149.821782 C119.762376,149.821782 119.881188,149.821782 120,149.821782 C120.237624,149.821782 120.594059,149.821782 120.831683,149.821782 C120.831683,149.821782 120.831683,149.821782 120.950495,149.821782 C121.069307,149.821782 121.069307,149.821782 121.188119,149.821782 C121.425743,149.821782 121.663366,149.821782 121.782178,149.70297 C121.90099,149.70297 121.90099,149.70297 122.019802,149.584158 C122.257426,149.584158 122.49505,149.465347 122.732673,149.346535 C122.851485,149.346535 122.970297,149.346535 123.089109,149.227723 C123.089109,149.227723 123.207921,149.227723 123.207921,149.108911 C123.683168,148.990099 124.158416,148.752475 124.633663,148.514851 L235.841584,83.8811881 C235.841584,83.8811881 235.841584,83.8811881 235.960396,83.8811881 C236.079208,83.7623762 236.19802,83.6435644 236.316832,83.6435644 C236.435644,83.5247525 236.673267,83.4059406 236.792079,83.2871287 C236.792079,83.2871287 236.792079,83.2871287 236.792079,83.2871287 C236.910891,83.1683168 237.148515,82.9306931 237.267327,82.8118812 C237.267327,82.8118812 237.267327,82.6930693 237.386139,82.6930693 C237.386139,82.6930693 237.386139,82.5742574 237.50495,82.5742574 C237.50495,82.4554455 237.623762,82.4554455 237.623762,82.3366337 C237.742574,82.2178218 237.742574,82.0990099 237.861386,81.980198 C237.861386,81.980198 237.861386,81.980198 237.861386,81.8613861 C237.861386,81.8613861 237.861386,81.8613861 237.861386,81.7425743 C237.861386,81.6237624 237.861386,81.6237624 237.980198,81.5049505 C237.980198,81.3861386 237.980198,81.2673267 237.980198,81.1485149 C237.980198,81.1485149 237.980198,81.1485149 237.980198,81.029703 L237.980198,69.3861386 C237.623762,69.7425743 237.623762,69.980198 237.50495,70.2178218 Z" id="Path" fill="url(#linearGradient-3)"></path>
                        <path d="M235.485149,66.5346535 C238.336634,68.1980198 238.336634,70.8118812 235.485149,72.4752475 L124.277228,137.108911 C121.544554,138.772277 116.910891,138.772277 114.178218,137.108911 L2.13861386,72.4752475 C-0.712871287,70.8118812 -0.712871287,68.1980198 2.13861386,66.6534653 L113.346535,2.01980198 C116.079208,0.356435644 120.712871,0.356435644 123.445545,2.01980198 L235.485149,66.5346535 Z" id="Path" fill="url(#linearGradient-4)"></path>
                    </g>
                    <g id="Group" opacity="0.25" transform="translate(0.000000, 122.376238)">
                        <path d="M238.693069,11.049505 C238.693069,11.049505 238.693069,11.049505 238.693069,11.049505 C238.574257,11.4059406 238.455446,11.5247525 238.336634,11.7623762 C238.336634,11.7623762 238.336634,11.8811881 238.217822,11.8811881 C238.09901,12.1188119 237.861386,12.3564356 237.623762,12.4752475 C237.50495,12.5940594 237.267327,12.7128713 237.148515,12.8316832 C237.029703,12.950495 236.910891,13.0693069 236.673267,13.1881188 L125.465347,77.8217822 C124.990099,78.0594059 124.514851,78.2970297 124.039604,78.4158416 C123.920792,78.5346535 123.683168,78.5346535 123.445545,78.5346535 C123.207921,78.6534653 122.970297,78.6534653 122.732673,78.7722772 C122.49505,78.8910891 122.138614,78.8910891 121.90099,78.8910891 C121.782178,78.8910891 121.782178,78.8910891 121.663366,78.8910891 C121.306931,78.8910891 120.831683,79.009901 120.475248,79.009901 C120.356436,79.009901 120.356436,79.009901 120.237624,79.009901 C119.881188,79.009901 119.405941,79.009901 119.049505,78.8910891 C118.930693,78.8910891 118.930693,78.8910891 118.811881,78.8910891 C118.455446,78.8910891 117.980198,78.7722772 117.623762,78.6534653 C117.50495,78.6534653 117.50495,78.6534653 117.386139,78.6534653 C117.029703,78.5346535 116.673267,78.4158416 116.435644,78.2970297 C116.316832,78.2970297 116.316832,78.2970297 116.19802,78.1782178 C115.841584,78.0594059 115.485149,77.8217822 115.128713,77.7029703 L3.08910891,13.0693069 C1.66336634,12.2376238 0.95049505,11.1683168 0.95049505,10.0990099 L0.95049505,21.7425743 C0.95049505,22.8118812 1.66336634,23.8811881 3.08910891,24.7128713 L115.128713,89.3465347 C115.485149,89.5841584 115.841584,89.7029703 116.19802,89.8217822 C116.19802,89.8217822 116.19802,89.8217822 116.316832,89.8217822 C116.316832,89.8217822 116.435644,89.8217822 116.554455,89.9405941 C116.792079,90.0594059 116.910891,90.0594059 117.148515,90.1782178 C117.267327,90.1782178 117.386139,90.2970297 117.50495,90.2970297 C117.623762,90.2970297 117.623762,90.2970297 117.742574,90.2970297 C117.861386,90.2970297 117.861386,90.2970297 117.980198,90.2970297 C118.217822,90.2970297 118.455446,90.4158416 118.693069,90.4158416 C118.811881,90.4158416 118.811881,90.4158416 118.930693,90.4158416 C119.049505,90.4158416 119.049505,90.4158416 119.168317,90.4158416 C119.287129,90.4158416 119.287129,90.4158416 119.405941,90.4158416 C119.643564,90.4158416 119.881188,90.4158416 120.118812,90.4158416 C120.237624,90.4158416 120.237624,90.4158416 120.356436,90.4158416 C120.475248,90.4158416 120.475248,90.4158416 120.594059,90.4158416 C120.712871,90.4158416 120.831683,90.4158416 120.950495,90.4158416 C121.188119,90.4158416 121.544554,90.4158416 121.782178,90.4158416 C121.782178,90.4158416 121.782178,90.4158416 121.90099,90.4158416 C122.019802,90.4158416 122.019802,90.4158416 122.138614,90.4158416 C122.376238,90.4158416 122.613861,90.4158416 122.732673,90.2970297 C122.851485,90.2970297 122.851485,90.2970297 122.970297,90.1782178 C123.207921,90.1782178 123.445545,90.0594059 123.683168,89.9405941 C123.80198,89.9405941 123.920792,89.9405941 124.039604,89.8217822 C124.039604,89.8217822 124.158416,89.8217822 124.158416,89.7029703 C124.633663,89.5841584 125.108911,89.3465347 125.584158,89.1089109 L236.792079,24.4752475 C236.792079,24.4752475 236.792079,24.4752475 236.910891,24.4752475 C237.029703,24.3564356 237.148515,24.2376238 237.267327,24.2376238 C237.386139,24.1188119 237.623762,24 237.742574,23.8811881 C237.742574,23.8811881 237.742574,23.8811881 237.742574,23.8811881 C237.861386,23.7623762 238.09901,23.5247525 238.217822,23.4059406 C238.217822,23.4059406 238.217822,23.2871287 238.336634,23.2871287 C238.336634,23.2871287 238.336634,23.1683168 238.455446,23.1683168 C238.455446,23.049505 238.574257,23.049505 238.574257,22.9306931 C238.693069,22.8118812 238.693069,22.6930693 238.811881,22.5742574 C238.811881,22.5742574 238.811881,22.5742574 238.811881,22.4554455 C238.811881,22.4554455 238.811881,22.4554455 238.811881,22.3366337 C238.811881,22.2178218 238.811881,22.2178218 238.930693,22.0990099 C238.930693,21.980198 238.930693,21.8613861 238.930693,21.7425743 C238.930693,21.7425743 238.930693,21.7425743 238.930693,21.6237624 L238.930693,9.98019802 C238.811881,10.5742574 238.811881,10.8118812 238.693069,11.049505 Z" id="Path" fill="url(#linearGradient-5)"></path>
                        <path d="M236.673267,7.36633663 L224.554455,0.356435644 L125.346535,57.980198 C124.871287,58.2178218 124.39604,58.4554455 123.920792,58.5742574 C123.920792,58.5742574 123.80198,58.5742574 123.80198,58.6930693 C123.683168,58.6930693 123.564356,58.8118812 123.445545,58.8118812 C123.207921,58.9306931 122.970297,58.9306931 122.732673,59.049505 C122.613861,59.049505 122.613861,59.049505 122.49505,59.1683168 C122.257426,59.1683168 122.019802,59.2871287 121.90099,59.2871287 C121.782178,59.2871287 121.782178,59.2871287 121.663366,59.2871287 C121.663366,59.2871287 121.663366,59.2871287 121.544554,59.2871287 C121.306931,59.2871287 121.069307,59.2871287 120.712871,59.2871287 C120.594059,59.2871287 120.475248,59.2871287 120.356436,59.2871287 C120.237624,59.2871287 120.237624,59.2871287 120.118812,59.2871287 C120,59.2871287 120,59.2871287 119.881188,59.2871287 C119.643564,59.2871287 119.405941,59.2871287 119.168317,59.2871287 C119.049505,59.2871287 119.049505,59.2871287 118.930693,59.2871287 C118.811881,59.2871287 118.811881,59.2871287 118.693069,59.2871287 C118.574257,59.2871287 118.574257,59.2871287 118.455446,59.2871287 C118.217822,59.2871287 117.980198,59.1683168 117.742574,59.1683168 C117.623762,59.1683168 117.623762,59.1683168 117.50495,59.1683168 C117.386139,59.1683168 117.386139,59.1683168 117.267327,59.1683168 C117.148515,59.1683168 117.029703,59.1683168 116.910891,59.049505 C116.673267,58.9306931 116.435644,58.9306931 116.316832,58.8118812 C116.19802,58.8118812 116.19802,58.8118812 116.079208,58.6930693 C116.079208,58.6930693 116.079208,58.6930693 115.960396,58.6930693 C115.60396,58.5742574 115.247525,58.3366337 114.891089,58.2178218 L14.970297,0.475247525 L2.85148515,7.48514851 C0.118811881,9.14851485 0.118811881,11.7623762 2.85148515,13.3069307 L114.891089,77.9405941 C117.742574,79.6039604 122.257426,79.6039604 124.990099,77.9405941 L236.19802,13.3069307 C239.524752,11.6435644 239.524752,8.91089109 236.673267,7.36633663 Z" id="Path" fill="url(#linearGradient-6)"></path>
                    </g>
                </g>
                <g id="Group-23" transform="translate(138.000000, 79.000000)">
                    <g id="Group-22" transform="translate(47.000000, 47.000000) rotate(15.000000) translate(-47.000000, -47.000000) translate(9.000000, 9.000000)">
                        <g id="Rectangle">
                            <use fill="black" fill-opacity="1" filter="url(#filter-8)" xlink:href="#path-7"></use>
                            <rect stroke="#E0E0E0" stroke-width="0.751958225" stroke-linejoin="square" fill="#FFFFFF" fill-rule="evenodd" x="0.375979112" y="0.375979112" width="74.4438642" height="74.4438642" rx="23.4986945"></rect>
                        </g>
                        <g id="Group-19" transform="translate(23.000000, 23.000000)" stroke="#B967D9" stroke-linecap="square" stroke-linejoin="round">
                            <polygon id="Stroke-1" points="0.625 29.375 11.875 29.375 11.875 18.125 0.625 18.125"></polygon>
                            <line x1="11.875" y1="18.125" x2="19.375" y2="10.625" id="Stroke-3"></line>
                            <polyline id="Stroke-4" points="14.375 10.625 19.375 10.625 19.375 15.625"></polyline>
                            <polyline id="Stroke-5" points="29.375 23.125 29.375 24.375 28.125 24.375"></polyline>
                            <line x1="25.764125" y1="24.375" x2="8.055375" y2="24.375" id="Stroke-7" stroke-dasharray="1.889,1.889"></line>
                            <polyline id="Stroke-8" points="6.875 24.375 5.625 24.375 5.625 23.125"></polyline>
                            <line x1="5.625" y1="20.764125" x2="5.625" y2="3.055375" id="Stroke-9" stroke-dasharray="1.889,1.889"></line>
                            <g id="Group-18" transform="translate(5.000000, 0.000000)">
                                <polyline id="Stroke-10" points="0.625 1.875 0.625 0.625 1.875 0.625"></polyline>
                                <line x1="4.235875" y1="0.625" x2="21.944625" y2="0.625" id="Stroke-12" stroke-dasharray="1.889,1.889"></line>
                                <polyline id="Stroke-14" points="23.125 0.625 24.375 0.625 24.375 1.875"></polyline>
                                <line x1="24.375" y1="4.235875" x2="24.375" y2="21.944625" id="Stroke-16" stroke-dasharray="1.889,1.889"></line>
                            </g>
                        </g>
                    </g>
                </g>
            </g>
        </g>
    </g>
</svg>