<?xml version="1.0" encoding="UTF-8"?>
<svg width="77px" height="80px" viewBox="0 0 77 80" version="1.1" xmlns="http://www.w3.org/2000/svg" xmlns:xlink="http://www.w3.org/1999/xlink">
    <title>Group 10</title>
    <defs>
        <linearGradient x1="0.0998502247%" y1="50.2914328%" x2="99.9500749%" y2="50.2914328%" id="linearGradient-1">
            <stop stop-color="#571D87" offset="0%"></stop>
            <stop stop-color="#7B24C3" offset="100%"></stop>
        </linearGradient>
        <linearGradient x1="0.01395%" y1="49.9379965%" x2="100%" y2="49.9379965%" id="linearGradient-2">
            <stop stop-color="#6B3D93" offset="0%"></stop>
            <stop stop-color="#CA65FF" offset="100%"></stop>
        </linearGradient>
        <linearGradient x1="0%" y1="50.1819793%" x2="99.8502247%" y2="50.1819793%" id="linearGradient-3">
            <stop stop-color="#571D87" offset="0%"></stop>
            <stop stop-color="#7B24C3" offset="100%"></stop>
        </linearGradient>
        <linearGradient x1="0.01395%" y1="49.9603627%" x2="100%" y2="49.9603627%" id="linearGradient-4">
            <stop stop-color="#6B3D93" offset="0%"></stop>
            <stop stop-color="#CA65FF" offset="100%"></stop>
        </linearGradient>
        <linearGradient x1="0.0998502247%" y1="50.4008863%" x2="99.9500749%" y2="50.4008863%" id="linearGradient-5">
            <stop stop-color="#571D87" offset="0%"></stop>
            <stop stop-color="#7B24C3" offset="100%"></stop>
        </linearGradient>
        <linearGradient x1="0.176205174%" y1="49.9134891%" x2="100.023524%" y2="49.9134891%" id="linearGradient-6">
            <stop stop-color="#6B3D93" offset="0%"></stop>
            <stop stop-color="#CA65FF" offset="100%"></stop>
        </linearGradient>
        <rect id="path-7" x="1.2952602e-13" y="1.2952602e-13" width="35" height="35" rx="10"></rect>
        <filter x="-107.1%" y="-64.3%" width="314.3%" height="314.3%" filterUnits="objectBoundingBox" id="filter-8">
            <feOffset dx="0" dy="15" in="SourceAlpha" result="shadowOffsetOuter1"></feOffset>
            <feGaussianBlur stdDeviation="10" in="shadowOffsetOuter1" result="shadowBlurOuter1"></feGaussianBlur>
            <feComposite in="shadowBlurOuter1" in2="SourceAlpha" operator="out" result="shadowBlurOuter1"></feComposite>
            <feColorMatrix values="0 0 0 0 0   0 0 0 0 0   0 0 0 0 0  0 0 0 0.1 0" type="matrix" in="shadowBlurOuter1"></feColorMatrix>
        </filter>
    </defs>
    <g id="Homepage-Pyxis" stroke="none" stroke-width="1" fill="none" fill-rule="evenodd">
        <g id="home-pyxis-mobile" transform="translate(-16.000000, -808.000000)">
            <g id="Group-29" transform="translate(20.000000, 813.000000)">
                <g id="pyxis-illustration-1" transform="translate(0.000000, 12.000000)" fill-rule="nonzero">
                    <path d="M69.0643564,24.5346535 C69.0990099,24.5 69.1336634,24.4653465 69.1683168,24.4653465 C69.2029703,24.4306931 69.2722772,24.3960396 69.3069307,24.3613861 C69.3069307,24.3613861 69.3069307,24.3613861 69.3069307,24.3613861 C69.3415842,24.3267327 69.4108911,24.2574257 69.4455446,24.2227723 C69.4455446,24.2227723 69.4455446,24.1881188 69.480198,24.1881188 C69.480198,24.1881188 69.480198,24.1534653 69.5148515,24.1534653 C69.5148515,24.1188119 69.549505,24.1188119 69.549505,24.0841584 C69.5841584,24.049505 69.5841584,24.0148515 69.6188119,23.980198 C69.6188119,23.980198 69.6188119,23.980198 69.6188119,23.9455446 C69.6188119,23.9455446 69.6188119,23.9455446 69.6188119,23.9108911 C69.6188119,23.8762376 69.6188119,23.8762376 69.6534653,23.8415842 C69.6534653,23.8069307 69.6534653,23.7722772 69.6534653,23.7376238 C69.6534653,23.7376238 69.6534653,23.7376238 69.6534653,23.7029703 L69.6534653,20.3069307 C69.6534653,20.3415842 69.6534653,20.4108911 69.6188119,20.4455446 C69.6881188,20.0990099 69.480198,19.7178218 69.029703,19.4405941 L36.3861386,0.554455446 C35.5544554,0.0693069307 34.2376238,0.0693069307 33.4405941,0.554455446 L0.97029703,19.4059406 C0.554455446,19.6485149 0.381188119,19.960396 0.381188119,20.2722772 C0.381188119,20.2722772 0.381188119,20.2722772 0.381188119,20.2722772 L0.381188119,23.6683168 C0.381188119,23.980198 0.589108911,24.2920792 1.0049505,24.5346535 L4.53960396,26.5792079 L1.0049505,28.6237624 C0.589108911,28.8663366 0.415841584,29.1782178 0.415841584,29.490099 C0.415841584,29.490099 0.415841584,29.490099 0.415841584,29.490099 L0.415841584,32.8861386 C0.415841584,33.1980198 0.623762376,33.509901 1.03960396,33.7524752 L4.57425743,35.7970297 L1.03960396,37.8415842 C0.623762376,38.0841584 0.45049505,38.3960396 0.45049505,38.7079208 C0.45049505,38.7079208 0.45049505,38.7079208 0.45049505,38.7079208 L0.45049505,42.1039604 C0.45049505,42.4158416 0.658415842,42.7277228 1.07425743,42.970297 L33.7524752,61.8217822 C33.8564356,61.8910891 33.960396,61.9257426 34.0643564,61.960396 C34.0643564,61.960396 34.0643564,61.960396 34.0990099,61.960396 C34.0990099,61.960396 34.1336634,61.960396 34.1683168,61.9950495 C34.2376238,62.029703 34.2722772,62.029703 34.3415842,62.0643564 C34.3762376,62.0643564 34.4108911,62.0990099 34.4455446,62.0990099 C34.480198,62.0990099 34.480198,62.0990099 34.5148515,62.0990099 C34.549505,62.0990099 34.549505,62.0990099 34.5841584,62.0990099 C34.6534653,62.0990099 34.7227723,62.1336634 34.7920792,62.1336634 C34.8267327,62.1336634 34.8267327,62.1336634 34.8613861,62.1336634 C34.8960396,62.1336634 34.8960396,62.1336634 34.9306931,62.1336634 C34.9653465,62.1336634 34.9653465,62.1336634 35,62.1336634 C35.0693069,62.1336634 35.1386139,62.1336634 35.2079208,62.1336634 C35.2425743,62.1336634 35.2425743,62.1336634 35.2772277,62.1336634 C35.3118812,62.1336634 35.3118812,62.1336634 35.3465347,62.1336634 C35.3811881,62.1336634 35.4158416,62.1336634 35.450495,62.1336634 C35.519802,62.1336634 35.6237624,62.1336634 35.6930693,62.1336634 C35.6930693,62.1336634 35.6930693,62.1336634 35.7277228,62.1336634 C35.7623762,62.1336634 35.7623762,62.1336634 35.7970297,62.1336634 C35.8663366,62.1336634 35.9356436,62.1336634 35.970297,62.0990099 C36.0049505,62.0990099 36.0049505,62.0990099 36.039604,62.0643564 C36.1089109,62.0643564 36.1782178,62.029703 36.2475248,61.9950495 C36.2821782,61.9950495 36.3168317,61.9950495 36.3514851,61.960396 C36.3514851,61.960396 36.3861386,61.960396 36.3861386,61.9257426 C36.5247525,61.8910891 36.6633663,61.8217822 36.8019802,61.7524752 L69.2376238,42.9009901 C69.2376238,42.9009901 69.2376238,42.9009901 69.2722772,42.9009901 C69.3069307,42.8663366 69.3415842,42.8316832 69.3762376,42.8316832 C69.4108911,42.7970297 69.480198,42.7623762 69.5148515,42.7277228 C69.5148515,42.7277228 69.5148515,42.7277228 69.5148515,42.7277228 C69.549505,42.6930693 69.6188119,42.6237624 69.6534653,42.5891089 C69.6534653,42.5891089 69.6534653,42.5544554 69.6881188,42.5544554 C69.6881188,42.5544554 69.6881188,42.519802 69.7227723,42.519802 C69.7227723,42.4851485 69.7574257,42.4851485 69.7574257,42.450495 C69.7920792,42.4158416 69.7920792,42.3811881 69.8267327,42.3465347 C69.8267327,42.3465347 69.8267327,42.3465347 69.8267327,42.3118812 C69.8267327,42.3118812 69.8267327,42.3118812 69.8267327,42.2772277 C69.8267327,42.2425743 69.8267327,42.2425743 69.8613861,42.2079208 C69.8613861,42.1732673 69.8613861,42.1386139 69.8613861,42.1039604 C69.8613861,42.1039604 69.8613861,42.1039604 69.8613861,42.0693069 L69.8613861,38.6732673 C69.8613861,38.7079208 69.8613861,38.7772277 69.8267327,38.8118812 C69.8960396,38.4653465 69.6881188,38.0841584 69.2376238,37.8069307 L65.7029703,35.7623762 L69.2376238,33.7178218 C69.2376238,33.7178218 69.2376238,33.7178218 69.2722772,33.7178218 C69.3069307,33.6831683 69.3415842,33.6485149 69.3762376,33.6485149 C69.4108911,33.6138614 69.480198,33.5792079 69.5148515,33.5445545 C69.5148515,33.5445545 69.5148515,33.5445545 69.5148515,33.5445545 C69.549505,33.509901 69.6188119,33.4405941 69.6534653,33.4059406 C69.6534653,33.4059406 69.6534653,33.3712871 69.6881188,33.3712871 C69.6881188,33.3712871 69.6881188,33.3366337 69.7227723,33.3366337 C69.7227723,33.3019802 69.7574257,33.3019802 69.7574257,33.2673267 C69.7920792,33.2326733 69.7920792,33.1980198 69.8267327,33.1633663 C69.8267327,33.1633663 69.8267327,33.1633663 69.8267327,33.1287129 C69.8267327,33.1287129 69.8267327,33.1287129 69.8267327,33.0940594 C69.8267327,33.0594059 69.8267327,33.0594059 69.8613861,33.0247525 C69.8613861,32.990099 69.8613861,32.9554455 69.8613861,32.9207921 C69.8613861,32.9207921 69.8613861,32.9207921 69.8613861,32.8861386 L69.8613861,29.490099 C69.8613861,29.5247525 69.8613861,29.5940594 69.8267327,29.6287129 C69.8960396,29.2821782 69.6881188,28.9009901 69.2376238,28.6237624 L65.7029703,26.5792079 L69.0643564,24.5346535 C69.029703,24.5346535 69.0643564,24.5346535 69.0643564,24.5346535 Z M69.3762376,20.8613861 C69.4108911,20.8267327 69.4455446,20.7920792 69.480198,20.7227723 C69.480198,20.7227723 69.480198,20.7227723 69.480198,20.7227723 C69.4455446,20.7920792 69.4108911,20.8267327 69.3762376,20.8613861 Z M69.6188119,20.5148515 C69.6188119,20.549505 69.5841584,20.5841584 69.549505,20.6534653 C69.5841584,20.5841584 69.5841584,20.549505 69.6188119,20.5148515 C69.6188119,20.5148515 69.6188119,20.5148515 69.6188119,20.5148515 Z M69.1683168,21.0346535 C69.1683168,21.0346535 69.1683168,21.0346535 69.1683168,21.0346535 C69.1336634,21.0693069 69.0643564,21.1039604 69.029703,21.1386139 C69.0990099,21.1039604 69.1336634,21.0693069 69.1683168,21.0346535 Z M0.623762376,20.8613861 C0.658415842,20.8960396 0.658415842,20.8960396 0.693069307,20.9306931 C0.693069307,20.9306931 0.658415842,20.8960396 0.623762376,20.8613861 Z M0.381188119,20.4108911 C0.381188119,20.4455446 0.381188119,20.480198 0.381188119,20.5148515 C0.381188119,20.480198 0.381188119,20.4455446 0.381188119,20.4108911 Z M0.45049505,20.6534653 C0.45049505,20.6881188 0.485148515,20.7227723 0.485148515,20.7574257 C0.485148515,20.6881188 0.485148515,20.6534653 0.45049505,20.6534653 Z M0.623762376,30.0792079 C0.658415842,30.1138614 0.658415842,30.1138614 0.693069307,30.1485149 C0.693069307,30.1138614 0.658415842,30.1138614 0.623762376,30.0792079 Z M0.381188119,29.5940594 C0.381188119,29.6287129 0.381188119,29.6633663 0.381188119,29.6980198 C0.381188119,29.6633663 0.381188119,29.6287129 0.381188119,29.5940594 Z M0.45049505,29.8366337 C0.45049505,29.8712871 0.485148515,29.9059406 0.485148515,29.9405941 C0.485148515,29.9059406 0.485148515,29.8712871 0.45049505,29.8366337 Z M0.623762376,39.2970297 C0.658415842,39.3316832 0.658415842,39.3316832 0.693069307,39.3663366 C0.693069307,39.3316832 0.658415842,39.2970297 0.623762376,39.2970297 Z M0.381188119,38.8118812 C0.381188119,38.8465347 0.381188119,38.8811881 0.381188119,38.9158416 C0.381188119,38.8811881 0.381188119,38.8465347 0.381188119,38.8118812 Z M0.45049505,39.0544554 C0.45049505,39.0891089 0.485148515,39.1237624 0.485148515,39.1584158 C0.485148515,39.1237624 0.485148515,39.0891089 0.45049505,39.0544554 Z M33.6485149,58.3910891 C33.7524752,58.460396 33.8564356,58.4950495 33.960396,58.529703 C33.960396,58.529703 33.960396,58.529703 33.960396,58.529703 C33.8564356,58.529703 33.7178218,58.460396 33.6485149,58.3910891 Z M33.9950495,58.5643564 C33.9950495,58.5643564 33.9950495,58.5643564 33.9950495,58.5643564 C34.0990099,58.5990099 34.1683168,58.6336634 34.2722772,58.6683168 C34.2722772,58.6683168 34.2722772,58.6683168 34.2722772,58.6683168 C34.2029703,58.6336634 34.0990099,58.5990099 33.9950495,58.5643564 Z M34.7574257,58.7376238 C34.7574257,58.7376238 34.7574257,58.7376238 34.7574257,58.7376238 C34.7920792,58.7376238 34.8267327,58.7376238 34.8613861,58.7376238 C34.8267327,58.7376238 34.7920792,58.7376238 34.7574257,58.7376238 Z M35.5544554,58.7376238 C35.5544554,58.7376238 35.5544554,58.7376238 35.5544554,58.7376238 C35.6584158,58.7376238 35.7277228,58.7029703 35.7970297,58.7029703 C35.7970297,58.7029703 35.7970297,58.7029703 35.7970297,58.7029703 C35.7277228,58.7029703 35.6584158,58.7376238 35.5544554,58.7376238 Z M69.3762376,39.2970297 C69.4108911,39.2623762 69.4455446,39.2277228 69.480198,39.1584158 C69.480198,39.1584158 69.480198,39.1584158 69.480198,39.1584158 C69.4455446,39.1930693 69.4108911,39.2623762 69.3762376,39.2970297 Z M69.6188119,38.950495 C69.6188119,38.9851485 69.5841584,39.019802 69.549505,39.0891089 C69.5841584,39.019802 69.5841584,38.9851485 69.6188119,38.950495 C69.6188119,38.950495 69.6188119,38.950495 69.6188119,38.950495 Z M69.1683168,39.4356436 C69.1683168,39.470297 69.1683168,39.470297 69.1683168,39.4356436 C69.1336634,39.470297 69.0643564,39.5049505 69.029703,39.539604 C69.0990099,39.5049505 69.1336634,39.470297 69.1683168,39.4356436 Z M69.3762376,30.0792079 C69.4108911,30.0445545 69.4455446,30.009901 69.480198,29.9405941 C69.480198,29.9405941 69.480198,29.9405941 69.480198,29.9405941 C69.4455446,30.009901 69.4108911,30.0445545 69.3762376,30.0792079 Z M69.6188119,29.7326733 C69.6188119,29.7673267 69.5841584,29.8019802 69.549505,29.8712871 C69.5841584,29.8019802 69.5841584,29.7673267 69.6188119,29.7326733 C69.6188119,29.7326733 69.6188119,29.7326733 69.6188119,29.7326733 Z M69.1683168,30.2524752 C69.1683168,30.2524752 69.1683168,30.2524752 69.1683168,30.2524752 C69.1336634,30.2871287 69.0643564,30.3217822 69.029703,30.3564356 C69.0990099,30.3217822 69.1336634,30.2871287 69.1683168,30.2524752 Z" id="Shape" fill="#FFFFFF"></path>
                    <g id="Group" opacity="0.5" transform="translate(0.000000, 9.356436)">
                        <path d="M69.6188119,20.3415842 C69.6188119,20.3415842 69.6188119,20.3762376 69.6188119,20.3415842 C69.5841584,20.4455446 69.549505,20.480198 69.5148515,20.549505 C69.5148515,20.549505 69.5148515,20.5841584 69.480198,20.5841584 C69.4455446,20.6534653 69.3762376,20.7227723 69.3069307,20.7574257 C69.2722772,20.7920792 69.2029703,20.8267327 69.1683168,20.8613861 C69.1336634,20.8960396 69.0990099,20.9306931 69.029703,20.9653465 L36.5940594,39.8514851 C36.4554455,39.9207921 36.3168317,39.990099 36.1782178,40.0247525 C36.1435644,40.0594059 36.0742574,40.0594059 36.0049505,40.0594059 C35.9356436,40.0940594 35.8663366,40.0940594 35.7970297,40.1287129 C35.7277228,40.1633663 35.6237624,40.1633663 35.5544554,40.1633663 C35.519802,40.1633663 35.519802,40.1633663 35.4851485,40.1633663 C35.3811881,40.1633663 35.2425743,40.1980198 35.1386139,40.1980198 C35.1039604,40.1980198 35.1039604,40.1980198 35.0693069,40.1980198 C34.9653465,40.1980198 34.8267327,40.1980198 34.7227723,40.1633663 C34.6881188,40.1633663 34.6881188,40.1633663 34.6534653,40.1633663 C34.549505,40.1633663 34.4108911,40.1287129 34.3069307,40.0940594 C34.2722772,40.0940594 34.2722772,40.0940594 34.2376238,40.0940594 C34.1336634,40.0594059 34.029703,40.0247525 33.960396,39.990099 C33.9257426,39.990099 33.9257426,39.990099 33.8910891,39.9554455 C33.7871287,39.9207921 33.6831683,39.8514851 33.5792079,39.8168317 L0.900990099,20.9653465 C0.485148515,20.7227723 0.277227723,20.4108911 0.277227723,20.0990099 L0.277227723,23.4950495 C0.277227723,23.8069307 0.485148515,24.1188119 0.900990099,24.3613861 L33.5792079,43.2128713 C33.6831683,43.2821782 33.7871287,43.3168317 33.8910891,43.3514851 C33.8910891,43.3514851 33.8910891,43.3514851 33.9257426,43.3514851 C33.9257426,43.3514851 33.960396,43.3514851 33.9950495,43.3861386 C34.0643564,43.4207921 34.0990099,43.4207921 34.1683168,43.4554455 C34.2029703,43.4554455 34.2376238,43.490099 34.2722772,43.490099 C34.3069307,43.490099 34.3069307,43.490099 34.3415842,43.490099 C34.3762376,43.490099 34.3762376,43.490099 34.4108911,43.490099 C34.480198,43.490099 34.549505,43.5247525 34.6188119,43.5247525 C34.6534653,43.5247525 34.6534653,43.5247525 34.6881188,43.5247525 C34.7227723,43.5247525 34.7227723,43.5247525 34.7574257,43.5247525 C34.7920792,43.5247525 34.7920792,43.5247525 34.8267327,43.5247525 C34.8960396,43.5247525 34.9653465,43.5247525 35.0346535,43.5247525 C35.0693069,43.5247525 35.0693069,43.5247525 35.1039604,43.5247525 C35.1386139,43.5247525 35.1386139,43.5247525 35.1732673,43.5247525 C35.2079208,43.5247525 35.2425743,43.5247525 35.2772277,43.5247525 C35.3465347,43.5247525 35.450495,43.5247525 35.519802,43.5247525 C35.519802,43.5247525 35.519802,43.5247525 35.5544554,43.5247525 C35.5891089,43.5247525 35.5891089,43.5247525 35.6237624,43.5247525 C35.6930693,43.5247525 35.7623762,43.5247525 35.7970297,43.490099 C35.8316832,43.490099 35.8316832,43.490099 35.8663366,43.4554455 C35.9356436,43.4554455 36.0049505,43.4207921 36.0742574,43.3861386 C36.1089109,43.3861386 36.1435644,43.3861386 36.1782178,43.3514851 C36.1782178,43.3514851 36.2128713,43.3514851 36.2128713,43.3168317 C36.3514851,43.2821782 36.490099,43.2128713 36.6287129,43.1435644 L69.0643564,24.2920792 C69.0643564,24.2920792 69.0643564,24.2920792 69.0990099,24.2920792 C69.1336634,24.2574257 69.1683168,24.2227723 69.2029703,24.2227723 C69.2376238,24.1881188 69.3069307,24.1534653 69.3415842,24.1188119 C69.3415842,24.1188119 69.3415842,24.1188119 69.3415842,24.1188119 C69.3762376,24.0841584 69.4455446,24.0148515 69.480198,23.980198 C69.480198,23.980198 69.480198,23.9455446 69.5148515,23.9455446 C69.5148515,23.9455446 69.5148515,23.9108911 69.549505,23.9108911 C69.549505,23.8762376 69.5841584,23.8762376 69.5841584,23.8415842 C69.6188119,23.8069307 69.6188119,23.7722772 69.6534653,23.7376238 C69.6534653,23.7376238 69.6534653,23.7376238 69.6534653,23.7029703 C69.6534653,23.7029703 69.6534653,23.7029703 69.6534653,23.6683168 C69.6534653,23.6336634 69.6534653,23.6336634 69.6881188,23.5990099 C69.6881188,23.5643564 69.6881188,23.529703 69.6881188,23.4950495 C69.6881188,23.4950495 69.6881188,23.4950495 69.6881188,23.460396 L69.6881188,20.0643564 C69.6534653,20.2029703 69.6534653,20.2722772 69.6188119,20.3415842 Z" id="Path" fill="url(#linearGradient-1)"></path>
                        <path d="M69.029703,19.2673267 C69.8613861,19.7524752 69.8613861,20.5148515 69.029703,21 L36.5940594,39.8514851 C35.7970297,40.3366337 34.4455446,40.3366337 33.6485149,39.8514851 L0.97029703,21 C0.138613861,20.5148515 0.138613861,19.7524752 0.97029703,19.3019802 L33.4059406,0.45049505 C34.2029703,-0.0346534653 35.5544554,-0.0346534653 36.3514851,0.45049505 L69.029703,19.2673267 Z" id="Path" fill="url(#linearGradient-2)"></path>
                    </g>
                    <g id="Group" transform="translate(0.346535, 0.000000)">
                        <path d="M69.2722772,20.480198 C69.2722772,20.5148515 69.2722772,20.5148515 69.2722772,20.480198 C69.2376238,20.5841584 69.2029703,20.6188119 69.1683168,20.6881188 C69.1683168,20.6881188 69.1683168,20.7227723 69.1336634,20.7227723 C69.0990099,20.7920792 69.029703,20.8613861 68.960396,20.8960396 C68.9257426,20.9306931 68.8564356,20.9653465 68.8217822,21 C68.7871287,21.0346535 68.7524752,21.0693069 68.6831683,21.1039604 L36.2475248,39.9554455 C36.1089109,40.0247525 35.970297,40.0940594 35.8316832,40.1287129 C35.7970297,40.1633663 35.7277228,40.1633663 35.6584158,40.1633663 C35.5891089,40.1980198 35.519802,40.1980198 35.450495,40.2326733 C35.3811881,40.2673267 35.2772277,40.2673267 35.2079208,40.2673267 C35.1732673,40.2673267 35.1732673,40.2673267 35.1386139,40.2673267 C35.0346535,40.2673267 34.8960396,40.3019802 34.7920792,40.3019802 C34.7574257,40.3019802 34.7574257,40.3019802 34.7227723,40.3019802 C34.6188119,40.3019802 34.480198,40.3019802 34.3762376,40.2673267 C34.3415842,40.2673267 34.3415842,40.2673267 34.3069307,40.2673267 C34.2029703,40.2673267 34.0643564,40.2326733 33.960396,40.1980198 C33.9257426,40.1980198 33.9257426,40.1980198 33.8910891,40.1980198 C33.7871287,40.1633663 33.6831683,40.1287129 33.6138614,40.0940594 C33.5792079,40.0940594 33.5792079,40.0940594 33.5445545,40.0594059 C33.4405941,40.0247525 33.3366337,39.9554455 33.2326733,39.9207921 L0.623762376,21.1386139 C0.207920792,20.8960396 0,20.5841584 0,20.2722772 L0,23.6683168 C0,23.980198 0.207920792,24.2920792 0.623762376,24.5346535 L33.3019802,43.3861386 C33.4059406,43.4554455 33.509901,43.490099 33.6138614,43.5247525 C33.6138614,43.5247525 33.6138614,43.5247525 33.6485149,43.5247525 C33.6485149,43.5247525 33.6831683,43.5247525 33.7178218,43.5594059 C33.7871287,43.5940594 33.8217822,43.5940594 33.8910891,43.6287129 C33.9257426,43.6287129 33.960396,43.6633663 33.9950495,43.6633663 C34.029703,43.6633663 34.029703,43.6633663 34.0643564,43.6633663 C34.0990099,43.6633663 34.0990099,43.6633663 34.1336634,43.6633663 C34.2029703,43.6633663 34.2722772,43.6980198 34.3415842,43.6980198 C34.3762376,43.6980198 34.3762376,43.6980198 34.4108911,43.6980198 C34.4455446,43.6980198 34.4455446,43.6980198 34.480198,43.6980198 C34.5148515,43.6980198 34.5148515,43.6980198 34.549505,43.6980198 C34.6188119,43.6980198 34.6881188,43.6980198 34.7574257,43.6980198 C34.7920792,43.6980198 34.7920792,43.6980198 34.8267327,43.6980198 C34.8613861,43.6980198 34.8613861,43.6980198 34.8960396,43.6980198 C34.9306931,43.6980198 34.9653465,43.6980198 35,43.6980198 C35.0693069,43.6980198 35.1732673,43.6980198 35.2425743,43.6980198 C35.2425743,43.6980198 35.2425743,43.6980198 35.2772277,43.6980198 C35.3118812,43.6980198 35.3118812,43.6980198 35.3465347,43.6980198 C35.4158416,43.6980198 35.4851485,43.6980198 35.519802,43.6633663 C35.5544554,43.6633663 35.5544554,43.6633663 35.5891089,43.6287129 C35.6584158,43.6287129 35.7277228,43.5940594 35.7970297,43.5594059 C35.8316832,43.5594059 35.8663366,43.5594059 35.9009901,43.5247525 C35.9009901,43.5247525 35.9356436,43.5247525 35.9356436,43.490099 C36.0742574,43.4554455 36.2128713,43.3861386 36.3514851,43.3168317 L68.7871287,24.4653465 C68.7871287,24.4653465 68.7871287,24.4653465 68.8217822,24.4653465 C68.8564356,24.4306931 68.8910891,24.3960396 68.9257426,24.3960396 C68.960396,24.3613861 69.029703,24.3267327 69.0643564,24.2920792 C69.0643564,24.2920792 69.0643564,24.2920792 69.0643564,24.2920792 C69.0990099,24.2574257 69.1683168,24.1881188 69.2029703,24.1534653 C69.2029703,24.1534653 69.2029703,24.1188119 69.2376238,24.1188119 C69.2376238,24.1188119 69.2376238,24.0841584 69.2722772,24.0841584 C69.2722772,24.049505 69.3069307,24.049505 69.3069307,24.0148515 C69.3415842,23.980198 69.3415842,23.9455446 69.3762376,23.9108911 C69.3762376,23.9108911 69.3762376,23.9108911 69.3762376,23.8762376 C69.3762376,23.8762376 69.3762376,23.8762376 69.3762376,23.8415842 C69.3762376,23.8069307 69.3762376,23.8069307 69.4108911,23.7722772 C69.4108911,23.7376238 69.4108911,23.7029703 69.4108911,23.6683168 C69.4108911,23.6683168 69.4108911,23.6683168 69.4108911,23.6336634 L69.4108911,20.2376238 C69.3069307,20.3415842 69.3069307,20.4108911 69.2722772,20.480198 Z" id="Path" fill="url(#linearGradient-3)"></path>
                        <path d="M68.6831683,19.4059406 C69.5148515,19.8910891 69.5148515,20.6534653 68.6831683,21.1386139 L36.2475248,39.990099 C35.450495,40.4752475 34.0990099,40.4752475 33.3019802,39.990099 L0.623762376,21.1386139 C-0.207920792,20.6534653 -0.207920792,19.8910891 0.623762376,19.4405941 L33.0594059,0.589108911 C33.8564356,0.103960396 35.2079208,0.103960396 36.0049505,0.589108911 L68.6831683,19.4059406 Z" id="Path" fill="url(#linearGradient-4)"></path>
                    </g>
                    <g id="Group" opacity="0.25" transform="translate(0.000000, 35.693069)">
                        <path d="M69.6188119,3.22277228 C69.6188119,3.22277228 69.6188119,3.22277228 69.6188119,3.22277228 C69.5841584,3.32673267 69.549505,3.36138614 69.5148515,3.43069307 C69.5148515,3.43069307 69.5148515,3.46534653 69.480198,3.46534653 C69.4455446,3.53465347 69.3762376,3.6039604 69.3069307,3.63861386 C69.2722772,3.67326733 69.2029703,3.70792079 69.1683168,3.74257426 C69.1336634,3.77722772 69.0990099,3.81188119 69.029703,3.84653465 L36.5940594,22.6980198 C36.4554455,22.7673267 36.3168317,22.8366337 36.1782178,22.8712871 C36.1435644,22.9059406 36.0742574,22.9059406 36.0049505,22.9059406 C35.9356436,22.9405941 35.8663366,22.9405941 35.7970297,22.9752475 C35.7277228,23.009901 35.6237624,23.009901 35.5544554,23.009901 C35.519802,23.009901 35.519802,23.009901 35.4851485,23.009901 C35.3811881,23.009901 35.2425743,23.0445545 35.1386139,23.0445545 C35.1039604,23.0445545 35.1039604,23.0445545 35.0693069,23.0445545 C34.9653465,23.0445545 34.8267327,23.0445545 34.7227723,23.009901 C34.6881188,23.009901 34.6881188,23.009901 34.6534653,23.009901 C34.549505,23.009901 34.4108911,22.9752475 34.3069307,22.9405941 C34.2722772,22.9405941 34.2722772,22.9405941 34.2376238,22.9405941 C34.1336634,22.9059406 34.029703,22.8712871 33.960396,22.8366337 C33.9257426,22.8366337 33.9257426,22.8366337 33.8910891,22.8019802 C33.7871287,22.7673267 33.6831683,22.6980198 33.5792079,22.6633663 L0.900990099,3.81188119 C0.485148515,3.56930693 0.277227723,3.25742574 0.277227723,2.94554455 L0.277227723,6.34158416 C0.277227723,6.65346535 0.485148515,6.96534653 0.900990099,7.20792079 L33.5792079,26.0594059 C33.6831683,26.1287129 33.7871287,26.1633663 33.8910891,26.1980198 C33.8910891,26.1980198 33.8910891,26.1980198 33.9257426,26.1980198 C33.9257426,26.1980198 33.960396,26.1980198 33.9950495,26.2326733 C34.0643564,26.2673267 34.0990099,26.2673267 34.1683168,26.3019802 C34.2029703,26.3019802 34.2376238,26.3366337 34.2722772,26.3366337 C34.3069307,26.3366337 34.3069307,26.3366337 34.3415842,26.3366337 C34.3762376,26.3366337 34.3762376,26.3366337 34.4108911,26.3366337 C34.480198,26.3366337 34.549505,26.3712871 34.6188119,26.3712871 C34.6534653,26.3712871 34.6534653,26.3712871 34.6881188,26.3712871 C34.7227723,26.3712871 34.7227723,26.3712871 34.7574257,26.3712871 C34.7920792,26.3712871 34.7920792,26.3712871 34.8267327,26.3712871 C34.8960396,26.3712871 34.9653465,26.3712871 35.0346535,26.3712871 C35.0693069,26.3712871 35.0693069,26.3712871 35.1039604,26.3712871 C35.1386139,26.3712871 35.1386139,26.3712871 35.1732673,26.3712871 C35.2079208,26.3712871 35.2425743,26.3712871 35.2772277,26.3712871 C35.3465347,26.3712871 35.450495,26.3712871 35.519802,26.3712871 C35.519802,26.3712871 35.519802,26.3712871 35.5544554,26.3712871 C35.5891089,26.3712871 35.5891089,26.3712871 35.6237624,26.3712871 C35.6930693,26.3712871 35.7623762,26.3712871 35.7970297,26.3366337 C35.8316832,26.3366337 35.8316832,26.3366337 35.8663366,26.3019802 C35.9356436,26.3019802 36.0049505,26.2673267 36.0742574,26.2326733 C36.1089109,26.2326733 36.1435644,26.2326733 36.1782178,26.1980198 C36.1782178,26.1980198 36.2128713,26.1980198 36.2128713,26.1633663 C36.3514851,26.1287129 36.490099,26.0594059 36.6287129,25.990099 L69.0643564,7.13861386 C69.0643564,7.13861386 69.0643564,7.13861386 69.0990099,7.13861386 C69.1336634,7.1039604 69.1683168,7.06930693 69.2029703,7.06930693 C69.2376238,7.03465347 69.3069307,7 69.3415842,6.96534653 C69.3415842,6.96534653 69.3415842,6.96534653 69.3415842,6.96534653 C69.3762376,6.93069307 69.4455446,6.86138614 69.480198,6.82673267 C69.480198,6.82673267 69.480198,6.79207921 69.5148515,6.79207921 C69.5148515,6.79207921 69.5148515,6.75742574 69.549505,6.75742574 C69.549505,6.72277228 69.5841584,6.72277228 69.5841584,6.68811881 C69.6188119,6.65346535 69.6188119,6.61881188 69.6534653,6.58415842 C69.6534653,6.58415842 69.6534653,6.58415842 69.6534653,6.54950495 C69.6534653,6.54950495 69.6534653,6.54950495 69.6534653,6.51485149 C69.6534653,6.48019802 69.6534653,6.48019802 69.6881188,6.44554455 C69.6881188,6.41089109 69.6881188,6.37623762 69.6881188,6.34158416 C69.6881188,6.34158416 69.6881188,6.34158416 69.6881188,6.30693069 L69.6881188,2.91089109 C69.6534653,3.08415842 69.6534653,3.15346535 69.6188119,3.22277228 Z" id="Path" fill="url(#linearGradient-5)"></path>
                        <path d="M69.029703,2.14851485 L65.4950495,0.103960396 L36.5594059,16.9108911 C36.4207921,16.980198 36.2821782,17.049505 36.1435644,17.0841584 C36.1435644,17.0841584 36.1089109,17.0841584 36.1089109,17.1188119 C36.0742574,17.1188119 36.039604,17.1534653 36.0049505,17.1534653 C35.9356436,17.1881188 35.8663366,17.1881188 35.7970297,17.2227723 C35.7623762,17.2227723 35.7623762,17.2227723 35.7277228,17.2574257 C35.6584158,17.2574257 35.5891089,17.2920792 35.5544554,17.2920792 C35.519802,17.2920792 35.519802,17.2920792 35.4851485,17.2920792 C35.4851485,17.2920792 35.4851485,17.2920792 35.450495,17.2920792 C35.3811881,17.2920792 35.3118812,17.2920792 35.2079208,17.2920792 C35.1732673,17.2920792 35.1386139,17.2920792 35.1039604,17.2920792 C35.0693069,17.2920792 35.0693069,17.2920792 35.0346535,17.2920792 C35,17.2920792 35,17.2920792 34.9653465,17.2920792 C34.8960396,17.2920792 34.8267327,17.2920792 34.7574257,17.2920792 C34.7227723,17.2920792 34.7227723,17.2920792 34.6881188,17.2920792 C34.6534653,17.2920792 34.6534653,17.2920792 34.6188119,17.2920792 C34.5841584,17.2920792 34.5841584,17.2920792 34.549505,17.2920792 C34.480198,17.2920792 34.4108911,17.2574257 34.3415842,17.2574257 C34.3069307,17.2574257 34.3069307,17.2574257 34.2722772,17.2574257 C34.2376238,17.2574257 34.2376238,17.2574257 34.2029703,17.2574257 C34.1683168,17.2574257 34.1336634,17.2574257 34.0990099,17.2227723 C34.029703,17.1881188 33.960396,17.1881188 33.9257426,17.1534653 C33.8910891,17.1534653 33.8910891,17.1534653 33.8564356,17.1188119 C33.8564356,17.1188119 33.8564356,17.1188119 33.8217822,17.1188119 C33.7178218,17.0841584 33.6138614,17.0148515 33.509901,16.980198 L4.36633663,0.138613861 L0.831683168,2.18316832 C0.0346534653,2.66831683 0.0346534653,3.43069307 0.831683168,3.88118812 L33.509901,22.7326733 C34.3415842,23.2178218 35.6584158,23.2178218 36.4554455,22.7326733 L68.8910891,3.88118812 C69.8613861,3.3960396 69.8613861,2.5990099 69.029703,2.14851485 Z" id="Path" fill="url(#linearGradient-6)"></path>
                    </g>
                </g>
                <g id="Group-23" transform="translate(16.770833, 0.000000)">
                    <g id="Group-22" transform="translate(0.467415, 0.467415)">
                        <g id="Rectangle">
                            <use fill="black" fill-opacity="1" filter="url(#filter-8)" xlink:href="#path-7"></use>
                            <rect stroke="#E0E0E0" stroke-width="0.5" stroke-linejoin="square" fill="#FFFFFF" fill-rule="evenodd" x="0.25" y="0.25" width="34.5" height="34.5" rx="10"></rect>
                        </g>
                        <g id="Group-19" transform="translate(10.750534, 10.750534)" stroke="#B967D9" stroke-linecap="square" stroke-linejoin="round" stroke-width="0.583333333">
                            <polygon id="Stroke-1" points="0.292134081 13.7303018 5.55054754 13.7303018 5.55054754 8.47188835 0.292134081 8.47188835"></polygon>
                            <line x1="5.55054754" y1="8.47188835" x2="9.05615652" y2="4.96627938" id="Stroke-3"></line>
                            <polyline id="Stroke-4" points="6.71908387 4.96627938 9.05615652 4.96627938 9.05615652 7.30335203"></polyline>
                            <polyline id="Stroke-5" points="13.7303018 10.808961 13.7303018 11.3932292 13.1460337 11.3932292"></polyline>
                            <line x1="12.0425264" y1="11.3932292" x2="3.76519932" y2="11.3932292" id="Stroke-7" stroke-dasharray="0.8829460541407268,0.8829460541407268"></line>
                            <polyline id="Stroke-8" points="3.21347489 11.3932292 2.62920673 11.3932292 2.62920673 10.808961"></polyline>
                            <line x1="2.62920673" y1="9.70545373" x2="2.62920673" y2="1.42812667" id="Stroke-9" stroke-dasharray="0.8829460541407268,0.8829460541407268"></line>
                            <g id="Group-18" transform="translate(2.337073, 0.000000)">
                                <polyline id="Stroke-10" points="0.292134081 0.876402244 0.292134081 0.292134081 0.876402244 0.292134081"></polyline>
                                <line x1="1.97990952" y1="0.292134081" x2="10.2572366" y2="0.292134081" id="Stroke-12" stroke-dasharray="0.8829460541407268,0.8829460541407268"></line>
                                <polyline id="Stroke-14" points="10.808961 0.292134081 11.3932292 0.292134081 11.3932292 0.876402244"></polyline>
                                <line x1="11.3932292" y1="1.97990952" x2="11.3932292" y2="10.2572366" id="Stroke-16" stroke-dasharray="0.8829460541407268,0.8829460541407268"></line>
                            </g>
                        </g>
                    </g>
                </g>
            </g>
        </g>
    </g>
</svg>