<?xml version="1.0" encoding="UTF-8" standalone="no"?>
<!-- Generator: Adobe Illustrator 24.2.3, SVG Export Plug-In . SVG Version: 6.00 Build 0)  -->

<svg
   xmlns:dc="http://purl.org/dc/elements/1.1/"
   xmlns:cc="http://creativecommons.org/ns#"
   xmlns:rdf="http://www.w3.org/1999/02/22-rdf-syntax-ns#"
   xmlns:svg="http://www.w3.org/2000/svg"
   xmlns="http://www.w3.org/2000/svg"
   xmlns:sodipodi="http://sodipodi.sourceforge.net/DTD/sodipodi-0.dtd"
   xmlns:inkscape="http://www.inkscape.org/namespaces/inkscape"
   version="1.1"
   id="Livello_1"
   x="0px"
   y="0px"
   viewBox="0 0 200 151"
   xml:space="preserve"
   sodipodi:docname="isometric-logo-2.svg"
   width="200"
   height="151"
   inkscape:version="0.92.5 (2060ec1f9f, 2020-04-08)"><metadata
   id="metadata4003"><rdf:RDF><cc:Work
       rdf:about=""><dc:format>image/svg+xml</dc:format><dc:type
         rdf:resource="http://purl.org/dc/dcmitype/StillImage" /><dc:title></dc:title></cc:Work></rdf:RDF></metadata><defs
   id="defs4001" /><sodipodi:namedview
   pagecolor="#ffffff"
   bordercolor="#666666"
   borderopacity="1"
   objecttolerance="10"
   gridtolerance="10"
   guidetolerance="10"
   inkscape:pageopacity="0"
   inkscape:pageshadow="2"
   inkscape:window-width="2560"
   inkscape:window-height="1363"
   id="namedview3999"
   showgrid="false"
   inkscape:zoom="6.7033723"
   inkscape:cx="115.01974"
   inkscape:cy="80.229933"
   inkscape:window-x="1920"
   inkscape:window-y="40"
   inkscape:window-maximized="1"
   inkscape:current-layer="g3996" />
<style
   type="text/css"
   id="style3886">
	.st0{fill:url(#SVGID_1_);}
	.st1{fill:url(#SVGID_2_);}
	.st2{fill:url(#SVGID_3_);}
	.st3{fill:url(#SVGID_4_);}
	.st4{fill:url(#SVGID_5_);}
	.st5{fill:url(#SVGID_6_);}
	.st6{fill:url(#SVGID_7_);}
	.st7{fill:url(#SVGID_8_);}
	.st8{fill:url(#SVGID_9_);}
	.st9{fill:url(#SVGID_10_);}
	.st10{fill:url(#SVGID_11_);}
	.st11{fill:url(#SVGID_12_);}
</style>
<g
   id="g3996"
   transform="translate(-150,-174.3)">
	<g
   id="g3895">
		<linearGradient
   id="SVGID_1_"
   gradientUnits="userSpaceOnUse"
   x1="239.715"
   y1="206.7841"
   x2="239.8261"
   y2="206.7841">
			<stop
   offset="9.775439e-03"
   style="stop-color:#571D87"
   id="stop3888" />
			<stop
   offset="1"
   style="stop-color:#7B24C3"
   id="stop3890" />
		</linearGradient>
		<polygon
   class="st0"
   points="239.7,226.9 239.7,221.6 239.8,186.6 239.8,192 "
   id="polygon3893"
   style="fill:url(#SVGID_1_)" />
	</g>
	<g
   id="g3904">
		<linearGradient
   id="SVGID_2_"
   gradientUnits="userSpaceOnUse"
   x1="259.70511"
   y1="224.1524"
   x2="329.28629"
   y2="224.1524">
			<stop
   offset="9.775439e-03"
   style="stop-color:#571D87"
   id="stop3897" />
			<stop
   offset="1"
   style="stop-color:#7B24C3"
   id="stop3899" />
		</linearGradient>
		<path
   class="st1"
   d="m 329.3,226.8 -0.1,34.9 c -2.4,-10.5 -10.7,-19.8 -22.9,-26.9 -12.3,-7.1 -28.5,-11.9 -46.5,-13.2 l 0.1,-34.9 c 18.1,1.3 34.3,6.1 46.5,13.2 12.2,7 20.5,16.4 22.9,26.9 z"
   id="path3902"
   style="fill:url(#SVGID_2_)"
   inkscape:connector-curvature="0" />
	</g>
	<g
   id="g3913">
		<linearGradient
   id="SVGID_3_"
   gradientUnits="userSpaceOnUse"
   x1="239.7271"
   y1="212.3683"
   x2="259.81619"
   y2="212.3683">
			<stop
   offset="9.775439e-03"
   style="stop-color:#571D87"
   id="stop3906" />
			<stop
   offset="1"
   style="stop-color:#7B24C3"
   id="stop3908" />
		</linearGradient>
		<path
   class="st2"
   d="m 259.8,192 -0.1,34.9 c 0,3.2 -4.4,5.8 -10,5.8 -2.8,0 -5.3,-0.6 -7.1,-1.7 -1.8,-1 -2.9,-2.5 -3,-4.1 l 0.1,-34.9 c 0,1.6 1.1,3.1 3,4.1 1.8,1 4.3,1.7 7.1,1.7 5.6,0 10,-2.6 10,-5.8 z"
   id="path3911"
   style="fill:url(#SVGID_3_)"
   inkscape:connector-curvature="0" />
	</g>
	<g
   id="g3922">
		<linearGradient
   id="SVGID_4_"
   gradientUnits="userSpaceOnUse"
   x1="170.66631"
   y1="224.1581"
   x2="239.814"
   y2="224.1581">
			<stop
   offset="9.775439e-03"
   style="stop-color:#571D87"
   id="stop3915" />
			<stop
   offset="1"
   style="stop-color:#7B24C3"
   id="stop3917" />
		</linearGradient>
		<path
   class="st3"
   d="m 239.8,186.6 -0.1,34.9 c -36.2,2.7 -64.6,19.2 -69,40.1 l 0.1,-34.9 c 4.4,-20.9 32.8,-37.4 69,-40.1 z"
   id="path3920"
   style="fill:url(#SVGID_4_)"
   inkscape:connector-curvature="0" />
	</g>
	<g
   id="g3931">
		<linearGradient
   id="SVGID_5_"
   gradientUnits="userSpaceOnUse"
   x1="233.3963"
   y1="243.4632"
   x2="256.31641"
   y2="243.4632">
			<stop
   offset="9.775439e-03"
   style="stop-color:#571D87"
   id="stop3924" />
			<stop
   offset="1"
   style="stop-color:#7B24C3"
   id="stop3926" />
		</linearGradient>
		<polygon
   class="st4"
   points="256.2,263.8 233.4,258 233.5,223.1 256.3,228.9 "
   id="polygon3929"
   style="fill:url(#SVGID_5_)" />
	</g>
	<linearGradient
   id="SVGID_6_"
   gradientUnits="userSpaceOnUse"
   x1="309.92041"
   y1="252.89439"
   x2="329.35129"
   y2="252.89439">
		<stop
   offset="9.775439e-03"
   style="stop-color:#571D87"
   id="stop3933" />
		<stop
   offset="1"
   style="stop-color:#7B24C3"
   id="stop3935" />
	</linearGradient>
	<path
   class="st5"
   d="m 320,238.3 c -2.8,0 -5.3,-0.6 -7.1,-1.7 -1.8,-1 -2.9,-2.5 -2.9,-4.1 l -0.1,34.9 c 0,1.6 1.1,3 2.9,4.1 1.8,1 4.3,1.7 7.1,1.7 h 9.3 l 0.1,-34.9 z"
   id="path3938"
   style="fill:url(#SVGID_6_)"
   inkscape:connector-curvature="0" />
	<linearGradient
   id="SVGID_7_"
   gradientUnits="userSpaceOnUse"
   x1="170.7314"
   y1="252.9003"
   x2="190.0791"
   y2="252.9003">
		<stop
   offset="9.775439e-03"
   style="stop-color:#571D87"
   id="stop3940" />
		<stop
   offset="1"
   style="stop-color:#7B24C3"
   id="stop3942" />
	</linearGradient>
	<path
   class="st6"
   d="m 180.1,238.3 h -9.3 l -0.1,34.9 h 9.3 c 5.5,0 10,-2.6 10,-5.8 l 0.1,-34.9 c 0,3.2 -4.5,5.8 -10,5.8 z"
   id="path3945"
   style="fill:url(#SVGID_7_)"
   inkscape:connector-curvature="0" />
	<g
   id="g3954">
		<linearGradient
   id="SVGID_8_"
   gradientUnits="userSpaceOnUse"
   x1="256.2175"
   y1="252.9579"
   x2="266.38589"
   y2="252.9579">
			<stop
   offset="9.775439e-03"
   style="stop-color:#571D87"
   id="stop3947" />
			<stop
   offset="1"
   style="stop-color:#7B24C3"
   id="stop3949" />
		</linearGradient>
		<polygon
   class="st7"
   points="266.3,277 256.2,263.8 256.3,228.9 266.4,242.1 "
   id="polygon3952"
   style="fill:url(#SVGID_8_)" />
	</g>
	<linearGradient
   id="SVGID_9_"
   gradientUnits="userSpaceOnUse"
   x1="203.9653"
   y1="252.7186"
   x2="295.4371"
   y2="252.7186">
		<stop
   offset="9.775439e-03"
   style="stop-color:#571D87"
   id="stop3956" />
		<stop
   offset="1"
   style="stop-color:#7B24C3"
   id="stop3958" />
	</linearGradient>
	<path
   class="st8"
   d="m 294.6,255.2 c -2.1,2.9 -8,4.3 -13.1,3.1 l -50,-12.3 c -1.2,-0.3 -2.2,-0.7 -3.1,-1.2 -0.9,-0.5 -1.6,-1.1 -2.1,-1.8 L 205,214.1 c -0.6,-0.7 -0.9,-1.5 -0.9,-2.3 l -0.1,34.9 c 0,0.8 0.3,1.6 0.9,2.3 l 21.4,28.9 c 0.5,0.7 1.2,1.3 2.1,1.8 0.9,0.5 1.9,0.9 3.1,1.2 l 50,12.3 c 5.1,1.2 10.9,-0.1 13.1,-3.1 0.5,-0.7 0.8,-1.5 0.8,-2.2 l 0.1,-34.9 c -0.1,0.8 -0.3,1.5 -0.9,2.2 z"
   id="path3961"
   style="fill:url(#SVGID_9_)"
   inkscape:connector-curvature="0" />
	<g
   id="g3985">
		<g
   id="g3972">
			<linearGradient
   id="SVGID_10_"
   gradientUnits="userSpaceOnUse"
   x1="422.2301"
   y1="354.5592"
   x2="196.7179"
   y2="194.7592">
				<stop
   offset="0"
   style="stop-color:#FFFFFF"
   id="stop3963" />
				<stop
   offset="9.775439e-03"
   style="stop-color:#6B3D93"
   id="stop3965" />
				<stop
   offset="1"
   style="stop-color:#CA65FF"
   id="stop3967" />
			</linearGradient>
			<path
   class="st9"
   d="m 350,232.5 c 0.2,32 -44.4,57.9 -99.6,57.9 -27.6,0 -52.6,-6.5 -70.8,-17 -18.1,-10.5 -29.4,-24.9 -29.5,-40.9 -0.2,-32 44.4,-57.9 99.6,-57.9 27.6,0 52.6,6.5 70.8,17 18.1,10.5 29.4,25 29.5,40.9 z m -89.7,46 c 36.2,-2.7 64.6,-19.2 69,-40.1 H 320 c -2.8,0 -5.3,-0.6 -7.1,-1.7 -1.8,-1 -2.9,-2.5 -2.9,-4.1 0,-3.2 4.4,-5.8 10,-5.8 h 9.3 C 326.9,216.3 318.6,207 306.4,199.9 294.1,192.8 277.9,188 259.9,186.7 v 5.4 c 0,3.2 -4.4,5.8 -10,5.8 -2.8,0 -5.3,-0.6 -7.1,-1.7 -1.8,-1 -2.9,-2.5 -3,-4.1 v -5.4 c -36.2,2.7 -64.6,19.2 -69,40.1 h 9.3 c 2.8,0 5.3,0.6 7.1,1.7 1.8,1 2.9,2.5 2.9,4.1 0,3.2 -4.4,5.8 -10,5.8 h -9.3 c 2.3,10.5 10.7,19.8 22.9,26.9 12.3,7.1 28.5,11.9 46.6,13.2 v -5.4 c 0,-3.2 4.4,-5.8 10,-5.8 2.8,0 5.3,0.6 7.1,1.7 1.8,1 2.9,2.5 2.9,4.1 v 5.4"
   id="path3970"
   style="fill:url(#SVGID_10_)"
   inkscape:connector-curvature="0" />
		</g>
		<g
   id="g3983">
			<linearGradient
   id="SVGID_11_"
   gradientUnits="userSpaceOnUse"
   x1="422.21521"
   y1="354.5802"
   x2="196.70309"
   y2="194.7802">
				<stop
   offset="0"
   style="stop-color:#FFFFFF"
   id="stop3974" />
				<stop
   offset="9.775439e-03"
   style="stop-color:#6B3D93"
   id="stop3976" />
				<stop
   offset="1"
   style="stop-color:#CA65FF"
   id="stop3978" />
			</linearGradient>
			<path
   class="st10"
   d="m 294.6,250.7 c 1.1,1.4 1.1,3.1 0,4.5 -2.1,2.9 -8,4.3 -13.1,3.1 l -50,-12.3 c -1.2,-0.3 -2.2,-0.7 -3.1,-1.2 -0.9,-0.5 -1.6,-1.1 -2.1,-1.8 L 205,214.1 c -0.6,-0.7 -0.9,-1.5 -0.9,-2.3 0,-1.5 1.1,-3 3,-4.1 2.9,-1.7 7.2,-2.1 11,-1.2 l 50,12.3 c 1.2,0.3 2.2,0.7 3.1,1.2 0.9,0.5 1.6,1.1 2.1,1.8 z m -51,-14.4 22.8,5.8 -10.1,-13.2 -22.8,-5.8 10.1,13.2"
   id="path3981"
   style="fill:url(#SVGID_11_)"
   inkscape:connector-curvature="0" />
		</g>
	</g>
	<g
   id="g3994">
		<linearGradient
   id="SVGID_12_"
   gradientUnits="userSpaceOnUse"
   x1="150"
   y1="278.9472"
   x2="350"
   y2="278.9472">
			<stop
   offset="9.775439e-03"
   style="stop-color:#571D87"
   id="stop3987" />
			<stop
   offset="1"
   style="stop-color:#7B24C3"
   id="stop3989" />
		</linearGradient>
		<path
   class="st11"
   d="m 350,232.5 -0.1,34.9 c 0.2,32 -44.4,57.9 -99.6,57.9 -27.6,0 -52.6,-6.5 -70.8,-17 -18.1,-10.5 -29.4,-24.9 -29.5,-40.9 l 0.1,-34.9 c 0.1,16 11.4,30.5 29.5,40.9 18.1,10.5 43.2,17 70.8,17 55.2,0 99.8,-25.9 99.6,-57.9 z"
   id="path3992"
   style="fill:url(#SVGID_12_)"
   inkscape:connector-curvature="0" />
	</g>
</g>
</svg>