<?xml version="1.0" encoding="UTF-8"?>
<svg width="157px" height="84px" viewBox="0 0 157 84" version="1.1" xmlns="http://www.w3.org/2000/svg" xmlns:xlink="http://www.w3.org/1999/xlink">
    <title>logo-pyxis</title>
    <defs>
        <polygon id="path-1" points="0 83.4994821 155.90963 83.4994821 155.90963 0 0 0"></polygon>
    </defs>
    <g id="Homepage-Pyxis" stroke="none" stroke-width="1" fill="none" fill-rule="evenodd">
        <g id="home-pyxis" transform="translate(-636.000000, -212.000000)">
            <g id="Group-3" transform="translate(545.000000, 120.000000)">
                <g id="Group-2" transform="translate(89.000000, 92.000000)">
                    <g id="Group-31" transform="translate(2.222222, 0.000000)">
                        <path d="M44.0971111,16.0061795 C43.2971111,14.071983 44.5637778,12.1377866 46.6304444,12.1377866 C47.6963704,12.1377866 48.563037,12.8047509 49.1637778,14.071983 L59.4963704,37.881867 C59.6963704,38.2153491 59.828963,38.2153491 60.0297037,37.881867 L69.428963,14.2720723 C69.9622963,12.8714473 70.828963,12.1377866 72.0956296,12.1377866 C74.1622963,12.1377866 75.428963,14.1386795 74.628963,16.0061795 L62.0963704,46.4182688 C59.6297037,52.3542509 55.8297037,57.2897866 52.8297037,59.0905902 C51.963037,59.6234205 51.163037,59.8909473 50.4297037,59.8909473 C49.0297037,59.8909473 47.763037,58.8905009 47.763037,57.356483 C47.763037,56.2893402 48.163037,55.488983 49.0297037,55.021367 C52.563037,52.9545188 55.163037,49.6196973 56.763037,44.9516884 L44.0971111,16.0061795 Z" id="Fill-1" fill="#4D5969"></path>
                        <path d="M105.927926,47.4184188 C105.061259,47.4184188 104.327926,47.0856777 103.794593,46.4179723 L93.7953333,33.6137402 L84.6027407,46.4179723 C84.0694074,47.0856777 83.3360741,47.4184188 82.4027407,47.4184188 C80.8694074,47.4184188 79.7368148,46.1519277 79.7368148,44.7505616 C79.7368148,44.0843384 79.9360741,43.4840705 80.4027407,43.0171955 L91.1360741,29.4118652 L80.9368148,16.5401955 C80.4701481,16.0725795 80.2694074,15.4730527 80.2694074,14.7386509 C80.2694074,13.4054634 81.5360741,12.1382313 82.9360741,12.1382313 C83.8027407,12.1382313 84.5360741,12.4717134 85.0694074,13.1386777 L93.7279259,25.2099902 L103.127926,13.2053741 C103.661259,12.4717134 104.461259,12.1382313 105.461259,12.1382313 C106.993852,12.1382313 108.061259,13.338767 108.061259,14.7386509 C108.061259,15.4056152 107.860519,16.005883 107.393852,16.6061509 L97.262,29.4785616 L107.927926,43.0171955 C108.394593,43.4840705 108.594593,44.0843384 108.594593,44.817258 C108.594593,46.1519277 107.461259,47.4184188 105.927926,47.4184188" id="Fill-3" fill="#4D5969"></path>
                        <path d="M122.019556,44.6177616 C122.019556,46.2184759 120.886222,47.4182705 119.286222,47.4182705 C117.886222,47.4182705 116.619556,46.2184759 116.619556,44.6177616 L116.619556,14.8726366 C116.619556,13.3386187 117.752889,12.0713866 119.286222,12.0713866 C120.819556,12.0713866 122.019556,13.3386187 122.019556,14.8726366 L122.019556,44.6177616 Z M121.619556,5.73522589 C120.352889,7.06915446 118.219556,7.06915446 116.952889,5.73522589 C115.686222,4.40129732 115.686222,2.26775268 116.952889,1.00052054 C118.219556,-0.333408036 120.352889,-0.333408036 121.619556,1.00052054 C122.952889,2.26775268 122.952889,4.40129732 121.619556,5.73522589 L121.619556,5.73522589 Z" id="Fill-5" fill="#4D5969"></path>
                        <path d="M147.034741,27.6776839 C152.968074,29.2117018 155.901407,32.3464339 155.901407,37.0811393 C155.901407,43.5506929 150.768074,47.7525679 142.968815,47.7525679 C138.102148,47.7525679 134.102148,46.4845946 131.102148,44.0168268 C130.036222,43.1497732 129.835481,41.4823625 130.568815,40.4159607 C131.568815,39.0820321 132.835481,38.8819429 134.302889,39.8823893 C137.035481,41.9499786 139.102148,42.8837286 143.435481,42.8837286 C147.901407,42.8837286 150.568815,40.5493536 150.568815,37.347925 C150.568815,35.01355 148.768074,33.4135768 145.234741,32.5465232 C142.102148,31.8128625 140.502148,31.4793804 140.435481,31.4126839 C134.168815,29.8119696 131.035481,26.6772375 131.035481,21.9417911 C131.035481,15.6056304 136.102148,11.6045857 143.501407,11.6045857 C147.368074,11.6045857 150.568815,12.5383357 153.034741,14.4725321 C154.301407,15.4729786 154.234741,17.407175 153.368074,18.2067911 C152.434741,19.2739339 151.234741,19.4073268 149.768074,18.5402732 C147.502148,17.2070857 145.368815,16.5401214 143.302148,16.5401214 C138.635481,16.5401214 136.302148,18.2742286 136.302148,21.7417018 C136.302148,23.9426839 137.702148,25.2766125 141.501407,26.3437554 L144.901407,27.1441125 L147.034741,27.6776839 Z" id="Fill-7" fill="#4D5969"></path>
                        <path d="M39.0598519,21.5721446 C38.210963,16.2571804 34.4917037,12.9223589 28.8213333,11.9248768 C26.0539259,11.4483679 23.3902222,11.5232161 20.8154074,12.0145464 C19.6546667,12.2079661 18.8213333,13.1306 18.7917037,14.3215018 C18.7620741,15.6168946 19.9672593,16.8077964 21.2768889,16.7781536 C21.4702222,16.7781536 21.6487407,16.7485107 21.8272593,16.7040464 C23.5983704,16.3016446 25.4139259,16.1830732 27.3183704,16.5254482 C31.5746667,17.2546625 33.7176296,19.5327161 34.1642963,24.5349482 C34.4465185,27.7356357 34.3124444,31.0259929 33.9257778,34.2266804 C33.4642963,38.1869661 30.8005926,40.3605286 26.6191111,40.717725 C23.405037,40.9852518 20.3398519,40.3605286 17.408,39.0947786 C16.4998519,38.7079393 16.128,38.2166089 16.1583704,37.2339482 C16.2324444,34.3459929 16.188,31.4572964 16.188,28.5693411 C16.188,26.2320018 16.1583704,23.8798411 16.2028148,21.5425018 L16.2028148,17.4636446 C16.2028148,16.0785821 14.9968889,14.9173232 13.5235556,14.8876804 C13.0776296,14.8728589 12.6605926,14.9625286 12.2887407,15.1107429 C9.22355556,16.4506 7.02133333,17.5970375 1.96133333,20.2619304 C0.0568888889,21.3038768 -0.463851852,22.8223321 0.413925926,24.2815018 C1.23244444,25.6658232 2.71985185,25.9044482 4.52133333,24.9366089 C6.58948148,23.8205554 8.70281481,22.748225 10.8457778,21.7211 C10.8902222,32.6785821 10.8605926,46.6425911 10.8754074,57.2280554 L10.8754074,57.2428768 L10.8754074,57.2576982 L10.8754074,57.3325464 L10.8902222,57.3325464 C10.9494815,58.687225 12.1102222,59.7736357 13.5383704,59.7736357 C14.9672593,59.7736357 16.1428148,58.687225 16.188,57.3325464 L16.2028148,57.3325464 C16.2176296,54.2808143 16.2028148,48.9799304 16.2028148,44.0073411 C19.1791111,44.5586982 21.8717037,45.2730911 24.6102222,45.5117161 C32.1998519,46.1668232 38.2413333,42.0575821 39.2828148,34.9262518 C39.908,30.5494839 39.7591111,25.9489125 39.0598519,21.5721446" id="Fill-9" fill="#4D5969"></path>
                        <path d="M14.9062222,72.2277116 C14.5106667,72.2277116 14.1536296,72.2966313 13.8358519,72.4337295 C13.5173333,72.5715688 13.2484444,72.7583188 13.0284444,72.9939795 C12.8084444,73.2311223 12.6380741,73.5156938 12.5180741,73.850658 C12.3965926,74.1863634 12.3365926,74.5517116 12.3365926,74.9467027 C12.3365926,75.3424348 12.3965926,75.707783 12.5180741,76.0427473 C12.6380741,76.3784527 12.8084444,76.6637652 13.0284444,76.900167 C13.2484444,77.1358277 13.5173333,77.3225777 13.8358519,77.460417 C14.1536296,77.5975152 14.5106667,77.6656938 14.9062222,77.6656938 C15.3017778,77.6656938 15.6588148,77.5975152 15.9773333,77.460417 C16.2951111,77.3225777 16.564,77.1358277 16.784,76.900167 C17.004,76.6637652 17.1736296,76.3784527 17.2943704,76.0427473 C17.4158519,75.707783 17.4758519,75.3424348 17.4758519,74.9467027 C17.4758519,74.5517116 17.4158519,74.1863634 17.2943704,73.850658 C17.1736296,73.5156938 17.004,73.2311223 16.784,72.9939795 C16.564,72.7583188 16.2951111,72.5715688 15.9773333,72.4337295 C15.6588148,72.2966313 15.3017778,72.2277116 14.9062222,72.2277116 L14.9062222,72.2277116 Z M10.8543704,71.0412563 L12.3365926,71.0412563 L12.3365926,72.1617563 L12.3699259,72.1617563 C12.6551111,71.7452741 13.0477037,71.4206848 13.5477037,71.1902116 C14.046963,70.9589973 14.5602963,70.8441313 15.0877037,70.8441313 C15.6914074,70.8441313 16.2373333,70.9478813 16.726963,71.1568634 C17.2151111,71.3658455 17.6321481,71.6563455 17.9780741,72.0298455 C18.324,72.4033455 18.5906667,72.8405777 18.7773333,73.3400598 C18.964,73.840283 19.0573333,74.3753366 19.0573333,74.9467027 C19.0573333,75.5291848 18.964,76.070908 18.7773333,76.5696491 C18.5906667,77.0698723 18.324,77.5041402 17.9780741,77.8717116 C17.6321481,78.2400241 17.2151111,78.5283009 16.726963,78.737283 C16.2373333,78.9455241 15.6914074,79.0500152 15.0877037,79.0500152 C14.5277037,79.0500152 14.0002963,78.9321848 13.5062222,78.6965241 C13.0121481,78.4593813 12.6336296,78.1384973 12.3699259,77.7323902 L12.3365926,77.7323902 L12.3365926,83.499408 L10.8543704,83.499408 L10.8543704,71.0412563 Z" id="Fill-11" fill="#7E8890"></path>
                        <path d="M20.7536296,71.0415527 L22.2358519,71.0415527 L22.2358519,72.2443116 L22.2691852,72.2443116 C22.3677037,72.0360705 22.4995556,71.8463563 22.664,71.6751688 C22.8291852,71.5054634 23.0128889,71.3602134 23.2158519,71.2394188 C23.4188148,71.1186241 23.641037,71.0230259 23.8832593,70.951142 C24.1247407,70.879258 24.3662222,70.8436866 24.6077037,70.8436866 C24.8491852,70.8436866 25.0691852,70.8762938 25.266963,70.9422491 L25.201037,72.5407402 C25.0795556,72.508133 24.9595556,72.4807134 24.8388148,72.4584813 C24.7173333,72.4369902 24.5965926,72.4258741 24.4758519,72.4258741 C23.7514074,72.4258741 23.1965926,72.6296688 22.8121481,73.0350348 C22.4277037,73.441883 22.2358519,74.074017 22.2358519,74.9306955 L22.2358519,78.8524455 L20.7536296,78.8524455 L20.7536296,71.0415527 Z" id="Fill-13" fill="#7E8890"></path>
                        <mask id="mask-2" fill="white">
                            <use xlink:href="#path-1"></use>
                        </mask>
                        <g id="Clip-16"></g>
                        <path d="M26.7985185,78.8522232 L28.2807407,78.8522232 L28.2807407,71.0413304 L26.7985185,71.0413304 L26.7985185,78.8522232 Z M26.4525926,68.2400804 C26.4525926,67.9436518 26.56,67.6879821 26.7740741,67.4738125 C26.9881481,67.2596429 27.2437037,67.1521875 27.54,67.1521875 C27.8362963,67.1521875 28.0918519,67.2596429 28.3059259,67.4738125 C28.52,67.6879821 28.6266667,67.9436518 28.6266667,68.2400804 C28.6266667,68.5365089 28.52,68.7921786 28.3059259,69.0063482 C28.0918519,69.2205179 27.8362963,69.3279732 27.54,69.3279732 C27.2437037,69.3279732 26.9881481,69.2205179 26.7740741,69.0063482 C26.56,68.7921786 26.4525926,68.5365089 26.4525926,68.2400804 L26.4525926,68.2400804 Z" id="Fill-15" fill="#7E8890" mask="url(#mask-2)"></path>
                        <path d="M30.4714815,71.0415527 L31.8551852,71.0415527 L31.8551852,72.2613563 L31.8885185,72.2613563 C31.9211111,72.1509366 32.0062963,72.0138384 32.1433333,71.8493205 C32.2803704,71.6840616 32.4566667,71.5276955 32.6707407,71.3794813 C32.8848148,71.231267 33.1374074,71.1045438 33.4285185,71.0000527 C33.7188889,70.8963027 34.0403704,70.8436866 34.3914815,70.8436866 C34.9737037,70.8436866 35.4625926,70.9644813 35.8574074,71.2068116 C36.252963,71.4484009 36.5774074,71.8100438 36.8292593,72.2932223 C37.0818519,71.8100438 37.4388889,71.4484009 37.9003704,71.2068116 C38.3618519,70.9644813 38.8277778,70.8436866 39.3003704,70.8436866 C39.9040741,70.8436866 40.3981481,70.9422491 40.7825926,71.1401152 C41.167037,71.3379813 41.4692593,71.5988384 41.6892593,71.9226866 C41.9077778,72.2472759 42.0596296,72.6148473 42.1418519,73.0276241 C42.2240741,73.4389188 42.2648148,73.8650348 42.2648148,74.3037491 L42.2648148,78.8524455 L40.7825926,78.8524455 L40.7825926,74.5023563 C40.7825926,74.2059277 40.7633333,73.9198741 40.7248148,73.6449366 C40.6862963,73.3707402 40.607037,73.1284098 40.4862963,72.9201688 C40.3655556,72.7111866 40.1951852,72.5437045 39.9759259,72.4169813 C39.7559259,72.2917402 39.4648148,72.228008 39.1025926,72.228008 C38.3885185,72.228008 37.8781481,72.4473652 37.5707407,72.8868205 C37.2633333,73.3262759 37.1092593,73.8924545 37.1092593,74.5846152 L37.1092593,78.8524455 L35.627037,78.8524455 L35.627037,74.7654366 C35.627037,74.3919366 35.6077778,74.0517848 35.5692593,73.7434991 C35.5307407,73.4359545 35.4544444,73.1699098 35.3388889,72.9446241 C35.2240741,72.7200795 35.0588889,72.5437045 34.8448148,72.4169813 C34.6307407,72.2917402 34.3425926,72.228008 33.9803704,72.228008 C33.7166667,72.228008 33.4611111,72.2806241 33.2144444,72.3843741 C32.967037,72.4888652 32.75,72.6452313 32.5633333,72.8542134 C32.3766667,73.0631955 32.2285185,73.3292402 32.1188889,73.6530884 C32.0092593,73.9776777 31.9537037,74.3593295 31.9537037,74.7987848 L31.9537037,78.8524455 L30.4714815,78.8524455 L30.4714815,71.0415527 Z" id="Fill-17" fill="#7E8890" mask="url(#mask-2)"></path>
                        <path d="M48.5571111,75.0949911 C48.2052593,75.0949911 47.846,75.1142589 47.4778519,75.1527946 C47.1104444,75.1913304 46.7756296,75.2654375 46.4734074,75.3751161 C46.1711852,75.4847946 45.9245185,75.6389375 45.7326667,75.8368036 C45.5400741,76.0346696 45.4437778,76.287375 45.4437778,76.5941786 C45.4437778,77.0454911 45.5948889,77.3693393 45.8971111,77.5672054 C46.1985926,77.7650714 46.6082222,77.8636339 47.1237778,77.8636339 C47.5304444,77.8636339 47.8763704,77.7954554 48.1615556,77.6576161 C48.4474815,77.5205179 48.6778519,77.3419196 48.8534074,77.1218214 C49.028963,76.9024643 49.1556296,76.6579107 49.2326667,76.3889018 C49.3097037,76.1198929 49.3474815,75.8531071 49.3474815,75.5892857 L49.3474815,75.0949911 L48.5571111,75.0949911 Z M44.3734074,71.9965714 C44.7904444,71.6126964 45.2734074,71.3244196 45.823037,71.1317411 C46.3719259,70.9405446 46.9208148,70.8442054 47.4697037,70.8442054 C48.0408148,70.8442054 48.5326667,70.9153482 48.9445185,71.058375 C49.3563704,71.2006607 49.6941481,71.3933393 49.9571111,71.6349286 C50.2208148,71.8765179 50.4156296,72.1536786 50.5422963,72.4664107 C50.6682222,72.7798839 50.7319259,73.1066964 50.7319259,73.4468482 L50.7319259,77.4352946 C50.7319259,77.7094911 50.7363704,77.9621964 50.7482222,78.1934107 C50.7585926,78.4238839 50.7756296,78.6439821 50.7971111,78.8522232 L49.4800741,78.8522232 C49.4467407,78.4564911 49.4304444,78.0615 49.4304444,77.6657679 L49.3971111,77.6657679 C49.0674815,78.1711786 48.6778519,78.528375 48.2282222,78.7373571 C47.7771111,78.9455982 47.2556296,79.0500893 46.663037,79.0500893 C46.3008148,79.0500893 45.9548889,79.0011786 45.6252593,78.901875 C45.2956296,78.8033125 45.0074815,78.6550982 44.7600741,78.4564911 C44.5134074,78.2593661 44.3185926,78.0148125 44.1756296,77.7235714 C44.0326667,77.4323304 43.9615556,77.0944018 43.9615556,76.7105268 C43.9615556,76.2051161 44.0741481,75.7819643 44.2993333,75.4418125 C44.5245185,75.1009196 44.8319259,74.8237589 45.2215556,74.6095893 C45.6111852,74.3954196 46.0674815,74.2412768 46.588963,74.1479018 C47.1104444,74.0545268 47.6674815,74.0070982 48.2608148,74.0070982 L49.3474815,74.0070982 L49.3474815,73.6780625 C49.3474815,73.4801964 49.3097037,73.2830714 49.2326667,73.0844643 C49.1556296,72.8873393 49.0400741,72.7087411 48.8867407,72.5486696 C48.7326667,72.3900804 48.5408148,72.2640982 48.3104444,72.1707232 C48.0793333,72.0773482 47.8045185,72.0299196 47.4867407,72.0299196 C47.2008148,72.0299196 46.9511852,72.0573393 46.7371111,72.1129196 C46.523037,72.1677589 46.3282222,72.2366786 46.1519259,72.3189375 C45.9763704,72.4004554 45.8171111,72.4967946 45.6748889,72.6072143 C45.5319259,72.7168929 45.3941481,72.8213839 45.263037,72.9199464 L44.3734074,71.9965714 Z" id="Fill-18" fill="#7E8890" mask="url(#mask-2)"></path>
                        <path d="M63.2417037,75.0457839 C63.2417037,74.6174446 63.1594815,74.2135607 62.995037,73.8341321 C62.8298519,73.4554446 62.6046667,73.1256679 62.3187407,72.8455429 C62.0335556,72.5654179 61.6987407,72.3438375 61.3142963,72.1785786 C60.9298519,72.0133196 60.5128148,71.9310607 60.0624444,71.9310607 C59.600963,71.9310607 59.1839259,72.0133196 58.8105926,72.1785786 C58.4372593,72.3438375 58.1187407,72.5654179 57.8557778,72.8455429 C57.5920741,73.1256679 57.3913333,73.4554446 57.2542963,73.8341321 C57.1165185,74.2135607 57.0483704,74.6174446 57.0483704,75.0457839 C57.0483704,75.4741232 57.1165185,75.8780071 57.2542963,76.2574357 C57.3913333,76.6361232 57.5920741,76.9659 57.8557778,77.246025 C58.1187407,77.52615 58.4372593,77.7477304 58.8105926,77.9129893 C59.1839259,78.0782482 59.600963,78.1605071 60.0624444,78.1605071 C60.5128148,78.1605071 60.9298519,78.0782482 61.3142963,77.9129893 C61.6987407,77.7477304 62.0335556,77.52615 62.3187407,77.246025 C62.6046667,76.9659 62.8298519,76.6361232 62.995037,76.2574357 C63.1594815,75.8780071 63.2417037,75.4741232 63.2417037,75.0457839 L63.2417037,75.0457839 Z M63.1424444,77.5179982 L63.1098519,77.5179982 C62.9557778,77.7810786 62.7639259,78.0093286 62.5335556,78.2020071 C62.3024444,78.3939446 62.0528148,78.553275 61.7839259,78.6792571 C61.5142963,78.8052393 61.2320741,78.8986143 60.9357778,78.9593821 C60.6387407,79.0194089 60.3476296,79.0497929 60.0624444,79.0497929 C59.4802222,79.0497929 58.9424444,78.9519714 58.4483704,78.7533643 C57.9542963,78.5554982 57.5313333,78.2783375 57.1802222,77.9211411 C56.8283704,77.5639446 56.5542963,77.1415339 56.3565185,76.6524268 C56.1587407,76.1640607 56.0602222,75.6282661 56.0602222,75.0457839 C56.0602222,74.4640429 56.1587407,73.9282482 56.3565185,73.4391411 C56.5542963,72.950775 56.8283704,72.5276232 57.1802222,72.1704268 C57.5313333,71.8132304 57.9542963,71.5360696 58.4483704,71.3382036 C58.9424444,71.1395964 59.4802222,71.041775 60.0624444,71.041775 C60.3476296,71.041775 60.6387407,71.0721589 60.9357778,71.1321857 C61.2320741,71.1929536 61.5142963,71.2863286 61.7839259,71.4123107 C62.0528148,71.5390339 62.3024444,71.6976232 62.5335556,71.8895607 C62.7639259,72.0822393 62.9557778,72.3104893 63.1098519,72.5735696 L63.1424444,72.5735696 L63.1424444,66.3945161 L64.1313333,66.3945161 L64.1313333,78.8526679 L63.1424444,78.8526679 L63.1424444,77.5179982 Z" id="Fill-19" fill="#7E8890" mask="url(#mask-2)"></path>
                        <path d="M72.3501481,74.4031268 C72.3501481,74.062975 72.2812593,73.7435732 72.1442222,73.4471446 C72.0071852,73.1514571 71.8205185,72.8898589 71.5842222,72.6645732 C71.3479259,72.4400286 71.0679259,72.2606893 70.7442222,72.1295196 C70.4205185,71.9968679 70.0775556,71.9309125 69.7145926,71.9309125 C69.1768148,71.9309125 68.7286667,72.0405911 68.3723704,72.2606893 C68.0153333,72.4807875 67.7323704,72.7334929 67.5242222,73.0188054 C67.3153333,73.3048589 67.1671852,73.5820196 67.079037,73.8510286 C66.9916296,74.1200375 66.9479259,74.3038232 66.9479259,74.4031268 L72.3501481,74.4031268 Z M73.1079259,77.4185464 C72.7234815,78.0010286 72.2486667,78.4189929 71.6834815,78.6709571 C71.1175556,78.9244036 70.4945926,79.0503857 69.8138519,79.0503857 C69.2316296,79.0503857 68.7042222,78.9518232 68.2323704,78.7532161 C67.7597778,78.5560911 67.3538519,78.2781893 67.0131111,77.9209929 C66.6731111,77.5645375 66.4123704,77.1413857 66.2308889,76.6522786 C66.0501481,76.1639125 65.9597778,75.6229304 65.9597778,75.0293321 C65.9597778,74.4579661 66.0523704,73.9310643 66.239037,73.4471446 C66.4257037,72.9647071 66.6894074,72.5437786 67.0294074,72.1865821 C67.3701481,71.8293857 67.7708889,71.5492607 68.2323704,71.3462071 C68.6931111,71.1431536 69.2042222,71.0416268 69.7642222,71.0416268 C70.3457037,71.0416268 70.8597778,71.1431536 71.3042222,71.3462071 C71.7486667,71.5492607 72.122,71.8190107 72.4242222,72.153975 C72.7264444,72.4889393 72.9538519,72.8705911 73.1079259,73.2989304 C73.2612593,73.7272696 73.3382963,74.1615375 73.3382963,74.6009929 L73.3382963,75.2924125 L66.9479259,75.2924125 C66.9479259,75.5013946 66.9886667,75.7681804 67.0708889,76.0920286 C67.1531111,76.4166179 67.3042222,76.7323143 67.5242222,77.0398589 C67.7434815,77.3474036 68.0368148,77.611225 68.404963,77.8305821 C68.7731111,78.0506804 69.2479259,78.1603589 69.8301481,78.1603589 C70.3353333,78.1603589 70.8234815,78.0395643 71.2960741,77.797975 C71.7679259,77.5563857 72.1301481,77.22735 72.3827407,76.8086446 L73.1079259,77.4185464 Z" id="Fill-20" fill="#7E8890" mask="url(#mask-2)"></path>
                        <path d="M75.3974074,76.9078741 C75.6062963,77.3147223 75.9137037,77.6252312 76.3203704,77.8394009 C76.7255556,78.0535705 77.1544444,78.1602848 77.6048148,78.1602848 C77.812963,78.1602848 78.0218519,78.1276777 78.2307407,78.0617223 C78.4388889,77.995767 78.6255556,77.902392 78.7907407,77.7815973 C78.9551852,77.6608027 79.09,77.5148116 79.1944444,77.3443652 C79.2988889,77.1739187 79.3507407,76.979758 79.3507407,76.7596598 C79.3507407,76.4076509 79.2381481,76.1445705 79.012963,75.9681955 C78.7877778,75.7933027 78.5107407,75.6562045 78.1811111,75.5569009 C77.8514815,75.4575973 77.4892593,75.3731152 77.0944444,75.3012313 C76.6988889,75.2293473 76.3366667,75.1204098 76.007037,74.9714545 C75.6774074,74.8232402 75.3996296,74.6172223 75.1751852,74.354142 C74.95,74.0895795 74.8374074,73.7168205 74.8374074,73.2329009 C74.8374074,72.8594009 74.9144444,72.5355527 75.0685185,72.2606152 C75.2218519,71.9864188 75.4225926,71.7581688 75.6692593,71.5773473 C75.9166667,71.3957848 76.1937037,71.2616509 76.5011111,71.1734634 C76.8085185,71.086017 77.1218519,71.0415527 77.4403704,71.0415527 C78.0662963,71.0415527 78.607037,71.1564188 79.0625926,71.387633 C79.5181481,71.6181063 79.8722222,71.9812313 80.1248148,72.4755259 L79.2351852,73.0016866 C79.0485185,72.6511598 78.8151852,72.3843741 78.5351852,72.2028116 C78.2551852,72.0219902 77.89,71.9308384 77.4403704,71.9308384 C77.2640741,71.9308384 77.0803704,71.9589991 76.8885185,72.0138384 C76.6959259,72.0686777 76.5233333,72.145008 76.3692593,72.2443116 C76.2151852,72.3436152 76.0862963,72.4695973 75.9825926,72.6237402 C75.8774074,72.777883 75.8255556,72.9527759 75.8255556,73.151383 C75.8255556,73.4915348 75.9381481,73.7434991 76.1633333,73.908758 C76.3885185,74.074017 76.6655556,74.2029634 76.9951852,74.2963384 C77.3248148,74.3897134 77.687037,74.469008 78.0825926,74.5349634 C78.4781481,74.6009188 78.8396296,74.707633 79.1692593,74.8558473 C79.4988889,75.0048027 79.7766667,75.2189723 80.0011111,75.4990973 C80.2262963,75.7792223 80.3388889,76.1779188 80.3388889,76.6937045 C80.3388889,77.0894366 80.2648148,77.4325527 80.1166667,77.7237937 C79.9685185,78.0150348 79.7648148,78.2588473 79.507037,78.4567134 C79.2492593,78.6545795 78.9551852,78.8035348 78.6255556,78.9013563 C78.2966667,79.0006598 77.9507407,79.0503116 77.5885185,79.0503116 C76.9292593,79.0503116 76.3277778,78.9243295 75.7848148,78.670883 C75.2411111,78.4189188 74.8211111,78.0283741 74.5248148,77.5014723 L75.3974074,76.9078741 Z" id="Fill-21" fill="#7E8890" mask="url(#mask-2)"></path>
                        <path d="M82.3977778,78.8522232 L83.3859259,78.8522232 L83.3859259,71.2391964 L82.3977778,71.2391964 L82.3977778,78.8522232 Z M82.1503704,68.2237768 C82.1503704,68.0147946 82.2222222,67.8391607 82.3644444,67.696875 C82.5081481,67.5531071 82.682963,67.4827054 82.8918519,67.4827054 C83.1,67.4827054 83.2762963,67.5531071 83.4192593,67.696875 C83.5614815,67.8391607 83.6333333,68.0147946 83.6333333,68.2237768 C83.6333333,68.4327589 83.5614815,68.6083929 83.4192593,68.7506786 C83.2762963,68.8937054 83.1,68.9655893 82.8918519,68.9655893 C82.682963,68.9655893 82.5081481,68.8937054 82.3644444,68.7506786 C82.2222222,68.6083929 82.1503704,68.4327589 82.1503704,68.2237768 L82.1503704,68.2237768 Z" id="Fill-22" fill="#7E8890" mask="url(#mask-2)"></path>
                        <path d="M92.708963,74.9466286 C92.708963,74.5301464 92.6297037,74.1366375 92.4704444,73.768325 C92.3111852,73.4007536 92.0971111,73.0820929 91.8282222,72.8130839 C91.5585926,72.544075 91.2408148,72.3299054 90.8726667,72.170575 C90.5037778,72.0112446 90.1119259,71.9312089 89.6948889,71.9312089 C89.2771111,71.9312089 88.8845185,72.0112446 88.5171111,72.170575 C88.148963,72.3299054 87.8304444,72.544075 87.5615556,72.8130839 C87.2926667,73.0820929 87.0778519,73.4007536 86.9193333,73.768325 C86.7600741,74.1366375 86.6800741,74.5301464 86.6800741,74.9466286 C86.6800741,75.3645929 86.7600741,75.7573607 86.9193333,76.1256732 C87.0778519,76.4932446 87.2926667,76.8119054 87.5615556,77.0809143 C87.8304444,77.3499232 88.148963,77.5640929 88.5171111,77.7234232 C88.8845185,77.8827536 89.2771111,77.9620482 89.6948889,77.9620482 C90.1119259,77.9620482 90.5037778,77.8827536 90.8726667,77.7234232 C91.2408148,77.5640929 91.5585926,77.3499232 91.8282222,77.0809143 C92.0971111,76.8119054 92.3111852,76.4932446 92.4704444,76.1256732 C92.6297037,75.7573607 92.708963,75.3645929 92.708963,74.9466286 L92.708963,74.9466286 Z M93.6645185,78.3585214 C93.6645185,79.3026464 93.5267407,80.06595 93.2519259,80.6484321 C92.9778519,81.2301732 92.6348889,81.6814857 92.223037,82.0001464 C91.8111852,82.3180661 91.368963,82.5322357 90.8971111,82.6426554 C90.4245185,82.7523339 89.9963704,82.8071732 89.6119259,82.8071732 C89.2282222,82.8071732 88.8519259,82.7716018 88.4837778,82.7004589 C88.1163704,82.628575 87.7674815,82.524825 87.4385926,82.3869857 C87.1082222,82.2491464 86.808963,82.0824054 86.5408148,81.8845393 C86.2711852,81.6874143 86.0378519,81.4613875 85.8408148,81.2086821 L86.6141481,80.4839143 C86.966,80.9782089 87.4052593,81.3405929 87.9326667,81.5710661 C88.4593333,81.8022804 89.0193333,81.9171464 89.6119259,81.9171464 C90.1171111,81.9171464 90.543037,81.8511911 90.888963,81.7200214 C91.2348889,81.5881107 91.5208148,81.4154411 91.7452593,81.2005304 C91.9704444,80.9863607 92.146,80.7499589 92.2726667,80.4920661 C92.3985926,80.2341732 92.4919259,79.9755393 92.5526667,79.7169054 C92.6126667,79.4597536 92.6482222,79.2152 92.6600741,78.9839857 C92.6704444,78.7535125 92.6756296,78.5667625 92.6756296,78.4237357 L92.6756296,77.3699321 L92.643037,77.3699321 C92.3571111,77.8308786 91.9704444,78.1932625 91.4822963,78.4563429 C90.9934074,78.7209054 90.4193333,78.8528161 89.7608148,78.8528161 C89.2008148,78.8528161 88.6734074,78.7512893 88.1793333,78.5474946 C87.6852593,78.3444411 87.2541481,78.0643161 86.8867407,77.7071196 C86.5185926,77.3499232 86.2274815,76.9356643 86.0134074,76.4628607 C85.7993333,75.9907982 85.6919259,75.4853875 85.6919259,74.9466286 C85.6919259,74.4086107 85.7993333,73.9032 86.0134074,73.4303964 C86.2274815,72.9583339 86.5185926,72.5470393 86.8867407,72.1950304 C87.2541481,71.8437625 87.6852593,71.5636375 88.1793333,71.3539143 C88.6734074,71.1456732 89.2008148,71.0411821 89.7608148,71.0411821 C90.4193333,71.0411821 90.9934074,71.1730929 91.4822963,71.4369143 C91.9704444,71.7007357 92.3571111,72.0631196 92.643037,72.5240661 L92.6756296,72.5240661 L92.6756296,71.2390482 L93.6645185,71.2390482 L93.6645185,78.3585214 Z" id="Fill-23" fill="#7E8890" mask="url(#mask-2)"></path>
                        <path d="M95.9207407,73.3812634 C95.9207407,73.2389777 95.9148148,73.065567 95.9044444,72.8625134 C95.8933333,72.6587187 95.8851852,72.453442 95.8792593,72.2444598 C95.8740741,72.0362187 95.8659259,71.8405759 95.8548148,71.6597545 C95.8437037,71.478192 95.8385185,71.3381295 95.8385185,71.2388259 L96.8266667,71.2388259 C96.837037,71.5248795 96.8459259,71.7990759 96.8511111,72.0636384 C96.857037,72.3267187 96.8703704,72.4971652 96.8925926,72.5734955 L96.9422222,72.5734955 C97.14,72.1570134 97.4688889,71.7968527 97.9303704,71.4944955 C98.3911111,71.1928795 98.9296296,71.0417009 99.5444444,71.0417009 C100.137037,71.0417009 100.620741,71.1350759 100.994074,71.3218259 C101.367407,71.5085759 101.660741,71.7531295 101.874815,72.0547455 C102.088889,72.3571027 102.237037,72.7061473 102.32,73.1011384 C102.402222,73.4968705 102.443704,73.9029777 102.443704,74.320942 L102.443704,78.8525938 L101.455556,78.8525938 L101.455556,74.3698527 C101.455556,74.0630491 101.428148,73.7636562 101.372593,73.4724152 C101.317778,73.1811741 101.221481,72.920317 101.084444,72.6891027 C100.946667,72.4586295 100.754815,72.2748438 100.507407,72.1370045 C100.260741,71.9999062 99.94,71.9309866 99.5444444,71.9309866 C99.1814815,71.9309866 98.8385185,71.9947187 98.5148148,72.1207009 C98.1903704,72.2474241 97.9111111,72.4393616 97.6748148,72.6972545 C97.4385185,72.9558884 97.2518519,73.2797366 97.1148148,73.6702813 C96.9777778,74.0600848 96.9088889,74.518067 96.9088889,75.0457098 L96.9088889,78.8525938 L95.9207407,78.8525938 L95.9207407,73.3812634 Z" id="Fill-24" fill="#7E8890" mask="url(#mask-2)"></path>
                        <path d="M109.048593,76.9078741 C109.256741,77.3147223 109.564148,77.6252312 109.970815,77.8394009 C110.376741,78.0535705 110.804889,78.1602848 111.255259,78.1602848 C111.464148,78.1602848 111.673037,78.1276777 111.881185,78.0617223 C112.089333,77.995767 112.276741,77.902392 112.441185,77.7815973 C112.60637,77.6608027 112.740444,77.5148116 112.844889,77.3443652 C112.949333,77.1739187 113.001926,76.979758 113.001926,76.7596598 C113.001926,76.4076509 112.889333,76.1445705 112.664148,75.9681955 C112.438963,75.7933027 112.161185,75.6562045 111.832296,75.5569009 C111.502667,75.4575973 111.140444,75.3731152 110.744889,75.3012313 C110.350074,75.2293473 109.987852,75.1204098 109.657481,74.9714545 C109.328593,74.8232402 109.050815,74.6172223 108.82563,74.354142 C108.601185,74.0895795 108.488593,73.7168205 108.488593,73.2329009 C108.488593,72.8594009 108.56563,72.5355527 108.718963,72.2606152 C108.873037,71.9864188 109.073037,71.7581688 109.320444,71.5773473 C109.567111,71.3957848 109.844148,71.2616509 110.151556,71.1734634 C110.458963,71.086017 110.772296,71.0415527 111.090815,71.0415527 C111.717481,71.0415527 112.257481,71.1564188 112.713037,71.387633 C113.168593,71.6181063 113.522667,71.9812313 113.776,72.4755259 L112.88637,73.0016866 C112.699704,72.6511598 112.46637,72.3843741 112.18563,72.2028116 C111.90563,72.0219902 111.540444,71.9308384 111.090815,71.9308384 C110.915259,71.9308384 110.730815,71.9589991 110.538963,72.0138384 C110.347111,72.0686777 110.174519,72.145008 110.020444,72.2443116 C109.86637,72.3436152 109.737481,72.4695973 109.633037,72.6237402 C109.528593,72.777883 109.476741,72.9527759 109.476741,73.151383 C109.476741,73.4915348 109.588593,73.7434991 109.813778,73.908758 C110.039704,74.074017 110.316741,74.2029634 110.64563,74.2963384 C110.976,74.3897134 111.338222,74.469008 111.733037,74.5349634 C112.128593,74.6009188 112.490815,74.707633 112.820444,74.8558473 C113.150074,75.0048027 113.427111,75.2189723 113.652296,75.4990973 C113.877481,75.7792223 113.990074,76.1779188 113.990074,76.6937045 C113.990074,77.0894366 113.915259,77.4325527 113.767111,77.7237937 C113.618963,78.0150348 113.416,78.2588473 113.158222,78.4567134 C112.899704,78.6545795 112.60637,78.8035348 112.276741,78.9013563 C111.947111,79.0006598 111.601185,79.0503116 111.238963,79.0503116 C110.579704,79.0503116 109.978963,78.9243295 109.435259,78.670883 C108.891556,78.4189188 108.472296,78.0283741 108.175259,77.5014723 L109.048593,76.9078741 Z" id="Fill-25" fill="#7E8890" mask="url(#mask-2)"></path>
                        <path d="M118.025778,81.2088304 C117.83837,81.703125 117.580593,82.0929286 117.250963,82.3789821 C116.922074,82.6642946 116.482815,82.8073214 115.933926,82.8073214 C115.768741,82.8073214 115.603556,82.7939821 115.439111,82.7665625 C115.274667,82.7384018 115.115407,82.7028304 114.961333,82.6591071 L115.060593,81.7364732 C115.202815,81.7801964 115.348741,81.8209554 115.496889,81.8594911 C115.645037,81.8987679 115.796148,81.9172946 115.949481,81.9172946 C116.125778,81.9172946 116.282074,81.8787589 116.419111,81.8024286 C116.556889,81.7246161 116.674667,81.6260536 116.773926,81.5052589 C116.871704,81.3844643 116.95763,81.2503304 117.028741,81.101375 C117.099852,80.9531607 117.163556,80.8019821 117.21837,80.6485804 L117.910222,78.8848304 L114.813185,71.2391964 L115.916889,71.2391964 L118.43763,77.6494643 L120.890963,71.2391964 L121.945778,71.2391964 L118.025778,81.2088304 Z" id="Fill-26" fill="#7E8890" mask="url(#mask-2)"></path>
                        <path d="M123.362148,76.9078741 C123.570296,77.3147223 123.877704,77.6252312 124.28437,77.8394009 C124.690296,78.0535705 125.118444,78.1602848 125.568815,78.1602848 C125.777704,78.1602848 125.986593,78.1276777 126.194741,78.0617223 C126.40363,77.995767 126.590296,77.902392 126.755481,77.7815973 C126.919926,77.6608027 127.054,77.5148116 127.158444,77.3443652 C127.26363,77.1739187 127.315481,76.979758 127.315481,76.7596598 C127.315481,76.4076509 127.202889,76.1445705 126.977704,75.9681955 C126.752519,75.7933027 126.474741,75.6562045 126.145852,75.5569009 C125.816222,75.4575973 125.454,75.3731152 125.058444,75.3012313 C124.66363,75.2293473 124.301407,75.1204098 123.971037,74.9714545 C123.642148,74.8232402 123.36437,74.6172223 123.139926,74.354142 C122.914741,74.0895795 122.802148,73.7168205 122.802148,73.2329009 C122.802148,72.8594009 122.879185,72.5355527 123.033259,72.2606152 C123.186593,71.9864188 123.386593,71.7581688 123.634,71.5773473 C123.880667,71.3957848 124.157704,71.2616509 124.465852,71.1734634 C124.772519,71.086017 125.085852,71.0415527 125.40437,71.0415527 C126.031037,71.0415527 126.571037,71.1564188 127.026593,71.387633 C127.482148,71.6181063 127.836963,71.9812313 128.089556,72.4755259 L127.199926,73.0016866 C127.013259,72.6511598 126.779926,72.3843741 126.499926,72.2028116 C126.219926,72.0219902 125.854741,71.9308384 125.40437,71.9308384 C125.228815,71.9308384 125.04437,71.9589991 124.852519,72.0138384 C124.660667,72.0686777 124.488074,72.145008 124.334,72.2443116 C124.179926,72.3436152 124.051037,72.4695973 123.946593,72.6237402 C123.842148,72.777883 123.790296,72.9527759 123.790296,73.151383 C123.790296,73.4915348 123.902148,73.7434991 124.128074,73.908758 C124.353259,74.074017 124.630296,74.2029634 124.959185,74.2963384 C125.289556,74.3897134 125.651778,74.469008 126.046593,74.5349634 C126.442148,74.6009188 126.80437,74.707633 127.134,74.8558473 C127.46363,75.0048027 127.740667,75.2189723 127.965852,75.4990973 C128.191037,75.7792223 128.30363,76.1779188 128.30363,76.6937045 C128.30363,77.0894366 128.228815,77.4325527 128.081407,77.7237937 C127.933259,78.0150348 127.729556,78.2588473 127.471778,78.4567134 C127.213259,78.6545795 126.919926,78.8035348 126.590296,78.9013563 C126.260667,79.0006598 125.914741,79.0503116 125.552519,79.0503116 C124.894,79.0503116 124.292519,78.9243295 123.748815,78.670883 C123.205111,78.4189188 122.785852,78.0283741 122.488815,77.5014723 L123.362148,76.9078741 Z" id="Fill-27" fill="#7E8890" mask="url(#mask-2)"></path>
                        <path d="M133.920593,72.1292973 L131.745778,72.1292973 L131.745778,77.0892884 C131.745778,77.4294402 131.839111,77.6940027 132.025778,77.8807527 C132.212444,78.0675027 132.470963,78.1608777 132.799852,78.1608777 C132.986519,78.1608777 133.176148,78.1349402 133.368741,78.0860295 C133.560593,78.0371188 133.744296,77.9741277 133.920593,77.8963152 L134.002074,78.786342 C133.815407,78.8522973 133.601333,78.9123241 133.359852,78.9679045 C133.11837,79.0227438 132.904296,79.0501634 132.71763,79.0501634 C132.365778,79.0501634 132.064296,78.9982884 131.811704,78.8937973 C131.559111,78.7893063 131.356148,78.6492438 131.202815,78.4736098 C131.048741,78.2979759 130.936148,78.091958 130.865037,77.8555563 C130.793185,77.6191545 130.75763,77.3634848 130.75763,77.0892884 L130.75763,72.1292973 L129.110963,72.1292973 L129.110963,71.2392705 L130.75763,71.2392705 L130.75763,69.0479223 L131.745778,69.0479223 L131.745778,71.2392705 L133.920593,71.2392705 L133.920593,72.1292973 Z" id="Fill-28" fill="#7E8890" mask="url(#mask-2)"></path>
                        <path d="M141.480593,74.4031268 C141.480593,74.062975 141.411704,73.7435732 141.274667,73.4471446 C141.136889,73.1514571 140.950222,72.8898589 140.714667,72.6645732 C140.47763,72.4400286 140.19837,72.2606893 139.874667,72.1295196 C139.550963,71.9968679 139.208,71.9309125 138.845037,71.9309125 C138.307259,71.9309125 137.859111,72.0405911 137.502815,72.2606893 C137.145037,72.4807875 136.862815,72.7334929 136.653926,73.0188054 C136.445778,73.3048589 136.29763,73.5820196 136.210222,73.8510286 C136.122074,74.1200375 136.07763,74.3038232 136.07763,74.4031268 L141.480593,74.4031268 Z M142.23763,77.4185464 C141.853926,78.0010286 141.37837,78.4189929 140.813926,78.6709571 C140.248,78.9244036 139.624296,79.0503857 138.943556,79.0503857 C138.362074,79.0503857 137.834667,78.9518232 137.362074,78.7532161 C136.890222,78.5560911 136.484296,78.2781893 136.143556,77.9209929 C135.803556,77.5645375 135.542074,77.1413857 135.361333,76.6522786 C135.179852,76.1639125 135.089481,75.6229304 135.089481,75.0293321 C135.089481,74.4579661 135.182815,73.9310643 135.369481,73.4471446 C135.556148,72.9647071 135.819111,72.5437786 136.159852,72.1865821 C136.500593,71.8293857 136.901333,71.5492607 137.362074,71.3462071 C137.823556,71.1431536 138.334667,71.0416268 138.894667,71.0416268 C139.476148,71.0416268 139.989481,71.1431536 140.434667,71.3462071 C140.879111,71.5492607 141.252444,71.8190107 141.554667,72.153975 C141.856889,72.4889393 142.084296,72.8705911 142.23763,73.2989304 C142.391704,73.7272696 142.468741,74.1615375 142.468741,74.6009929 L142.468741,75.2924125 L136.07763,75.2924125 C136.07763,75.5013946 136.119111,75.7681804 136.201333,76.0920286 C136.283556,76.4166179 136.434667,76.7323143 136.653926,77.0398589 C136.873926,77.3474036 137.168,77.611225 137.535407,77.8305821 C137.903556,78.0506804 138.37837,78.1603589 138.960593,78.1603589 C139.465037,78.1603589 139.953926,78.0395643 140.426519,77.797975 C140.89837,77.5563857 141.260593,77.22735 141.513185,76.8086446 L142.23763,77.4185464 Z" id="Fill-29" fill="#7E8890" mask="url(#mask-2)"></path>
                        <path d="M144.511556,73.3812634 C144.511556,73.2389777 144.50563,73.065567 144.495259,72.8625134 C144.484148,72.6587187 144.475259,72.453442 144.470074,72.2444598 C144.464889,72.0362187 144.456741,71.8405759 144.44563,71.6597545 C144.434519,71.478192 144.429333,71.3381295 144.429333,71.2388259 L145.417481,71.2388259 C145.427852,71.5248795 145.436,71.7990759 145.441926,72.0636384 C145.447852,72.3267187 145.461185,72.4971652 145.483407,72.5734955 L145.533037,72.5734955 C145.730815,72.1570134 146.059704,71.7968527 146.521185,71.4944955 C146.981926,71.1928795 147.520444,71.0417009 148.135259,71.0417009 C148.639704,71.0417009 149.101185,71.1706473 149.518963,71.4285402 C149.936,71.6871741 150.237481,72.1066205 150.424148,72.6891027 C150.66637,72.1184777 151.02563,71.7005134 151.503407,71.436692 C151.981185,71.1736116 152.484148,71.0417009 153.010815,71.0417009 C153.603407,71.0417009 154.087111,71.1350759 154.460444,71.3218259 C154.833778,71.5085759 155.127111,71.7531295 155.341185,72.0547455 C155.555259,72.3571027 155.703407,72.7061473 155.78637,73.1011384 C155.868593,73.4968705 155.910074,73.9029777 155.910074,74.320942 L155.910074,78.8525938 L154.921926,78.8525938 L154.921926,74.3698527 C154.921926,74.0630491 154.894519,73.7636562 154.838963,73.4724152 C154.784148,73.1811741 154.687852,72.920317 154.550815,72.6891027 C154.413037,72.4586295 154.221185,72.2748438 153.973778,72.1370045 C153.727111,71.9999062 153.40637,71.9309866 153.010815,71.9309866 C152.550074,71.9309866 152.170815,72.0162098 151.873778,72.1866562 C151.577481,72.3571027 151.344148,72.5734955 151.174519,72.838058 C151.004148,73.1011384 150.883407,73.387192 150.811556,73.6947366 C150.740444,74.0022812 150.704148,74.2927813 150.704148,74.5684598 L150.704148,78.8525938 L149.716,78.8525938 L149.716,74.2712902 C149.716,73.5680134 149.587852,73.0018348 149.329333,72.5734955 C149.070815,72.1451562 148.673037,71.9309866 148.135259,71.9309866 C147.772296,71.9309866 147.429333,71.9947187 147.10563,72.1207009 C146.781185,72.2474241 146.501926,72.4393616 146.26563,72.6972545 C146.029333,72.9558884 145.842667,73.2797366 145.70563,73.6702813 C145.568593,74.0600848 145.499704,74.518067 145.499704,75.0457098 L145.499704,78.8525938 L144.511556,78.8525938 L144.511556,73.3812634 Z" id="Fill-30" fill="#7E8890" mask="url(#mask-2)"></path>
                    </g>
                </g>
            </g>
        </g>
    </g>
</svg>