<?xml version="1.0" encoding="UTF-8"?>
<svg width="138px" height="74px" viewBox="0 0 138 74" version="1.1" xmlns="http://www.w3.org/2000/svg" xmlns:xlink="http://www.w3.org/1999/xlink">
    <title>logo-pyxis</title>
    <defs>
        <polygon id="path-1" points="0 73.0294444 136.420926 73.0294444 136.420926 0 0 0"></polygon>
    </defs>
    <g id="Homepage-Pyxis" stroke="none" stroke-width="1" fill="none" fill-rule="evenodd">
        <g id="home-pyxis" transform="translate(-73.000000, -50.000000)">
            <g id="Group-4" transform="translate(72.000000, 50.000000)">
                <g id="Group" transform="translate(0.000000, -0.000000)">
                    <g id="logo-pyxis" transform="translate(0.000000, -0.000000)">
                        <g id="Group-31" transform="translate(1.944444, 0.000000)">
                            <path d="M38.5849722,13.9991574 C37.8849722,12.3074907 38.9933056,10.6158241 40.8016389,10.6158241 C41.7343241,10.6158241 42.4926574,11.1991574 43.0183056,12.3074907 L52.0593241,33.1318426 C52.2343241,33.4235093 52.3503426,33.4235093 52.5259907,33.1318426 L60.7503426,12.4824907 C61.2170093,11.2574907 61.9753426,10.6158241 63.0836759,10.6158241 C64.8920093,10.6158241 66.0003426,12.3658241 65.3003426,13.9991574 L54.3343241,40.5978611 C52.1759907,45.7895278 48.8509907,50.1061944 46.2259907,51.6811944 C45.4676574,52.147213 44.7676574,52.3811944 44.1259907,52.3811944 C42.9009907,52.3811944 41.7926574,51.5061944 41.7926574,50.1645278 C41.7926574,49.2311944 42.1426574,48.5311944 42.9009907,48.122213 C45.9926574,46.3145278 48.2676574,43.3978611 49.6676574,39.3151759 L38.5849722,13.9991574 Z" id="Fill-1" fill="#8334C2"></path>
                            <path d="M92.6869352,41.4726019 C91.9286019,41.4726019 91.2869352,41.1815833 90.8202685,40.5976019 L82.0709167,29.3988981 L74.0273981,40.5976019 C73.5607315,41.1815833 72.9190648,41.4726019 72.1023981,41.4726019 C70.7607315,41.4726019 69.769713,40.3649167 69.769713,39.1392685 C69.769713,38.5565833 69.9440648,38.0315833 70.3523981,37.62325 L79.7440648,25.7238981 L70.819713,14.466213 C70.4113796,14.0572315 70.2357315,13.5328796 70.2357315,12.8905648 C70.2357315,11.7245463 71.3440648,10.616213 72.5690648,10.616213 C73.3273981,10.616213 73.9690648,10.9078796 74.4357315,11.491213 L82.0119352,22.0488981 L90.2369352,11.5495463 C90.7036019,10.9078796 91.4036019,10.616213 92.2786019,10.616213 C93.6196204,10.616213 94.5536019,11.666213 94.5536019,12.8905648 C94.5536019,13.4738981 94.3779537,13.9988981 93.9696204,14.5238981 L85.10425,25.7822315 L94.4369352,37.62325 C94.8452685,38.0315833 95.0202685,38.5565833 95.0202685,39.1976019 C95.0202685,40.3649167 94.0286019,41.4726019 92.6869352,41.4726019" id="Fill-3" fill="#8334C2"></path>
                            <path d="M106.767111,39.0231204 C106.767111,40.4231204 105.775444,41.4724722 104.375444,41.4724722 C103.150444,41.4724722 102.042111,40.4231204 102.042111,39.0231204 L102.042111,13.00775 C102.042111,11.6660833 103.033778,10.55775 104.375444,10.55775 C105.717111,10.55775 106.767111,11.6660833 106.767111,13.00775 L106.767111,39.0231204 Z M106.417111,5.01608333 C105.308778,6.18275 103.442111,6.18275 102.333778,5.01608333 C101.225444,3.84941667 101.225444,1.98339815 102.333778,0.875064815 C103.442111,-0.291601852 105.308778,-0.291601852 106.417111,0.875064815 C107.583778,1.98339815 107.583778,3.84941667 106.417111,5.01608333 L106.417111,5.01608333 Z" id="Fill-5" fill="#8334C2"></path>
                            <path d="M128.655398,24.2071667 C133.847065,25.5488333 136.413731,28.2905 136.413731,32.4315185 C136.413731,38.0898519 131.922065,41.7648519 125.097713,41.7648519 C120.83938,41.7648519 117.33938,40.6558704 114.71438,38.497537 C113.781694,37.7392037 113.606046,36.2808704 114.247713,35.3481852 C115.122713,34.1815185 116.231046,34.0065185 117.515028,34.8815185 C119.906046,36.6898519 121.71438,37.5065185 125.506046,37.5065185 C129.413731,37.5065185 131.747713,35.4648519 131.747713,32.6648519 C131.747713,30.6231852 130.172065,29.2238333 127.080398,28.4655 C124.33938,27.8238333 122.93938,27.5321667 122.881046,27.4738333 C117.397713,26.0738333 114.656046,23.3321667 114.656046,19.1905 C114.656046,13.6488333 119.08938,10.1494815 125.563731,10.1494815 C128.947065,10.1494815 131.747713,10.9661481 133.905398,12.6578148 C135.013731,13.5328148 134.955398,15.2244815 134.197065,15.9238333 C133.380398,16.8571667 132.330398,16.9738333 131.047065,16.2155 C129.06438,15.0494815 127.197713,14.4661481 125.38938,14.4661481 C121.306046,14.4661481 119.26438,15.9828148 119.26438,19.0155 C119.26438,20.9405 120.48938,22.1071667 123.813731,23.0405 L126.788731,23.7405 L128.655398,24.2071667 Z" id="Fill-7" fill="#8334C2"></path>
                            <path d="M34.1773704,18.8672037 C33.4345926,14.2186852 30.1802407,11.3020185 25.2186667,10.4296111 C22.7971852,10.0128519 20.4664444,10.0783148 18.2134815,10.508037 C17.1978333,10.6772037 16.4686667,11.4841481 16.4427407,12.5257222 C16.4168148,13.6586852 17.4713519,14.7002593 18.6172778,14.6743333 C18.7864444,14.6743333 18.9426481,14.6484074 19.0988519,14.6095185 C20.6485741,14.2575741 22.2371852,14.1538704 23.9035741,14.4533148 C27.6278333,15.0910926 29.5029259,17.0835 29.8937593,21.4585 C30.1407037,24.2578519 30.0233889,27.1356296 29.6850556,29.9349815 C29.2812593,33.3986852 26.9505185,35.2997037 23.2917222,35.6121111 C20.4794074,35.8460926 17.7973704,35.2997037 15.232,34.1926667 C14.4373704,33.8543333 14.112,33.4246111 14.1385741,32.5651667 C14.2033889,30.0393333 14.1645,27.5128519 14.1645,24.9870185 C14.1645,22.9427593 14.1385741,20.885537 14.177463,18.8412778 L14.177463,15.2738704 C14.177463,14.0624815 13.1222778,13.0468333 11.8331111,13.0209074 C11.4429259,13.0079444 11.0780185,13.0863704 10.7526481,13.216 C8.07061111,14.3878519 6.14366667,15.390537 1.71616667,17.7212778 C0.0497777778,18.6325741 -0.40587037,19.9606296 0.362185185,21.2368333 C1.07838889,22.4475741 2.37987037,22.6562778 3.95616667,21.8097963 C5.7657963,20.8336852 7.61496296,19.8958148 9.49005556,18.9974815 C9.52894444,28.581 9.50301852,40.7940556 9.51598148,50.0522037 L9.51598148,50.0651667 L9.51598148,50.0781296 L9.51598148,50.1435926 L9.52894444,50.1435926 C9.5807963,51.3284074 10.5964444,52.2785926 11.8460741,52.2785926 C13.0963519,52.2785926 14.124963,51.3284074 14.1645,50.1435926 L14.177463,50.1435926 C14.1904259,47.4745185 14.177463,42.8383148 14.177463,38.4892407 C16.7817222,38.971463 19.1377407,39.5962778 21.5339444,39.8049815 C28.1748704,40.3779444 33.4611667,36.783963 34.372463,30.5468333 C34.9195,26.7188704 34.7892222,22.6951667 34.1773704,18.8672037" id="Fill-9" fill="#8334C2"></path>
                            <path d="M13.0429444,63.1710463 C12.6968333,63.1710463 12.3844259,63.2313241 12.1063704,63.3512315 C11.8276667,63.471787 11.5923889,63.6351204 11.3998889,63.8412315 C11.2073889,64.0486389 11.0583148,64.2975278 10.9533148,64.5904907 C10.8470185,64.8841019 10.7945185,65.2036389 10.7945185,65.5491019 C10.7945185,65.895213 10.8470185,66.21475 10.9533148,66.507713 C11.0583148,66.8013241 11.2073889,67.0508611 11.3998889,67.2576204 C11.5923889,67.4637315 11.8276667,67.6270648 12.1063704,67.7476204 C12.3844259,67.8675278 12.6968333,67.9271574 13.0429444,67.9271574 C13.3890556,67.9271574 13.701463,67.8675278 13.9801667,67.7476204 C14.2582222,67.6270648 14.4935,67.4637315 14.686,67.2576204 C14.8785,67.0508611 15.0269259,66.8013241 15.1325741,66.507713 C15.2388704,66.21475 15.2913704,65.895213 15.2913704,65.5491019 C15.2913704,65.2036389 15.2388704,64.8841019 15.1325741,64.5904907 C15.0269259,64.2975278 14.8785,64.0486389 14.686,63.8412315 C14.4935,63.6351204 14.2582222,63.471787 13.9801667,63.3512315 C13.701463,63.2313241 13.3890556,63.1710463 13.0429444,63.1710463 L13.0429444,63.1710463 Z M9.49757407,62.1333611 L10.7945185,62.1333611 L10.7945185,63.1133611 L10.8236852,63.1133611 C11.0732222,62.7491019 11.4167407,62.465213 11.8542407,62.2636389 C12.2910926,62.0614167 12.7402593,61.9609537 13.2017407,61.9609537 C13.7299815,61.9609537 14.2076667,62.0516944 14.6360926,62.2344722 C15.0632222,62.41725 15.4281296,62.6713241 15.7308148,62.9979907 C16.0335,63.3246574 16.2668333,63.7070648 16.4301667,64.1439167 C16.5935,64.5814167 16.6751667,65.0493796 16.6751667,65.5491019 C16.6751667,66.0585463 16.5935,66.5323426 16.4301667,66.9685463 C16.2668333,67.4060463 16.0335,67.7858611 15.7308148,68.1073426 C15.4281296,68.4294722 15.0632222,68.6816019 14.6360926,68.8643796 C14.2076667,69.0465093 13.7299815,69.1378981 13.2017407,69.1378981 C12.7117407,69.1378981 12.2502593,69.0348426 11.8179444,68.8287315 C11.3856296,68.6213241 11.0544259,68.3406759 10.8236852,67.9854907 L10.7945185,67.9854907 L10.7945185,73.0293796 L9.49757407,73.0293796 L9.49757407,62.1333611 Z" id="Fill-11" fill="#7E8890"></path>
                            <path d="M18.1594259,62.1336204 L19.4563704,62.1336204 L19.4563704,63.1855648 L19.485537,63.1855648 C19.5717407,63.0034352 19.6871111,62.8375093 19.831,62.687787 C19.975537,62.5393611 20.1362778,62.4123241 20.3138704,62.3066759 C20.491463,62.2010278 20.6859074,62.1174167 20.8978519,62.0545463 C21.1091481,61.9916759 21.3204444,61.9605648 21.5317407,61.9605648 C21.743037,61.9605648 21.935537,61.9890833 22.1085926,62.0467685 L22.0509074,63.4448241 C21.9446111,63.4163056 21.8396111,63.3923241 21.733963,63.3728796 C21.6276667,63.3540833 21.5220185,63.3443611 21.4163704,63.3443611 C20.7824815,63.3443611 20.2970185,63.5226019 19.9606296,63.8771389 C19.6242407,64.2329722 19.4563704,64.7858426 19.4563704,65.5351019 L19.4563704,68.9651019 L18.1594259,68.9651019 L18.1594259,62.1336204 Z" id="Fill-13" fill="#7E8890"></path>
                            <mask id="mask-2" fill="white">
                                <use xlink:href="#path-1"></use>
                            </mask>
                            <g id="Clip-16"></g>
                            <path d="M23.4487037,68.9649074 L24.7456481,68.9649074 L24.7456481,62.1334259 L23.4487037,62.1334259 L23.4487037,68.9649074 Z M23.1460185,59.6834259 C23.1460185,59.4241667 23.24,59.2005556 23.4273148,59.0132407 C23.6146296,58.8259259 23.8382407,58.7319444 24.0975,58.7319444 C24.3567593,58.7319444 24.5803704,58.8259259 24.7676852,59.0132407 C24.955,59.2005556 25.0483333,59.4241667 25.0483333,59.6834259 C25.0483333,59.9426852 24.955,60.1662963 24.7676852,60.3536111 C24.5803704,60.5409259 24.3567593,60.6349074 24.0975,60.6349074 C23.8382407,60.6349074 23.6146296,60.5409259 23.4273148,60.3536111 C23.24,60.1662963 23.1460185,59.9426852 23.1460185,59.6834259 L23.1460185,59.6834259 Z" id="Fill-15" fill="#7E8890" mask="url(#mask-2)"></path>
                            <path d="M26.6625463,62.1336204 L27.873287,62.1336204 L27.873287,63.2004722 L27.9024537,63.2004722 C27.9309722,63.1038981 28.0055093,62.9839907 28.1254167,62.8401019 C28.2453241,62.6955648 28.3995833,62.5588056 28.5868981,62.4291759 C28.774213,62.2995463 28.9952315,62.188713 29.2499537,62.0973241 C29.5040278,62.0065833 29.7853241,61.9605648 30.0925463,61.9605648 C30.6019907,61.9605648 31.0297685,62.066213 31.3752315,62.2781574 C31.7213426,62.4894537 32.0052315,62.80575 32.2256019,63.2283426 C32.4466204,62.80575 32.7590278,62.4894537 33.1628241,62.2781574 C33.5666204,62.066213 33.9743056,61.9605648 34.3878241,61.9605648 C34.9160648,61.9605648 35.3483796,62.0467685 35.6847685,62.2198241 C36.0211574,62.3928796 36.2856019,62.6210278 36.4781019,62.9042685 C36.6693056,63.1881574 36.8021759,63.5096389 36.8741204,63.8706574 C36.9460648,64.2303796 36.981713,64.6030648 36.981713,64.9867685 L36.981713,68.9651019 L35.6847685,68.9651019 L35.6847685,65.1604722 C35.6847685,64.901213 35.6679167,64.6510278 35.634213,64.4105648 C35.6005093,64.17075 35.5311574,63.9588056 35.4255093,63.7766759 C35.3198611,63.5938981 35.170787,63.4474167 34.9789352,63.3365833 C34.7864352,63.2270463 34.531713,63.1713056 34.2147685,63.1713056 C33.5899537,63.1713056 33.1433796,63.3631574 32.8743981,63.7475093 C32.6054167,64.1318611 32.4706019,64.6270463 32.4706019,65.2324167 L32.4706019,68.9651019 L31.1736574,68.9651019 L31.1736574,65.3905648 C31.1736574,65.0638981 31.1568056,64.7663981 31.1231019,64.4967685 C31.0893981,64.227787 31.0226389,63.9951019 30.9215278,63.7980648 C30.8210648,63.6016759 30.6765278,63.4474167 30.489213,63.3365833 C30.3018981,63.2270463 30.0497685,63.1713056 29.7328241,63.1713056 C29.5020833,63.1713056 29.2784722,63.2173241 29.0626389,63.3080648 C28.8461574,63.3994537 28.65625,63.536213 28.4929167,63.7189907 C28.3295833,63.9017685 28.1999537,64.1344537 28.1040278,64.4176944 C28.0081019,64.7015833 27.9594907,65.0353796 27.9594907,65.4197315 L27.9594907,68.9651019 L26.6625463,68.9651019 L26.6625463,62.1336204 Z" id="Fill-17" fill="#7E8890" mask="url(#mask-2)"></path>
                            <path d="M42.4874722,65.6787963 C42.1796019,65.6787963 41.86525,65.6956481 41.5431204,65.7293519 C41.2216389,65.7630556 40.9286759,65.8278704 40.6642315,65.9237963 C40.399787,66.0197222 40.1839537,66.154537 40.0160833,66.3275926 C39.8475648,66.5006481 39.7633056,66.7216667 39.7633056,66.99 C39.7633056,67.3847222 39.8955278,67.667963 40.1599722,67.8410185 C40.4237685,68.0140741 40.7821944,68.1002778 41.2333056,68.1002778 C41.5891389,68.1002778 41.8918241,68.0406481 42.1413611,67.9200926 C42.3915463,67.8001852 42.5931204,67.6439815 42.7467315,67.4514815 C42.9003426,67.2596296 43.0111759,67.0457407 43.0785833,66.810463 C43.1459907,66.5751852 43.1790463,66.3418519 43.1790463,66.1111111 L43.1790463,65.6787963 L42.4874722,65.6787963 Z M38.8267315,62.9688889 C39.1916389,62.6331481 39.6142315,62.3810185 40.0951574,62.2125 C40.5754352,62.0452778 41.055713,61.9610185 41.5359907,61.9610185 C42.035713,61.9610185 42.4660833,62.0232407 42.8264537,62.1483333 C43.1868241,62.2727778 43.4823796,62.4412963 43.7124722,62.6525926 C43.943213,62.8638889 44.1136759,63.1062963 44.2245093,63.3798148 C44.3346944,63.6539815 44.3904352,63.9398148 44.3904352,64.2373148 L44.3904352,67.7256481 C44.3904352,67.965463 44.3943241,68.1864815 44.4046944,68.3887037 C44.4137685,68.5902778 44.4286759,68.7827778 44.4474722,68.9649074 L43.2950648,68.9649074 C43.2658981,68.6187963 43.2516389,68.2733333 43.2516389,67.9272222 L43.2224722,67.9272222 C42.9340463,68.3692593 42.5931204,68.6816667 42.1996944,68.8644444 C41.8049722,69.0465741 41.3486759,69.137963 40.8301574,69.137963 C40.513213,69.137963 40.2105278,69.0951852 39.9221019,69.0083333 C39.6336759,68.9221296 39.3815463,68.7925 39.1650648,68.6187963 C38.9492315,68.4463889 38.7787685,68.2325 38.6536759,67.9777778 C38.5285833,67.7230556 38.4663611,67.4275 38.4663611,67.0917593 C38.4663611,66.6497222 38.5648796,66.2796296 38.7619167,65.9821296 C38.9589537,65.6839815 39.2279352,65.4415741 39.5688611,65.2542593 C39.909787,65.0669444 40.3090463,64.9321296 40.7653426,64.850463 C41.2216389,64.7687963 41.7090463,64.7273148 42.228213,64.7273148 L43.1790463,64.7273148 L43.1790463,64.439537 C43.1790463,64.2664815 43.1459907,64.0940741 43.0785833,63.9203704 C43.0111759,63.747963 42.9100648,63.5917593 42.7758981,63.4517593 C42.6410833,63.3130556 42.473213,63.2028704 42.2716389,63.1212037 C42.0694167,63.039537 41.8289537,62.9980556 41.5508981,62.9980556 C41.300713,62.9980556 41.082287,63.022037 40.8949722,63.0706481 C40.7076574,63.1186111 40.5371944,63.1788889 40.3829352,63.2508333 C40.2293241,63.3221296 40.0899722,63.4063889 39.9655278,63.502963 C39.8404352,63.5988889 39.7198796,63.6902778 39.6051574,63.7764815 L38.8267315,62.9688889 Z" id="Fill-18" fill="#7E8890" mask="url(#mask-2)"></path>
                            <path d="M55.3364907,65.6357593 C55.3364907,65.2611296 55.2645463,64.9078889 55.1206574,64.576037 C54.9761204,64.2448333 54.7790833,63.9564074 54.5288981,63.7114074 C54.2793611,63.4664074 53.9863981,63.2726111 53.6500093,63.1280741 C53.3136204,62.983537 52.948713,62.9115926 52.5546389,62.9115926 C52.1508426,62.9115926 51.7859352,62.983537 51.4592685,63.1280741 C51.1326019,63.2726111 50.8538981,63.4664074 50.6238056,63.7114074 C50.3930648,63.9564074 50.2174167,64.2448333 50.0975093,64.576037 C49.9769537,64.9078889 49.9173241,65.2611296 49.9173241,65.6357593 C49.9173241,66.0103889 49.9769537,66.3636296 50.0975093,66.6954815 C50.2174167,67.0266852 50.3930648,67.3151111 50.6238056,67.5601111 C50.8538981,67.8051111 51.1326019,67.9989074 51.4592685,68.1434444 C51.7859352,68.2879815 52.1508426,68.3599259 52.5546389,68.3599259 C52.948713,68.3599259 53.3136204,68.2879815 53.6500093,68.1434444 C53.9863981,67.9989074 54.2793611,67.8051111 54.5288981,67.5601111 C54.7790833,67.3151111 54.9761204,67.0266852 55.1206574,66.6954815 C55.2645463,66.3636296 55.3364907,66.0103889 55.3364907,65.6357593 L55.3364907,65.6357593 Z M55.2496389,67.7979815 L55.2211204,67.7979815 C55.0863056,68.0280741 54.9184352,68.2277037 54.7168611,68.3962222 C54.5146389,68.5640926 54.296213,68.7034444 54.0609352,68.8136296 C53.8250093,68.9238148 53.5780648,69.0054815 53.3188056,69.0586296 C53.0588981,69.1111296 52.8041759,69.1377037 52.5546389,69.1377037 C52.0451944,69.1377037 51.5746389,69.0521481 51.1423241,68.8784444 C50.7100093,68.7053889 50.3399167,68.4629815 50.0326944,68.1505741 C49.7248241,67.8381667 49.4850093,67.4687222 49.3119537,67.0409444 C49.1388981,66.6138148 49.0526944,66.1452037 49.0526944,65.6357593 C49.0526944,65.126963 49.1388981,64.6583519 49.3119537,64.2305741 C49.4850093,63.8034444 49.7248241,63.4333519 50.0326944,63.1209444 C50.3399167,62.808537 50.7100093,62.5661296 51.1423241,62.3930741 C51.5746389,62.2193704 52.0451944,62.1338148 52.5546389,62.1338148 C52.8041759,62.1338148 53.0588981,62.1603889 53.3188056,62.2128889 C53.5780648,62.266037 53.8250093,62.3477037 54.0609352,62.4578889 C54.296213,62.5687222 54.5146389,62.7074259 54.7168611,62.8752963 C54.9184352,63.0438148 55.0863056,63.2434444 55.2211204,63.473537 L55.2496389,63.473537 L55.2496389,58.0692778 L56.1149167,58.0692778 L56.1149167,68.9652963 L55.2496389,68.9652963 L55.2496389,67.7979815 Z" id="Fill-19" fill="#7E8890" mask="url(#mask-2)"></path>
                            <path d="M63.3063796,65.0736852 C63.3063796,64.7761852 63.2461019,64.4968333 63.1261944,64.2375741 C63.006287,63.978963 62.8429537,63.7501667 62.6361944,63.5531296 C62.4294352,63.3567407 62.1844352,63.1998889 61.9011944,63.0851667 C61.6179537,62.9691481 61.3178611,62.911463 61.0002685,62.911463 C60.529713,62.911463 60.1375833,63.0073889 59.8258241,63.1998889 C59.5134167,63.3923889 59.2658241,63.6134074 59.0836944,63.8629444 C58.9009167,64.1131296 58.771287,64.355537 58.6941574,64.5908148 C58.6176759,64.8260926 58.5794352,64.9868333 58.5794352,65.0736852 L63.3063796,65.0736852 Z M63.9694352,67.711 C63.6330463,68.2204444 63.2175833,68.586 62.7230463,68.8063704 C62.2278611,69.028037 61.6827685,69.1382222 61.0871204,69.1382222 C60.5776759,69.1382222 60.1161944,69.0520185 59.7033241,68.8783148 C59.2898056,68.7059074 58.9346204,68.4628519 58.6364722,68.1504444 C58.3389722,67.8386852 58.1108241,67.4685926 57.9520278,67.0408148 C57.7938796,66.6136852 57.7148056,66.140537 57.7148056,65.6213704 C57.7148056,65.1216481 57.7958241,64.6608148 57.9591574,64.2375741 C58.1224907,63.8156296 58.3532315,63.4474815 58.6507315,63.1350741 C58.9488796,62.8226667 59.2995278,62.5776667 59.7033241,62.4000741 C60.1064722,62.2224815 60.5536944,62.1336852 61.0436944,62.1336852 C61.5524907,62.1336852 62.0023056,62.2224815 62.3911944,62.4000741 C62.7800833,62.5776667 63.10675,62.8135926 63.3711944,63.1065556 C63.6356389,63.3995185 63.8346204,63.7333148 63.9694352,64.1079444 C64.1036019,64.4825741 64.1710093,64.8623889 64.1710093,65.2467407 L64.1710093,65.851463 L58.5794352,65.851463 C58.5794352,66.0342407 58.6150833,66.2675741 58.6870278,66.5508148 C58.7589722,66.8347037 58.8911944,67.1108148 59.0836944,67.3797963 C59.2755463,67.6487778 59.532213,67.8795185 59.8543426,68.0713704 C60.1764722,68.2638704 60.5919352,68.3597963 61.1013796,68.3597963 C61.5434167,68.3597963 61.9705463,68.2541481 62.3840648,68.0428519 C62.7969352,67.8315556 63.1138796,67.5437778 63.3348981,67.1775741 L63.9694352,67.711 Z" id="Fill-20" fill="#7E8890" mask="url(#mask-2)"></path>
                            <path d="M65.9727315,67.2643611 C66.1555093,67.6201944 66.4244907,67.8917685 66.7803241,68.0790833 C67.1348611,68.2663981 67.5101389,68.3597315 67.904213,68.3597315 C68.0863426,68.3597315 68.2691204,68.331213 68.4518981,68.2735278 C68.6340278,68.2158426 68.7973611,68.1341759 68.9418981,68.0285278 C69.085787,67.9228796 69.20375,67.7951944 69.2951389,67.6461204 C69.3865278,67.4970463 69.4318981,67.3272315 69.4318981,67.1347315 C69.4318981,66.8268611 69.3333796,66.5967685 69.1363426,66.4425093 C68.9393056,66.2895463 68.6968981,66.1696389 68.4084722,66.082787 C68.1200463,65.9959352 67.8031019,65.9220463 67.4576389,65.8591759 C67.1115278,65.7963056 66.7945833,65.7010278 66.5061574,65.57075 C66.2177315,65.4411204 65.9746759,65.2609352 65.778287,65.0308426 C65.58125,64.7994537 65.4827315,64.4734352 65.4827315,64.0501944 C65.4827315,63.7235278 65.5501389,63.440287 65.6849537,63.1998241 C65.8191204,62.9600093 65.9947685,62.7603796 66.2106019,62.6022315 C66.4270833,62.4434352 66.6694907,62.3261204 66.9384722,62.2489907 C67.2074537,62.1725093 67.4816204,62.1336204 67.7603241,62.1336204 C68.3080093,62.1336204 68.7811574,62.2340833 69.1797685,62.4363056 C69.5783796,62.6378796 69.8881944,62.9554722 70.109213,63.387787 L69.330787,63.8479722 C69.1674537,63.5413981 68.963287,63.3080648 68.718287,63.1492685 C68.473287,62.9911204 68.15375,62.9113981 67.7603241,62.9113981 C67.6060648,62.9113981 67.4453241,62.9360278 67.2774537,62.9839907 C67.1089352,63.0319537 66.9579167,63.098713 66.8231019,63.1855648 C66.688287,63.2724167 66.5755093,63.3826019 66.4847685,63.5174167 C66.3927315,63.6522315 66.3473611,63.8051944 66.3473611,63.9788981 C66.3473611,64.2763981 66.4458796,64.4967685 66.6429167,64.6413056 C66.8399537,64.7858426 67.0823611,64.8986204 67.370787,64.980287 C67.659213,65.0619537 67.9761574,65.1313056 68.3222685,65.1889907 C68.6683796,65.2466759 68.9846759,65.3400093 69.2731019,65.4696389 C69.5615278,65.5999167 69.8045833,65.7872315 70.0009722,66.0322315 C70.1980093,66.2772315 70.2965278,66.6259352 70.2965278,67.0770463 C70.2965278,67.4231574 70.231713,67.72325 70.1020833,67.9779722 C69.9724537,68.2326944 69.794213,68.4459352 69.5686574,68.6189907 C69.3431019,68.7920463 69.085787,68.9223241 68.7973611,69.0078796 C68.5095833,69.0947315 68.2068981,69.1381574 67.8899537,69.1381574 C67.3131019,69.1381574 66.7868056,69.0279722 66.311713,68.8063056 C65.8359722,68.5859352 65.4684722,68.2443611 65.209213,67.7835278 L65.9727315,67.2643611 Z" id="Fill-21" fill="#7E8890" mask="url(#mask-2)"></path>
                            <path d="M72.0980556,68.9649074 L72.9626852,68.9649074 L72.9626852,62.3064815 L72.0980556,62.3064815 L72.0980556,68.9649074 Z M71.8815741,59.6691667 C71.8815741,59.4863889 71.9444444,59.3327778 72.0688889,59.2083333 C72.1946296,59.0825926 72.3475926,59.0210185 72.5303704,59.0210185 C72.7125,59.0210185 72.8667593,59.0825926 72.9918519,59.2083333 C73.1162963,59.3327778 73.1791667,59.4863889 73.1791667,59.6691667 C73.1791667,59.8519444 73.1162963,60.0055556 72.9918519,60.13 C72.8667593,60.2550926 72.7125,60.317963 72.5303704,60.317963 C72.3475926,60.317963 72.1946296,60.2550926 72.0688889,60.13 C71.9444444,60.0055556 71.8815741,59.8519444 71.8815741,59.6691667 L71.8815741,59.6691667 Z" id="Fill-22" fill="#7E8890" mask="url(#mask-2)"></path>
                            <path d="M81.1203426,65.549037 C81.1203426,65.1847778 81.0509907,64.8406111 80.9116389,64.5184815 C80.772287,64.197 80.5849722,63.9182963 80.3496944,63.6830185 C80.1137685,63.4477407 79.835713,63.2604259 79.5135833,63.1210741 C79.1908056,62.9817222 78.8479352,62.9117222 78.4830278,62.9117222 C78.1174722,62.9117222 77.7739537,62.9817222 77.4524722,63.1210741 C77.1303426,63.2604259 76.8516389,63.4477407 76.6163611,63.6830185 C76.3810833,63.9182963 76.1931204,64.197 76.0544167,64.5184815 C75.9150648,64.8406111 75.8450648,65.1847778 75.8450648,65.549037 C75.8450648,65.9145926 75.9150648,66.2581111 76.0544167,66.5802407 C76.1931204,66.9017222 76.3810833,67.1804259 76.6163611,67.4157037 C76.8516389,67.6509815 77.1303426,67.8382963 77.4524722,67.9776481 C77.7739537,68.117 78.1174722,68.1863519 78.4830278,68.1863519 C78.8479352,68.1863519 79.1908056,68.117 79.5135833,67.9776481 C79.835713,67.8382963 80.1137685,67.6509815 80.3496944,67.4157037 C80.5849722,67.1804259 80.772287,66.9017222 80.9116389,66.5802407 C81.0509907,66.2581111 81.1203426,65.9145926 81.1203426,65.549037 L81.1203426,65.549037 Z M81.9564537,68.5331111 C81.9564537,69.3588519 81.8358981,70.0264444 81.5954352,70.5358889 C81.3556204,71.0446852 81.0555278,71.4394074 80.6951574,71.7181111 C80.334787,71.9961667 79.9478426,72.1834815 79.5349722,72.2800556 C79.1214537,72.3759815 78.7468241,72.4239444 78.4104352,72.4239444 C78.0746944,72.4239444 77.7454352,72.3928333 77.4233056,72.3306111 C77.1018241,72.2677407 76.7965463,72.177 76.5087685,72.0564444 C76.2196944,71.9358889 75.9578426,71.7900556 75.723213,71.617 C75.487287,71.4445926 75.2831204,71.2469074 75.110713,71.0258889 L75.7873796,70.392 C76.09525,70.8243148 76.4796019,71.1412593 76.9410833,71.3428333 C77.4019167,71.5450556 77.8919167,71.6455185 78.4104352,71.6455185 C78.8524722,71.6455185 79.2251574,71.5878333 79.5278426,71.4731111 C79.8305278,71.3577407 80.080713,71.2067222 80.2771019,71.0187593 C80.4741389,70.8314444 80.62775,70.6246852 80.7385833,70.3991296 C80.8487685,70.1735741 80.9304352,69.9473704 80.9835833,69.7211667 C81.0360833,69.4962593 81.0671944,69.2823704 81.0775648,69.0801481 C81.0866389,68.8785741 81.0911759,68.7152407 81.0911759,68.5901481 L81.0911759,67.6684815 L81.0626574,67.6684815 C80.8124722,68.0716296 80.4741389,68.3885741 80.0470093,68.6186667 C79.6192315,68.8500556 79.1169167,68.9654259 78.540713,68.9654259 C78.050713,68.9654259 77.5892315,68.8766296 77.1569167,68.6983889 C76.7246019,68.5207963 76.3473796,68.2757963 76.0258981,67.9633889 C75.7037685,67.6509815 75.4490463,67.2886667 75.2617315,66.8751481 C75.0744167,66.4622778 74.9804352,66.0202407 74.9804352,65.549037 C74.9804352,65.0784815 75.0744167,64.6364444 75.2617315,64.2229259 C75.4490463,63.8100556 75.7037685,63.4503333 76.0258981,63.142463 C76.3473796,62.8352407 76.7246019,62.5902407 77.1569167,62.4068148 C77.5892315,62.2246852 78.050713,62.1332963 78.540713,62.1332963 C79.1169167,62.1332963 79.6192315,62.2486667 80.0470093,62.4794074 C80.4741389,62.7101481 80.8124722,63.0270926 81.0626574,63.4302407 L81.0911759,63.4302407 L81.0911759,62.3063519 L81.9564537,62.3063519 L81.9564537,68.5331111 Z" id="Fill-23" fill="#7E8890" mask="url(#mask-2)"></path>
                            <path d="M83.9306481,64.1799537 C83.9306481,64.0555093 83.925463,63.9038426 83.9163889,63.72625 C83.9066667,63.5480093 83.899537,63.3684722 83.8943519,63.1856944 C83.8898148,63.0035648 83.8826852,62.8324537 83.872963,62.6743056 C83.8632407,62.5155093 83.8587037,62.3930093 83.8587037,62.3061574 L84.7233333,62.3061574 C84.7324074,62.5563426 84.7401852,62.7961574 84.7447222,63.0275463 C84.7499074,63.2576389 84.7615741,63.406713 84.7810185,63.4734722 L84.8244444,63.4734722 C84.9975,63.109213 85.2852778,62.794213 85.6890741,62.5297685 C86.0922222,62.2659722 86.5634259,62.13375 87.1013889,62.13375 C87.6199074,62.13375 88.0431481,62.2154167 88.3698148,62.37875 C88.6964815,62.5420833 88.9531481,62.7559722 89.140463,63.0197685 C89.3277778,63.284213 89.4574074,63.5894907 89.53,63.9349537 C89.6019444,64.2810648 89.6382407,64.63625 89.6382407,65.0018056 L89.6382407,68.9652315 L88.7736111,68.9652315 L88.7736111,65.0445833 C88.7736111,64.77625 88.7496296,64.5143981 88.7010185,64.2596759 C88.6530556,64.0049537 88.5687963,63.7768056 88.4488889,63.5745833 C88.3283333,63.3730093 88.160463,63.2122685 87.9439815,63.091713 C87.7281481,62.9718056 87.4475,62.9115278 87.1013889,62.9115278 C86.7837963,62.9115278 86.4837037,62.9672685 86.200463,63.0774537 C85.9165741,63.188287 85.6722222,63.3561574 85.465463,63.581713 C85.2587037,63.8079167 85.0953704,64.0911574 84.975463,64.4327315 C84.8555556,64.7736574 84.7952778,65.174213 84.7952778,65.6356944 L84.7952778,68.9652315 L83.9306481,68.9652315 L83.9306481,64.1799537 Z" id="Fill-24" fill="#7E8890" mask="url(#mask-2)"></path>
                            <path d="M95.4175185,67.2643611 C95.5996481,67.6201944 95.8686296,67.8917685 96.224463,68.0790833 C96.5796481,68.2663981 96.9542778,68.3597315 97.3483519,68.3597315 C97.5311296,68.3597315 97.7139074,68.331213 97.896037,68.2735278 C98.0781667,68.2158426 98.2421481,68.1341759 98.386037,68.0285278 C98.5305741,67.9228796 98.6478889,67.7951944 98.7392778,67.6461204 C98.8306667,67.4970463 98.8766852,67.3272315 98.8766852,67.1347315 C98.8766852,66.8268611 98.7781667,66.5967685 98.5811296,66.4425093 C98.3840926,66.2895463 98.141037,66.1696389 97.8532593,66.082787 C97.5648333,65.9959352 97.2478889,65.9220463 96.9017778,65.8591759 C96.5563148,65.7963056 96.2393704,65.7010278 95.9502963,65.57075 C95.6625185,65.4411204 95.419463,65.2609352 95.2224259,65.0308426 C95.026037,64.7994537 94.9275185,64.4734352 94.9275185,64.0501944 C94.9275185,63.7235278 94.9949259,63.440287 95.1290926,63.1998241 C95.2639074,62.9600093 95.4389074,62.7603796 95.6553889,62.6022315 C95.8712222,62.4434352 96.1136296,62.3261204 96.3826111,62.2489907 C96.6515926,62.1725093 96.9257593,62.1336204 97.204463,62.1336204 C97.7527963,62.1336204 98.2252963,62.2340833 98.6239074,62.4363056 C99.0225185,62.6378796 99.3323333,62.9554722 99.554,63.387787 L98.7755741,63.8479722 C98.6122407,63.5413981 98.4080741,63.3080648 98.1624259,63.1492685 C97.9174259,62.9911204 97.5978889,62.9113981 97.204463,62.9113981 C97.0508519,62.9113981 96.889463,62.9360278 96.7215926,62.9839907 C96.5537222,63.0319537 96.4027037,63.098713 96.2678889,63.1855648 C96.1330741,63.2724167 96.0202963,63.3826019 95.9289074,63.5174167 C95.8375185,63.6522315 95.7921481,63.8051944 95.7921481,63.9788981 C95.7921481,64.2763981 95.8900185,64.4967685 96.0870556,64.6413056 C96.2847407,64.7858426 96.5271481,64.8986204 96.8149259,64.980287 C97.104,65.0619537 97.4209444,65.1313056 97.7664074,65.1889907 C98.1125185,65.2466759 98.429463,65.3400093 98.7178889,65.4696389 C99.0063148,65.5999167 99.2487222,65.7872315 99.4457593,66.0322315 C99.6427963,66.2772315 99.7413148,66.6259352 99.7413148,67.0770463 C99.7413148,67.4231574 99.6758519,67.72325 99.5462222,67.9779722 C99.4165926,68.2326944 99.239,68.4459352 99.0134444,68.6189907 C98.7872407,68.7920463 98.5305741,68.9223241 98.2421481,69.0078796 C97.9537222,69.0947315 97.651037,69.1381574 97.3340926,69.1381574 C96.7572407,69.1381574 96.2315926,69.0279722 95.7558519,68.8063056 C95.2801111,68.5859352 94.9132593,68.2443611 94.6533519,67.7835278 L95.4175185,67.2643611 Z" id="Fill-25" fill="#7E8890" mask="url(#mask-2)"></path>
                            <path d="M103.272556,71.0260185 C103.108574,71.4583333 102.883019,71.7992593 102.594593,72.0494444 C102.306815,72.2989815 101.922463,72.4240741 101.442185,72.4240741 C101.297648,72.4240741 101.153111,72.4124074 101.009222,72.3884259 C100.865333,72.3637963 100.725981,72.3326852 100.591167,72.2944444 L100.678019,71.4875 C100.802463,71.5257407 100.930148,71.5613889 101.059778,71.5950926 C101.189407,71.6294444 101.32163,71.6456481 101.455796,71.6456481 C101.610056,71.6456481 101.746815,71.6119444 101.866722,71.5451852 C101.987278,71.4771296 102.090333,71.3909259 102.177185,71.2852778 C102.262741,71.1796296 102.337926,71.0623148 102.400148,70.932037 C102.46237,70.8024074 102.518111,70.6701852 102.566074,70.5360185 L103.171444,68.9934259 L100.461537,62.3064815 L101.427278,62.3064815 L103.632926,67.912963 L105.779593,62.3064815 L106.702556,62.3064815 L103.272556,71.0260185 Z" id="Fill-26" fill="#7E8890" mask="url(#mask-2)"></path>
                            <path d="M107.94188,67.2643611 C108.124009,67.6201944 108.392991,67.8917685 108.748824,68.0790833 C109.104009,68.2663981 109.478639,68.3597315 109.872713,68.3597315 C110.055491,68.3597315 110.238269,68.331213 110.420398,68.2735278 C110.603176,68.2158426 110.766509,68.1341759 110.911046,68.0285278 C111.054935,67.9228796 111.17225,67.7951944 111.263639,67.6461204 C111.355676,67.4970463 111.401046,67.3272315 111.401046,67.1347315 C111.401046,66.8268611 111.302528,66.5967685 111.105491,66.4425093 C110.908454,66.2895463 110.665398,66.1696389 110.37762,66.082787 C110.089194,65.9959352 109.77225,65.9220463 109.426139,65.8591759 C109.080676,65.7963056 108.763731,65.7010278 108.474657,65.57075 C108.18688,65.4411204 107.943824,65.2609352 107.747435,65.0308426 C107.550398,64.7994537 107.45188,64.4734352 107.45188,64.0501944 C107.45188,63.7235278 107.519287,63.440287 107.654102,63.1998241 C107.788269,62.9600093 107.963269,62.7603796 108.17975,62.6022315 C108.395583,62.4434352 108.637991,62.3261204 108.90762,62.2489907 C109.175954,62.1725093 109.45012,62.1336204 109.728824,62.1336204 C110.277157,62.1336204 110.749657,62.2340833 111.148269,62.4363056 C111.54688,62.6378796 111.857343,62.9554722 112.078361,63.387787 L111.299935,63.8479722 C111.136602,63.5413981 110.932435,63.3080648 110.687435,63.1492685 C110.442435,62.9911204 110.122898,62.9113981 109.728824,62.9113981 C109.575213,62.9113981 109.413824,62.9360278 109.245954,62.9839907 C109.078083,63.0319537 108.927065,63.098713 108.79225,63.1855648 C108.657435,63.2724167 108.544657,63.3826019 108.453269,63.5174167 C108.36188,63.6522315 108.316509,63.8051944 108.316509,63.9788981 C108.316509,64.2763981 108.41438,64.4967685 108.612065,64.6413056 C108.809102,64.7858426 109.051509,64.8986204 109.339287,64.980287 C109.628361,65.0619537 109.945306,65.1313056 110.290769,65.1889907 C110.63688,65.2466759 110.953824,65.3400093 111.24225,65.4696389 C111.530676,65.5999167 111.773083,65.7872315 111.97012,66.0322315 C112.167157,66.2772315 112.265676,66.6259352 112.265676,67.0770463 C112.265676,67.4231574 112.200213,67.72325 112.071231,67.9779722 C111.941602,68.2326944 111.763361,68.4459352 111.537806,68.6189907 C111.311602,68.7920463 111.054935,68.9223241 110.766509,69.0078796 C110.478083,69.0947315 110.175398,69.1381574 109.858454,69.1381574 C109.28225,69.1381574 108.755954,69.0279722 108.280213,68.8063056 C107.804472,68.5859352 107.43762,68.2443611 107.177713,67.7835278 L107.94188,67.2643611 Z" id="Fill-27" fill="#7E8890" mask="url(#mask-2)"></path>
                            <path d="M117.180519,63.0849722 L115.277556,63.0849722 L115.277556,67.4230278 C115.277556,67.7205278 115.359222,67.9519167 115.522556,68.11525 C115.685889,68.2785833 115.912093,68.36025 116.19987,68.36025 C116.363204,68.36025 116.52913,68.3375648 116.697648,68.294787 C116.865519,68.2520093 117.026259,68.1969167 117.180519,68.1288611 L117.251815,68.907287 C117.088481,68.9649722 116.901167,69.0174722 116.68987,69.0660833 C116.478574,69.1140463 116.291259,69.1380278 116.127926,69.1380278 C115.820056,69.1380278 115.556259,69.0926574 115.335241,69.0012685 C115.114222,68.9098796 114.93663,68.7873796 114.802463,68.6337685 C114.667648,68.4801574 114.56913,68.2999722 114.506907,68.093213 C114.444037,67.8864537 114.412926,67.6628426 114.412926,67.4230278 L114.412926,63.0849722 L112.972093,63.0849722 L112.972093,62.3065463 L114.412926,62.3065463 L114.412926,60.3899722 L115.277556,60.3899722 L115.277556,62.3065463 L117.180519,62.3065463 L117.180519,63.0849722 Z" id="Fill-28" fill="#7E8890" mask="url(#mask-2)"></path>
                            <path d="M123.795519,65.0736852 C123.795519,64.7761852 123.735241,64.4968333 123.615333,64.2375741 C123.494778,63.978963 123.331444,63.7501667 123.125333,63.5531296 C122.917926,63.3567407 122.673574,63.1998889 122.390333,63.0851667 C122.107093,62.9691481 121.807,62.911463 121.489407,62.911463 C121.018852,62.911463 120.626722,63.0073889 120.314963,63.1998889 C120.001907,63.3923889 119.754963,63.6134074 119.572185,63.8629444 C119.390056,64.1131296 119.260426,64.355537 119.183944,64.5908148 C119.106815,64.8260926 119.067926,64.9868333 119.067926,65.0736852 L123.795519,65.0736852 Z M124.457926,67.711 C124.122185,68.2204444 123.706074,68.586 123.212185,68.8063704 C122.717,69.028037 122.171259,69.1382222 121.575611,69.1382222 C121.066815,69.1382222 120.605333,69.0520185 120.191815,68.8783148 C119.778944,68.7059074 119.423759,68.4628519 119.125611,68.1504444 C118.828111,67.8386852 118.599315,67.4685926 118.441167,67.0408148 C118.28237,66.6136852 118.203296,66.140537 118.203296,65.6213704 C118.203296,65.1216481 118.284963,64.6608148 118.448296,64.2375741 C118.61163,63.8156296 118.841722,63.4474815 119.13987,63.1350741 C119.438019,62.8226667 119.788667,62.5776667 120.191815,62.4000741 C120.595611,62.2224815 121.042833,62.1336852 121.532833,62.1336852 C122.04163,62.1336852 122.490796,62.2224815 122.880333,62.4000741 C123.269222,62.5776667 123.595889,62.8135926 123.860333,63.1065556 C124.124778,63.3995185 124.323759,63.7333148 124.457926,64.1079444 C124.592741,64.4825741 124.660148,64.8623889 124.660148,65.2467407 L124.660148,65.851463 L119.067926,65.851463 C119.067926,66.0342407 119.104222,66.2675741 119.176167,66.5508148 C119.248111,66.8347037 119.380333,67.1108148 119.572185,67.3797963 C119.764685,67.6487778 120.022,67.8795185 120.343481,68.0713704 C120.665611,68.2638704 121.081074,68.3597963 121.590519,68.3597963 C122.031907,68.3597963 122.459685,68.2541481 122.873204,68.0428519 C123.286074,67.8315556 123.603019,67.5437778 123.824037,67.1775741 L124.457926,67.711 Z" id="Fill-29" fill="#7E8890" mask="url(#mask-2)"></path>
                            <path d="M126.447611,64.1799537 C126.447611,64.0555093 126.442426,63.9038426 126.433352,63.72625 C126.42363,63.5480093 126.415852,63.3684722 126.411315,63.1856944 C126.406778,63.0035648 126.399648,62.8324537 126.389926,62.6743056 C126.380204,62.5155093 126.375667,62.3930093 126.375667,62.3061574 L127.240296,62.3061574 C127.24937,62.5563426 127.2565,62.7961574 127.261685,63.0275463 C127.26687,63.2576389 127.278537,63.406713 127.297981,63.4734722 L127.341407,63.4734722 C127.514463,63.109213 127.802241,62.794213 128.206037,62.5297685 C128.609185,62.2659722 129.080389,62.13375 129.618352,62.13375 C130.059741,62.13375 130.463537,62.2465278 130.829093,62.4720833 C131.194,62.698287 131.457796,63.0651389 131.62113,63.5745833 C131.833074,63.0755093 132.147426,62.7099537 132.565481,62.479213 C132.983537,62.2491204 133.42363,62.13375 133.884463,62.13375 C134.402981,62.13375 134.826222,62.2154167 135.152889,62.37875 C135.479556,62.5420833 135.736222,62.7559722 135.923537,63.0197685 C136.110852,63.284213 136.240481,63.5894907 136.313074,63.9349537 C136.385019,64.2810648 136.421315,64.63625 136.421315,65.0018056 L136.421315,68.9652315 L135.556685,68.9652315 L135.556685,65.0445833 C135.556685,64.77625 135.532704,64.5143981 135.484093,64.2596759 C135.43613,64.0049537 135.35187,63.7768056 135.231963,63.5745833 C135.111407,63.3730093 134.943537,63.2122685 134.727056,63.091713 C134.511222,62.9718056 134.230574,62.9115278 133.884463,62.9115278 C133.481315,62.9115278 133.149463,62.9860648 132.889556,63.1351389 C132.630296,63.284213 132.42613,63.4734722 132.277704,63.7048611 C132.12863,63.9349537 132.022981,64.1851389 131.960111,64.4541204 C131.897889,64.7231019 131.86613,64.9771759 131.86613,65.218287 L131.86613,68.9652315 L131.0015,68.9652315 L131.0015,64.9583796 C131.0015,64.343287 130.88937,63.8481019 130.663167,63.4734722 C130.436963,63.0988426 130.088907,62.9115278 129.618352,62.9115278 C129.300759,62.9115278 129.000667,62.9672685 128.717426,63.0774537 C128.433537,63.188287 128.189185,63.3561574 127.982426,63.581713 C127.775667,63.8079167 127.612333,64.0911574 127.492426,64.4327315 C127.372519,64.7736574 127.312241,65.174213 127.312241,65.6356944 L127.312241,68.9652315 L126.447611,68.9652315 L126.447611,64.1799537 Z" id="Fill-30" fill="#7E8890" mask="url(#mask-2)"></path>
                        </g>
                    </g>
                </g>
            </g>
        </g>
    </g>
</svg>