<?xml version="1.0" encoding="utf-8"?>
<!-- Generator: Adobe Illustrator 19.2.0, SVG Export Plug-In . SVG Version: 6.00 Build 0)  -->
<svg version="1.1" id="Livello_2" xmlns="http://www.w3.org/2000/svg" xmlns:xlink="http://www.w3.org/1999/xlink" x="0px" y="0px"
	 width="340.2px" height="340.2px" viewBox="0 0 340.2 340.2" style="enable-background:new 0 0 340.2 340.2;" xml:space="preserve"
	>
<style type="text/css">
	.st0{fill:#F7BD07;}
	.st1{fill:#FFFFFF;}
</style>
<path class="st0" d="M237.7,228.7c0-1.1-0.2-2.3-0.7-3.4c-4.7-11.1-9.9-22.5-15.5-33.6c-19.3-38-42.3-72-66.5-98.2
	c-1-1.1-2.3-1.9-3.6-2.4c-0.9-0.3-1.9-0.5-3-0.5h-0.7c-0.1,0-0.1,0-0.2,0c-0.1,0-0.1,0-0.2,0c-2.5,0-4.9,1-6.6,2.8
	c-24.3,26.2-47.2,60.2-66.5,98.2c-3.3,6.5-6.4,12.9-9.3,19.4c-2.2,4.8-4.2,9.4-6.2,14.2c-0.3,0.9-0.6,1.8-0.7,2.7
	c-0.8,2.4-0.6,4.9,0.7,7c1.2,2.4,3.6,4.1,6.2,4.5c0.1,0,0.1,0,0.2,0c0.3,0.1,0.8,0.2,1.1,0.3c26.7,4.9,55.3,7.4,85.1,7.4
	c0.1,0,0.1,0,0.2,0c0.1,0,0.1,0,0.2,0h0.7c26.4,0,52-1.9,76.2-5.9c0.5-0.1,0.9-0.2,1.4-0.3l1-0.1c2.7-0.5,5-2,6.4-4.5
	C238.6,234.1,238.8,231.2,237.7,228.7z"/>
<g>
	<path class="st0" d="M168.5,337.6C76.1,337.6,1,262.5,1,170.1C0.9,77.7,76.1,2.6,168.5,2.6c32.4,0,63.9,9.3,91,26.8
		c2.3,1.5,3,4.6,1.5,6.9s-4.6,3-6.9,1.5c-25.5-16.5-55.1-25.2-85.5-25.2c-86.8,0-157.5,70.7-157.5,157.5s70.7,157.5,157.5,157.5
		c2.8,0,5,2.2,5,5S171.2,337.6,168.5,337.6z"/>
</g>
<g>
	<path class="st0" d="M281.5,58.5c-1.3,0-2.5-0.5-3.5-1.4c-1.1-1.1-2.3-2.2-3.4-3.2c-1.2-1.1-2.4-2.1-3.6-3.2
		c-2.1-1.8-2.3-5-0.5-7.1s5-2.3,7.1-0.5c1.3,1.1,2.6,2.2,3.8,3.4c1.2,1.1,2.5,2.3,3.6,3.4c2,1.9,2,5.1,0.1,7.1
		C284.1,58,282.8,58.5,281.5,58.5z"/>
</g>
<g>
	<path class="st0" d="M193.1,335.5c-2.4,0-4.6-1.8-4.9-4.3c-0.4-2.7,1.5-5.3,4.2-5.7c1.6-0.2,3.2-0.5,4.7-0.8
		c1.6-0.3,3.2-0.6,4.7-0.9c2.7-0.6,5.4,1.2,5.9,3.9s-1.2,5.4-3.9,5.9c-1.6,0.3-3.3,0.7-5,1c-1.6,0.3-3.3,0.6-4.9,0.8
		C193.6,335.5,193.4,335.5,193.1,335.5z"/>
</g>
<path class="st1" d="M259.9,206.6c0-1.1-0.2-2.3-0.7-3.4c-4.7-11.1-9.9-22.5-15.5-33.6c-19.3-38-42.3-72-66.5-98.2
	c-1-1.1-2.3-1.9-3.6-2.4c-0.9-0.3-1.9-0.5-3-0.5h-0.7c-0.1,0-0.1,0-0.2,0c-0.1,0-0.1,0-0.2,0c-2.5,0-4.9,1-6.6,2.8
	c-24.3,26.2-47.2,60.2-66.5,98.2c-3.3,6.5-6.4,12.9-9.3,19.4c-2.2,4.8-4.2,9.4-6.2,14.2c-0.3,0.9-0.6,1.8-0.7,2.7
	c-0.8,2.4-0.6,4.9,0.7,7c1.2,2.4,3.6,4.1,6.2,4.5c0.1,0,0.1,0,0.2,0c0.3,0.1,0.8,0.2,1.1,0.3c26.7,4.9,55.3,7.4,85.1,7.4
	c0.1,0,0.1,0,0.2,0s0.1,0,0.2,0h0.7c26.4,0,52-1.9,76.2-5.9c0.5-0.1,0.9-0.2,1.4-0.3l1-0.1c2.7-0.5,5-2,6.4-4.5
	C260.8,211.9,261,209.1,259.9,206.6z M247.6,208.3c-23.3,3.7-48,5.7-73.7,5.7c-28.4-0.1-55.7-2.5-81.3-7
	c4.5-10.7,9.5-21.5,14.9-32.1c18.2-35.9,39.7-68,62.4-93.1c22.7,25.1,44.3,57.2,62.4,93.1c5.6,11,10.7,22.1,15.3,33.3
	C247.7,208.2,247.6,208.2,247.6,208.3z"/>
<path class="st1" d="M170.1,164.8c3.2,0,5.7-2.5,5.7-5.7v-40.5c0-3.2-2.5-5.7-5.7-5.7c-3.2,0-5.7,2.5-5.7,5.7v40.5
	C164.4,162.3,167,164.8,170.1,164.8z"/>
<circle class="st1" cx="170.1" cy="183.1" r="8.7"/>
</svg>
