<?xml version="1.0" encoding="utf-8"?>
<!-- Generator: Adobe Illustrator 19.2.1, SVG Export Plug-In . SVG Version: 6.00 Build 0)  -->
<svg version="1.1" id="Livello_1" xmlns="http://www.w3.org/2000/svg" xmlns:xlink="http://www.w3.org/1999/xlink" x="0px" y="0px"
	 viewBox="0 0 159.8 109.2" style="enable-background:new 0 0 159.8 109.2;" xml:space="preserve">
<style type="text/css">
	.st0{fill:#FFFFFF;}
	.st1{fill:#009EDA;}
	.st2{fill:#EB2135;}
	.st3{fill:#003671;}
</style>
<g id="Layer_1_copia">
	<path class="st0" d="M144.1,106.1h-128c-6.6,0-12-5.4-12-12v-78c0-6.6,5.4-12,12-12h128c6.6,0,12,5.4,12,12v78
		C156.1,100.7,150.7,106.1,144.1,106.1z"/>
	<g>
		<path class="st1" d="M80.1,87.1c8.4-7.6,13.7-18.5,13.7-30.7s-5.3-23.2-13.7-30.8C72.8,18.9,63,14.9,52.3,14.9
			c-22.9,0-41.6,18.6-41.6,41.6C10.7,79.4,29.3,98,52.3,98C63,97.8,72.8,93.8,80.1,87.1L80.1,87.1z"/>
		<path class="st1" d="M80.1,87.1c8.4-7.6,13.7-18.5,13.7-30.7s-5.3-23.2-13.7-30.8V87.1L80.1,87.1z"/>
		<path class="st2" d="M108,14.8c-10.7,0-20.5,4.1-27.9,10.7c-1.5,1.4-2.8,2.8-4.1,4.4h8.4c1.1,1.4,2.2,2.9,3.2,4.4H72.9
			c-0.9,1.5-1.7,2.9-2.4,4.4H90c0.7,1.5,1.3,2.9,1.8,4.4h-23c-0.5,1.5-0.9,2.9-1.2,4.5h25.5c0.6,2.8,0.9,5.8,0.9,8.8
			c0,4.6-0.7,9-2.1,13.2h-23c0.5,1.5,1.1,2.9,1.7,4.4h19.5c-0.7,1.5-1.5,3-2.4,4.4H73c1,1.5,2,3,3.2,4.4h8.4c-1.3,1.5-2.7,3-4.2,4.4
			c7.4,6.7,17.2,10.7,27.9,10.7c22.9,0,41.5-18.5,41.5-41.5C149.5,33.4,131,14.8,108,14.8L108,14.8z"/>
		<path class="st2" d="M144.2,79.4c0-0.7,0.6-1.3,1.3-1.3s1.3,0.6,1.3,1.3c0,0.7-0.6,1.4-1.3,1.4S144.2,80.2,144.2,79.4L144.2,79.4z
			 M145.5,80.5c0.6,0,1.1-0.5,1.1-1.1s-0.5-1-1.1-1s-1.1,0.4-1.1,1C144.5,80,145,80.5,145.5,80.5L145.5,80.5z M145.4,80h-0.3v-1.1
			h0.5c0.2,0,0.2,0,0.3,0.1c0.1,0,0.2,0.2,0.2,0.2c0,0.2-0.1,0.2-0.2,0.3l0.2,0.5h-0.3l-0.2-0.4h-0.2V80L145.4,80z M145.4,79.4h0.2
			c0,0,0.1,0,0.2,0c0,0,0.1-0.1,0.1-0.2l-0.1-0.1c-0.1-0.1-0.2-0.1-0.2-0.1h-0.2V79.4L145.4,79.4z"/>
		<polygon class="st3" points="45.8,67.9 40.6,67.9 43.7,51.7 36.6,67.9 32.2,67.9 31.3,51.8 27.9,67.9 23.2,67.9 27.2,46.8 
			35.4,46.8 35.5,59.8 41.2,46.8 49.9,46.8 		"/>
		<path class="st3" d="M103.6,67.7c-1.5,0.4-2.5,0.6-3.7,0.6c-2.6,0-4.1-1.3-4.1-3.7c0-0.5,0.1-1.1,0.2-1.5l0.3-1.7l0.2-1.3L98.9,47
			h5.1l-0.7,3.9h2.6l-0.7,4.1h-2.7l-1.4,7.2c0,0.3-0.1,0.6-0.1,0.7c0,0.9,0.6,1.2,1.8,1.2c0.6,0,1.1,0,1.4-0.2L103.6,67.7
			L103.6,67.7z"/>
		<path class="st3" d="M83.1,56.2c0,2.1,1.2,3.7,3.9,4.7c2.2,0.9,2.5,1.1,2.5,2c0,1.1-1,1.5-3,1.5c-1.6,0-3-0.2-4.7-0.7l-0.7,4h0.2
			l1,0.2c0.3,0.1,0.7,0.2,1.4,0.2c1.2,0.1,2.2,0.2,2.8,0.2c5.5,0,8.1-1.8,8.1-5.7c0-2.4-1.1-3.7-3.7-4.8c-2.2-0.8-2.4-1.1-2.4-1.9
			c0-0.9,0.9-1.4,2.5-1.4c1.1,0,2.4,0.1,3.8,0.2l0.7-3.9c-1.4-0.2-3.4-0.4-4.6-0.4C85,50.3,83,53,83.1,56.2L83.1,56.2z"/>
		<path class="st3" d="M62.6,67.9h-4.4l0.1-1.8c-1.3,1.4-3.1,2-5.5,2c-2.8,0-4.7-1.9-4.7-4.6c0-4.1,3.3-6.6,9.1-6.6
			c0.6,0,1.3,0,2.1,0.1c0.2-0.6,0.2-0.8,0.2-1.1c0-1.1-0.9-1.6-3.3-1.6c-1.5,0-3.1,0.2-4.2,0.5L51.3,55l-0.5,0.1l0.7-3.8
			c2.6-0.7,4.3-1,6.2-1c4.5,0,6.8,1.8,6.8,5c0,0.9-0.1,1.5-0.5,3.4l-1.1,6l-0.2,1.1l-0.2,0.9l-0.1,0.6v0.6
			C62.4,67.9,62.6,67.9,62.6,67.9z M59.1,60.3c-0.6-0.1-0.8-0.1-1.2-0.1c-2.9,0-4.4,0.9-4.4,2.6c0,1.1,0.7,1.7,1.9,1.7
			C57.4,64.5,59,62.8,59.1,60.3L59.1,60.3z"/>
		<path class="st3" d="M79.5,67.5c-1.7,0.5-3.4,0.7-5.3,0.7c-5.8,0-8.8-2.7-8.8-7.7c0-5.9,3.8-10.2,9-10.2c4.3,0,7,2.4,7,6.2
			c0,1.3-0.2,2.5-0.6,4.2H70.6c-0.1,0.3-0.1,0.4-0.1,0.6c0,2,1.5,3,4.6,3c1.9,0,3.5-0.3,5.4-1.1L79.5,67.5L79.5,67.5z M77,57.3
			c0-0.4,0-0.7,0-0.9c0-1.4-0.9-2.2-2.4-2.2c-1.6,0-2.8,1.1-3.3,3.1L77,57.3L77,57.3z"/>
		<path class="st3" d="M134.6,60.1c-0.7,5.7-4.7,8.2-10,8.2c-5.9,0-8.2-3.5-8.2-7.9c0-6,4-10.2,10.2-10.2c5.4,0,8.2,3.4,8.2,7.7
			C134.8,59,134.8,59.1,134.6,60.1L134.6,60.1z M129.4,58.1c0-1.8-0.7-3.5-2.8-3.5c-2.6,0-4.3,3.2-4.3,5.9c0,2.4,1.1,3.9,3,3.9
			c1.1,0,3.5-1.5,4-4.2C129.3,59.5,129.4,58.8,129.4,58.1L129.4,58.1z"/>
		<path class="st0" d="M135.2,65.3c0-0.7,0.7-1.3,1.4-1.3s1.3,0.6,1.3,1.3c0,0.7-0.6,1.4-1.3,1.4C135.8,66.7,135.2,66,135.2,65.3
			L135.2,65.3z M136.6,66.4c0.6,0,1-0.5,1-1.1s-0.4-1-1-1s-1.1,0.4-1.1,1S136,66.4,136.6,66.4L136.6,66.4z M136.4,65.9h-0.3v-1.1
			h0.5c0.2,0,0.2,0,0.3,0.1s0.2,0.2,0.2,0.2c0,0.2-0.1,0.3-0.2,0.3l0.2,0.5h-0.3l-0.2-0.4h-0.2V65.9L136.4,65.9z M136.4,65.2h0.2
			c0,0,0.1,0,0.2,0c0,0,0-0.1,0-0.2v-0.1c-0.1,0-0.2,0-0.2,0h-0.1L136.4,65.2C136.5,65.2,136.4,65.2,136.4,65.2z"/>
		<polygon class="st0" points="47.1,66.7 41.9,66.7 45,50.5 37.9,66.7 33.2,66.7 32.4,50.6 29.3,66.7 24.6,66.7 28.6,45.6 
			36.7,45.6 37.1,58.6 42.8,45.6 51.2,45.6 		"/>
		<path class="st0" d="M104.9,66.4c-1.5,0.4-2.5,0.6-3.7,0.6c-2.6,0-4.1-1.3-4.1-3.7c0-0.5,0.1-1,0.2-1.5l0.3-1.7l0.2-1.3l2.4-13.1
			h5.1l-0.7,3.9h2.7l-0.7,4.1h-2.7l-1.3,7.2c-0.1,0.3-0.2,0.6-0.2,0.7c0,0.9,0.6,1.3,1.8,1.3c0.6,0,1.1-0.1,1.4-0.2L104.9,66.4
			L104.9,66.4z"/>
		<path class="st3" d="M118.1,54.5l-0.1-0.6l1-2.7c-0.2,0-0.3,0-0.4-0.1c-0.2,0-0.4-0.1-0.4-0.1c-0.2,0-0.3,0-0.5,0
			c-1.7,0-2.9,0.7-4.6,2.8l0.6-3.1h-5.4l-3.1,17.2h5.1c0.7-4,1.1-6.2,1.5-8.1c0.7-3.1,2.9-4.5,4.6-4.1c0.2,0,0.3,0,0.6,0.1l0.3,0.2
			L118.1,54.5L118.1,54.5z"/>
		<path class="st0" d="M119.9,49.7c-0.4-0.2-0.5-0.2-0.6-0.2c-0.2-0.1-0.4-0.1-0.4-0.2c-0.2,0-0.3,0-0.6,0c-1.7,0-2.9,0.7-4.5,2.8
			l0.5-2.6h-4.7l-3.2,17.2h5.2c1.9-10.5,2.6-12.4,5.1-12.4c0.2,0,0.4,0.1,0.6,0.1l0.6,0.2L119.9,49.7L119.9,49.7z"/>
		<path class="st0" d="M84.4,55c0,2.1,1.2,3.7,4,4.7c2.1,0.9,2.4,1.1,2.4,2c0,1.1-1,1.5-3,1.5c-1.5,0-3-0.2-4.7-0.7l-0.7,4h0.2
			l0.9,0.2c0.3,0,0.8,0.1,1.4,0.1c1.2,0.2,2.2,0.2,2.9,0.2c5.5,0,8.1-1.8,8.1-5.7c0-2.4-1.1-3.7-3.7-4.8c-2.2-0.8-2.4-1.1-2.4-1.9
			c0-0.9,0.9-1.4,2.6-1.4c1,0,2.4,0.1,3.7,0.2l0.7-3.9c-1.4-0.2-3.4-0.3-4.6-0.3C86.4,49.2,84.4,51.8,84.4,55L84.4,55z"/>
		<path class="st0" d="M63.9,66.7h-4.2l0.1-1.8c-1.3,1.4-3.1,2-5.5,2c-2.8,0-4.7-1.9-4.7-4.6c0-4.1,3.3-6.6,9.1-6.6
			c0.6,0,1.3,0,2.1,0.1C61,55.2,61,55,61,54.7c0-1.1-0.9-1.5-3.3-1.5c-1.5,0-3.1,0.2-4.2,0.4l-0.7,0.2l-0.5,0.1l0.7-3.8
			c2.6-0.7,4.2-0.9,6.2-0.9c4.5,0,6.8,1.7,6.8,5c0,0.9-0.1,1.5-0.4,3.4l-1.1,6.1l-0.2,1.1l-0.2,0.9L64,66.3L63.9,66.7L63.9,66.7z
			 M60.1,59c-0.6-0.1-0.8-0.1-1.1-0.1c-2.9,0-4.4,0.9-4.4,2.6c0,1.1,0.7,1.8,1.8,1.8C58.5,63.3,60,61.6,60.1,59L60.1,59z"/>
		<path class="st0" d="M80.9,66.3c-1.8,0.5-3.5,0.7-5.3,0.7c-5.8,0-8.8-2.7-8.8-7.7c0-5.9,3.8-10.2,9-10.2c4.2,0,6.9,2.4,6.9,6.2
			c0,1.3-0.2,2.5-0.6,4.2H71.8c0,0.3,0,0.4,0,0.6c0,2,1.5,3,4.5,3c1.9,0,3.6-0.3,5.4-1.1L80.9,66.3L80.9,66.3z M78.1,56.1
			c0-0.3,0-0.7,0-0.9c0-1.4-0.9-2.2-2.4-2.2c-1.6,0-2.8,1.1-3.3,3.1L78.1,56.1L78.1,56.1z"/>
		<path class="st0" d="M136,58.9c-0.8,5.7-4.8,8.2-10.1,8.2c-5.8,0-8.1-3.5-8.1-7.9c0-6,4-10.2,10.2-10.2c5.4,0,8.2,3.4,8.2,7.7
			C136.2,57.8,136.2,57.9,136,58.9L136,58.9z M130.6,56.7c0-1.8-0.7-3.4-2.8-3.4c-2.6,0-4.2,3.1-4.2,5.9c0,2.3,1.1,3.8,2.9,3.8
			c1.1,0,3.6-1.5,4-4.1C130.6,58.1,130.6,57.4,130.6,56.7L130.6,56.7z"/>
	</g>
</g>
</svg>
