<?xml version="1.0" encoding="utf-8"?>
<!-- Generator: Adobe Illustrator 19.2.0, SVG Export Plug-In . SVG Version: 6.00 Build 0)  -->
<svg version="1.1" id="Livello_1" xmlns="http://www.w3.org/2000/svg" xmlns:xlink="http://www.w3.org/1999/xlink" x="0px" y="0px"
	 viewBox="0 0 159.8 109.2" style="enable-background:new 0 0 159.8 109.2;" xml:space="preserve">
<style type="text/css">
	.st0{fill:#F6E03E;}
	.st1{fill:#0057A0;}
</style>
<g id="Layer_1_copia_2_2_">
	<path class="st0" d="M143.9,105.8h-128c-6.6,0-12-5.4-12-12v-78c0-6.6,5.4-12,12-12h128c6.6,0,12,5.4,12,12v78
		C155.9,100.4,150.5,105.8,143.9,105.8z"/>
</g>
<g>
	<g>
		<path class="st1" d="M27.9,46.8c0.7-0.3,1.5-0.4,2.3-0.4c1.5,0,2.8,0.5,3.7,1.4c1,0.9,1.5,2.3,1.7,3.9c0.1,1.2,0,2.4-0.3,3.8
			c-0.3,1.3-0.8,2.5-1.4,3.5c-0.7,1.2-1.6,2.1-2.8,2.8c-0.9,0.6-2,0.9-3.1,1v-2.3c0.4-0.1,0.8-0.3,1.2-0.5c0.8-0.5,1.4-1.2,1.9-2.1
			c0.5-0.9,0.9-1.9,1.2-3s0.3-2.1,0.3-3.1c-0.1-1-0.5-1.9-1-2.5c-0.6-0.6-1.5-0.9-2.4-0.9c-0.4,0-0.8,0.1-1.2,0.2V46.8z M17.6,68.3
			l4-17.6c0.1-0.7,0.2-1.3,0.3-2c0.1-0.7,0.1-1.3,0.2-2h2.8L24.7,49c0.9-0.9,1.7-1.6,2.6-2c0.2-0.1,0.4-0.2,0.6-0.2v1.6
			c-0.4,0.1-0.8,0.3-1.2,0.6c-0.8,0.5-1.4,1.3-1.9,2.2c-0.5,0.9-0.9,2-1.2,3.3c-0.3,1.3-0.3,2.3-0.3,3.1c0.1,0.9,0.4,1.6,1,2.2
			c0.6,0.5,1.3,0.8,2.3,0.8c0.5,0,0.9-0.1,1.3-0.2v2.3c-0.2,0-0.3,0-0.5,0c-1.1,0-2-0.2-2.8-0.6c-0.8-0.4-1.5-1-2-1.9l-1.9,8.1H17.6
			z"/>
		<path class="st1" d="M102.3,49.1c-0.3,0-0.6,0.1-1,0.1V47c0.2-0.1,0.3-0.1,0.4-0.2c0.8-0.4,1.7-0.6,2.7-0.6c1.5,0,2.7,0.5,3.6,1.3
			c0.9,0.9,1.4,2.1,1.5,3.8c0.3,3.1-0.3,5.8-1.8,8c-1.5,2.2-3.4,3.3-5.9,3.3c-0.2,0-0.4-0.1-0.6-0.1v-3c0.3-0.1,0.7-0.2,1-0.5
			c0.5-0.4,0.9-1,1.3-1.8c0.4-0.9,0.8-1.9,1-2.9c0.2-1,0.3-1.9,0.2-2.7c-0.1-0.9-0.3-1.5-0.8-1.9C103.7,49.4,103.1,49.1,102.3,49.1z
			 M101.4,49.3c-0.9,0.3-1.7,1-2.4,2.1c-0.9,1.6-1.3,3.3-1.1,5.2c0.1,1,0.3,1.7,0.9,2.3c0.5,0.5,1.1,0.8,1.9,0.8
			c0.2,0,0.5-0.1,0.7-0.1v3c-0.9-0.1-1.6-0.3-2.3-0.6c-0.8-0.4-1.5-1.1-1.9-2l-1.9,8.3h-4.8l3.7-16.8c0.5-2.1,0.8-3.8,0.9-4.8h4.4
			l-0.1,1.9c0.7-0.6,1.3-1.2,2-1.6V49.3z"/>
		<path class="st1" d="M120.5,54.9c-0.1-0.1-0.2-0.1-0.3-0.1c-0.2,0-0.3,0-0.5,0c-0.8,0-1.5,0.1-2,0.2v-2.6c0.6-0.1,1.4-0.1,2.1-0.1
			c0.3,0,0.6,0,0.8,0s0.3,0,0.5,0c0.1-0.6,0.2-1,0.2-1.3c0.1-0.3,0.1-0.5,0.1-0.8c-0.1-0.5-0.2-0.8-0.6-1c-0.3-0.2-0.8-0.3-1.3-0.3
			c-0.7,0-1.2,0.2-1.6,0.5c-0.1,0.1-0.2,0.2-0.3,0.3v-3.3c0.6-0.1,1.2-0.1,1.9-0.1c2,0,3.5,0.3,4.6,1c1,0.7,1.6,1.7,1.7,3
			c0.1,0.4,0.1,0.8,0,1.3c-0.1,0.4-0.2,0.9-0.3,1.5l-1.2,5.3c-0.2,0.6-0.2,1.3-0.3,2c-0.1,0.7-0.1,1.3-0.1,2h-4.4c0-0.3,0-0.7,0-1.1
			c0-0.4,0.1-0.8,0.1-1.2c-0.6,0.8-1.3,1.5-2,1.8v-2.4c0.5-0.2,0.9-0.6,1.4-1.1C119.7,57.6,120.2,56.3,120.5,54.9z M117.6,55.1
			c-0.6,0.2-1.2,0.4-1.6,0.8c-1,0.6-1.4,1.5-1.3,2.4c0,0.5,0.2,0.9,0.5,1.2c0.3,0.3,0.7,0.4,1.2,0.4c0.4,0,0.8-0.1,1.2-0.2V62
			l-0.1,0.1c-0.8,0.4-1.6,0.6-2.6,0.6c-1.4,0-2.5-0.4-3.4-1.2c-0.9-0.8-1.3-1.7-1.5-3c-0.2-2,0.6-3.5,2.2-4.5c1.3-0.8,3-1.3,5.3-1.5
			V55.1L117.6,55.1z M117.6,46.5v3.3c-0.2,0.3-0.3,0.7-0.5,1.2h-4.6c0.1-1.5,0.8-2.6,2-3.4C115.4,47.1,116.3,46.7,117.6,46.5z"/>
		<polygon class="st1" points="126.6,68.2 130.4,62.4 127.7,46.5 132.4,46.5 133.8,57.4 139.9,46.5 144.4,46.5 134.6,63.1 
			131.7,68.2 		"/>
		<path class="st1" d="M44.6,48.2c-0.4,0-0.8,0.1-1.2,0.2v-2c0.5-0.1,1-0.1,1.5-0.1c1.9,0,3.3,0.5,4.4,1.3c1.2,0.9,1.7,2.2,1.9,3.8
			c0.1,1.3,0,2.7-0.4,4.1c-0.3,1.5-0.9,2.7-1.6,3.8c-0.8,1.2-1.7,2.1-2.9,2.6c-0.8,0.4-1.8,0.6-3,0.8v-2c0.5-0.1,0.9-0.3,1.3-0.5
			c0.7-0.4,1.3-1,1.8-1.9c0.6-1,1-2.1,1.3-3.3c0.3-1.3,0.4-2.3,0.3-3.3c-0.1-1.2-0.5-2.1-1-2.6C46.6,48.4,45.7,48.2,44.6,48.2z
			 M43.5,48.3c-0.4,0.1-0.9,0.3-1.3,0.5c-0.7,0.5-1.3,1.2-1.9,2.1c-0.5,0.9-0.9,1.9-1.2,3.2c-0.3,1.3-0.3,2.4-0.3,3.3
			c0.1,1,0.5,1.8,1,2.4c0.6,0.6,1.5,0.9,2.5,0.9c0.4,0,0.8-0.1,1.1-0.1v2c-0.4,0-0.9,0.1-1.3,0.1c-1.9,0-3.4-0.5-4.5-1.5
			c-1.2-0.9-1.8-2.3-1.9-3.9c-0.1-1.4,0-2.8,0.5-4.3c0.4-1.5,1-2.8,1.8-3.9c0.8-1,1.7-1.7,2.8-2.2c0.8-0.3,1.7-0.5,2.6-0.6V48.3z"/>
		<path class="st1" d="M54.5,57.3c-0.1,0.3-0.2,0.5-0.2,0.8c-0.1,0.2-0.1,0.4,0,0.6c0.1,0.6,0.3,1.1,0.8,1.4c0.5,0.3,1.1,0.5,2,0.5
			c1.2,0,2.1-0.2,2.8-0.7c0.7-0.5,1-1.2,0.9-1.9c0-0.5-0.2-0.9-0.6-1.2c-0.4-0.3-1.2-0.8-2.5-1.4c-1.6-0.8-2.8-1.5-3.4-2.1
			c-0.7-0.6-1-1.3-1.1-2.1c-0.1-1.4,0.4-2.5,1.5-3.4c1.2-0.9,2.7-1.3,4.7-1.3c1.8,0,3.1,0.3,4,0.8c0.9,0.5,1.4,1.3,1.5,2.4
			c0,0.2,0,0.3,0,0.6c0,0.2,0,0.5-0.1,0.9h-2.8c0-0.2,0-0.3,0-0.5c0-0.1,0-0.3,0-0.4c-0.1-0.6-0.3-1-0.8-1.3c-0.4-0.3-1-0.5-1.9-0.5
			c-1,0-1.7,0.2-2.3,0.6c-0.6,0.4-0.8,1-0.8,1.7c0.1,0.4,0.2,0.8,0.6,1.1c0.3,0.3,1.2,0.8,2.6,1.5c1.9,0.9,3.1,1.6,3.7,2.2
			s0.9,1.3,0.9,2.2c0.1,1.5-0.5,2.7-1.9,3.7c-1.3,1-3.1,1.5-5.3,1.5c-1.7,0-3.1-0.3-4.1-0.9c-1-0.6-1.5-1.5-1.6-2.7
			c-0.1-0.2-0.1-0.5,0-0.9c0.1-0.3,0.1-0.6,0.2-1H54.5z"/>
		<path class="st1" d="M73.6,62.5c-0.6,0.1-1.1,0.1-1.6,0.2c-0.5,0-0.9,0.1-1.3,0.1c-1.2,0-2-0.2-2.6-0.6c-0.6-0.3-0.9-1-0.9-1.9
			c-0.1-0.3,0-0.8,0.1-1.5c0.1-0.7,0.2-1.4,0.3-2.1l1.8-7.9h-2.9l0.5-2h2.8l0.8-3.6l3.1-0.8l-0.9,4.4h3.4l-0.5,2h-3.4L70.6,57
			c-0.2,0.6-0.3,1.1-0.3,1.4c-0.1,0.3-0.1,0.6-0.1,0.8c0,0.5,0.2,0.8,0.5,0.9c0.3,0.2,0.8,0.3,1.5,0.3c0.2,0,0.6-0.1,0.9-0.1
			c0.3,0,0.6-0.1,0.9-0.2L73.6,62.5z"/>
		<path class="st1" d="M83.7,52.7h3.9c0.1-0.5,0.1-0.9,0.1-1.2c0.1-0.3,0.1-0.5,0-0.8c-0.1-0.9-0.4-1.5-1-2
			c-0.6-0.5-1.5-0.8-2.5-0.8c-0.2,0-0.4,0.1-0.6,0.1v-1.9c0.2,0,0.4,0,0.6,0c2,0,3.6,0.4,4.6,1.2c1,0.8,1.6,2,1.7,3.7
			c0.1,0.6,0.1,1.2,0,1.9c0,0.6-0.1,1.3-0.3,2h-6.7V52.7L83.7,52.7z M83.7,62.6v-2.4c0.3-0.1,0.7-0.3,1-0.5c0.7-0.5,1.2-1.2,1.5-2
			h3.4c-0.4,1.6-1.3,2.8-2.6,3.7C86,62,84.9,62.4,83.7,62.6z M79.6,52.7h4.1v2.1h-4.6c-0.2,0.5-0.2,0.9-0.3,1.3
			c-0.1,0.4-0.1,0.8-0.1,1.2c0.1,1,0.5,1.7,1,2.3c0.6,0.5,1.5,0.8,2.6,0.8c0.5,0,0.9-0.1,1.3-0.2v2.4c-0.5,0.1-1.1,0.1-1.7,0.1
			c-1.9,0-3.3-0.5-4.4-1.3c-1-0.9-1.7-2.1-1.8-3.8c-0.1-1.2,0-2.6,0.4-4.2c0.3-1.5,0.9-2.8,1.6-3.9c0.7-1,1.6-1.9,2.7-2.4
			c0.9-0.5,2-0.8,3.2-0.9v1.9c-0.9,0.1-1.7,0.5-2.4,1.2C80.5,50,79.9,51.2,79.6,52.7z"/>
	</g>
</g>
</svg>
