<?xml version="1.0" encoding="utf-8"?>
<!-- Generator: Adobe Illustrator 19.2.1, SVG Export Plug-In . SVG Version: 6.00 Build 0)  -->
<svg version="1.1" id="Livello_1" xmlns="http://www.w3.org/2000/svg" xmlns:xlink="http://www.w3.org/1999/xlink" x="0px" y="0px"
	 viewBox="0 0 159.8 109.2" style="enable-background:new 0 0 159.8 109.2;" xml:space="preserve">
<style type="text/css">
	.st0{fill:#FFFFFF;}
	.st1{fill:#2D3C91;}
	.st2{fill:#F69731;}
</style>
<g id="Layer_1_copia_2">
	<path class="st0" d="M143.9,105.6h-128c-6.6,0-12-5.4-12-12v-78c0-6.6,5.4-12,12-12h128c6.6,0,12,5.4,12,12v78
		C155.9,100.2,150.5,105.6,143.9,105.6z"/>
	<g id="g10" transform="matrix(1.25,0,0,-1.25,-74.19125,149.0417)">
		<g id="g4163" transform="matrix(0.6384875,0,0,0.6384875,24.348951,24.07854)">
			<g id="g12" transform="translate(143.448,67.609)">
				<path id="path14" class="st1" d="M-16-12.8l8.5,52.6H6l-8.5-52.6L-16-12.8"/>
			</g>
			<g id="g16" transform="translate(224.353,133.66)">
				<path id="path18" class="st1" d="M-34.1-27.6c-2.7,1.1-6.9,2.2-12.2,2.2c-13.4,0-22.9-7.1-22.9-17.3
					c-0.1-7.6,6.7-11.8,11.9-14.3c5.3-2.6,7.1-4.2,7-6.5c0-3.5-4.2-5.1-8.1-5.1c-5.4,0-8.3,0.8-12.8,2.8l-1.7,0.8l-1.9-11.8
					c3.2-1.5,9-2.7,15.1-2.8c14.3,0,23.5,7,23.6,17.9c0,6-3.6,10.5-11.4,14.3c-4.7,2.4-7.7,4.1-7.6,6.5c0,2.2,2.5,4.5,7.8,4.5
					c4.4,0.1,7.7-1,10.2-2l1.2-0.6L-34.1-27.6"/>
			</g>
			<g id="g20" transform="translate(247.634,91.616)">
				<path id="path22" class="st1" d="M-39.3-18.2c1.1,3,5.4,14.7,5.4,14.7c-0.1-0.1,1.1,3,1.8,5l0.9-4.5c0,0,2.6-12.5,3.1-15.2
					C-30.2-18.2-36.7-18.2-39.3-18.2z M-22.6,15.6h-10.5c-3.3,0-5.7-0.9-7.1-4.4L-60.4-37h14.3c0,0,2.3,6.5,2.9,7.9
					c1.6,0,15.4,0,17.4,0c0.4-1.8,1.7-7.9,1.7-7.9h12.6L-22.6,15.6"/>
			</g>
			<g id="g24" transform="translate(128.78,135.265)">
				<path id="path26" class="st1" d="M-12.7-28L-26-63.8l-1.4,7.3c-2.5,8.4-10.2,17.5-18.8,22l12.2-46h14.4L1.8-28H-12.7"/>
			</g>
			<g id="g28" transform="translate(95.781,135.311)">
				<path id="path30" class="st2" d="M-5.3-28h-21.9l-0.2-1.1c17-4.4,28.3-14.9,33-27.5L0.8-32.5C0-29.1-2.4-28.1-5.3-28"/>
			</g>
			<g id="g32" transform="translate(288.329,72.034)">
				<path id="path34" class="st1" d="M-48.5-13.8h0.6c0.5,0,0.5,0.3,0.5,0.5c0,0.4-0.2,0.5-0.6,0.5h-0.6L-48.5-13.8L-48.5-13.8z
					 M-49-12.5h1.3c0.3,0,1-0.1,1-0.9c0-0.2-0.1-0.5-0.5-0.7l0,0c0.4-0.1,0.4-0.4,0.4-0.7c0-0.5,0-0.5,0.1-0.7h-0.6
					c-0.1,0.1-0.1,0.2-0.1,0.7c0,0.3,0,0.6-0.7,0.6h-0.5v-1.2H-49C-49-15.5-49-12.5-49-12.5z M-47.9-16.6c1.4,0,2.4,1.1,2.4,2.5
					s-1.1,2.5-2.4,2.5c-1.4,0-2.4-1.1-2.4-2.5C-50.3-15.4-49.3-16.6-47.9-16.6z M-47.9-11c1.7,0,3-1.3,3-3s-1.3-3-3-3
					c-1.7,0-3,1.3-3,3C-50.9-12.4-49.6-11-47.9-11"/>
			</g>
		</g>
	</g>
</g>
</svg>
